  0
SECTION
  2
HEADER
  9
$ACADVER
  1
AC1014
  9
$HANDSEED
  5
FFFF
  9
$MEASUREMENT
 70
     1
  0
ENDSEC
  0
SECTION
  2
TABLES
  0
TABLE
  2
VPORT
  5
8
330
0
100
AcDbSymbolTable
 70
     4
  0
VPORT
  5
2E
330
8
100
AcDbSymbolTableRecord
100
AcDbViewportTableRecord
  2
*ACTIVE
 70
     0
 10
0.0
 20
0.0
 11
1.0
 21
1.0
 12
210.0
 22
148.5
 13
0.0
 23
0.0
 14
10.0
 24
10.0
 15
10.0
 25
10.0
 16
0.0
 26
0.0
 36
1.0
 17
0.0
 27
0.0
 37
0.0
 40
341.0
 41
1.24
 42
50.0
 43
0.0
 44
0.0
 50
0.0
 51
0.0
 71
     0
 72
   100
 73
     1
 74
     3
 75
     0
 76
     0
 77
     0
 78
     0
  0
ENDTAB
  0
TABLE
  2
LTYPE
  5
5
330
0
100
AcDbSymbolTable
 70
     1
  0
LTYPE
  5
14
330
5
100
AcDbSymbolTableRecord
100
AcDbLinetypeTableRecord
  2
BYBLOCK
 70
     0
  3

 72
    65
 73
     0
 40
0.0
  0
LTYPE
  5
15
330
5
100
AcDbSymbolTableRecord
100
AcDbLinetypeTableRecord
  2
BYLAYER
 70
     0
  3

 72
    65
 73
     0
 40
0.0
  0
LTYPE
  5
16
330
5
100
AcDbSymbolTableRecord
100
AcDbLinetypeTableRecord
  2
CONTINUOUS
 70
     0
  3
Solid line
 72
    65
 73
     0
 40
0.0
  0
ENDTAB
  0
TABLE
  2
LAYER
  5
2
100
AcDbSymbolTable
 70
3
  0
LAYER
  5
50
100
AcDbSymbolTableRecord
100
AcDbLayerTableRecord
  2
0
 70
0
  6
CONTINUOUS
  0
LAYER
  5
51
100
AcDbSymbolTableRecord
100
AcDbLayerTableRecord
  2
Layer_2
 70
0
  6
CONTINUOUS
  0
LAYER
  5
52
100
AcDbSymbolTableRecord
100
AcDbLayerTableRecord
  2
Layer_1
 70
0
  6
CONTINUOUS
  0
ENDTAB
  0
TABLE
  2
STYLE
  5
3
330
0
100
AcDbSymbolTable
 70
     1
  0
STYLE
  5
11
330
3
100
AcDbSymbolTableRecord
100
AcDbTextStyleTableRecord
  2
STANDARD
 70
     0
 40
0.0
 41
1.0
 50
0.0
 71
     0
 42
2.5
  3
txt
  4

  0
ENDTAB
  0
TABLE
  2
VIEW
  5
6
330
0
100
AcDbSymbolTable
 70
     0
  0
ENDTAB
  0
TABLE
  2
UCS
  5
7
330
0
100
AcDbSymbolTable
 70
     0
  0
ENDTAB
  0
TABLE
  2
APPID
  5
9
330
0
100
AcDbSymbolTable
 70
     2
  0
APPID
  5
12
330
9
100
AcDbSymbolTableRecord
100
AcDbRegAppTableRecord
  2
ACAD
 70
     0
  0
ENDTAB
  0
TABLE
  2
DIMSTYLE
  5
A
330
0
100
AcDbSymbolTable
 70
     1
  0
DIMSTYLE
105
27
330
A
100
AcDbSymbolTableRecord
100
AcDbDimStyleTableRecord
  2
ISO-25
 70
     0
  3

  4

  5

  6

  7

 40
1.0
 41
2.5
 42
0.625
 43
3.75
 44
1.25
 45
0.0
 46
0.0
 47
0.0
 48
0.0
140
2.5
141
2.5
142
0.0
143
0.03937007874016
144
1.0
145
0.0
146
1.0
147
0.625
 71
     0
 72
     0
 73
     0
 74
     0
 75
     0
 76
     0
 77
     1
 78
     8
170
     0
171
     3
172
     1
173
     0
174
     0
175
     0
176
     0
177
     0
178
     0
270
     2
271
     2
272
     2
273
     2
274
     3
340
11
275
     0
280
     0
281
     0
282
     0
283
     0
284
     8
285
     0
286
     0
287
     3
288
     0
  0
ENDTAB
  0
TABLE
  2
BLOCK_RECORD
  5
1
330
0
100
AcDbSymbolTable
 70
     1
  0
BLOCK_RECORD
  5
1F
330
1
100
AcDbSymbolTableRecord
100
AcDbBlockTableRecord
  2
*MODEL_SPACE
  0
BLOCK_RECORD
  5
1B
330
1
100
AcDbSymbolTableRecord
100
AcDbBlockTableRecord
  2
*PAPER_SPACE
  0
ENDTAB
  0
ENDSEC
  0
SECTION
  2
BLOCKS
  0
BLOCK
  5
20
330
1F
100
AcDbEntity
  8
0
100
AcDbBlockBegin
  2
*MODEL_SPACE
 70
     0
 10
0.0
 20
0.0
 30
0.0
  3
*MODEL_SPACE
  1

  0
ENDBLK
  5
21
330
1F
100
AcDbEntity
  8
0
100
AcDbBlockEnd
  0
BLOCK
  5
1C
330
1B
100
AcDbEntity
 67
     1
  8
0
100
AcDbBlockBegin
  2
*PAPER_SPACE
  1

  0
ENDBLK
  5
1D
330
1B
100
AcDbEntity
 67
     1
  8
0
100
AcDbBlockEnd
  0
ENDSEC
  0
SECTION
  2
ENTITIES
  0
LWPOLYLINE
  5
100
100
AcDbEntity
  8
Layer_2
 62
1
100
AcDbPolyline
 90
3
 70
0
 10
1.100804
 20
6.387084
 30
0.0
 10
1.974458
 20
6.387084
 30
0.0
 10
1.974458
 20
6.387084
 30
0.0
  0
LWPOLYLINE
  5
101
100
AcDbEntity
  8
Layer_2
 62
1
100
AcDbPolyline
 90
3
 70
0
 10
1.132605
 20
6.333418
 30
0.0
 10
2.006260
 20
6.333418
 30
0.0
 10
2.006260
 20
6.333418
 30
0.0
  0
LWPOLYLINE
  5
102
100
AcDbEntity
  8
Layer_2
 62
1
100
AcDbPolyline
 90
3
 70
0
 10
1.122290
 20
6.449522
 30
0.0
 10
1.276795
 20
6.295100
 30
0.0
 10
1.276795
 20
6.295100
 30
0.0
  0
LWPOLYLINE
  5
103
100
AcDbEntity
  8
Layer_2
 62
1
100
AcDbPolyline
 90
3
 70
0
 10
1.492621
 20
6.444749
 30
0.0
 10
1.647126
 20
6.290327
 30
0.0
 10
1.647126
 20
6.290327
 30
0.0
  0
LWPOLYLINE
  5
104
100
AcDbEntity
  8
Layer_1
 62
7
100
AcDbPolyline
 90
4
 70
1
 10
1.199471
 20
6.396464
 30
0.0
 10
1.136466
 20
6.396464
 30
0.0
 10
1.156950
 20
6.416948
 30
0.0
 10
1.178987
 20
6.416948
 30
0.0
  0
LWPOLYLINE
  5
105
100
AcDbEntity
  8
Layer_1
 62
7
100
AcDbPolyline
 90
7
 70
1
 10
1.136592
 20
6.392351
 30
0.0
 10
1.155816
 20
6.392351
 30
0.0
 10
1.172229
 20
6.375939
 30
0.0
 10
1.207782
 20
6.375939
 30
0.0
 10
1.187088
 20
6.355245
 30
0.0
 10
1.157327
 20
6.355245
 30
0.0
 10
1.136550
 20
6.376022
 30
0.0
  0
LWPOLYLINE
  5
106
100
AcDbEntity
  8
Layer_1
 62
7
100
AcDbPolyline
 90
17
 70
1
 10
1.229141
 20
6.387797
 30
0.0
 10
1.237592
 20
6.396332
 30
0.0
 10
1.237592
 20
6.401062
 30
0.0
 10
1.228721
 20
6.409960
 30
0.0
 10
1.204040
 20
6.409932
 30
0.0
 10
1.214758
 20
6.420706
 30
0.0
 10
1.237620
 20
6.420706
 30
0.0
 10
1.251276
 20
6.407050
 30
0.0
 10
1.251359
 20
6.393394
 30
0.0
 10
1.237452
 20
6.379570
 30
0.0
 10
1.215065
 20
6.379570
 30
0.0
 10
1.201157
 20
6.393422
 30
0.0
 10
1.201157
 20
6.407050
 30
0.0
 10
1.221250
 20
6.407022
 30
0.0
 10
1.215289
 20
6.401061
 30
0.0
 10
1.215289
 20
6.396332
 30
0.0
 10
1.223796
 20
6.387797
 30
0.0
  0
LWPOLYLINE
  5
107
100
AcDbEntity
  8
Layer_1
 62
7
100
AcDbPolyline
 90
4
 70
1
 10
1.256341
 20
6.420706
 30
0.0
 10
1.270501
 20
6.406546
 30
0.0
 10
1.270501
 20
6.379570
 30
0.0
 10
1.256341
 20
6.379570
 30
0.0
  0
LWPOLYLINE
  5
108
100
AcDbEntity
  8
Layer_1
 62
7
100
AcDbPolyline
 90
12
 70
1
 10
1.292244
 20
6.420706
 30
0.0
 10
1.306404
 20
6.406546
 30
0.0
 10
1.306404
 20
6.379570
 30
0.0
 10
1.292244
 20
6.379570
 30
0.0
 10
1.292244
 20
6.389952
 30
0.0
 10
1.281890
 20
6.379570
 30
0.0
 10
1.279624
 20
6.379570
 30
0.0
 10
1.272935
 20
6.386230
 30
0.0
 10
1.272935
 20
6.404308
 30
0.0
 10
1.278308
 20
6.398907
 30
0.0
 10
1.283905
 20
6.398935
 30
0.0
 10
1.292244
 20
6.407274
 30
0.0
  0
LWPOLYLINE
  5
109
100
AcDbEntity
  8
Layer_1
 62
7
100
AcDbPolyline
 90
4
 70
1
 10
1.311413
 20
6.420706
 30
0.0
 10
1.325573
 20
6.406546
 30
0.0
 10
1.325573
 20
6.379570
 30
0.0
 10
1.311413
 20
6.379570
 30
0.0
  0
LWPOLYLINE
  5
10a
100
AcDbEntity
  8
Layer_1
 62
7
100
AcDbPolyline
 90
12
 70
1
 10
1.347316
 20
6.420706
 30
0.0
 10
1.361476
 20
6.406546
 30
0.0
 10
1.361476
 20
6.379570
 30
0.0
 10
1.347316
 20
6.379570
 30
0.0
 10
1.347316
 20
6.389952
 30
0.0
 10
1.336962
 20
6.379570
 30
0.0
 10
1.334695
 20
6.379570
 30
0.0
 10
1.328007
 20
6.386230
 30
0.0
 10
1.328007
 20
6.404308
 30
0.0
 10
1.333380
 20
6.398907
 30
0.0
 10
1.338977
 20
6.398935
 30
0.0
 10
1.347316
 20
6.407274
 30
0.0
  0
LWPOLYLINE
  5
10b
100
AcDbEntity
  8
Layer_1
 62
7
100
AcDbPolyline
 90
17
 70
1
 10
1.394468
 20
6.387797
 30
0.0
 10
1.402919
 20
6.396332
 30
0.0
 10
1.402919
 20
6.401062
 30
0.0
 10
1.394049
 20
6.409960
 30
0.0
 10
1.369367
 20
6.409932
 30
0.0
 10
1.380085
 20
6.420706
 30
0.0
 10
1.402947
 20
6.420706
 30
0.0
 10
1.416603
 20
6.407050
 30
0.0
 10
1.416687
 20
6.393394
 30
0.0
 10
1.402779
 20
6.379570
 30
0.0
 10
1.380393
 20
6.379570
 30
0.0
 10
1.366485
 20
6.393422
 30
0.0
 10
1.366485
 20
6.407050
 30
0.0
 10
1.386577
 20
6.407022
 30
0.0
 10
1.380616
 20
6.401061
 30
0.0
 10
1.380616
 20
6.396332
 30
0.0
 10
1.389123
 20
6.387797
 30
0.0
  0
LWPOLYLINE
  5
10c
100
AcDbEntity
  8
Layer_1
 62
7
100
AcDbPolyline
 90
4
 70
1
 10
1.421668
 20
6.420706
 30
0.0
 10
1.435828
 20
6.406574
 30
0.0
 10
1.435828
 20
6.379570
 30
0.0
 10
1.421668
 20
6.379570
 30
0.0
  0
LWPOLYLINE
  5
10d
100
AcDbEntity
  8
Layer_1
 62
7
100
AcDbPolyline
 90
8
 70
1
 10
1.438263
 20
6.407050
 30
0.0
 10
1.451947
 20
6.393394
 30
0.0
 10
1.454913
 20
6.393394
 30
0.0
 10
1.454913
 20
6.420706
 30
0.0
 10
1.469101
 20
6.406574
 30
0.0
 10
1.469101
 20
6.379570
 30
0.0
 10
1.452059
 20
6.379570
 30
0.0
 10
1.438263
 20
6.393394
 30
0.0
  0
LWPOLYLINE
  5
10e
100
AcDbEntity
  8
Layer_1
 62
7
100
AcDbPolyline
 90
4
 70
1
 10
1.538174
 20
6.396628
 30
0.0
 10
1.472021
 20
6.396628
 30
0.0
 10
1.492505
 20
6.417112
 30
0.0
 10
1.517648
 20
6.417112
 30
0.0
  0
LWPOLYLINE
  5
10f
100
AcDbEntity
  8
Layer_1
 62
7
100
AcDbPolyline
 90
9
 70
1
 10
1.535403
 20
6.373919
 30
0.0
 10
1.516892
 20
6.355408
 30
0.0
 10
1.492672
 20
6.355408
 30
0.0
 10
1.472021
 20
6.376144
 30
0.0
 10
1.496996
 20
6.376144
 30
0.0
 10
1.496913
 20
6.379376
 30
0.0
 10
1.483942
 20
6.392472
 30
0.0
 10
1.519076
 20
6.392515
 30
0.0
 10
1.535362
 20
6.376103
 30
0.0
  0
LWPOLYLINE
  5
110
100
AcDbEntity
  8
Layer_1
 62
7
100
AcDbPolyline
 90
6
 70
1
 10
1.545109
 20
6.396668
 30
0.0
 10
1.559269
 20
6.396668
 30
0.0
 10
1.559269
 20
6.366362
 30
0.0
 10
1.578298
 20
6.366362
 30
0.0
 10
1.589156
 20
6.355532
 30
0.0
 10
1.545109
 20
6.355532
 30
0.0
  0
LWPOLYLINE
  5
111
100
AcDbEntity
  8
Layer_1
 62
7
100
AcDbPolyline
 90
4
 70
1
 10
1.561704
 20
6.380270
 30
0.0
 10
1.572589
 20
6.380270
 30
0.0
 10
1.583587
 20
6.369356
 30
0.0
 10
1.561704
 20
6.369356
 30
0.0
  0
LWPOLYLINE
  5
112
100
AcDbEntity
  8
Layer_1
 62
7
100
AcDbPolyline
 90
4
 70
1
 10
1.561704
 20
6.396668
 30
0.0
 10
1.567300
 20
6.396668
 30
0.0
 10
1.580984
 20
6.383012
 30
0.0
 10
1.561704
 20
6.383012
 30
0.0
  0
LWPOLYLINE
  5
113
100
AcDbEntity
  8
Layer_1
 62
7
100
AcDbPolyline
 90
4
 70
1
 10
1.594249
 20
6.396668
 30
0.0
 10
1.608408
 20
6.382536
 30
0.0
 10
1.608408
 20
6.355532
 30
0.0
 10
1.594249
 20
6.355532
 30
0.0
  0
LWPOLYLINE
  5
114
100
AcDbEntity
  8
Layer_1
 62
7
100
AcDbPolyline
 90
8
 70
1
 10
1.610843
 20
6.383012
 30
0.0
 10
1.624527
 20
6.369356
 30
0.0
 10
1.627493
 20
6.369356
 30
0.0
 10
1.627493
 20
6.396668
 30
0.0
 10
1.641681
 20
6.382536
 30
0.0
 10
1.641681
 20
6.355532
 30
0.0
 10
1.624639
 20
6.355532
 30
0.0
 10
1.610843
 20
6.369356
 30
0.0
  0
LWPOLYLINE
  5
115
100
AcDbEntity
  8
Layer_1
 62
7
100
AcDbPolyline
 90
4
 70
1
 10
1.691072
 20
6.383012
 30
0.0
 10
1.646970
 20
6.383012
 30
0.0
 10
1.660626
 20
6.396668
 30
0.0
 10
1.677388
 20
6.396668
 30
0.0
  0
LWPOLYLINE
  5
116
100
AcDbEntity
  8
Layer_1
 62
7
100
AcDbPolyline
 90
9
 70
1
 10
1.689225
 20
6.367873
 30
0.0
 10
1.676884
 20
6.355532
 30
0.0
 10
1.660738
 20
6.355532
 30
0.0
 10
1.646970
 20
6.369356
 30
0.0
 10
1.663620
 20
6.369356
 30
0.0
 10
1.663563
 20
6.371511
 30
0.0
 10
1.654916
 20
6.380242
 30
0.0
 10
1.678338
 20
6.380270
 30
0.0
 10
1.689196
 20
6.369328
 30
0.0
  0
LWPOLYLINE
  5
117
100
AcDbEntity
  8
Layer_1
 62
7
100
AcDbPolyline
 90
6
 70
1
 10
1.696445
 20
6.396668
 30
0.0
 10
1.710604
 20
6.396668
 30
0.0
 10
1.710604
 20
6.366362
 30
0.0
 10
1.729633
 20
6.366362
 30
0.0
 10
1.740491
 20
6.355532
 30
0.0
 10
1.696445
 20
6.355532
 30
0.0
  0
LWPOLYLINE
  5
118
100
AcDbEntity
  8
Layer_1
 62
7
100
AcDbPolyline
 90
4
 70
1
 10
1.713039
 20
6.380270
 30
0.0
 10
1.723925
 20
6.380270
 30
0.0
 10
1.734922
 20
6.369356
 30
0.0
 10
1.713039
 20
6.369356
 30
0.0
  0
LWPOLYLINE
  5
119
100
AcDbEntity
  8
Layer_1
 62
7
100
AcDbPolyline
 90
4
 70
1
 10
1.713039
 20
6.396668
 30
0.0
 10
1.718636
 20
6.396668
 30
0.0
 10
1.732320
 20
6.383012
 30
0.0
 10
1.713039
 20
6.383012
 30
0.0
  0
ENDSEC
  0
SECTION
  2
OBJECTS
  0
DICTIONARY
  5
C
330
0
100
AcDbDictionary
  3
ACAD_GROUP
350
D
  3
ACAD_MLINESTYLE
350
17
  0
DICTIONARY
  5
D
330
C
100
AcDbDictionary
  0
DICTIONARY
  5
1A
330
C
100
AcDbDictionary
  0
DICTIONARY
  5
17
330
C
100
AcDbDictionary
  3
STANDARD
350
18
  0
DICTIONARY
  5
19
330
C
100
AcDbDictionary
  0
ENDSEC
  0
EOF
