  0
SECTION
  2
HEADER
  9
$ACADVER
  1
AC1014
  9
$HANDSEED
  5
FFFF
  9
$MEASUREMENT
 70
     1
  0
ENDSEC
  0
SECTION
  2
TABLES
  0
TABLE
  2
VPORT
  5
8
330
0
100
AcDbSymbolTable
 70
     4
  0
VPORT
  5
2E
330
8
100
AcDbSymbolTableRecord
100
AcDbViewportTableRecord
  2
*ACTIVE
 70
     0
 10
0.0
 20
0.0
 11
1.0
 21
1.0
 12
210.0
 22
148.5
 13
0.0
 23
0.0
 14
10.0
 24
10.0
 15
10.0
 25
10.0
 16
0.0
 26
0.0
 36
1.0
 17
0.0
 27
0.0
 37
0.0
 40
341.0
 41
1.24
 42
50.0
 43
0.0
 44
0.0
 50
0.0
 51
0.0
 71
     0
 72
   100
 73
     1
 74
     3
 75
     0
 76
     0
 77
     0
 78
     0
  0
ENDTAB
  0
TABLE
  2
LTYPE
  5
5
330
0
100
AcDbSymbolTable
 70
     1
  0
LTYPE
  5
14
330
5
100
AcDbSymbolTableRecord
100
AcDbLinetypeTableRecord
  2
BYBLOCK
 70
     0
  3

 72
    65
 73
     0
 40
0.0
  0
LTYPE
  5
15
330
5
100
AcDbSymbolTableRecord
100
AcDbLinetypeTableRecord
  2
BYLAYER
 70
     0
  3

 72
    65
 73
     0
 40
0.0
  0
LTYPE
  5
16
330
5
100
AcDbSymbolTableRecord
100
AcDbLinetypeTableRecord
  2
CONTINUOUS
 70
     0
  3
Solid line
 72
    65
 73
     0
 40
0.0
  0
ENDTAB
  0
TABLE
  2
LAYER
  5
2
100
AcDbSymbolTable
 70
3
  0
LAYER
  5
50
100
AcDbSymbolTableRecord
100
AcDbLayerTableRecord
  2
0
 70
0
  6
CONTINUOUS
  0
LAYER
  5
51
100
AcDbSymbolTableRecord
100
AcDbLayerTableRecord
  2
F
 70
0
  6
CONTINUOUS
  0
LAYER
  5
52
100
AcDbSymbolTableRecord
100
AcDbLayerTableRecord
  2
M
 70
0
  6
CONTINUOUS
  0
ENDTAB
  0
TABLE
  2
STYLE
  5
3
330
0
100
AcDbSymbolTable
 70
     1
  0
STYLE
  5
11
330
3
100
AcDbSymbolTableRecord
100
AcDbTextStyleTableRecord
  2
STANDARD
 70
     0
 40
0.0
 41
1.0
 50
0.0
 71
     0
 42
2.5
  3
txt
  4

  0
ENDTAB
  0
TABLE
  2
VIEW
  5
6
330
0
100
AcDbSymbolTable
 70
     0
  0
ENDTAB
  0
TABLE
  2
UCS
  5
7
330
0
100
AcDbSymbolTable
 70
     0
  0
ENDTAB
  0
TABLE
  2
APPID
  5
9
330
0
100
AcDbSymbolTable
 70
     2
  0
APPID
  5
12
330
9
100
AcDbSymbolTableRecord
100
AcDbRegAppTableRecord
  2
ACAD
 70
     0
  0
ENDTAB
  0
TABLE
  2
DIMSTYLE
  5
A
330
0
100
AcDbSymbolTable
 70
     1
  0
DIMSTYLE
105
27
330
A
100
AcDbSymbolTableRecord
100
AcDbDimStyleTableRecord
  2
ISO-25
 70
     0
  3

  4

  5

  6

  7

 40
1.0
 41
2.5
 42
0.625
 43
3.75
 44
1.25
 45
0.0
 46
0.0
 47
0.0
 48
0.0
140
2.5
141
2.5
142
0.0
143
0.03937007874016
144
1.0
145
0.0
146
1.0
147
0.625
 71
     0
 72
     0
 73
     0
 74
     0
 75
     0
 76
     0
 77
     1
 78
     8
170
     0
171
     3
172
     1
173
     0
174
     0
175
     0
176
     0
177
     0
178
     0
270
     2
271
     2
272
     2
273
     2
274
     3
340
11
275
     0
280
     0
281
     0
282
     0
283
     0
284
     8
285
     0
286
     0
287
     3
288
     0
  0
ENDTAB
  0
TABLE
  2
BLOCK_RECORD
  5
1
330
0
100
AcDbSymbolTable
 70
     1
  0
BLOCK_RECORD
  5
1F
330
1
100
AcDbSymbolTableRecord
100
AcDbBlockTableRecord
  2
*MODEL_SPACE
  0
BLOCK_RECORD
  5
1B
330
1
100
AcDbSymbolTableRecord
100
AcDbBlockTableRecord
  2
*PAPER_SPACE
  0
ENDTAB
  0
ENDSEC
  0
SECTION
  2
BLOCKS
  0
BLOCK
  5
20
330
1F
100
AcDbEntity
  8
0
100
AcDbBlockBegin
  2
*MODEL_SPACE
 70
     0
 10
0.0
 20
0.0
 30
0.0
  3
*MODEL_SPACE
  1

  0
ENDBLK
  5
21
330
1F
100
AcDbEntity
  8
0
100
AcDbBlockEnd
  0
BLOCK
  5
1C
330
1B
100
AcDbEntity
 67
     1
  8
0
100
AcDbBlockBegin
  2
*PAPER_SPACE
  1

  0
ENDBLK
  5
1D
330
1B
100
AcDbEntity
 67
     1
  8
0
100
AcDbBlockEnd
  0
ENDSEC
  0
SECTION
  2
ENTITIES
  0
LWPOLYLINE
  5
100
100
AcDbEntity
  8
F
 62
7
100
AcDbPolyline
 90
35
 70
1
 10
0.438536
 20
0.269194
 30
0.0
 10
0.438536
 20
0.457827
 30
0.0
 10
0.560273
 20
0.457827
 30
0.0
 10
0.563503
 20
0.458673
 30
0.0
 10
0.565321
 20
0.460539
 30
0.0
 10
0.566120
 20
0.462404
 30
0.0
 10
0.566305
 20
0.463251
 30
0.0
 10
0.566305
 20
0.487357
 30
0.0
 10
0.566199
 20
0.488204
 30
0.0
 10
0.565541
 20
0.490069
 30
0.0
 10
0.563752
 20
0.491934
 30
0.0
 10
0.560268
 20
0.492781
 30
0.0
 10
0.438530
 20
0.492781
 30
0.0
 10
0.438530
 20
0.650076
 30
0.0
 10
0.602454
 20
0.650076
 30
0.0
 10
0.605684
 20
0.650922
 30
0.0
 10
0.607502
 20
0.652788
 30
0.0
 10
0.608301
 20
0.654653
 30
0.0
 10
0.608486
 20
0.655500
 30
0.0
 10
0.608486
 20
0.679606
 30
0.0
 10
0.608380
 20
0.680453
 30
0.0
 10
0.607721
 20
0.682318
 30
0.0
 10
0.605930
 20
0.684183
 30
0.0
 10
0.602446
 20
0.685030
 30
0.0
 10
0.401760
 20
0.685030
 30
0.0
 10
0.401760
 20
0.269194
 30
0.0
 10
0.402702
 20
0.265710
 30
0.0
 10
0.404773
 20
0.263919
 30
0.0
 10
0.406845
 20
0.263260
 30
0.0
 10
0.407787
 20
0.263154
 30
0.0
 10
0.432496
 20
0.263154
 30
0.0
 10
0.433353
 20
0.263260
 30
0.0
 10
0.435285
 20
0.263919
 30
0.0
 10
0.437327
 20
0.265710
 30
0.0
 10
0.438523
 20
0.269194
 30
0.0
  0
LWPOLYLINE
  5
101
100
AcDbEntity
  8
M
 62
7
100
AcDbPolyline
 90
77
 70
1
 10
0.044177
 20
0.728636
 30
0.0
 10
0.026945
 20
0.725176
 30
0.0
 10
0.012907
 20
0.715729
 30
0.0
 10
0.003460
 20
0.701690
 30
0.0
 10
0.000000
 20
0.684459
 30
0.0
 10
0.000000
 20
0.254202
 30
0.0
 10
0.003460
 20
0.236964
 30
0.0
 10
0.012907
 20
0.222914
 30
0.0
 10
0.026945
 20
0.213454
 30
0.0
 10
0.044177
 20
0.209988
 30
0.0
 10
0.058339
 20
0.209988
 30
0.0
 10
0.058339
 20
0.260308
 30
0.0
 10
0.055102
 20
0.260308
 30
0.0
 10
0.054165
 20
0.260414
 30
0.0
 10
0.052104
 20
0.261075
 30
0.0
 10
0.050043
 20
0.262866
 30
0.0
 10
0.049106
 20
0.266352
 30
0.0
 10
0.049106
 20
0.676157
 30
0.0
 10
0.049186
 20
0.677099
 30
0.0
 10
0.049834
 20
0.679173
 30
0.0
 10
0.051612
 20
0.681248
 30
0.0
 10
0.055091
 20
0.682190
 30
0.0
 10
0.092463
 20
0.682190
 30
0.0
 10
0.093360
 20
0.682084
 30
0.0
 10
0.095561
 20
0.681422
 30
0.0
 10
0.098328
 20
0.679631
 30
0.0
 10
0.100921
 20
0.676146
 30
0.0
 10
0.184089
 20
0.480900
 30
0.0
 10
0.266042
 20
0.676146
 30
0.0
 10
0.268630
 20
0.679631
 30
0.0
 10
0.271384
 20
0.681422
 30
0.0
 10
0.273572
 20
0.682084
 30
0.0
 10
0.274464
 20
0.682190
 30
0.0
 10
0.311836
 20
0.682190
 30
0.0
 10
0.312778
 20
0.682084
 30
0.0
 10
0.314852
 20
0.681422
 30
0.0
 10
0.316927
 20
0.679631
 30
0.0
 10
0.317869
 20
0.676146
 30
0.0
 10
0.317869
 20
0.266341
 30
0.0
 10
0.317763
 20
0.265399
 30
0.0
 10
0.317101
 20
0.263325
 30
0.0
 10
0.315310
 20
0.261251
 30
0.0
 10
0.311825
 20
0.260309
 30
0.0
 10
0.287107
 20
0.260309
 30
0.0
 10
0.286165
 20
0.260415
 30
0.0
 10
0.284090
 20
0.261076
 30
0.0
 10
0.282016
 20
0.262867
 30
0.0
 10
0.281074
 20
0.266352
 30
0.0
 10
0.284089
 20
0.638197
 30
0.0
 10
0.206366
 20
0.444128
 30
0.0
 10
0.204485
 20
0.440897
 30
0.0
 10
0.202603
 20
0.439077
 30
0.0
 10
0.200950
 20
0.438275
 30
0.0
 10
0.199746
 20
0.438090
 30
0.0
 10
0.170797
 20
0.438090
 30
0.0
 10
0.169501
 20
0.438275
 30
0.0
 10
0.167643
 20
0.439077
 30
0.0
 10
0.165561
 20
0.440897
 30
0.0
 10
0.163587
 20
0.444128
 30
0.0
 10
0.083436
 20
0.638197
 30
0.0
 10
0.085828
 20
0.266353
 30
0.0
 10
0.085722
 20
0.265411
 30
0.0
 10
0.085061
 20
0.263337
 30
0.0
 10
0.083269
 20
0.261263
 30
0.0
 10
0.079785
 20
0.260321
 30
0.0
 10
0.058597
 20
0.260321
 30
0.0
 10
0.058597
 20
0.210001
 30
0.0
 10
0.321673
 20
0.210001
 30
0.0
 10
0.338905
 20
0.213466
 30
0.0
 10
0.352943
 20
0.222926
 30
0.0
 10
0.362390
 20
0.236977
 30
0.0
 10
0.365850
 20
0.254215
 30
0.0
 10
0.365850
 20
0.684471
 30
0.0
 10
0.362390
 20
0.701703
 30
0.0
 10
0.352943
 20
0.715741
 30
0.0
 10
0.338905
 20
0.725189
 30
0.0
 10
0.321673
 20
0.728648
 30
0.0
  0
ENDSEC
  0
SECTION
  2
OBJECTS
  0
DICTIONARY
  5
C
330
0
100
AcDbDictionary
  3
ACAD_GROUP
350
D
  3
ACAD_MLINESTYLE
350
17
  0
DICTIONARY
  5
D
330
C
100
AcDbDictionary
  0
DICTIONARY
  5
1A
330
C
100
AcDbDictionary
  0
DICTIONARY
  5
17
330
C
100
AcDbDictionary
  3
STANDARD
350
18
  0
DICTIONARY
  5
19
330
C
100
AcDbDictionary
  0
ENDSEC
  0
EOF
