  0
SECTION
  2
HEADER
  9
$ACADVER
  1
AC1004
  9
$INSBASE
 10
0.0
 20
0.0
  9
$EXTMIN
 10
1.000000000000000E+20
 20
1.000000000000000E+20
  9
$EXTMAX
 10
-1.000000000000000E+20
 20
-1.000000000000000E+20
  9
$LIMMIN
 10
0.0
 20
0.0
  9
$LIMMAX
 10
12.0
 20
9.0
  9
$ORTHOMODE
 70
     0
  9
$REGENMODE
 70
     1
  9
$FILLMODE
 70
     1
  9
$QTEXTMODE
 70
     0
  9
$DRAGMODE
 70
     2
  9
$LTSCALE
 40
1.0
  9
$OSMODE
 70
    37
  9
$ATTMODE
 70
     1
  9
$TEXTSIZE
 40
2.5
  9
$TRACEWID
 40
0.05
  9
$TEXTSTYLE
  7
STANDARD
  9
$CLAYER
  8
0
  9
$CELTYPE
  6
BYLAYER
  9
$CECOLOR
 62
    18
  9
$DIMSCALE
 40
1.0
  9
$DIMASZ
 40
0.18
  9
$DIMEXO
 40
0.0625
  9
$DIMDLI
 40
0.38
  9
$DIMRND
 40
0.0
  9
$DIMDLE
 40
0.0
  9
$DIMEXE
 40
0.18
  9
$DIMTP
 40
0.0
  9
$DIMTM
 40
0.0
  9
$DIMTXT
 40
0.18
  9
$DIMCEN
 40
0.09
  9
$DIMTSZ
 40
0.0
  9
$DIMTOL
 70
     0
  9
$DIMLIM
 70
     0
  9
$DIMTIH
 70
     1
  9
$DIMTOH
 70
     1
  9
$DIMSE1
 70
     0
  9
$DIMSE2
 70
     0
  9
$DIMTAD
 70
     0
  9
$DIMZIN
 70
     0
  9
$DIMBLK
  1

  9
$DIMASO
 70
     1
  9
$DIMSHO
 70
     1
  9
$DIMPOST
  1

  9
$DIMAPOST
  1

  9
$DIMALT
 70
     0
  9
$DIMALTD
 70
     2
  9
$DIMALTF
 40
25.4
  9
$DIMLFAC
 40
1.0
  9
$DIMTOFL
 70
     0
  9
$DIMTVP
 40
0.0
  9
$DIMTIX
 70
     0
  9
$DIMSOXD
 70
     0
  9
$DIMSAH
 70
     0
  9
$DIMBLK1
  1

  9
$DIMBLK2
  1

  9
$LUNITS
 70
     2
  9
$LUPREC
 70
     4
  9
$SKETCHINC
 40
0.1
  9
$FILLETRAD
 40
0.5
  9
$AUNITS
 70
     0
  9
$AUPREC
 70
     0
  9
$MENU
  1
.
  9
$ELEVATION
 40
0.0
  9
$THICKNESS
 40
0.0
  9
$LIMCHECK
 70
     0
  9
$CHAMFERA
 40
0.0
  9
$CHAMFERB
 40
0.0
  9
$SKPOLY
 70
     0
  9
$TDCREATE
 40
2458232.87694919
  9
$TDUPDATE
 40
2458232.876949213
  9
$TDINDWG
 40
0.0000000116
  9
$TDUSRTIMER
 40
0.0000000116
  9
$USRTIMER
 70
     1
  9
$ANGBASE
 50
0.0
  9
$ANGDIR
 70
     0
  9
$PDMODE
 70
     0
  9
$PDSIZE
 40
0.0
  9
$PLINEWID
 40
0.0
  9
$COORDS
 70
     1
  9
$SPLFRAME
 70
     0
  9
$SPLINETYPE
 70
     6
  9
$SPLINESEGS
 70
     8
  9
$ATTDIA
 70
     0
  9
$ATTREQ
 70
     1
  9
$SURFTAB1
 70
     6
  9
$SURFTAB2
 70
     6
  9
$SURFTYPE
 70
     6
  9
$SURFU
 70
     6
  9
$SURFV
 70
     6
  9
$UCSNAME
  2

  9
$UCSORG
 10
0.0
 20
0.0
 30
0.0
  9
$UCSXDIR
 10
1.0
 20
0.0
 30
0.0
  9
$UCSYDIR
 10
0.0
 20
1.0
 30
0.0
  9
$USERI1
 70
     0
  9
$USERI2
 70
     0
  9
$USERI3
 70
     0
  9
$USERI4
 70
     0
  9
$USERI5
 70
     0
  9
$USERR1
 40
0.0
  9
$USERR2
 40
0.0
  9
$USERR3
 40
0.0
  9
$USERR4
 40
0.0
  9
$USERR5
 40
0.0
  9
$WORLDVIEW
 70
     1
  0
ENDSEC
  0
SECTION
  2
TABLES
  0
TABLE
  2
LTYPE
 70
    48
  0
LTYPE
  2
CONTINUOUS
 70
     0
  3
Solid line
 72
    65
 73
     0
 40
0.0
  0
LTYPE
  2
ACAD_ISO15W100
 70
     0
  3
ISO double-dash triple-dot __ __ . . . __ __ . .
 72
    65
 73
    10
 40
39.0
 49
12.0
 49
-3.0
 49
12.0
 49
-3.0
 49
0.0
 49
-3.0
 49
0.0
 49
-3.0
 49
0.0
 49
-3.0
  0
LTYPE
  2
BATTING
 70
     0
  3
Batting SSSSSSSSSSSSSSSSSSSSSSSSSSSSSSSSSSSSSSSSSSSSSSS
 72
    65
 73
     4
 40
0.4001
 49
0.0001
 49
-0.1
 49
-0.2
 49
-0.1
  0
LTYPE
  2
BORDER
 70
     0
  3
Border __ __ . __ __ . __ __ . __ __ . __ __ .
 72
    65
 73
     6
 40
1.75
 49
0.5
 49
-0.25
 49
0.5
 49
-0.25
 49
0.0
 49
-0.25
  0
LTYPE
  2
BORDER2
 70
     0
  3
Border (.5x) __.__.__.__.__.__.__.__.__.__.__.
 72
    65
 73
     6
 40
0.875
 49
0.25
 49
-0.125
 49
0.25
 49
-0.125
 49
0.0
 49
-0.125
  0
LTYPE
  2
BORDERX2
 70
     0
  3
Border (2x) ____  ____  .  ____  ____  .  ___
 72
    65
 73
     6
 40
3.5
 49
1.0
 49
-0.5
 49
1.0
 49
-0.5
 49
0.0
 49
-0.5
  0
LTYPE
  2
CENTER
 70
     0
  3
Center ____ _ ____ _ ____ _ ____ _ ____ _ ____
 72
    65
 73
     4
 40
2.0
 49
1.25
 49
-0.25
 49
0.25
 49
-0.25
  0
LTYPE
  2
CENTER2
 70
     0
  3
Center (.5x) ___ _ ___ _ ___ _ ___ _ ___ _ ___
 72
    65
 73
     4
 40
1.125
 49
0.75
 49
-0.125
 49
0.125
 49
-0.125
  0
LTYPE
  2
CENTERX2
 70
     0
  3
Center (2x) ________  __  ________  __  _____
 72
    65
 73
     4
 40
4.0
 49
2.5
 49
-0.5
 49
0.5
 49
-0.5
  0
LTYPE
  2
DASHDOT
 70
     0
  3
Dash dot __ . __ . __ . __ . __ . __ . __ . __
 72
    65
 73
     4
 40
1.0
 49
0.5
 49
-0.25
 49
0.0
 49
-0.25
  0
LTYPE
  2
DASHDOT2
 70
     0
  3
Dash dot (.5x) _._._._._._._._._._._._._._._.
 72
    65
 73
     4
 40
0.5
 49
0.25
 49
-0.125
 49
0.0
 49
-0.125
  0
LTYPE
  2
DASHDOTX2
 70
     0
  3
Dash dot (2x) ____  .  ____  .  ____  .  ___
 72
    65
 73
     4
 40
2.0
 49
1.0
 49
-0.5
 49
0.0
 49
-0.5
  0
LTYPE
  2
DASHED
 70
     0
  3
Dashed __ __ __ __ __ __ __ __ __ __ __ __ __ _
 72
    65
 73
     2
 40
0.75
 49
0.5
 49
-0.25
  0
LTYPE
  2
DASHED2
 70
     0
  3
Dashed (.5x) _ _ _ _ _ _ _ _ _ _ _ _ _ _ _ _ _ 
 72
    65
 73
     2
 40
0.375
 49
0.25
 49
-0.125
  0
LTYPE
  2
DASHEDX2
 70
     0
  3
Dashed (2x) ____  ____  ____  ____  ____  ___
 72
    65
 73
     2
 40
1.5
 49
1.0
 49
-0.5
  0
LTYPE
  2
DIVIDE
 70
     0
  3
Divide ____ . . ____ . . ____ . . ____ . . ____
 72
    65
 73
     6
 40
1.25
 49
0.5
 49
-0.25
 49
0.0
 49
-0.25
 49
0.0
 49
-0.25
  0
LTYPE
  2
DIVIDE2
 70
     0
  3
Divide (.5x) __..__..__..__..__..__..__..__.._
 72
    65
 73
     6
 40
0.625
 49
0.25
 49
-0.125
 49
0.0
 49
-0.125
 49
0.0
 49
-0.125
  0
LTYPE
  2
DIVIDEX2
 70
     0
  3
Divide (2x) ________  .  .  ________  .  .  _
 72
    65
 73
     6
 40
2.5
 49
1.0
 49
-0.5
 49
0.0
 49
-0.5
 49
0.0
 49
-0.5
  0
LTYPE
  2
DOT
 70
     0
  3
Dot . . . . . . . . . . . . . . . . . . . . . . . .
 72
    65
 73
     2
 40
0.25
 49
0.0
 49
-0.25
  0
LTYPE
  2
DOT2
 70
     0
  3
Dot (.5x) ........................................
 72
    65
 73
     2
 40
0.125
 49
0.0
 49
-0.125
  0
LTYPE
  2
DOTX2
 70
     0
  3
Dot (2x) .  .  .  .  .  .  .  .  .  .  .  .  .  .
 72
    65
 73
     2
 40
0.5
 49
0.0
 49
-0.5
  0
LTYPE
  2
DRAINAGE
 70
     0
  3
Drainage ---->---->---->----
 72
    65
 73
     2
 40
0.4
 49
0.2
 49
0.2
  0
LTYPE
  2
DRAINAGE2
 70
     0
  3
Drainage reversed ----<----<----<----
 72
    65
 73
     2
 40
0.4
 49
0.2
 49
0.2
  0
LTYPE
  2
FENCELINE1
 70
     0
  3
Fenceline circle ----0-----0----0-----0----0-----0--
 72
    65
 73
     4
 40
1.45
 49
0.25
 49
-0.1
 49
-0.1
 49
1.0
  0
LTYPE
  2
FENCELINE2
 70
     0
  3
Fenceline square ----[]-----[]----[]-----[]----[]---
 72
    65
 73
     4
 40
1.45
 49
0.25
 49
-0.1
 49
-0.1
 49
1.0
  0
LTYPE
  2
GAS_LINE
 70
     0
  3
Gas line ----GAS----GAS----GAS----GAS----GAS----GAS--
 72
    65
 73
     3
 40
0.95
 49
0.5
 49
-0.2
 49
-0.25
  0
LTYPE
  2
HIDDEN
 70
     0
  3
Hidden __ __ __ __ __ __ __ __ __ __ __ __ __ __
 72
    65
 73
     2
 40
0.375
 49
0.25
 49
-0.125
  0
LTYPE
  2
HIDDEN2
 70
     0
  3
Hidden (.5x) _ _ _ _ _ _ _ _ _ _ _ _ _ _ _ _ _ 
 72
    65
 73
     2
 40
0.1875
 49
0.125
 49
-0.0625
  0
LTYPE
  2
HIDDENX2
 70
     0
  3
Hidden (2x) ____ ____ ____ ____ ____ ____ ____ 
 72
    65
 73
     2
 40
0.75
 49
0.5
 49
-0.25
  0
LTYPE
  2
HOT_WATER_SUPPLY
 70
     0
  3
Hot water supply ---- HW ---- HW ---- HW ----
 72
    65
 73
     3
 40
0.8999999999999999
 49
0.5
 49
-0.2
 49
-0.2
  0
LTYPE
  2
PHANTOM
 70
     0
  3
Phantom ______  __  __  ______  __  __  ______ 
 72
    65
 73
     6
 40
2.5
 49
1.25
 49
-0.25
 49
0.25
 49
-0.25
 49
0.25
 49
-0.25
  0
LTYPE
  2
PHANTOM2
 70
     0
  3
Phantom (.5x) ___ _ _ ___ _ _ ___ _ _ ___ _ _
 72
    65
 73
     6
 40
1.25
 49
0.625
 49
-0.125
 49
0.125
 49
-0.125
 49
0.125
 49
-0.125
  0
LTYPE
  2
PHANTOMX2
 70
     0
  3
Phantom (2x) ____________    ____    ____   _
 72
    65
 73
     6
 40
5.0
 49
2.5
 49
-0.5
 49
0.5
 49
-0.5
 49
0.5
 49
-0.5
  0
LTYPE
  2
TRACKS
 70
     0
  3
Tracks -|-|-|-|-|-|-|-|-|-|-|-|-|-|-|-|-|-|-|-|-|-|-|-|-
 72
    65
 73
     2
 40
0.3
 49
0.15
 49
0.15
  0
LTYPE
  2
ZIGZAG
 70
     0
  3
Zig zag /\/\/\/\/\/\/\/\/\/\/\/\/\/\/\/\/\/\/\/\/\/\/\/
 72
    65
 73
     4
 40
0.8001
 49
0.0001
 49
-0.2
 49
-0.4
 49
-0.2
  0
LTYPE
  2
ACAD_ISO02W100
 70
     0
  3
ISO dash __ __ __ __ __ __ __ __ __ __ __ __ __
 72
    65
 73
     2
 40
15.0
 49
12.0
 49
-3.0
  0
LTYPE
  2
ACAD_ISO03W100
 70
     0
  3
ISO dash space __    __    __    __    __    __
 72
    65
 73
     2
 40
30.0
 49
12.0
 49
-18.0
  0
LTYPE
  2
ACAD_ISO04W100
 70
     0
  3
ISO long-dash dot ____ . ____ . ____ . ____ . _
 72
    65
 73
     4
 40
30.0
 49
24.0
 49
-3.0
 49
0.0
 49
-3.0
  0
LTYPE
  2
ACAD_ISO05W100
 70
     0
  3
ISO long-dash double-dot ____ .. ____ .. ____ . 
 72
    65
 73
     6
 40
33.0
 49
24.0
 49
-3.0
 49
0.0
 49
-3.0
 49
0.0
 49
-3.0
  0
LTYPE
  2
ACAD_ISO06W100
 70
     0
  3
ISO long-dash triple-dot ____ ... ____ ... ____
 72
    65
 73
     8
 40
36.0
 49
24.0
 49
-3.0
 49
0.0
 49
-3.0
 49
0.0
 49
-3.0
 49
0.0
 49
-3.0
  0
LTYPE
  2
ACAD_ISO07W100
 70
     0
  3
ISO dot . . . . . . . . . . . . . . . . . . . . 
 72
    65
 73
     2
 40
3.0
 49
0.0
 49
-3.0
  0
LTYPE
  2
ACAD_ISO08W100
 70
     0
  3
ISO long-dash short-dash ____ __ ____ __ ____ _
 72
    65
 73
     4
 40
36.0
 49
24.0
 49
-3.0
 49
6.0
 49
-3.0
  0
LTYPE
  2
ACAD_ISO09W100
 70
     0
  3
ISO long-dash double-short-dash ____ __ __ ____
 72
    65
 73
     6
 40
45.0
 49
24.0
 49
-3.0
 49
6.0
 49
-3.0
 49
6.0
 49
-3.0
  0
LTYPE
  2
ACAD_ISO10W100
 70
     0
  3
ISO dash dot __ . __ . __ . __ . __ . __ . __ . 
 72
    65
 73
     4
 40
18.0
 49
12.0
 49
-3.0
 49
0.0
 49
-3.0
  0
LTYPE
  2
ACAD_ISO11W100
 70
     0
  3
ISO double-dash dot __ __ . __ __ . __ __ . __ _
 72
    65
 73
     6
 40
33.0
 49
12.0
 49
-3.0
 49
12.0
 49
-3.0
 49
0.0
 49
-3.0
  0
LTYPE
  2
ACAD_ISO12W100
 70
     0
  3
ISO dash double-dot __ . . __ . . __ . . __ . . 
 72
    65
 73
     6
 40
21.0
 49
12.0
 49
-3.0
 49
0.0
 49
-3.0
 49
0.0
 49
-3.0
  0
LTYPE
  2
ACAD_ISO13W100
 70
     0
  3
ISO double-dash double-dot __ __ . . __ __ . . _
 72
    65
 73
     8
 40
36.0
 49
12.0
 49
-3.0
 49
12.0
 49
-3.0
 49
0.0
 49
-3.0
 49
0.0
 49
-3.0
  0
LTYPE
  2
ACAD_ISO14W100
 70
     0
  3
ISO dash triple-dot __ . . . __ . . . __ . . . _
 72
    65
 73
     8
 40
24.0
 49
12.0
 49
-3.0
 49
0.0
 49
-3.0
 49
0.0
 49
-3.0
 49
0.0
 49
-3.0
  0
ENDTAB
  0
TABLE
  2
LAYER
 70
     2
  0
LAYER
  2
0
 70
     0
 62
     7
  6
CONTINUOUS
  0
LAYER
  2
LAYER_1
 70
     0
 62
     7
  6
CONTINUOUS
  0
ENDTAB
  0
TABLE
  2
STYLE
 70
    13
  0
STYLE
  2
STANDARD
 70
     0
 40
0.0
 41
1.0
 50
0.0
 71
     0
 42
2.5
  3
txt
  4

  0
STYLE
  2
QCADDIMTEXTSTYLE
 70
     0
 40
0.0
 41
1.0
 50
0.0
 71
     0
 42
2.5
  3

  4

  0
STYLE
  2
TEXTSTYLE0
 70
     0
 40
0.0
 41
1.0
 50
0.0
 71
     0
 42
2.5
  3
ltypeshp.shx
  4

  0
STYLE
  2
TEXTSTYLE1
 70
     0
 40
0.0
 41
1.0
 50
0.0
 71
     0
 42
2.5
  3
ltypeshp.shx
  4

  0
STYLE
  2
TEXTSTYLE2
 70
     0
 40
0.0
 41
1.0
 50
0.0
 71
     0
 42
2.5
  3
qcadshp.shx
  4

  0
STYLE
  2
TEXTSTYLE3
 70
     0
 40
0.0
 41
1.0
 50
0.0
 71
     0
 42
2.5
  3
qcadshp.shx
  4

  0
STYLE
  2
TEXTSTYLE4
 70
     0
 40
0.0
 41
1.0
 50
0.0
 71
     0
 42
2.5
  3
ltypeshp.shx
  4

  0
STYLE
  2
TEXTSTYLE5
 70
     0
 40
0.0
 41
1.0
 50
0.0
 71
     0
 42
2.5
  3
ltypeshp.shx
  4

  0
STYLE
  2
TEXTSTYLE6
 70
     0
 40
0.0
 41
1.0
 50
0.0
 71
     0
 42
2.5
  3
STANDARD
  4

  0
STYLE
  2
TEXTSTYLE7
 70
     0
 40
0.0
 41
1.0
 50
0.0
 71
     0
 42
2.5
  3
STANDARD
  4

  0
STYLE
  2
TEXTSTYLE8
 70
     0
 40
0.0
 41
1.0
 50
0.0
 71
     0
 42
2.5
  3
ltypeshp.shx
  4

  0
STYLE
  2
TEXTSTYLE9
 70
     0
 40
0.0
 41
1.0
 50
0.0
 71
     0
 42
2.5
  3
ltypeshp.shx
  4

  0
STYLE
  2
TEXTSTYLE10
 70
     0
 40
0.0
 41
1.0
 50
0.0
 71
     0
 42
2.5
  3
ltypeshp.shx
  4

  0
ENDTAB
  0
TABLE
  2
VIEW
 70
     0
  0
ENDTAB
  0
ENDSEC
  0
SECTION
  2
BLOCKS
  0
ENDSEC
  0
SECTION
  2
ENTITIES
  0
POLYLINE
  8
0
 62
     1
 66
     1
  0
VERTEX
  8
0
 62
     1
 10
25.567711
 20
42.774521
  0
VERTEX
  8
0
 62
     1
 10
25.56111805331368
 20
42.77341513082438
  0
VERTEX
  8
0
 62
     1
 10
25.55453520200688
 20
42.77228543970028
  0
VERTEX
  8
0
 62
     1
 10
25.5479725414591
 20
42.77110810467921
  0
VERTEX
  8
0
 62
     1
 10
25.54144016704986
 20
42.76985930381268
  0
VERTEX
  8
0
 62
     1
 10
25.53494817415866
 20
42.76851521515221
  0
VERTEX
  8
0
 62
     1
 10
25.52850665816504
 20
42.76705201674931
  0
VERTEX
  8
0
 62
     1
 10
25.52212571444847
 20
42.76544588665548
  0
VERTEX
  8
0
 62
     1
 10
25.51581543838851
 20
42.76367300292229
  0
VERTEX
  8
0
 62
     1
 10
25.50958592536463
 20
42.76170954360118
  0
VERTEX
  8
0
 62
     1
 10
25.50344727075638
 20
42.75953168674371
  0
VERTEX
  8
0
 62
     1
 10
25.49740956994324
 20
42.75711561040138
  0
VERTEX
  8
0
 62
     1
 10
25.49148291830473
 20
42.7544374926257
  0
VERTEX
  8
0
 62
     1
 10
25.48567741122038
 20
42.75147351146822
  0
VERTEX
  8
0
 62
     1
 10
25.48000333337218
 20
42.74820368941386
  0
VERTEX
  8
0
 62
     1
 10
25.47447223299838
 20
42.74463370977082
  0
VERTEX
  8
0
 62
     1
 10
25.46909617567276
 20
42.74077976211168
  0
VERTEX
  8
0
 62
     1
 10
25.46388722852581
 20
42.7366580676231
  0
VERTEX
  8
0
 62
     1
 10
25.458857458688
 20
42.73228484749179
  0
VERTEX
  8
0
 62
     1
 10
25.45401893328982
 20
42.72767632290439
  0
VERTEX
  8
0
 62
     1
 10
25.44938371946176
 20
42.72284871504761
  0
VERTEX
  8
0
 62
     1
 10
25.44496388433431
 20
42.71781824510813
  0
VERTEX
  8
0
 62
     1
 10
25.44077149503793
 20
42.71260113427261
  0
VERTEX
  8
0
 62
     1
 10
25.43681861870312
 20
42.70721360372774
  0
VERTEX
  8
0
 62
     1
 10
25.43311732246037
 20
42.7016718746602
  0
VERTEX
  8
0
 62
     1
 10
25.42967967344014
 20
42.69599216825665
  0
VERTEX
  8
0
 62
     1
 10
25.42651773877294
 20
42.6901907057038
  0
VERTEX
  8
0
 62
     1
 10
25.42364095517894
 20
42.68428300807423
  0
VERTEX
  8
0
 62
     1
 10
25.42103808153862
 20
42.67827909279473
  0
VERTEX
  8
0
 62
     1
 10
25.41868810147636
 20
42.67218637549479
  0
VERTEX
  8
0
 62
     1
 10
25.41656994052735
 20
42.66601225634278
  0
VERTEX
  8
0
 62
     1
 10
25.4146625242267
 20
42.65976413550704
  0
VERTEX
  8
0
 62
     1
 10
25.41294477810961
 20
42.653449413156
  0
VERTEX
  8
0
 62
     1
 10
25.41139562771123
 20
42.64707548945798
  0
VERTEX
  8
0
 62
     1
 10
25.40999399856673
 20
42.64064976458138
  0
VERTEX
  8
0
 62
     1
 10
25.40871881621126
 20
42.63417963869455
  0
VERTEX
  8
0
 62
     1
 10
25.40754900617997
 20
42.62767251196586
  0
VERTEX
  8
0
 62
     1
 10
25.40646349400804
 20
42.62113578456368
  0
VERTEX
  8
0
 62
     1
 10
25.40544120523062
 20
42.6145768566564
  0
VERTEX
  8
0
 62
     1
 10
25.40446106538289
 20
42.60800312841238
  0
VERTEX
  8
0
 62
     1
 10
25.403502
 20
42.601422
  0
SEQEND
  8
0
 62
     1
  0
POLYLINE
  8
0
 62
     1
 66
     1
  0
VERTEX
  8
0
 62
     1
 10
25.403502
 20
42.601422
  0
VERTEX
  8
0
 62
     1
 10
25.403502
 20
40.366069
  0
SEQEND
  8
0
 62
     1
  0
POLYLINE
  8
0
 62
     1
 66
     1
  0
VERTEX
  8
0
 62
     1
 10
25.403502
 20
40.366069
  0
VERTEX
  8
0
 62
     1
 10
25.40446064920355
 20
40.35948974488517
  0
VERTEX
  8
0
 62
     1
 10
25.4054403894972
 20
40.3529179089461
  0
VERTEX
  8
0
 62
     1
 10
25.40646231197105
 20
40.34636091135854
  0
VERTEX
  8
0
 62
     1
 10
25.40754750771522
 20
40.33982617129828
  0
VERTEX
  8
0
 62
     1
 10
25.40871706781979
 20
40.33332110794105
  0
VERTEX
  8
0
 62
     1
 10
25.40999208337489
 20
40.32685314046265
  0
VERTEX
  8
0
 62
     1
 10
25.41139364547059
 20
40.32042968803879
  0
VERTEX
  8
0
 62
     1
 10
25.412942845197
 20
40.31405816984525
  0
VERTEX
  8
0
 62
     1
 10
25.41466077364425
 20
40.30774600505782
  0
VERTEX
  8
0
 62
     1
 10
25.41656852190242
 20
40.30150061285224
  0
VERTEX
  8
0
 62
     1
 10
25.41868718106161
 20
40.29532941240426
  0
VERTEX
  8
0
 62
     1
 10
25.42103784221192
 20
40.28923982288966
  0
VERTEX
  8
0
 62
     1
 10
25.42364159644347
 20
40.28323926348418
  0
VERTEX
  8
0
 62
     1
 10
25.42651947625141
 20
40.2773351688455
  0
VERTEX
  8
0
 62
     1
 10
25.42968271020955
 20
40.27153756401464
  0
VERTEX
  8
0
 62
     1
 10
25.43312181721672
 20
40.2658619459245
  0
VERTEX
  8
0
 62
     1
 10
25.43682468599477
 20
40.26032450645097
  0
VERTEX
  8
0
 62
     1
 10
25.44077920526556
 20
40.25494143746995
  0
VERTEX
  8
0
 62
     1
 10
25.44497326375093
 20
40.24972893085737
  0
VERTEX
  8
0
 62
     1
 10
25.44939475017275
 20
40.24470317848912
  0
VERTEX
  8
0
 62
     1
 10
25.45403155325285
 20
40.2398803722411
  0
VERTEX
  8
0
 62
     1
 10
25.4588715617131
 20
40.23527670398921
  0
VERTEX
  8
0
 62
     1
 10
25.46390266427535
 20
40.23090836560938
  0
VERTEX
  8
0
 62
     1
 10
25.46911274966145
 20
40.22679154897749
  0
VERTEX
  8
0
 62
     1
 10
25.47448970659326
 20
40.22294244596946
  0
VERTEX
  8
0
 62
     1
 10
25.48002142379262
 20
40.21937724846119
  0
VERTEX
  8
0
 62
     1
 10
25.48569579168861
 20
40.21611211490714
  0
VERTEX
  8
0
 62
     1
 10
25.49150124085195
 20
40.21315262964932
  0
VERTEX
  8
0
 62
     1
 10
25.49742750913875
 20
40.21047878488587
  0
VERTEX
  8
0
 62
     1
 10
25.50346452828875
 20
40.20806677724225
  0
VERTEX
  8
0
 62
     1
 10
25.50960223004163
 20
40.20589280334392
  0
VERTEX
  8
0
 62
     1
 10
25.51583054613711
 20
40.20393305981636
  0
VERTEX
  8
0
 62
     1
 10
25.52213940831492
 20
40.20216374328505
  0
VERTEX
  8
0
 62
     1
 10
25.52851874831475
 20
40.20056105037544
  0
VERTEX
  8
0
 62
     1
 10
25.5349584978763
 20
40.199101177713
  0
VERTEX
  8
0
 62
     1
 10
25.5414485887393
 20
40.19776032192323
  0
VERTEX
  8
0
 62
     1
 10
25.54797895264346
 20
40.19651467963156
  0
VERTEX
  8
0
 62
     1
 10
25.5545395213285
 20
40.19534044746349
  0
VERTEX
  8
0
 62
     1
 10
25.5611202265341
 20
40.19421382204449
  0
VERTEX
  8
0
 62
     1
 10
25.567711
 20
40.193111
  0
SEQEND
  8
0
 62
     1
  0
POLYLINE
  8
0
 62
     1
 66
     1
  0
VERTEX
  8
0
 62
     1
 10
25.567711
 20
40.193111
  0
VERTEX
  8
0
 62
     1
 10
26.670963
 20
40.193111
  0
SEQEND
  8
0
 62
     1
  0
POLYLINE
  8
0
 62
     1
 66
     1
  0
VERTEX
  8
0
 62
     1
 10
26.670963
 20
40.193111
  0
VERTEX
  8
0
 62
     1
 10
26.67755209889435
 20
40.19421350099916
  0
VERTEX
  8
0
 62
     1
 10
26.68413110686238
 20
40.19533982291986
  0
VERTEX
  8
0
 62
     1
 10
26.69068993297777
 20
40.19651378668361
  0
VERTEX
  8
0
 62
     1
 10
26.69721848631423
 20
40.19775921321197
  0
VERTEX
  8
0
 62
     1
 10
26.70370667594541
 20
40.19909992342646
  0
VERTEX
  8
0
 62
     1
 10
26.71014441094503
 20
40.20055973824862
  0
VERTEX
  8
0
 62
     1
 10
26.71652160038674
 20
40.20216247859997
  0
VERTEX
  8
0
 62
     1
 10
26.72282815334426
 20
40.20393196540206
  0
VERTEX
  8
0
 62
     1
 10
26.72905397889125
 20
40.20589201957642
  0
VERTEX
  8
0
 62
     1
 10
26.73518898610139
 20
40.20806646204457
  0
VERTEX
  8
0
 62
     1
 10
26.74122308404839
 20
40.21047911372806
  0
VERTEX
  8
0
 62
     1
 10
26.74714618180591
 20
40.21315379554841
  0
VERTEX
  8
0
 62
     1
 10
26.75294818844764
 20
40.21611432842714
  0
VERTEX
  8
0
 62
     1
 10
26.75861882419292
 20
40.21938072144391
  0
VERTEX
  8
0
 62
     1
 10
26.76414653894585
 20
40.22294734359997
  0
VERTEX
  8
0
 62
     1
 10
26.76951925888022
 20
40.22679799290844
  0
VERTEX
  8
0
 62
     1
 10
26.77472490853355
 20
40.23091643435609
  0
VERTEX
  8
0
 62
     1
 10
26.77975141244337
 20
40.23528643292967
  0
VERTEX
  8
0
 62
     1
 10
26.78458669514721
 20
40.23989175361597
  0
VERTEX
  8
0
 62
     1
 10
26.78921868118258
 20
40.24471616140172
  0
VERTEX
  8
0
 62
     1
 10
26.79363529508701
 20
40.24974342127371
  0
VERTEX
  8
0
 62
     1
 10
26.797824461398
 20
40.25495729821866
  0
VERTEX
  8
0
 62
     1
 10
26.80177410465311
 20
40.26034155722338
  0
VERTEX
  8
0
 62
     1
 10
26.80547214938984
 20
40.26587996327461
  0
VERTEX
  8
0
 62
     1
 10
26.80890652014573
 20
40.27155628135911
  0
VERTEX
  8
0
 62
     1
 10
26.81206514145828
 20
40.27735427646364
  0
VERTEX
  8
0
 62
     1
 10
26.81493859665131
 20
40.28325842266113
  0
VERTEX
  8
0
 62
     1
 10
26.81753818331065
 20
40.28925871842361
  0
VERTEX
  8
0
 62
     1
 10
26.8198849166182
 20
40.29534775386168
  0
VERTEX
  8
0
 62
     1
 10
26.82199986768659
 20
40.30151813400235
  0
VERTEX
  8
0
 62
     1
 10
26.82390410762847
 20
40.30776246387264
  0
VERTEX
  8
0
 62
     1
 10
26.8256187075565
 20
40.31407334849963
  0
VERTEX
  8
0
 62
     1
 10
26.82716473858332
 20
40.32044339291031
  0
VERTEX
  8
0
 62
     1
 10
26.82856327182159
 20
40.32686520213174
  0
VERTEX
  8
0
 62
     1
 10
26.82983537838395
 20
40.33333138119094
  0
VERTEX
  8
0
 62
     1
 10
26.83100212938307
 20
40.33983453511498
  0
VERTEX
  8
0
 62
     1
 10
26.83208459593158
 20
40.34636726893086
  0
VERTEX
  8
0
 62
     1
 10
26.83310384914214
 20
40.35292218766564
  0
VERTEX
  8
0
 62
     1
 10
26.83408096012739
 20
40.35949189634634
  0
VERTEX
  8
0
 62
     1
 10
26.835037
 20
40.366069
  0
SEQEND
  8
0
 62
     1
  0
POLYLINE
  8
0
 62
     1
 66
     1
  0
VERTEX
  8
0
 62
     1
 10
26.835037
 20
40.366069
  0
VERTEX
  8
0
 62
     1
 10
26.835037
 20
42.601422
  0
SEQEND
  8
0
 62
     1
  0
POLYLINE
  8
0
 62
     1
 66
     1
  0
VERTEX
  8
0
 62
     1
 10
26.835037
 20
42.601422
  0
VERTEX
  8
0
 62
     1
 10
26.83408054294376
 20
42.60800097772977
  0
VERTEX
  8
0
 62
     1
 10
26.83310303140419
 20
42.61457257947185
  0
VERTEX
  8
0
 62
     1
 10
26.8320834108979
 20
42.62112942923851
  0
VERTEX
  8
0
 62
     1
 10
26.83100062694159
 20
42.62766415104204
  0
VERTEX
  8
0
 62
     1
 10
26.82983362505189
 20
42.63416936889476
  0
VERTEX
  8
0
 62
     1
 10
26.82856135074544
 20
42.64063770680892
  0
VERTEX
  8
0
 62
     1
 10
26.82716274953892
 20
42.64706178879685
  0
VERTEX
  8
0
 62
     1
 10
26.82561676694897
 20
42.65343423887084
  0
VERTEX
  8
0
 62
     1
 10
26.82390234849223
 20
42.65974768104316
  0
VERTEX
  8
0
 62
     1
 10
26.82199843968538
 20
42.66599473932613
  0
VERTEX
  8
0
 62
     1
 10
26.81988398604505
 20
42.67216803773201
  0
VERTEX
  8
0
 62
     1
 10
26.8175379330879
 20
42.67826020027312
  0
VERTEX
  8
0
 62
     1
 10
26.81493922633059
 20
42.68426385096174
  0
VERTEX
  8
0
 62
     1
 10
26.81206686673357
 20
42.69017159891553
  0
VERTEX
  8
0
 62
     1
 10
26.80890954438974
 20
42.69597345032408
  0
VERTEX
  8
0
 62
     1
 10
26.80547663161499
 20
42.70165385522029
  0
VERTEX
  8
0
 62
     1
 10
26.80178015969259
 20
42.70719654932129
  0
VERTEX
  8
0
 62
     1
 10
26.7978321599058
 20
42.71258526834413
  0
VERTEX
  8
0
 62
     1
 10
26.79364466353786
 20
42.71780374800588
  0
VERTEX
  8
0
 62
     1
 10
26.78922970187204
 20
42.72283572402365
  0
VERTEX
  8
0
 62
     1
 10
26.78459930619159
 20
42.72766493211451
  0
VERTEX
  8
0
 62
     1
 10
26.77976550777978
 20
42.73227510799553
  0
VERTEX
  8
0
 62
     1
 10
26.77474033791986
 20
42.73664998738384
  0
VERTEX
  8
0
 62
     1
 10
26.76953582789507
 20
42.74077330599646
  0
VERTEX
  8
0
 62
     1
 10
26.76416400898868
 20
42.7446287995505
  0
VERTEX
  8
0
 62
     1
 10
26.75863691248395
 20
42.74820020376306
  0
VERTEX
  8
0
 62
     1
 10
26.75296656817419
 20
42.75147128558246
  0
VERTEX
  8
0
 62
     1
 10
26.74716450479087
 20
42.75443631494176
  0
VERTEX
  8
0
 62
     1
 10
26.74124102459171
 20
42.75711527044407
  0
VERTEX
  8
0
 62
     1
 10
26.7352062456447
 20
42.75953199157748
  0
VERTEX
  8
0
 62
     1
 10
26.72907028601783
 20
42.76171031783007
  0
VERTEX
  8
0
 62
     1
 10
26.72284326377908
 20
42.76367408868992
  0
VERTEX
  8
0
 62
     1
 10
26.71653529699645
 20
42.7654471436451
  0
VERTEX
  8
0
 62
     1
 10
26.71015650373792
 20
42.76705332218373
  0
VERTEX
  8
0
 62
     1
 10
26.70371700207147
 20
42.76851646379387
  0
VERTEX
  8
0
 62
     1
 10
26.69722691006509
 20
42.76986040796358
  0
VERTEX
  8
0
 62
     1
 10
26.69069634578677
 20
42.77110899418098
  0
VERTEX
  8
0
 62
     1
 10
26.68413542730449
 20
42.77228606193412
  0
VERTEX
  8
0
 62
     1
 10
26.67755427268623
 20
42.77341545071109
  0
VERTEX
  8
0
 62
     1
 10
26.670963
 20
42.774521
  0
SEQEND
  8
0
 62
     1
  0
POLYLINE
  8
0
 62
     1
 66
     1
  0
VERTEX
  8
0
 62
     1
 10
26.670963
 20
42.774521
  0
VERTEX
  8
0
 62
     1
 10
25.567711
 20
42.774521
  0
SEQEND
  8
0
 62
     1
  0
POLYLINE
  8
0
 62
     1
 66
     1
  0
VERTEX
  8
0
 62
     1
 10
26.115987
 20
42.466609
  0
VERTEX
  8
0
 62
     1
 10
26.12904557573957
 20
42.46540830479218
  0
VERTEX
  8
0
 62
     1
 10
26.14209724667954
 20
42.46419032259112
  0
VERTEX
  8
0
 62
     1
 10
26.15513510802031
 20
42.46293776640356
  0
VERTEX
  8
0
 62
     1
 10
26.16815225496227
 20
42.46163334923628
  0
VERTEX
  8
0
 62
     1
 10
26.18114178270582
 20
42.46025978409603
  0
VERTEX
  8
0
 62
     1
 10
26.19409678645134
 20
42.45879978398958
  0
VERTEX
  8
0
 62
     1
 10
26.20701036139926
 20
42.45723606192367
  0
VERTEX
  8
0
 62
     1
 10
26.21987560274996
 20
42.45555133090507
  0
VERTEX
  8
0
 62
     1
 10
26.23268560570383
 20
42.45372830394053
  0
VERTEX
  8
0
 62
     1
 10
26.24543346546128
 20
42.45174969403682
  0
VERTEX
  8
0
 62
     1
 10
26.2581122772227
 20
42.44959821420067
  0
VERTEX
  8
0
 62
     1
 10
26.27071513618849
 20
42.44725657743886
  0
VERTEX
  8
0
 62
     1
 10
26.28323513755905
 20
42.44470749675816
  0
VERTEX
  8
0
 62
     1
 10
26.29566537653477
 20
42.44193368516531
  0
VERTEX
  8
0
 62
     1
 10
26.30799894831605
 20
42.43891785566706
  0
VERTEX
  8
0
 62
     1
 10
26.3202289481033
 20
42.43564272127019
  0
VERTEX
  8
0
 62
     1
 10
26.33234847109689
 20
42.43209099498144
  0
VERTEX
  8
0
 62
     1
 10
26.34435061249724
 20
42.42824538980758
  0
VERTEX
  8
0
 62
     1
 10
26.35622846750474
 20
42.42408861875534
  0
VERTEX
  8
0
 62
     1
 10
26.36797513131978
 20
42.41960339483152
  0
VERTEX
  8
0
 62
     1
 10
26.37958369914278
 20
42.41477243104286
  0
VERTEX
  8
0
 62
     1
 10
26.39104726617411
 20
42.40957844039611
  0
VERTEX
  8
0
 62
     1
 10
26.40235892756128
 20
42.40400413722287
  0
VERTEX
  8
0
 62
     1
 10
26.4135115399427
 20
42.39803820825439
  0
VERTEX
  8
0
 62
     1
 10
26.42449717292299
 20
42.39168904798676
  0
VERTEX
  8
0
 62
     1
 10
26.43530773399773
 20
42.38496911021632
  0
VERTEX
  8
0
 62
     1
 10
26.4459351306625
 20
42.37789084873943
  0
VERTEX
  8
0
 62
     1
 10
26.4563712704129
 20
42.37046671735243
  0
VERTEX
  8
0
 62
     1
 10
26.46660806074448
 20
42.36270916985163
  0
VERTEX
  8
0
 62
     1
 10
26.47663740915285
 20
42.35463066003341
  0
VERTEX
  8
0
 62
     1
 10
26.48645122313357
 20
42.34624364169409
  0
VERTEX
  8
0
 62
     1
 10
26.49604141018224
 20
42.33756056863003
  0
VERTEX
  8
0
 62
     1
 10
26.50539987779445
 20
42.32859389463756
  0
VERTEX
  8
0
 62
     1
 10
26.51451853346575
 20
42.31935607351302
  0
VERTEX
  8
0
 62
     1
 10
26.52338928469174
 20
42.30985955905277
  0
VERTEX
  8
0
 62
     1
 10
26.53200403896802
 20
42.30011680505314
  0
VERTEX
  8
0
 62
     1
 10
26.54035470379014
 20
42.29014026531048
  0
VERTEX
  8
0
 62
     1
 10
26.5484331866537
 20
42.27994239362111
  0
VERTEX
  8
0
 62
     1
 10
26.55623139505428
 20
42.2695356437814
  0
VERTEX
  8
0
 62
     1
 10
26.56374123648747
 20
42.2589324695877
  0
VERTEX
  8
0
 62
     1
 10
26.57095461844884
 20
42.24814532483632
  0
VERTEX
  8
0
 62
     1
 10
26.5778635501649
 20
42.23718662333516
  0
VERTEX
  8
0
 62
     1
 10
26.58446461577371
 20
42.22606698058239
  0
VERTEX
  8
0
 62
     1
 10
26.5907607283092
 20
42.21479452430906
  0
VERTEX
  8
0
 62
     1
 10
26.59675526495642
 20
42.2033771997973
  0
VERTEX
  8
0
 62
     1
 10
26.60245160290042
 20
42.19182295232928
  0
VERTEX
  8
0
 62
     1
 10
26.60785311932624
 20
42.18013972718713
  0
VERTEX
  8
0
 62
     1
 10
26.61296319141895
 20
42.16833546965304
  0
VERTEX
  8
0
 62
     1
 10
26.61778519636359
 20
42.15641812500912
  0
VERTEX
  8
0
 62
     1
 10
26.62232251134522
 20
42.14439563853755
  0
VERTEX
  8
0
 62
     1
 10
26.62657851354888
 20
42.13227595552047
  0
VERTEX
  8
0
 62
     1
 10
26.63055658015963
 20
42.12006702124003
  0
VERTEX
  8
0
 62
     1
 10
26.63426008836253
 20
42.10777678097841
  0
VERTEX
  8
0
 62
     1
 10
26.63769241534261
 20
42.09541318001772
  0
VERTEX
  8
0
 62
     1
 10
26.64085693828494
 20
42.08298416364015
  0
VERTEX
  8
0
 62
     1
 10
26.64375703437456
 20
42.07049767712783
  0
VERTEX
  8
0
 62
     1
 10
26.64639608079653
 20
42.05796166576291
  0
VERTEX
  8
0
 62
     1
 10
26.64877745473589
 20
42.04538407482755
  0
VERTEX
  8
0
 62
     1
 10
26.6509045333777
 20
42.0327728496039
  0
VERTEX
  8
0
 62
     1
 10
26.65278069390702
 20
42.02013593537413
  0
VERTEX
  8
0
 62
     1
 10
26.65435102618387
 20
42.00747667765889
  0
VERTEX
  8
0
 62
     1
 10
26.65368450937375
 20
41.99467716980676
  0
VERTEX
  8
0
 62
     1
 10
26.64770462892142
 20
41.98357522542609
  0
VERTEX
  8
0
 62
     1
 10
26.636909
 20
41.97658
  0
SEQEND
  8
0
 62
     1
  0
POLYLINE
  8
0
 62
     1
 66
     1
  0
VERTEX
  8
0
 62
     1
 10
26.636909
 20
41.97658
  0
VERTEX
  8
0
 62
     1
 10
26.527662
 20
41.94855
  0
SEQEND
  8
0
 62
     1
  0
POLYLINE
  8
0
 62
     1
 66
     1
  0
VERTEX
  8
0
 62
     1
 10
26.527662
 20
41.94855
  0
VERTEX
  8
0
 62
     1
 10
26.51320085969048
 20
41.94596991803074
  0
VERTEX
  8
0
 62
     1
 10
26.49940607965885
 20
41.9507699544313
  0
VERTEX
  8
0
 62
     1
 10
26.49069992135773
 20
41.96234744098536
  0
VERTEX
  8
0
 62
     1
 10
26.48551462292631
 20
41.97630670920341
  0
VERTEX
  8
0
 62
     1
 10
26.48095700523358
 20
41.99046657078741
  0
VERTEX
  8
0
 62
     1
 10
26.47683204545899
 20
42.00472621308192
  0
VERTEX
  8
0
 62
     1
 10
26.47302266404256
 20
42.0190437287938
  0
VERTEX
  8
0
 62
     1
 10
26.46941178142432
 20
42.03337721062994
  0
VERTEX
  8
0
 62
     1
 10
26.46588231804431
 20
42.0476847512972
  0
VERTEX
  8
0
 62
     1
 10
26.46231719434254
 20
42.06192444350246
  0
VERTEX
  8
0
 62
     1
 10
26.45859933075903
 20
42.07605437995259
  0
VERTEX
  8
0
 62
     1
 10
26.45461164773383
 20
42.09003265335447
  0
VERTEX
  8
0
 62
     1
 10
26.45023706570696
 20
42.10381735641498
  0
VERTEX
  8
0
 62
     1
 10
26.44535850511845
 20
42.11736658184097
  0
VERTEX
  8
0
 62
     1
 10
26.43985888640831
 20
42.13063842233933
  0
VERTEX
  8
0
 62
     1
 10
26.43362113001659
 20
42.14359097061694
  0
VERTEX
  8
0
 62
     1
 10
26.42654323845929
 20
42.1561838027554
  0
VERTEX
  8
0
 62
     1
 10
26.41863310308146
 20
42.16838730278573
  0
VERTEX
  8
0
 62
     1
 10
26.40994725728585
 20
42.18017663885486
  0
VERTEX
  8
0
 62
     1
 10
26.40054245113645
 20
42.1915270004191
  0
VERTEX
  8
0
 62
     1
 10
26.39047543469728
 20
42.20241357693481
  0
VERTEX
  8
0
 62
     1
 10
26.37980295803235
 20
42.21281155785827
  0
VERTEX
  8
0
 62
     1
 10
26.3685817712057
 20
42.22269613264586
  0
VERTEX
  8
0
 62
     1
 10
26.35686862428132
 20
42.23204249075386
  0
VERTEX
  8
0
 62
     1
 10
26.34472026732323
 20
42.24082582163862
  0
VERTEX
  8
0
 62
     1
 10
26.33219345039544
 20
42.24902131475645
  0
VERTEX
  8
0
 62
     1
 10
26.31934492356197
 20
42.25660415956368
  0
VERTEX
  8
0
 62
     1
 10
26.30623140607996
 20
42.2635495815179
  0
VERTEX
  8
0
 62
     1
 10
26.29289825460245
 20
42.26984608454156
  0
VERTEX
  8
0
 62
     1
 10
26.27936254820498
 20
42.275515218047
  0
VERTEX
  8
0
 62
     1
 10
26.26563704093189
 20
42.28058358572591
  0
VERTEX
  8
0
 62
     1
 10
26.25173448682745
 20
42.28507779127001
  0
VERTEX
  8
0
 62
     1
 10
26.237667639936
 20
42.28902443837102
  0
VERTEX
  8
0
 62
     1
 10
26.22344925430184
 20
42.29245013072065
  0
VERTEX
  8
0
 62
     1
 10
26.20909208396928
 20
42.29538147201058
  0
VERTEX
  8
0
 62
     1
 10
26.19460888298263
 20
42.29784506593254
  0
VERTEX
  8
0
 62
     1
 10
26.1800124053862
 20
42.29986751617825
  0
VERTEX
  8
0
 62
     1
 10
26.1653154052243
 20
42.3014754264394
  0
VERTEX
  8
0
 62
     1
 10
26.15053063654123
 20
42.30269540040771
  0
VERTEX
  8
0
 62
     1
 10
26.13567085338133
 20
42.30355404177488
  0
VERTEX
  8
0
 62
     1
 10
26.12074880978886
 20
42.30407795423261
  0
VERTEX
  8
0
 62
     1
 10
26.10577798037547
 20
42.30429093418237
  0
VERTEX
  8
0
 62
     1
 10
26.09077979640479
 20
42.30418577934942
  0
VERTEX
  8
0
 62
     1
 10
26.07578062984854
 20
42.30373603873404
  0
VERTEX
  8
0
 62
     1
 10
26.06080692678677
 20
42.3029149726144
  0
VERTEX
  8
0
 62
     1
 10
26.04588513329953
 20
42.3016958412687
  0
VERTEX
  8
0
 62
     1
 10
26.03104169546689
 20
42.3000519049751
  0
VERTEX
  8
0
 62
     1
 10
26.01630305936889
 20
42.29795642401182
  0
VERTEX
  8
0
 62
     1
 10
26.0016956710856
 20
42.29538265865701
  0
VERTEX
  8
0
 62
     1
 10
25.98724597669707
 20
42.29230386918888
  0
VERTEX
  8
0
 62
     1
 10
25.97298042228337
 20
42.28869331588563
  0
VERTEX
  8
0
 62
     1
 10
25.95892545392454
 20
42.2845242590254
  0
VERTEX
  8
0
 62
     1
 10
25.94510751770064
 20
42.27976995888643
  0
VERTEX
  8
0
 62
     1
 10
25.93155305969173
 20
42.27440367574686
  0
VERTEX
  8
0
 62
     1
 10
25.91828852597787
 20
42.2683986698849
  0
VERTEX
  8
0
 62
     1
 10
25.90534036263911
 20
42.26172820157872
  0
VERTEX
  8
0
 62
     1
 10
25.8927349706374
 20
42.25436593410109
  0
VERTEX
  8
0
 62
     1
 10
25.88049599014692
 20
42.24631019005285
  0
VERTEX
  8
0
 62
     1
 10
25.86864275095394
 20
42.23759779237646
  0
VERTEX
  8
0
 62
     1
 10
25.85719420839185
 20
42.22826890862323
  0
VERTEX
  8
0
 62
     1
 10
25.84616931779406
 20
42.21836370634453
  0
VERTEX
  8
0
 62
     1
 10
25.83558703449399
 20
42.20792235309172
  0
VERTEX
  8
0
 62
     1
 10
25.82546631382504
 20
42.19698501641615
  0
VERTEX
  8
0
 62
     1
 10
25.81582611112061
 20
42.18559186386919
  0
VERTEX
  8
0
 62
     1
 10
25.80668538171414
 20
42.17378306300219
  0
VERTEX
  8
0
 62
     1
 10
25.798063080939
 20
42.1615987813665
  0
VERTEX
  8
0
 62
     1
 10
25.78997816412861
 20
42.14907918651349
  0
VERTEX
  8
0
 62
     1
 10
25.78244958661639
 20
42.13626444599451
  0
VERTEX
  8
0
 62
     1
 10
25.77549630373574
 20
42.12319472736091
  0
VERTEX
  8
0
 62
     1
 10
25.76913727082007
 20
42.10991019816407
  0
VERTEX
  8
0
 62
     1
 10
25.76338465509689
 20
42.09644712569513
  0
VERTEX
  8
0
 62
     1
 10
25.75821548053218
 20
42.08282158488727
  0
VERTEX
  8
0
 62
     1
 10
25.7535954323044
 20
42.06904313571621
  0
VERTEX
  8
0
 62
     1
 10
25.74949019001751
 20
42.05512133495462
  0
VERTEX
  8
0
 62
     1
 10
25.74586543327542
 20
42.04106573937518
  0
VERTEX
  8
0
 62
     1
 10
25.74268684168209
 20
42.02688590575065
  0
VERTEX
  8
0
 62
     1
 10
25.73992009484146
 20
42.01259139085369
  0
VERTEX
  8
0
 62
     1
 10
25.73753087235747
 20
41.99819175145699
  0
VERTEX
  8
0
 62
     1
 10
25.73548485383407
 20
41.98369654433331
  0
VERTEX
  8
0
 62
     1
 10
25.73374771887518
 20
41.96911532625529
  0
VERTEX
  8
0
 62
     1
 10
25.73228514708477
 20
41.95445765399566
  0
VERTEX
  8
0
 62
     1
 10
25.73106281806675
 20
41.93973308432711
  0
VERTEX
  8
0
 62
     1
 10
25.7300464114251
 20
41.92495117402236
  0
VERTEX
  8
0
 62
     1
 10
25.72920160676373
 20
41.91012147985411
  0
VERTEX
  8
0
 62
     1
 10
25.72849408368659
 20
41.89525355859503
  0
VERTEX
  8
0
 62
     1
 10
25.72788952179763
 20
41.88035696701785
  0
VERTEX
  8
0
 62
     1
 10
25.72735360070079
 20
41.86544126189528
  0
VERTEX
  8
0
 62
     1
 10
25.726852
 20
41.850516
  0
SEQEND
  8
0
 62
     1
  0
POLYLINE
  8
0
 62
     1
 66
     1
  0
VERTEX
  8
0
 62
     1
 10
25.726852
 20
41.850516
  0
VERTEX
  8
0
 62
     1
 10
25.726852
 20
41.08047
  0
SEQEND
  8
0
 62
     1
  0
POLYLINE
  8
0
 62
     1
 66
     1
  0
VERTEX
  8
0
 62
     1
 10
25.726852
 20
41.08047
  0
VERTEX
  8
0
 62
     1
 10
25.72737672798071
 20
41.06433484831025
  0
VERTEX
  8
0
 62
     1
 10
25.72794553606544
 20
41.04821207811246
  0
VERTEX
  8
0
 62
     1
 10
25.72860250435823
 20
41.03211407089856
  0
VERTEX
  8
0
 62
     1
 10
25.72939171296306
 20
41.0160532081605
  0
VERTEX
  8
0
 62
     1
 10
25.73035724198399
 20
41.00004187139021
  0
VERTEX
  8
0
 62
     1
 10
25.73154317152501
 20
40.98409244207966
  0
VERTEX
  8
0
 62
     1
 10
25.73299358169016
 20
40.96821730172079
  0
VERTEX
  8
0
 62
     1
 10
25.73475255258345
 20
40.95242883180555
  0
VERTEX
  8
0
 62
     1
 10
25.73686416430891
 20
40.93673941382585
  0
VERTEX
  8
0
 62
     1
 10
25.73937249697056
 20
40.9211614292737
  0
VERTEX
  8
0
 62
     1
 10
25.74232163067241
 20
40.90570725964098
  0
VERTEX
  8
0
 62
     1
 10
25.74575564551849
 20
40.89038928641969
  0
VERTEX
  8
0
 62
     1
 10
25.74971862161281
 20
40.87521989110174
  0
VERTEX
  8
0
 62
     1
 10
25.75425463905941
 20
40.8602114551791
  0
VERTEX
  8
0
 62
     1
 10
25.7594077779623
 20
40.8453763601437
  0
VERTEX
  8
0
 62
     1
 10
25.76522211842549
 20
40.83072698748749
  0
VERTEX
  8
0
 62
     1
 10
25.77174056668513
 20
40.81627636772554
  0
VERTEX
  8
0
 62
     1
 10
25.77897398034425
 20
40.80205525083163
  0
VERTEX
  8
0
 62
     1
 10
25.78689808344281
 20
40.7881138118739
  0
VERTEX
  8
0
 62
     1
 10
25.79548680753284
 20
40.77450321697419
  0
VERTEX
  8
0
 62
     1
 10
25.80471408416638
 20
40.76127463225431
  0
VERTEX
  8
0
 62
     1
 10
25.81455384489543
 20
40.74847922383609
  0
VERTEX
  8
0
 62
     1
 10
25.82498002127205
 20
40.73616815784136
  0
VERTEX
  8
0
 62
     1
 10
25.83596654484824
 20
40.72439260039194
  0
VERTEX
  8
0
 62
     1
 10
25.84748734717605
 20
40.71320371760965
  0
VERTEX
  8
0
 62
     1
 10
25.85951635980749
 20
40.70265267561632
  0
VERTEX
  8
0
 62
     1
 10
25.87202751429461
 20
40.69279064053377
  0
VERTEX
  8
0
 62
     1
 10
25.88499474218941
 20
40.68366877848381
  0
VERTEX
  8
0
 62
     1
 10
25.8983919740639
 20
40.67533823487619
  0
VERTEX
  8
0
 62
     1
 10
25.91219219857278
 20
40.66783024888829
  0
VERTEX
  8
0
 62
     1
 10
25.92636570653791
 20
40.66111904440578
  0
VERTEX
  8
0
 62
     1
 10
25.94088230882683
 20
40.65516870208543
  0
VERTEX
  8
0
 62
     1
 10
25.95571181630707
 20
40.64994330258392
  0
VERTEX
  8
0
 62
     1
 10
25.97082403984616
 20
40.64540692655798
  0
VERTEX
  8
0
 62
     1
 10
25.98618879031164
 20
40.64152365466434
  0
VERTEX
  8
0
 62
     1
 10
26.00177587857102
 20
40.63825756755968
  0
VERTEX
  8
0
 62
     1
 10
26.01755511549186
 20
40.63557274590075
  0
VERTEX
  8
0
 62
     1
 10
26.03349631194166
 20
40.63343327034423
  0
VERTEX
  8
0
 62
     1
 10
26.04956927878798
 20
40.63180322154686
  0
VERTEX
  8
0
 62
     1
 10
26.06574382689834
 20
40.63064668016535
  0
VERTEX
  8
0
 62
     1
 10
26.08198976714027
 20
40.62992772685642
  0
VERTEX
  8
0
 62
     1
 10
26.0982769103813
 20
40.62961044227678
  0
VERTEX
  8
0
 62
     1
 10
26.11457506748896
 20
40.62965890708313
  0
VERTEX
  8
0
 62
     1
 10
26.13085455247777
 20
40.6300466215523
  0
VERTEX
  8
0
 62
     1
 10
26.14708828756917
 20
40.63079591526802
  0
VERTEX
  8
0
 62
     1
 10
26.16325003754863
 20
40.63194489179882
  0
VERTEX
  8
0
 62
     1
 10
26.17931356762146
 20
40.63353166257382
  0
VERTEX
  8
0
 62
     1
 10
26.19525264299299
 20
40.63559433902218
  0
VERTEX
  8
0
 62
     1
 10
26.21104102886856
 20
40.63817103257308
  0
VERTEX
  8
0
 62
     1
 10
26.22665249045349
 20
40.64129985465564
  0
VERTEX
  8
0
 62
     1
 10
26.24206079295311
 20
40.64501891669904
  0
VERTEX
  8
0
 62
     1
 10
26.25723970157274
 20
40.64936633013244
  0
VERTEX
  8
0
 62
     1
 10
26.27216298151772
 20
40.65438020638497
  0
VERTEX
  8
0
 62
     1
 10
26.28680439799338
 20
40.66009865688581
  0
VERTEX
  8
0
 62
     1
 10
26.30113771620504
 20
40.66655979306411
  0
VERTEX
  8
0
 62
     1
 10
26.31513670135803
 20
40.67380172634903
  0
VERTEX
  8
0
 62
     1
 10
26.32877479234751
 20
40.68185916650565
  0
VERTEX
  8
0
 62
     1
 10
26.34202070823757
 20
40.69071762078509
  0
VERTEX
  8
0
 62
     1
 10
26.3548396162296
 20
40.7003255695688
  0
VERTEX
  8
0
 62
     1
 10
26.36719659674324
 20
40.71063058856994
  0
VERTEX
  8
0
 62
     1
 10
26.37905673019812
 20
40.72158025350172
  0
VERTEX
  8
0
 62
     1
 10
26.39038509701389
 20
40.73312214007729
  0
VERTEX
  8
0
 62
     1
 10
26.40114677761017
 20
40.74520382400988
  0
VERTEX
  8
0
 62
     1
 10
26.41130685240661
 20
40.75777288101265
  0
VERTEX
  8
0
 62
     1
 10
26.42083040182284
 20
40.77077688679879
  0
VERTEX
  8
0
 62
     1
 10
26.4296825062785
 20
40.78416341708149
  0
VERTEX
  8
0
 62
     1
 10
26.43782824619323
 20
40.79788004757394
  0
VERTEX
  8
0
 62
     1
 10
26.44523270198666
 20
40.81187435398932
  0
VERTEX
  8
0
 62
     1
 10
26.45186099331907
 20
40.82609392992452
  0
VERTEX
  8
0
 62
     1
 10
26.45770301001452
 20
40.84049765783736
  0
VERTEX
  8
0
 62
     1
 10
26.46281577358338
 20
40.85507501506897
  0
VERTEX
  8
0
 62
     1
 10
26.46726756814855
 20
40.86982061183196
  0
VERTEX
  8
0
 62
     1
 10
26.47112667783291
 20
40.88472905833894
  0
VERTEX
  8
0
 62
     1
 10
26.47446138675934
 20
40.89979496480247
  0
VERTEX
  8
0
 62
     1
 10
26.47733997905074
 20
40.91501294143519
  0
VERTEX
  8
0
 62
     1
 10
26.47983073882999
 20
40.93037759844966
  0
VERTEX
  8
0
 62
     1
 10
26.48200195021998
 20
40.94588354605849
  0
VERTEX
  8
0
 62
     1
 10
26.48392189734361
 20
40.96152539447426
  0
VERTEX
  8
0
 62
     1
 10
26.48565886432374
 20
40.9772977539096
  0
VERTEX
  8
0
 62
     1
 10
26.48728113528329
 20
40.99319523457708
  0
VERTEX
  8
0
 62
     1
 10
26.48885699434511
 20
41.00921244668928
  0
VERTEX
  8
0
 62
     1
 10
26.49045472563213
 20
41.02534400045883
  0
VERTEX
  8
0
 62
     1
 10
26.49214261326719
 20
41.0415845060983
  0
VERTEX
  8
0
 62
     1
 10
26.49398894137322
 20
41.05792857382031
  0
VERTEX
  8
0
 62
     1
 10
26.49606199407309
 20
41.07437081383742
  0
VERTEX
  8
0
 62
     1
 10
26.49877779659208
 20
41.09067374879162
  0
VERTEX
  8
0
 62
     1
 10
26.50707089196117
 20
41.10352499337476
  0
VERTEX
  8
0
 62
     1
 10
26.522061
 20
41.108498
  0
SEQEND
  8
0
 62
     1
  0
POLYLINE
  8
0
 62
     1
 66
     1
  0
VERTEX
  8
0
 62
     1
 10
26.522061
 20
41.108498
  0
VERTEX
  8
0
 62
     1
 10
26.639647
 20
41.108498
  0
SEQEND
  8
0
 62
     1
  0
POLYLINE
  8
0
 62
     1
 66
     1
  0
VERTEX
  8
0
 62
     1
 10
26.639647
 20
41.108498
  0
VERTEX
  8
0
 62
     1
 10
26.65968897928872
 20
41.10092600371208
  0
VERTEX
  8
0
 62
     1
 10
26.66759733658451
 20
41.08094339393248
  0
VERTEX
  8
0
 62
     1
 10
26.67079587095902
 20
41.05842340958893
  0
VERTEX
  8
0
 62
     1
 10
26.6727917622786
 20
41.03607217314265
  0
VERTEX
  8
0
 62
     1
 10
26.67363034320529
 20
41.01389231017793
  0
VERTEX
  8
0
 62
     1
 10
26.67335691649664
 20
40.99188642292938
  0
VERTEX
  8
0
 62
     1
 10
26.67201678491016
 20
40.9700571136316
  0
VERTEX
  8
0
 62
     1
 10
26.66965525120338
 20
40.94840698451921
  0
VERTEX
  8
0
 62
     1
 10
26.66631761813383
 20
40.92693863782683
  0
VERTEX
  8
0
 62
     1
 10
26.66204918845904
 20
40.90565467578905
  0
VERTEX
  8
0
 62
     1
 10
26.65689526493651
 20
40.88455770064051
  0
VERTEX
  8
0
 62
     1
 10
26.6509011503238
 20
40.8636503146158
  0
VERTEX
  8
0
 62
     1
 10
26.64411214737841
 20
40.84293511994954
  0
VERTEX
  8
0
 62
     1
 10
26.63657355885788
 20
40.82241471887637
  0
VERTEX
  8
0
 62
     1
 10
26.62833068751973
 20
40.80209171363086
  0
VERTEX
  8
0
 62
     1
 10
26.61942883612149
 20
40.78196870644764
  0
VERTEX
  8
0
 62
     1
 10
26.60991283167149
 20
40.76204884883304
  0
VERTEX
  8
0
 62
     1
 10
26.59980701237604
 20
40.74235894744486
  0
VERTEX
  8
0
 62
     1
 10
26.58910788603262
 20
40.72295794027468
  0
VERTEX
  8
0
 62
     1
 10
26.57780997306232
 20
40.70390705982064
  0
VERTEX
  8
0
 62
     1
 10
26.56590779388616
 20
40.68526753858092
  0
VERTEX
  8
0
 62
     1
 10
26.55339586892519
 20
40.66710060905369
  0
VERTEX
  8
0
 62
     1
 10
26.54026871860044
 20
40.64946750373711
  0
VERTEX
  8
0
 62
     1
 10
26.52652086333297
 20
40.63242945512934
  0
VERTEX
  8
0
 62
     1
 10
26.51214682354381
 20
40.61604769572857
  0
VERTEX
  8
0
 62
     1
 10
26.49714111965401
 20
40.60038345803293
  0
VERTEX
  8
0
 62
     1
 10
26.48149827208461
 20
40.58549797454059
  0
VERTEX
  8
0
 62
     1
 10
26.46521280125665
 20
40.57145247774977
  0
VERTEX
  8
0
 62
     1
 10
26.44827922759117
 20
40.55830820015855
  0
VERTEX
  8
0
 62
     1
 10
26.43069244874984
 20
40.54612572522066
  0
VERTEX
  8
0
 62
     1
 10
26.41246705977041
 20
40.53493174694983
  0
VERTEX
  8
0
 62
     1
 10
26.39364660786566
 20
40.52470314698914
  0
VERTEX
  8
0
 62
     1
 10
26.37427695495954
 20
40.51541282450885
  0
VERTEX
  8
0
 62
     1
 10
26.35440396297603
 20
40.50703367867921
  0
VERTEX
  8
0
 62
     1
 10
26.3340734938391
 20
40.49953860867048
  0
VERTEX
  8
0
 62
     1
 10
26.3133314094727
 20
40.4929005136529
  0
VERTEX
  8
0
 62
     1
 10
26.2922235718008
 20
40.48709229279672
  0
VERTEX
  8
0
 62
     1
 10
26.27079584274738
 20
40.4820868452722
  0
VERTEX
  8
0
 62
     1
 10
26.24909408423638
 20
40.47785707024957
  0
VERTEX
  8
0
 62
     1
 10
26.22716415819177
 20
40.47437586689909
  0
VERTEX
  8
0
 62
     1
 10
26.20505192653753
 20
40.47161613439103
  0
VERTEX
  8
0
 62
     1
 10
26.18280325119761
 20
40.46955077189561
  0
VERTEX
  8
0
 62
     1
 10
26.16046399409599
 20
40.4681526785831
  0
VERTEX
  8
0
 62
     1
 10
26.13808001715662
 20
40.46739475362374
  0
VERTEX
  8
0
 62
     1
 10
26.11569718229796
 20
40.4672498962055
  0
VERTEX
  8
0
 62
     1
 10
26.09335858183658
 20
40.46769992344293
  0
VERTEX
  8
0
 62
     1
 10
26.07109664482744
 20
40.46876098741535
  0
VERTEX
  8
0
 62
     1
 10
26.04894123443563
 20
40.47045750218997
  0
VERTEX
  8
0
 62
     1
 10
26.02692221382624
 20
40.47281388183392
  0
VERTEX
  8
0
 62
     1
 10
26.0050694461644
 20
40.47585454041445
  0
VERTEX
  8
0
 62
     1
 10
25.9834127946152
 20
40.47960389199869
  0
VERTEX
  8
0
 62
     1
 10
25.96198212234375
 20
40.48408635065383
  0
VERTEX
  8
0
 62
     1
 10
25.94080729251514
 20
40.48932633044707
  0
VERTEX
  8
0
 62
     1
 10
25.91991816829449
 20
40.49534824544558
  0
VERTEX
  8
0
 62
     1
 10
25.8993446128469
 20
40.50217650971653
  0
VERTEX
  8
0
 62
     1
 10
25.87911648933747
 20
40.50983553732713
  0
VERTEX
  8
0
 62
     1
 10
25.8592636609313
 20
40.51834974234453
  0
VERTEX
  8
0
 62
     1
 10
25.83981599079351
 20
40.52774353883594
  0
VERTEX
  8
0
 62
     1
 10
25.82080334208918
 20
40.5380413408685
  0
VERTEX
  8
0
 62
     1
 10
25.80225558803141
 20
40.5492674100274
  0
VERTEX
  8
0
 62
     1
 10
25.78420407034673
 20
40.56142372261098
  0
VERTEX
  8
0
 62
     1
 10
25.76668313000306
 20
40.57446674021506
  0
VERTEX
  8
0
 62
     1
 10
25.74972747403061
 20
40.5883473692915
  0
VERTEX
  8
0
 62
     1
 10
25.73337180945964
 20
40.60301651629213
  0
VERTEX
  8
0
 62
     1
 10
25.71765084332037
 20
40.61842508766883
  0
VERTEX
  8
0
 62
     1
 10
25.70259928264301
 20
40.63452398987343
  0
VERTEX
  8
0
 62
     1
 10
25.68825183445782
 20
40.6512641293578
  0
VERTEX
  8
0
 62
     1
 10
25.674643205795
 20
40.66859641257377
  0
VERTEX
  8
0
 62
     1
 10
25.66180810368481
 20
40.68647174597321
  0
VERTEX
  8
0
 62
     1
 10
25.64978123515745
 20
40.70484103600797
  0
VERTEX
  8
0
 62
     1
 10
25.63859730724317
 20
40.7236551891299
  0
VERTEX
  8
0
 62
     1
 10
25.62829102697219
 20
40.74286511179084
  0
VERTEX
  8
0
 62
     1
 10
25.61889710134759
 20
40.76242171045078
  0
VERTEX
  8
0
 62
     1
 10
25.61043335646695
 20
40.78228093882584
  0
VERTEX
  8
0
 62
     1
 10
25.60285245395681
 20
40.80241823428949
  0
VERTEX
  8
0
 62
     1
 10
25.59609133364786
 20
40.82281373490685
  0
VERTEX
  8
0
 62
     1
 10
25.59008693537079
 20
40.843447578743
  0
VERTEX
  8
0
 62
     1
 10
25.58477619895626
 20
40.86429990386306
  0
VERTEX
  8
0
 62
     1
 10
25.58009606423495
 20
40.88535084833212
  0
VERTEX
  8
0
 62
     1
 10
25.57598347103754
 20
40.90658055021525
  0
VERTEX
  8
0
 62
     1
 10
25.57237535919471
 20
40.92796914757761
  0
VERTEX
  8
0
 62
     1
 10
25.56920866853713
 20
40.94949677848424
  0
VERTEX
  8
0
 62
     1
 10
25.56642033889549
 20
40.97114358100029
  0
VERTEX
  8
0
 62
     1
 10
25.56394731010046
 20
40.99288969319083
  0
VERTEX
  8
0
 62
     1
 10
25.56172652198272
 20
41.01471525312098
  0
VERTEX
  8
0
 62
     1
 10
25.55969491437294
 20
41.03660039885582
  0
VERTEX
  8
0
 62
     1
 10
25.55778942710181
 20
41.05852526846046
  0
VERTEX
  8
0
 62
     1
 10
25.555947
 20
41.08047
  0
SEQEND
  8
0
 62
     1
  0
POLYLINE
  8
0
 62
     1
 66
     1
  0
VERTEX
  8
0
 62
     1
 10
25.555947
 20
41.08047
  0
VERTEX
  8
0
 62
     1
 10
25.555947
 20
41.850516
  0
SEQEND
  8
0
 62
     1
  0
POLYLINE
  8
0
 62
     1
 66
     1
  0
VERTEX
  8
0
 62
     1
 10
25.555947
 20
41.850516
  0
VERTEX
  8
0
 62
     1
 10
25.5579497414162
 20
41.8740475389189
  0
VERTEX
  8
0
 62
     1
 10
25.56003023744708
 20
41.89755796392178
  0
VERTEX
  8
0
 62
     1
 10
25.56226624270736
 20
41.92102616109263
  0
VERTEX
  8
0
 62
     1
 10
25.56473551181171
 20
41.94443101651544
  0
VERTEX
  8
0
 62
     1
 10
25.56751579937481
 20
41.96775141627418
  0
VERTEX
  8
0
 62
     1
 10
25.57068486001138
 20
41.99096624645284
  0
VERTEX
  8
0
 62
     1
 10
25.57432044833609
 20
42.0140543931354
  0
VERTEX
  8
0
 62
     1
 10
25.57850031896366
 20
42.03699474240585
  0
VERTEX
  8
0
 62
     1
 10
25.58330222650875
 20
42.05976618034818
  0
VERTEX
  8
0
 62
     1
 10
25.58880392558605
 20
42.08234759304636
  0
VERTEX
  8
0
 62
     1
 10
25.59508317081027
 20
42.10471786658437
  0
VERTEX
  8
0
 62
     1
 10
25.6022177167961
 20
42.12685588704622
  0
VERTEX
  8
0
 62
     1
 10
25.61028531815823
 20
42.14874054051587
  0
VERTEX
  8
0
 62
     1
 10
25.61936372846194
 20
42.1703507125486
  0
VERTEX
  8
0
 62
     1
 10
25.62950868309988
 20
42.19165419541232
  0
VERTEX
  8
0
 62
     1
 10
25.64069722990342
 20
42.21257913668042
  0
VERTEX
  8
0
 62
     1
 10
25.65288884580298
 20
42.23304483128186
  0
VERTEX
  8
0
 62
     1
 10
25.66604300772903
 20
42.25297057414562
  0
VERTEX
  8
0
 62
     1
 10
25.680119192612
 20
42.27227566020068
  0
VERTEX
  8
0
 62
     1
 10
25.69507687738234
 20
42.29087938437601
  0
VERTEX
  8
0
 62
     1
 10
25.71087553897047
 20
42.30870104160054
  0
VERTEX
  8
0
 62
     1
 10
25.72747465430687
 20
42.32565992680332
  0
VERTEX
  8
0
 62
     1
 10
25.74483370032195
 20
42.34167533491325
  0
VERTEX
  8
0
 62
     1
 10
25.76291215394616
 20
42.35666656085935
  0
VERTEX
  8
0
 62
     1
 10
25.78166949210996
 20
42.37055289957055
  0
VERTEX
  8
0
 62
     1
 10
25.80106519174377
 20
42.38325364597587
  0
VERTEX
  8
0
 62
     1
 10
25.82105858872449
 20
42.39469917097783
  0
VERTEX
  8
0
 62
     1
 10
25.84160768195978
 20
42.40492482855488
  0
VERTEX
  8
0
 62
     1
 10
25.86266973271908
 20
42.41402389438769
  0
VERTEX
  8
0
 62
     1
 10
25.88420199454204
 20
42.42209025112162
  0
VERTEX
  8
0
 62
     1
 10
25.90616172096835
 20
42.42921778140202
  0
VERTEX
  8
0
 62
     1
 10
25.92850616553764
 20
42.43550036787424
  0
VERTEX
  8
0
 62
     1
 10
25.9511925817896
 20
42.44103189318364
  0
VERTEX
  8
0
 62
     1
 10
25.97417822326389
 20
42.44590623997556
  0
VERTEX
  8
0
 62
     1
 10
25.99742034350019
 20
42.45021729089537
  0
VERTEX
  8
0
 62
     1
 10
26.02087619603815
 20
42.45405892858841
  0
VERTEX
  8
0
 62
     1
 10
26.04450303441745
 20
42.45752503570004
  0
VERTEX
  8
0
 62
     1
 10
26.06825811217775
 20
42.46070949487562
  0
VERTEX
  8
0
 62
     1
 10
26.0920986828587
 20
42.46370618876048
  0
VERTEX
  8
0
 62
     1
 10
26.115982
 20
42.466609
  0
SEQEND
  8
0
 62
     1
  0
POLYLINE
  8
0
 62
     1
 66
     1
 70
     1
  0
VERTEX
  8
0
 62
     1
 10
26.115982
 20
42.466609
  0
VERTEX
  8
0
 62
     1
 10
26.115982
 20
42.466609
  0
SEQEND
  8
0
 62
     1
  0
POLYLINE
  8
LAYER_1
 62
     7
 66
     1
  0
VERTEX
  8
LAYER_1
 62
     7
 10
27.290679
 20
41.696541
  0
VERTEX
  8
LAYER_1
 62
     7
 10
27.27955894368364
 20
41.70397744660383
  0
VERTEX
  8
LAYER_1
 62
     7
 10
27.2685103320772
 20
41.71147828284273
  0
VERTEX
  8
LAYER_1
 62
     7
 10
27.25760460989058
 20
41.71910789835181
  0
VERTEX
  8
LAYER_1
 62
     7
 10
27.2469132218337
 20
41.72693068276613
  0
VERTEX
  8
LAYER_1
 62
     7
 10
27.23650761261649
 20
41.73501102572079
  0
VERTEX
  8
LAYER_1
 62
     7
 10
27.22645922694884
 20
41.74341331685085
  0
VERTEX
  8
LAYER_1
 62
     7
 10
27.21683950954068
 20
41.75220194579141
  0
VERTEX
  8
LAYER_1
 62
     7
 10
27.2077199051019
 20
41.76144130217754
  0
VERTEX
  8
LAYER_1
 62
     7
 10
27.19917185834245
 20
41.77119577564434
  0
VERTEX
  8
LAYER_1
 62
     7
 10
27.19125484483274
 20
41.78151353651706
  0
VERTEX
  8
LAYER_1
 62
     7
 10
27.18396665389169
 20
41.79235916444776
  0
VERTEX
  8
LAYER_1
 62
     7
 10
27.17728525931162
 20
41.80367038718614
  0
VERTEX
  8
LAYER_1
 62
     7
 10
27.17118862560598
 20
41.81538491990811
  0
VERTEX
  8
LAYER_1
 62
     7
 10
27.16565471728817
 20
41.82744047778955
  0
VERTEX
  8
LAYER_1
 62
     7
 10
27.16066149887166
 20
41.83977477600639
  0
VERTEX
  8
LAYER_1
 62
     7
 10
27.15618693486984
 20
41.85232552973451
  0
VERTEX
  8
LAYER_1
 62
     7
 10
27.15220898979616
 20
41.8650304541498
  0
VERTEX
  8
LAYER_1
 62
     7
 10
27.14870595402105
 20
41.87782862542561
  0
VERTEX
  8
LAYER_1
 62
     7
 10
27.14566301061678
 20
41.89068790828291
  0
VERTEX
  8
LAYER_1
 62
     7
 10
27.14307191662294
 20
41.90360362474102
  0
VERTEX
  8
LAYER_1
 62
     7
 10
27.14092469114445
 20
41.91657219137968
  0
VERTEX
  8
LAYER_1
 62
     7
 10
27.13921335328618
 20
41.92959002477869
  0
VERTEX
  8
LAYER_1
 62
     7
 10
27.13792992215303
 20
41.94265354151783
  0
VERTEX
  8
LAYER_1
 62
     7
 10
27.13706641684988
 20
41.95575915817685
  0
VERTEX
  8
LAYER_1
 62
     7
 10
27.13661485648162
 20
41.96890329133554
  0
VERTEX
  8
LAYER_1
 62
     7
 10
27.13656726015314
 20
41.98208235757365
  0
VERTEX
  8
LAYER_1
 62
     7
 10
27.13691653595298
 20
41.99529200289588
  0
VERTEX
  8
LAYER_1
 62
     7
 10
27.13767061175674
 20
42.00851485408633
  0
VERTEX
  8
LAYER_1
 62
     7
 10
27.1388499245987
 20
42.02172269493294
  0
VERTEX
  8
LAYER_1
 62
     7
 10
27.14047529309926
 20
42.03488697846299
  0
VERTEX
  8
LAYER_1
 62
     7
 10
27.14256753587879
 20
42.04797915770379
  0
VERTEX
  8
LAYER_1
 62
     7
 10
27.14514747155766
 20
42.06097068568265
  0
VERTEX
  8
LAYER_1
 62
     7
 10
27.14823591875627
 20
42.07383301542688
  0
VERTEX
  8
LAYER_1
 62
     7
 10
27.15185369609499
 20
42.08653759996378
  0
VERTEX
  8
LAYER_1
 62
     7
 10
27.15602162219419
 20
42.09905589232066
  0
VERTEX
  8
LAYER_1
 62
     7
 10
27.16076051567426
 20
42.11135934552483
  0
VERTEX
  8
LAYER_1
 62
     7
 10
27.16609119515559
 20
42.12341941260359
  0
VERTEX
  8
LAYER_1
 62
     7
 10
27.1720336712859
 20
42.13520767417256
  0
VERTEX
  8
LAYER_1
 62
     7
 10
27.17858514210466
 20
42.14669931322418
  0
VERTEX
  8
LAYER_1
 62
     7
 10
27.18571736224773
 20
42.15787353056103
  0
VERTEX
  8
LAYER_1
 62
     7
 10
27.19340075025366
 20
42.168709737971
  0
VERTEX
  8
LAYER_1
 62
     7
 10
27.20160572466102
 20
42.179187347242
  0
VERTEX
  8
LAYER_1
 62
     7
 10
27.21030270400836
 20
42.18928577016192
  0
VERTEX
  8
LAYER_1
 62
     7
 10
27.21946210683426
 20
42.19898441851867
  0
VERTEX
  8
LAYER_1
 62
     7
 10
27.22905435167727
 20
42.20826270410015
  0
VERTEX
  8
LAYER_1
 62
     7
 10
27.23904985707595
 20
42.21710003869428
  0
VERTEX
  8
LAYER_1
 62
     7
 10
27.24941904156888
 20
42.22547583408894
  0
VERTEX
  8
LAYER_1
 62
     7
 10
27.2601323236946
 20
42.23336950207204
  0
VERTEX
  8
LAYER_1
 62
     7
 10
27.27116012199169
 20
42.24076045443149
  0
VERTEX
  8
LAYER_1
 62
     7
 10
27.28247285651179
 20
42.24762810747115
  0
VERTEX
  8
LAYER_1
 62
     7
 10
27.29404366688482
 20
42.25395999430121
  0
VERTEX
  8
LAYER_1
 62
     7
 10
27.3058540251756
 20
42.25976851687354
  0
VERTEX
  8
LAYER_1
 62
     7
 10
27.31788699384324
 20
42.26507082380325
  0
VERTEX
  8
LAYER_1
 62
     7
 10
27.33012563534681
 20
42.26988406370546
  0
VERTEX
  8
LAYER_1
 62
     7
 10
27.3425530121454
 20
42.27422538519528
  0
VERTEX
  8
LAYER_1
 62
     7
 10
27.35515218669809
 20
42.27811193688782
  0
VERTEX
  8
LAYER_1
 62
     7
 10
27.36790622146398
 20
42.28156086739818
  0
VERTEX
  8
LAYER_1
 62
     7
 10
27.38079817890215
 20
42.28458932534149
  0
VERTEX
  8
LAYER_1
 62
     7
 10
27.39381112147167
 20
42.28721445933284
  0
VERTEX
  8
LAYER_1
 62
     7
 10
27.40692811163164
 20
42.28945341798735
  0
VERTEX
  8
LAYER_1
 62
     7
 10
27.42013221184114
 20
42.29132334992013
  0
VERTEX
  8
LAYER_1
 62
     7
 10
27.43340648455927
 20
42.29284140374629
  0
VERTEX
  8
LAYER_1
 62
     7
 10
27.4467339922451
 20
42.29402472808094
  0
VERTEX
  8
LAYER_1
 62
     7
 10
27.46009779735772
 20
42.29489047153919
  0
VERTEX
  8
LAYER_1
 62
     7
 10
27.47348096235621
 20
42.29545578273616
  0
VERTEX
  8
LAYER_1
 62
     7
 10
27.48686654969966
 20
42.29573781028693
  0
VERTEX
  8
LAYER_1
 62
     7
 10
27.50023770063018
 20
42.2957533694728
  0
VERTEX
  8
LAYER_1
 62
     7
 10
27.51358090660692
 20
42.29550510068763
  0
VERTEX
  8
LAYER_1
 62
     7
 10
27.52688718519309
 20
42.29497649421752
  0
VERTEX
  8
LAYER_1
 62
     7
 10
27.54014787460477
 20
42.29414968365499
  0
VERTEX
  8
LAYER_1
 62
     7
 10
27.55335431305804
 20
42.29300680259258
  0
VERTEX
  8
LAYER_1
 62
     7
 10
27.56649783876896
 20
42.29152998462285
  0
VERTEX
  8
LAYER_1
 62
     7
 10
27.57956978995362
 20
42.28970136333831
  0
VERTEX
  8
LAYER_1
 62
     7
 10
27.59256150482809
 20
42.2875030723315
  0
VERTEX
  8
LAYER_1
 62
     7
 10
27.60546432160844
 20
42.28491724519499
  0
VERTEX
  8
LAYER_1
 62
     7
 10
27.61826957851075
 20
42.28192601552126
  0
VERTEX
  8
LAYER_1
 62
     7
 10
27.63096861375109
 20
42.2785115169029
  0
VERTEX
  8
LAYER_1
 62
     7
 10
27.64355276554553
 20
42.27465588293241
  0
VERTEX
  8
LAYER_1
 62
     7
 10
27.65601337211016
 20
42.27034124720235
  0
VERTEX
  8
LAYER_1
 62
     7
 10
27.66834177166103
 20
42.26554974330523
  0
VERTEX
  8
LAYER_1
 62
     7
 10
27.68052930241424
 20
42.26026350483361
  0
VERTEX
  8
LAYER_1
 62
     7
 10
27.69256680639621
 20
42.25446508489786
  0
VERTEX
  8
LAYER_1
 62
     7
 10
27.70442837576138
 20
42.24815119827035
  0
VERTEX
  8
LAYER_1
 62
     7
 10
27.71606770874272
 20
42.24133580235218
  0
VERTEX
  8
LAYER_1
 62
     7
 10
27.72743726970952
 20
42.23403389775002
  0
VERTEX
  8
LAYER_1
 62
     7
 10
27.73848952303112
 20
42.22626048507051
  0
VERTEX
  8
LAYER_1
 62
     7
 10
27.74917693307681
 20
42.21803056492031
  0
VERTEX
  8
LAYER_1
 62
     7
 10
27.75945196421592
 20
42.2093591379061
  0
VERTEX
  8
LAYER_1
 62
     7
 10
27.76926708081777
 20
42.20026120463452
  0
VERTEX
  8
LAYER_1
 62
     7
 10
27.77857474725166
 20
42.19075176571226
  0
VERTEX
  8
LAYER_1
 62
     7
 10
27.78732742788692
 20
42.18084582174595
  0
VERTEX
  8
LAYER_1
 62
     7
 10
27.79547758709285
 20
42.17055837334225
  0
VERTEX
  8
LAYER_1
 62
     7
 10
27.80297768923877
 20
42.15990442110783
  0
VERTEX
  8
LAYER_1
 62
     7
 10
27.80978019869401
 20
42.14889896564934
  0
VERTEX
  8
LAYER_1
 62
     7
 10
27.81584724978116
 20
42.13755828333295
  0
VERTEX
  8
LAYER_1
 62
     7
 10
27.8212269976934
 20
42.12590999928089
  0
VERTEX
  8
LAYER_1
 62
     7
 10
27.82601268865997
 20
42.11398768748769
  0
VERTEX
  8
LAYER_1
 62
     7
 10
27.83029796609235
 20
42.10182497434825
  0
VERTEX
  8
LAYER_1
 62
     7
 10
27.83417647340207
 20
42.08945548625743
  0
VERTEX
  8
LAYER_1
 62
     7
 10
27.8377418540006
 20
42.07691284961011
  0
VERTEX
  8
LAYER_1
 62
     7
 10
27.84108775129945
 20
42.0642306908012
  0
VERTEX
  8
LAYER_1
 62
     7
 10
27.84430780871012
 20
42.05144263622557
  0
VERTEX
  8
LAYER_1
 62
     7
 10
27.8474956696441
 20
42.0385823122781
  0
VERTEX
  8
LAYER_1
 62
     7
 10
27.85074497751289
 20
42.02568334535366
  0
VERTEX
  8
LAYER_1
 62
     7
 10
27.85414937572801
 20
42.01277936184717
  0
VERTEX
  8
LAYER_1
 62
     7
 10
27.85780250770092
 20
41.99990398815346
  0
VERTEX
  8
LAYER_1
 62
     7
 10
27.86179801684314
 20
41.98709085066746
  0
VERTEX
  8
LAYER_1
 62
     7
 10
27.86622954656618
 20
41.97437357578404
  0
VERTEX
  8
LAYER_1
 62
     7
 10
27.87151147153893
 20
41.96207233253575
  0
VERTEX
  8
LAYER_1
 62
     7
 10
27.88078985446898
 20
41.95308688663366
  0
VERTEX
  8
LAYER_1
 62
     7
 10
27.89363867482946
 20
41.94991114961705
  0
VERTEX
  8
LAYER_1
 62
     7
 10
27.906717
 20
41.951358
  0
SEQEND
  8
LAYER_1
 62
     7
  0
POLYLINE
  8
LAYER_1
 62
     7
 66
     1
  0
VERTEX
  8
LAYER_1
 62
     7
 10
27.906717
 20
41.951358
  0
VERTEX
  8
LAYER_1
 62
     7
 10
28.015924
 20
41.979359
  0
SEQEND
  8
LAYER_1
 62
     7
  0
POLYLINE
  8
LAYER_1
 62
     7
 66
     1
  0
VERTEX
  8
LAYER_1
 62
     7
 10
28.015924
 20
41.979359
  0
VERTEX
  8
LAYER_1
 62
     7
 10
28.03055702326053
 20
41.99159473777001
  0
VERTEX
  8
LAYER_1
 62
     7
 10
28.03330030900132
 20
42.01072525985175
  0
VERTEX
  8
LAYER_1
 62
     7
 10
28.03076576910222
 20
42.02993560357795
  0
VERTEX
  8
LAYER_1
 62
     7
 10
28.02760684280884
 20
42.04910811756587
  0
VERTEX
  8
LAYER_1
 62
     7
 10
28.02385678845264
 20
42.06821324114716
  0
VERTEX
  8
LAYER_1
 62
     7
 10
28.01950369310034
 20
42.08721763829362
  0
VERTEX
  8
LAYER_1
 62
     7
 10
28.01453564381866
 20
42.10608797297705
  0
VERTEX
  8
LAYER_1
 62
     7
 10
28.00894072767432
 20
42.12479090916927
  0
VERTEX
  8
LAYER_1
 62
     7
 10
28.00270703173404
 20
42.14329311084207
  0
VERTEX
  8
LAYER_1
 62
     7
 10
27.99582264306455
 20
42.16156124196725
  0
VERTEX
  8
LAYER_1
 62
     7
 10
27.98827564873256
 20
42.17956196651663
  0
VERTEX
  8
LAYER_1
 62
     7
 10
27.98005413580479
 20
42.197261948462
  0
VERTEX
  8
LAYER_1
 62
     7
 10
27.97114619134798
 20
42.21462785177516
  0
VERTEX
  8
LAYER_1
 62
     7
 10
27.96153990242883
 20
42.23162634042793
  0
VERTEX
  8
LAYER_1
 62
     7
 10
27.95122352534723
 20
42.24822409681914
  0
VERTEX
  8
LAYER_1
 62
     7
 10
27.94019918736934
 20
42.26438931369433
  0
VERTEX
  8
LAYER_1
 62
     7
 10
27.92849297909067
 20
42.28009279305751
  0
VERTEX
  8
LAYER_1
 62
     7
 10
27.91613336994075
 20
42.29530559593316
  0
VERTEX
  8
LAYER_1
 62
     7
 10
27.90314882934908
 20
42.30999878334575
  0
VERTEX
  8
LAYER_1
 62
     7
 10
27.8895678267452
 20
42.32414341631974
  0
VERTEX
  8
LAYER_1
 62
     7
 10
27.87541883155863
 20
42.3377105558796
  0
VERTEX
  8
LAYER_1
 62
     7
 10
27.86073031321889
 20
42.3506712630498
  0
VERTEX
  8
LAYER_1
 62
     7
 10
27.84553074115552
 20
42.36299659885482
  0
VERTEX
  8
LAYER_1
 62
     7
 10
27.82984858479803
 20
42.3746576243191
  0
VERTEX
  8
LAYER_1
 62
     7
 10
27.81371231357596
 20
42.38562540046715
  0
VERTEX
  8
LAYER_1
 62
     7
 10
27.79715039691882
 20
42.39587098832342
  0
VERTEX
  8
LAYER_1
 62
     7
 10
27.780191304248
 20
42.40536544914462
  0
VERTEX
  8
LAYER_1
 62
     7
 10
27.76286318167726
 20
42.41408906307179
  0
VERTEX
  8
LAYER_1
 62
     7
 10
27.74519299399289
 20
42.42205579495359
  0
VERTEX
  8
LAYER_1
 62
     7
 10
27.7272074362424
 20
42.42928730104499
  0
VERTEX
  8
LAYER_1
 62
     7
 10
27.70893320347333
 20
42.43580523760104
  0
VERTEX
  8
LAYER_1
 62
     7
 10
27.69039699073321
 20
42.4416312608767
  0
VERTEX
  8
LAYER_1
 62
     7
 10
27.67162549306957
 20
42.44678702712702
  0
VERTEX
  8
LAYER_1
 62
     7
 10
27.65264540552993
 20
42.45129419260699
  0
VERTEX
  8
LAYER_1
 62
     7
 10
27.63348342316185
 20
42.45517441357161
  0
VERTEX
  8
LAYER_1
 62
     7
 10
27.61416624101284
 20
42.4584493462759
  0
VERTEX
  8
LAYER_1
 62
     7
 10
27.59472055413044
 20
42.46114064697488
  0
VERTEX
  8
LAYER_1
 62
     7
 10
27.57517305756216
 20
42.46326997192351
  0
VERTEX
  8
LAYER_1
 62
     7
 10
27.55555044635556
 20
42.46485897737684
  0
VERTEX
  8
LAYER_1
 62
     7
 10
27.53587941555816
 20
42.46592931958987
  0
VERTEX
  8
LAYER_1
 62
     7
 10
27.51618666021749
 20
42.4665026548176
  0
VERTEX
  8
LAYER_1
 62
     7
 10
27.49649887538109
 20
42.46660063931504
  0
VERTEX
  8
LAYER_1
 62
     7
 10
27.47684120089916
 20
42.46623968313956
  0
VERTEX
  8
LAYER_1
 62
     7
 10
27.45723106137675
 20
42.46541017026113
  0
VERTEX
  8
LAYER_1
 62
     7
 10
27.43768349336283
 20
42.46409442894273
  0
VERTEX
  8
LAYER_1
 62
     7
 10
27.41821353269445
 20
42.46227478504566
  0
VERTEX
  8
LAYER_1
 62
     7
 10
27.39883621520866
 20
42.45993356443124
  0
VERTEX
  8
LAYER_1
 62
     7
 10
27.37956657674249
 20
42.45705309296078
  0
VERTEX
  8
LAYER_1
 62
     7
 10
27.360419653133
 20
42.45361569649556
  0
VERTEX
  8
LAYER_1
 62
     7
 10
27.34141048021721
 20
42.44960370089694
  0
VERTEX
  8
LAYER_1
 62
     7
 10
27.32255409383218
 20
42.44499943202619
  0
VERTEX
  8
LAYER_1
 62
     7
 10
27.30386552981494
 20
42.43978521574464
  0
VERTEX
  8
LAYER_1
 62
     7
 10
27.28535982400254
 20
42.4339433779136
  0
VERTEX
  8
LAYER_1
 62
     7
 10
27.26705201223203
 20
42.42745624439439
  0
VERTEX
  8
LAYER_1
 62
     7
 10
27.24895713034043
 20
42.4203061410483
  0
VERTEX
  8
LAYER_1
 62
     7
 10
27.2310902141648
 20
42.41247539373666
  0
VERTEX
  8
LAYER_1
 62
     7
 10
27.21347056149419
 20
42.40395016805147
  0
VERTEX
  8
LAYER_1
 62
     7
 10
27.1961390656736
 20
42.39473608572124
  0
VERTEX
  8
LAYER_1
 62
     7
 10
27.17914344379386
 20
42.3848449162082
  0
VERTEX
  8
LAYER_1
 62
     7
 10
27.16253141558509
 20
42.37428843135244
  0
VERTEX
  8
LAYER_1
 62
     7
 10
27.14635070077743
 20
42.36307840299408
  0
VERTEX
  8
LAYER_1
 62
     7
 10
27.13064901910101
 20
42.35122660297323
  0
VERTEX
  8
LAYER_1
 62
     7
 10
27.11547409028598
 20
42.33874480312999
  0
VERTEX
  8
LAYER_1
 62
     7
 10
27.10087363406248
 20
42.32564477530448
  0
VERTEX
  8
LAYER_1
 62
     7
 10
27.08689537016063
 20
42.31193829133679
  0
VERTEX
  8
LAYER_1
 62
     7
 10
27.0735870183106
 20
42.29763712306705
  0
VERTEX
  8
LAYER_1
 62
     7
 10
27.0609962982425
 20
42.28275304233537
  0
VERTEX
  8
LAYER_1
 62
     7
 10
27.04917092968648
 20
42.26729782098182
  0
VERTEX
  8
LAYER_1
 62
     7
 10
27.03815862745276
 20
42.25128323334786
  0
VERTEX
  8
LAYER_1
 62
     7
 10
27.02799354377763
 20
42.23472794905005
  0
VERTEX
  8
LAYER_1
 62
     7
 10
27.01866668163152
 20
42.21767257499081
  0
VERTEX
  8
LAYER_1
 62
     7
 10
27.01016048210246
 20
42.20016207097304
  0
VERTEX
  8
LAYER_1
 62
     7
 10
27.00245738627847
 20
42.18224139679972
  0
VERTEX
  8
LAYER_1
 62
     7
 10
26.99553983524758
 20
42.16395551227377
  0
VERTEX
  8
LAYER_1
 62
     7
 10
26.9893902700978
 20
42.14534937719808
  0
VERTEX
  8
LAYER_1
 62
     7
 10
26.98399113191716
 20
42.12646795137563
  0
VERTEX
  8
LAYER_1
 62
     7
 10
26.9793248617937
 20
42.10735619460933
  0
VERTEX
  8
LAYER_1
 62
     7
 10
26.97537390081541
 20
42.08805906670213
  0
VERTEX
  8
LAYER_1
 62
     7
 10
26.97212069007034
 20
42.06862152745693
  0
VERTEX
  8
LAYER_1
 62
     7
 10
26.96954767064651
 20
42.04908853667669
  0
VERTEX
  8
LAYER_1
 62
     7
 10
26.96763728363193
 20
42.02950505416433
  0
VERTEX
  8
LAYER_1
 62
     7
 10
26.96637197011465
 20
42.00991603972278
  0
VERTEX
  8
LAYER_1
 62
     7
 10
26.96573430246394
 20
41.99036626554982
  0
VERTEX
  8
LAYER_1
 62
     7
 10
26.9657172826638
 20
41.97088559958935
  0
VERTEX
  8
LAYER_1
 62
     7
 10
26.96633174743434
 20
41.95147842337543
  0
VERTEX
  8
LAYER_1
 62
     7
 10
26.96759028078477
 20
41.93214662150988
  0
VERTEX
  8
LAYER_1
 62
     7
 10
26.96950546672429
 20
41.91289207859458
  0
VERTEX
  8
LAYER_1
 62
     7
 10
26.97208988926214
 20
41.89371667923136
  0
VERTEX
  8
LAYER_1
 62
     7
 10
26.97535613240751
 20
41.87462230802212
  0
VERTEX
  8
LAYER_1
 62
     7
 10
26.97931678016963
 20
41.85561084956866
  0
VERTEX
  8
LAYER_1
 62
     7
 10
26.98398439117209
 20
41.83668469200744
  0
VERTEX
  8
LAYER_1
 62
     7
 10
26.98937021519605
 20
41.81787218493358
  0
VERTEX
  8
LAYER_1
 62
     7
 10
26.99548358778756
 20
41.79923964762587
  0
VERTEX
  8
LAYER_1
 62
     7
 10
27.00233369251585
 20
41.78085641389013
  0
VERTEX
  8
LAYER_1
 62
     7
 10
27.00992971295013
 20
41.76279181753215
  0
VERTEX
  8
LAYER_1
 62
     7
 10
27.0182808326596
 20
41.74511519235774
  0
VERTEX
  8
LAYER_1
 62
     7
 10
27.02739623521349
 20
41.72789587217274
  0
VERTEX
  8
LAYER_1
 62
     7
 10
27.03728510418101
 20
41.71120319078292
  0
VERTEX
  8
LAYER_1
 62
     7
 10
27.04795662313137
 20
41.69510648199415
  0
VERTEX
  8
LAYER_1
 62
     7
 10
27.05941997563379
 20
41.67967507961218
  0
VERTEX
  8
LAYER_1
 62
     7
 10
27.07167228055622
 20
41.66495757479502
  0
VERTEX
  8
LAYER_1
 62
     7
 10
27.08465998468275
 20
41.65091543899771
  0
VERTEX
  8
LAYER_1
 62
     7
 10
27.09831623358985
 20
41.63748727512183
  0
VERTEX
  8
LAYER_1
 62
     7
 10
27.11257417279948
 20
41.62461168597527
  0
VERTEX
  8
LAYER_1
 62
     7
 10
27.12736694783354
 20
41.61222727436584
  0
VERTEX
  8
LAYER_1
 62
     7
 10
27.14262770421401
 20
41.60027264310142
  0
VERTEX
  8
LAYER_1
 62
     7
 10
27.15828958746282
 20
41.58868639498986
  0
VERTEX
  8
LAYER_1
 62
     7
 10
27.17428574310192
 20
41.57740713283903
  0
VERTEX
  8
LAYER_1
 62
     7
 10
27.19054931665324
 20
41.56637345945677
  0
VERTEX
  8
LAYER_1
 62
     7
 10
27.20701345363873
 20
41.55552397765094
  0
VERTEX
  8
LAYER_1
 62
     7
 10
27.22361129958034
 20
41.54479729022941
  0
VERTEX
  8
LAYER_1
 62
     7
 10
27.240276
 20
41.534132
  0
SEQEND
  8
LAYER_1
 62
     7
  0
POLYLINE
  8
LAYER_1
 62
     7
 66
     1
  0
VERTEX
  8
LAYER_1
 62
     7
 10
27.240276
 20
41.534132
  0
VERTEX
  8
LAYER_1
 62
     7
 10
27.668702
 20
41.315718
  0
SEQEND
  8
LAYER_1
 62
     7
  0
POLYLINE
  8
LAYER_1
 62
     7
 66
     1
  0
VERTEX
  8
LAYER_1
 62
     7
 10
27.668702
 20
41.315718
  0
VERTEX
  8
LAYER_1
 62
     7
 10
27.68142501863522
 20
41.30793767569955
  0
VERTEX
  8
LAYER_1
 62
     7
 10
27.69410460620009
 20
41.3001084674761
  0
VERTEX
  8
LAYER_1
 62
     7
 10
27.70669733162422
 20
41.29218149140659
  0
VERTEX
  8
LAYER_1
 62
     7
 10
27.71915976383729
 20
41.28410786356802
  0
VERTEX
  8
LAYER_1
 62
     7
 10
27.73144847176891
 20
41.27583870003739
  0
VERTEX
  8
LAYER_1
 62
     7
 10
27.74352002434875
 20
41.26732511689166
  0
VERTEX
  8
LAYER_1
 62
     7
 10
27.75533099050644
 20
41.25851823020781
  0
VERTEX
  8
LAYER_1
 62
     7
 10
27.7668379391716
 20
41.24936915606282
  0
VERTEX
  8
LAYER_1
 62
     7
 10
27.7779974392739
 20
41.23982901053368
  0
VERTEX
  8
LAYER_1
 62
     7
 10
27.78876605974295
 20
41.22984890969737
  0
VERTEX
  8
LAYER_1
 62
     7
 10
27.79910037263093
 20
41.21937998631499
  0
VERTEX
  8
LAYER_1
 62
     7
 10
27.80896050407476
 20
41.20839236325629
  0
VERTEX
  8
LAYER_1
 62
     7
 10
27.81831696362817
 20
41.19691164383842
  0
VERTEX
  8
LAYER_1
 62
     7
 10
27.82714214695418
 20
41.18497350919675
  0
VERTEX
  8
LAYER_1
 62
     7
 10
27.83540844971584
 20
41.17261364046668
  0
VERTEX
  8
LAYER_1
 62
     7
 10
27.84308826757618
 20
41.15986771878357
  0
VERTEX
  8
LAYER_1
 62
     7
 10
27.85015399619821
 20
41.1467714252828
  0
VERTEX
  8
LAYER_1
 62
     7
 10
27.85657803124496
 20
41.13336044109973
  0
VERTEX
  8
LAYER_1
 62
     7
 10
27.86233276837948
 20
41.11967044736976
  0
VERTEX
  8
LAYER_1
 62
     7
 10
27.86739139574526
 20
41.10573699194514
  0
VERTEX
  8
LAYER_1
 62
     7
 10
27.87174875401962
 20
41.09159198105261
  0
VERTEX
  8
LAYER_1
 62
     7
 10
27.87542342995803
 20
41.07726332719115
  0
VERTEX
  8
LAYER_1
 62
     7
 10
27.87843522262375
 20
41.06277873896812
  0
VERTEX
  8
LAYER_1
 62
     7
 10
27.88080393108002
 20
41.04816592499089
  0
VERTEX
  8
LAYER_1
 62
     7
 10
27.88254935439008
 20
41.03345259386677
  0
VERTEX
  8
LAYER_1
 62
     7
 10
27.88369129161719
 20
41.01866645420315
  0
VERTEX
  8
LAYER_1
 62
     7
 10
27.88424954182459
 20
41.00383521460734
  0
VERTEX
  8
LAYER_1
 62
     7
 10
27.88424343591585
 20
40.98898646146143
  0
VERTEX
  8
LAYER_1
 62
     7
 10
27.88368182981527
 20
40.9741450463809
  0
VERTEX
  8
LAYER_1
 62
     7
 10
27.88256326454038
 20
40.95933312800582
  0
VERTEX
  8
LAYER_1
 62
     7
 10
27.88088584496588
 20
40.94457275110979
  0
VERTEX
  8
LAYER_1
 62
     7
 10
27.87864767596646
 20
40.92988596046639
  0
VERTEX
  8
LAYER_1
 62
     7
 10
27.87584686241683
 20
40.91529480084922
  0
VERTEX
  8
LAYER_1
 62
     7
 10
27.87248150919169
 20
40.9008213170319
  0
VERTEX
  8
LAYER_1
 62
     7
 10
27.86854972116576
 20
40.88648755378799
  0
VERTEX
  8
LAYER_1
 62
     7
 10
27.86404960321372
 20
40.87231555589111
  0
VERTEX
  8
LAYER_1
 62
     7
 10
27.85897926021028
 20
40.85832736811484
  0
VERTEX
  8
LAYER_1
 62
     7
 10
27.85333679703014
 20
40.8445450352328
  0
VERTEX
  8
LAYER_1
 62
     7
 10
27.847120318548
 20
40.83099060201856
  0
VERTEX
  8
LAYER_1
 62
     7
 10
27.8403300371611
 20
40.81768676347766
  0
VERTEX
  8
LAYER_1
 62
     7
 10
27.83297875748692
 20
40.80466009968143
  0
VERTEX
  8
LAYER_1
 62
     7
 10
27.82508394082887
 20
40.79193862742411
  0
VERTEX
  8
LAYER_1
 62
     7
 10
27.81666305598394
 20
40.77955036581191
  0
VERTEX
  8
LAYER_1
 62
     7
 10
27.80773357174919
 20
40.76752333395105
  0
VERTEX
  8
LAYER_1
 62
     7
 10
27.79831295692162
 20
40.7558855509478
  0
VERTEX
  8
LAYER_1
 62
     7
 10
27.78841868029827
 20
40.74466503590835
  0
VERTEX
  8
LAYER_1
 62
     7
 10
27.77806821067616
 20
40.73388980793896
  0
VERTEX
  8
LAYER_1
 62
     7
 10
27.76727901685232
 20
40.72358788614585
  0
VERTEX
  8
LAYER_1
 62
     7
 10
27.75606856762376
 20
40.71378728963523
  0
VERTEX
  8
LAYER_1
 62
     7
 10
27.74445433178752
 20
40.70451603751335
  0
VERTEX
  8
LAYER_1
 62
     7
 10
27.73245377814062
 20
40.69580214888644
  0
VERTEX
  8
LAYER_1
 62
     7
 10
27.72008437811891
 20
40.68767362734349
  0
VERTEX
  8
LAYER_1
 62
     7
 10
27.70736536782956
 20
40.68014809956804
  0
VERTEX
  8
LAYER_1
 62
     7
 10
27.69432080501336
 20
40.67321483929533
  0
VERTEX
  8
LAYER_1
 62
     7
 10
27.68097556339118
 20
40.66685832200223
  0
VERTEX
  8
LAYER_1
 62
     7
 10
27.66735451668395
 20
40.66106302316562
  0
VERTEX
  8
LAYER_1
 62
     7
 10
27.65348253861255
 20
40.65581341826243
  0
VERTEX
  8
LAYER_1
 62
     7
 10
27.63938450289791
 20
40.65109398276953
  0
VERTEX
  8
LAYER_1
 62
     7
 10
27.62508528326092
 20
40.64688919216382
  0
VERTEX
  8
LAYER_1
 62
     7
 10
27.61060975342248
 20
40.6431835219222
  0
VERTEX
  8
LAYER_1
 62
     7
 10
27.59598278710352
 20
40.63996144752155
  0
VERTEX
  8
LAYER_1
 62
     7
 10
27.58122925802492
 20
40.63720744443877
  0
VERTEX
  8
LAYER_1
 62
     7
 10
27.56637403990761
 20
40.63490598815078
  0
VERTEX
  8
LAYER_1
 62
     7
 10
27.55144200647247
 20
40.63304155413442
  0
VERTEX
  8
LAYER_1
 62
     7
 10
27.53645803144043
 20
40.63159861786663
  0
VERTEX
  8
LAYER_1
 62
     7
 10
27.52144698853238
 20
40.63056165482428
  0
VERTEX
  8
LAYER_1
 62
     7
 10
27.50643375146922
 20
40.62991514048428
  0
VERTEX
  8
LAYER_1
 62
     7
 10
27.49144315513599
 20
40.62964364051387
  0
VERTEX
  8
LAYER_1
 62
     7
 10
27.47649502112131
 20
40.62974336318935
  0
VERTEX
  8
LAYER_1
 62
     7
 10
27.46159926073019
 20
40.63023353189489
  0
VERTEX
  8
LAYER_1
 62
     7
 10
27.44676462201447
 20
40.63113607149108
  0
VERTEX
  8
LAYER_1
 62
     7
 10
27.43199985302602
 20
40.63247290683849
  0
VERTEX
  8
LAYER_1
 62
     7
 10
27.41731370181666
 20
40.63426596279771
  0
VERTEX
  8
LAYER_1
 62
     7
 10
27.40271491643826
 20
40.6365371642293
  0
VERTEX
  8
LAYER_1
 62
     7
 10
27.38821224494264
 20
40.63930843599383
  0
VERTEX
  8
LAYER_1
 62
     7
 10
27.37381443538168
 20
40.64260170295191
  0
VERTEX
  8
LAYER_1
 62
     7
 10
27.3595302358072
 20
40.64643888996409
  0
VERTEX
  8
LAYER_1
 62
     7
 10
27.34536839427104
 20
40.65084192189094
  0
VERTEX
  8
LAYER_1
 62
     7
 10
27.33133765882508
 20
40.65583272359304
  0
VERTEX
  8
LAYER_1
 62
     7
 10
27.31744685279609
 20
40.6614331492841
  0
VERTEX
  8
LAYER_1
 62
     7
 10
27.30371782888951
 20
40.66765282487128
  0
VERTEX
  8
LAYER_1
 62
     7
 10
27.29020018858726
 20
40.67447533353536
  0
VERTEX
  8
LAYER_1
 62
     7
 10
27.27694709133991
 20
40.68188091923945
  0
VERTEX
  8
LAYER_1
 62
     7
 10
27.26401169659801
 20
40.68984982594668
  0
VERTEX
  8
LAYER_1
 62
     7
 10
27.25144716381212
 20
40.69836229762014
  0
VERTEX
  8
LAYER_1
 62
     7
 10
27.23930665243282
 20
40.70739857822299
  0
VERTEX
  8
LAYER_1
 62
     7
 10
27.22764332191067
 20
40.7169389117183
  0
VERTEX
  8
LAYER_1
 62
     7
 10
27.21651033169623
 20
40.72696354206922
  0
VERTEX
  8
LAYER_1
 62
     7
 10
27.20596084124006
 20
40.73745271323886
  0
VERTEX
  8
LAYER_1
 62
     7
 10
27.19604800999273
 20
40.74838666919031
  0
VERTEX
  8
LAYER_1
 62
     7
 10
27.1868249974048
 20
40.75974565388672
  0
VERTEX
  8
LAYER_1
 62
     7
 10
27.17834496292684
 20
40.7715099112912
  0
VERTEX
  8
LAYER_1
 62
     7
 10
27.17065738320894
 20
40.78365963731066
  0
VERTEX
  8
LAYER_1
 62
     7
 10
27.16375277343223
 20
40.79617425847456
  0
VERTEX
  8
LAYER_1
 62
     7
 10
27.15757420350242
 20
40.80903258220756
  0
VERTEX
  8
LAYER_1
 62
     7
 10
27.1520633979124
 20
40.8222133983783
  0
VERTEX
  8
LAYER_1
 62
     7
 10
27.14716208115501
 20
40.83569549685539
  0
VERTEX
  8
LAYER_1
 62
     7
 10
27.14281197772313
 20
40.84945766750748
  0
VERTEX
  8
LAYER_1
 62
     7
 10
27.13895481210961
 20
40.86347870020319
  0
VERTEX
  8
LAYER_1
 62
     7
 10
27.13553230880732
 20
40.87773738481114
  0
VERTEX
  8
LAYER_1
 62
     7
 10
27.13248619230912
 20
40.89221251119997
  0
VERTEX
  8
LAYER_1
 62
     7
 10
27.12975818710788
 20
40.9068828692383
  0
VERTEX
  8
LAYER_1
 62
     7
 10
27.12729001769646
 20
40.92172724879475
  0
VERTEX
  8
LAYER_1
 62
     7
 10
27.12502340856771
 20
40.93672443973796
  0
VERTEX
  8
LAYER_1
 62
     7
 10
27.1229000842145
 20
40.95185323193656
  0
VERTEX
  8
LAYER_1
 62
     7
 10
27.12086176912971
 20
40.96709241525919
  0
VERTEX
  8
LAYER_1
 62
     7
 10
27.11885018780617
 20
40.98242077957444
  0
VERTEX
  8
LAYER_1
 62
     7
 10
27.11680706473678
 20
40.99781711475097
  0
VERTEX
  8
LAYER_1
 62
     7
 10
27.11467412441438
 20
41.01326021065739
  0
VERTEX
  8
LAYER_1
 62
     7
 10
27.11176689627796
 20
41.02832287843707
  0
VERTEX
  8
LAYER_1
 62
     7
 10
27.10319672007784
 20
41.03974868191746
  0
VERTEX
  8
LAYER_1
 62
     7
 10
27.089066
 20
41.044102
  0
SEQEND
  8
LAYER_1
 62
     7
  0
POLYLINE
  8
LAYER_1
 62
     7
 66
     1
  0
VERTEX
  8
LAYER_1
 62
     7
 10
27.089066
 20
41.044102
  0
VERTEX
  8
LAYER_1
 62
     7
 10
26.971459
 20
41.044102
  0
SEQEND
  8
LAYER_1
 62
     7
  0
POLYLINE
  8
LAYER_1
 62
     7
 66
     1
  0
VERTEX
  8
LAYER_1
 62
     7
 10
26.971459
 20
41.044102
  0
VERTEX
  8
LAYER_1
 62
     7
 10
26.95225504836176
 20
41.03730000906842
  0
VERTEX
  8
LAYER_1
 62
     7
 10
26.94394301732341
 20
41.0189420628733
  0
VERTEX
  8
LAYER_1
 62
     7
 10
26.94089215169096
 20
40.99753948684007
  0
VERTEX
  8
LAYER_1
 62
     7
 10
26.93912729163794
 20
40.97620634498588
  0
VERTEX
  8
LAYER_1
 62
     7
 10
26.93860017488511
 20
40.95497551394207
  0
VERTEX
  8
LAYER_1
 62
     7
 10
26.93926892542927
 20
40.93387486608778
  0
VERTEX
  8
LAYER_1
 62
     7
 10
26.94109166726724
 20
40.9129322738022
  0
VERTEX
  8
LAYER_1
 62
     7
 10
26.94402652439584
 20
40.89217560946452
  0
VERTEX
  8
LAYER_1
 62
     7
 10
26.94803162081188
 20
40.87163274545389
  0
VERTEX
  8
LAYER_1
 62
     7
 10
26.95306508051218
 20
40.85133155414948
  0
VERTEX
  8
LAYER_1
 62
     7
 10
26.95908502749355
 20
40.83129990793048
  0
VERTEX
  8
LAYER_1
 62
     7
 10
26.96604958575284
 20
40.81156567917605
  0
VERTEX
  8
LAYER_1
 62
     7
 10
26.97391687928683
 20
40.79215674026536
  0
VERTEX
  8
LAYER_1
 62
     7
 10
26.98264503209235
 20
40.77310096357758
  0
VERTEX
  8
LAYER_1
 62
     7
 10
26.99219216816623
 20
40.7544262214919
  0
VERTEX
  8
LAYER_1
 62
     7
 10
27.00251641150527
 20
40.73616038638747
  0
VERTEX
  8
LAYER_1
 62
     7
 10
27.0135758861063
 20
40.71833133064347
  0
VERTEX
  8
LAYER_1
 62
     7
 10
27.02532871596613
 20
40.70096692663908
  0
VERTEX
  8
LAYER_1
 62
     7
 10
27.03773302519279
 20
40.68409504669012
  0
VERTEX
  8
LAYER_1
 62
     7
 10
27.05075037908932
 20
40.66774160378876
  0
VERTEX
  8
LAYER_1
 62
     7
 10
27.06435481555661
 20
40.65192540936581
  0
VERTEX
  8
LAYER_1
 62
     7
 10
27.07852319741189
 20
40.63666366642089
  0
VERTEX
  8
LAYER_1
 62
     7
 10
27.09323238747236
 20
40.62197357795359
  0
VERTEX
  8
LAYER_1
 62
     7
 10
27.10845924855524
 20
40.60787234696355
  0
VERTEX
  8
LAYER_1
 62
     7
 10
27.12418064347774
 20
40.59437717645033
  0
VERTEX
  8
LAYER_1
 62
     7
 10
27.14037343505705
 20
40.58150526941355
  0
VERTEX
  8
LAYER_1
 62
     7
 10
27.15701448611042
 20
40.56927382885285
  0
VERTEX
  8
LAYER_1
 62
     7
 10
27.17408065945504
 20
40.5577000577678
  0
VERTEX
  8
LAYER_1
 62
     7
 10
27.19154881790812
 20
40.54680115915799
  0
VERTEX
  8
LAYER_1
 62
     7
 10
27.20939582428688
 20
40.53659433602307
  0
VERTEX
  8
LAYER_1
 62
     7
 10
27.22759854140854
 20
40.52709679136263
  0
VERTEX
  8
LAYER_1
 62
     7
 10
27.24613383209029
 20
40.51832572817626
  0
VERTEX
  8
LAYER_1
 62
     7
 10
27.26497857552764
 20
40.51029719718089
  0
VERTEX
  8
LAYER_1
 62
     7
 10
27.28410990239468
 20
40.50300955648255
  0
VERTEX
  8
LAYER_1
 62
     7
 10
27.30350514028655
 20
40.49644730994279
  0
VERTEX
  8
LAYER_1
 62
     7
 10
27.32314162206012
 20
40.49059459123509
  0
VERTEX
  8
LAYER_1
 62
     7
 10
27.34299668057227
 20
40.48543553403283
  0
VERTEX
  8
LAYER_1
 62
     7
 10
27.36304764867989
 20
40.48095427200944
  0
VERTEX
  8
LAYER_1
 62
     7
 10
27.38327185923984
 20
40.47713493883835
  0
VERTEX
  8
LAYER_1
 62
     7
 10
27.403646645109
 20
40.47396166819299
  0
VERTEX
  8
LAYER_1
 62
     7
 10
27.42414933914426
 20
40.47141859374678
  0
VERTEX
  8
LAYER_1
 62
     7
 10
27.44475727420251
 20
40.46948984917316
  0
VERTEX
  8
LAYER_1
 62
     7
 10
27.4654477831406
 20
40.46815956814556
  0
VERTEX
  8
LAYER_1
 62
     7
 10
27.48619819881543
 20
40.46741188433737
  0
VERTEX
  8
LAYER_1
 62
     7
 10
27.50698570877185
 20
40.46723188206178
  0
VERTEX
  8
LAYER_1
 62
     7
 10
27.52778506604844
 20
40.46762057231481
  0
VERTEX
  8
LAYER_1
 62
     7
 10
27.54856900690613
 20
40.46859215997004
  0
VERTEX
  8
LAYER_1
 62
     7
 10
27.56931020676869
 20
40.47016124790127
  0
VERTEX
  8
LAYER_1
 62
     7
 10
27.5899813410599
 20
40.47234243898227
  0
VERTEX
  8
LAYER_1
 62
     7
 10
27.61055508520354
 20
40.47515033608686
  0
VERTEX
  8
LAYER_1
 62
     7
 10
27.63100411462338
 20
40.47859954208879
  0
VERTEX
  8
LAYER_1
 62
     7
 10
27.65130110474321
 20
40.4827046598619
  0
VERTEX
  8
LAYER_1
 62
     7
 10
27.67141873098679
 20
40.48748029227995
  0
VERTEX
  8
LAYER_1
 62
     7
 10
27.69132966877792
 20
40.49294104221676
  0
VERTEX
  8
LAYER_1
 62
     7
 10
27.71100659354036
 20
40.49910151254609
  0
VERTEX
  8
LAYER_1
 62
     7
 10
27.73042218069788
 20
40.50597630614174
  0
VERTEX
  8
LAYER_1
 62
     7
 10
27.74954910567428
 20
40.51358002587752
  0
VERTEX
  8
LAYER_1
 62
     7
 10
27.76836004389332
 20
40.5219272746272
  0
VERTEX
  8
LAYER_1
 62
     7
 10
27.78682767077879
 20
40.53103265526459
  0
VERTEX
  8
LAYER_1
 62
     7
 10
27.80492463759328
 20
40.54091059121935
  0
VERTEX
  8
LAYER_1
 62
     7
 10
27.82262168540786
 20
40.55156131900674
  0
VERTEX
  8
LAYER_1
 62
     7
 10
27.83988629407591
 20
40.56296085421111
  0
VERTEX
  8
LAYER_1
 62
     7
 10
27.85668562460567
 20
40.57508284436727
  0
VERTEX
  8
LAYER_1
 62
     7
 10
27.87298683800542
 20
40.58790093701009
  0
VERTEX
  8
LAYER_1
 62
     7
 10
27.88875709528345
 20
40.60138877967445
  0
VERTEX
  8
LAYER_1
 62
     7
 10
27.90396355744798
 20
40.61552001989517
  0
VERTEX
  8
LAYER_1
 62
     7
 10
27.91857338550732
 20
40.63026830520713
  0
VERTEX
  8
LAYER_1
 62
     7
 10
27.93255374046971
 20
40.64560728314518
  0
VERTEX
  8
LAYER_1
 62
     7
 10
27.94587178334343
 20
40.66151060124418
  0
VERTEX
  8
LAYER_1
 62
     7
 10
27.95849467513675
 20
40.67795190703898
  0
VERTEX
  8
LAYER_1
 62
     7
 10
27.97038957685794
 20
40.69490484806444
  0
VERTEX
  8
LAYER_1
 62
     7
 10
27.98152364951526
 20
40.71234307185541
  0
VERTEX
  8
LAYER_1
 62
     7
 10
27.99186413589414
 20
40.73024020674998
  0
VERTEX
  8
LAYER_1
 62
     7
 10
28.00139076919253
 20
40.74856694902548
  0
VERTEX
  8
LAYER_1
 62
     7
 10
28.01010907973468
 20
40.76728793921521
  0
VERTEX
  8
LAYER_1
 62
     7
 10
28.01802778847243
 20
40.78636706886891
  0
VERTEX
  8
LAYER_1
 62
     7
 10
28.0251556163576
 20
40.80576822953626
  0
VERTEX
  8
LAYER_1
 62
     7
 10
28.03150128434204
 20
40.825455312767
  0
VERTEX
  8
LAYER_1
 62
     7
 10
28.03707351337758
 20
40.84539221011082
  0
VERTEX
  8
LAYER_1
 62
     7
 10
28.04188102441605
 20
40.86554281311746
  0
VERTEX
  8
LAYER_1
 62
     7
 10
28.04593253840931
 20
40.88587101333664
  0
VERTEX
  8
LAYER_1
 62
     7
 10
28.04923677630917
 20
40.90634070231803
  0
VERTEX
  8
LAYER_1
 62
     7
 10
28.05180245906747
 20
40.92691577161139
  0
VERTEX
  8
LAYER_1
 62
     7
 10
28.05363830763606
 20
40.94756011276643
  0
VERTEX
  8
LAYER_1
 62
     7
 10
28.05475304296676
 20
40.96823761733285
  0
VERTEX
  8
LAYER_1
 62
     7
 10
28.05515538601142
 20
40.98891217686036
  0
VERTEX
  8
LAYER_1
 62
     7
 10
28.05485301687374
 20
41.00954837449286
  0
VERTEX
  8
LAYER_1
 62
     7
 10
28.05383989066276
 20
41.03011991298153
  0
VERTEX
  8
LAYER_1
 62
     7
 10
28.05210026942108
 20
41.05060693565998
  0
VERTEX
  8
LAYER_1
 62
     7
 10
28.04961821143311
 20
41.0709897212495
  0
VERTEX
  8
LAYER_1
 62
     7
 10
28.04637777498326
 20
41.09124854847137
  0
VERTEX
  8
LAYER_1
 62
     7
 10
28.04236301835592
 20
41.11136369604684
  0
VERTEX
  8
LAYER_1
 62
     7
 10
28.03755799983549
 20
41.13131544269717
  0
VERTEX
  8
LAYER_1
 62
     7
 10
28.0319467777064
 20
41.15108406714366
  0
VERTEX
  8
LAYER_1
 62
     7
 10
28.02551341043079
 20
41.1706498476057
  0
VERTEX
  8
LAYER_1
 62
     7
 10
28.01824546393669
 20
41.18998315938966
  0
VERTEX
  8
LAYER_1
 62
     7
 10
28.01014300877046
 20
41.20901907249849
  0
VERTEX
  8
LAYER_1
 62
     7
 10
28.00120890097789
 20
41.22768479240845
  0
VERTEX
  8
LAYER_1
 62
     7
 10
27.99144599660476
 20
41.24590752459581
  0
VERTEX
  8
LAYER_1
 62
     7
 10
27.98085715169688
 20
41.26361447453684
  0
VERTEX
  8
LAYER_1
 62
     7
 10
27.96944522230006
 20
41.28073284770781
  0
VERTEX
  8
LAYER_1
 62
     7
 10
27.95721306446007
 20
41.297189849585
  0
VERTEX
  8
LAYER_1
 62
     7
 10
27.94416353422274
 20
41.31291268564465
  0
VERTEX
  8
LAYER_1
 62
     7
 10
27.93030422844175
 20
41.32783734873975
  0
VERTEX
  8
LAYER_1
 62
     7
 10
27.91569547131846
 20
41.34199756507901
  0
VERTEX
  8
LAYER_1
 62
     7
 10
27.90043050562241
 20
41.35548807744558
  0
VERTEX
  8
LAYER_1
 62
     7
 10
27.8846030754354
 20
41.36840455783554
  0
VERTEX
  8
LAYER_1
 62
     7
 10
27.86830692483927
 20
41.38084267824502
  0
VERTEX
  8
LAYER_1
 62
     7
 10
27.85163579791584
 20
41.39289811067011
  0
VERTEX
  8
LAYER_1
 62
     7
 10
27.83468343874693
 20
41.4046665271069
  0
VERTEX
  8
LAYER_1
 62
     7
 10
27.81754359141437
 20
41.41624359955149
  0
VERTEX
  8
LAYER_1
 62
     7
 10
27.80031
 20
41.427725
  0
SEQEND
  8
LAYER_1
 62
     7
  0
POLYLINE
  8
LAYER_1
 62
     7
 66
     1
  0
VERTEX
  8
LAYER_1
 62
     7
 10
27.80031
 20
41.427725
  0
VERTEX
  8
LAYER_1
 62
     7
 10
27.290679
 20
41.696541
  0
SEQEND
  8
LAYER_1
 62
     7
  0
POLYLINE
  8
LAYER_1
 62
     7
 66
     1
  0
VERTEX
  8
LAYER_1
 62
     7
 10
28.652482
 20
41.696541
  0
VERTEX
  8
LAYER_1
 62
     7
 10
28.64136194177347
 20
41.70397744788667
  0
VERTEX
  8
LAYER_1
 62
     7
 10
28.63031332829353
 20
41.71147828544202
  0
VERTEX
  8
LAYER_1
 62
     7
 10
28.61940760430678
 20
41.71910790233472
  0
VERTEX
  8
LAYER_1
 62
     7
 10
28.6087162145598
 20
41.72693068823347
  0
VERTEX
  8
LAYER_1
 62
     7
 10
28.59831060379919
 20
41.73501103280694
  0
VERTEX
  8
LAYER_1
 62
     7
 10
28.58826221677154
 20
41.74341332572381
  0
VERTEX
  8
LAYER_1
 62
     7
 10
28.57864249822343
 20
41.75220195665275
  0
VERTEX
  8
LAYER_1
 62
     7
 10
28.56952289290145
 20
41.76144131526245
  0
VERTEX
  8
LAYER_1
 62
     7
 10
28.56097484555222
 20
41.7711957912216
  0
VERTEX
  8
LAYER_1
 62
     7
 10
28.55305783171545
 20
41.78151355479714
  0
VERTEX
  8
LAYER_1
 62
     7
 10
28.5457696406256
 20
41.79235918550714
  0
VERTEX
  8
LAYER_1
 62
     7
 10
28.53908824606477
 20
41.80367041106683
  0
VERTEX
  8
LAYER_1
 62
     7
 10
28.53299161253664
 20
41.81538494661834
  0
VERTEX
  8
LAYER_1
 62
     7
 10
28.52745770454489
 20
41.82744050730382
  0
VERTEX
  8
LAYER_1
 62
     7
 10
28.5224644865932
 20
41.83977480826539
  0
VERTEX
  8
LAYER_1
 62
     7
 10
28.51798992318528
 20
41.8523255646452
  0
VERTEX
  8
LAYER_1
 62
     7
 10
28.51401197882479
 20
41.86503049158538
  0
VERTEX
  8
LAYER_1
 62
     7
 10
28.51050894387811
 20
41.87782866525012
  0
VERTEX
  8
LAYER_1
 62
     7
 10
28.50746600143943
 20
41.89068795047851
  0
VERTEX
  8
LAYER_1
 62
     7
 10
28.5048749085433
 20
41.90360366931325
  0
VERTEX
  8
LAYER_1
 62
     7
 10
28.50272768428464
 20
41.91657223833762
  0
VERTEX
  8
LAYER_1
 62
     7
 10
28.50101634775837
 20
41.92959007413494
  0
VERTEX
  8
LAYER_1
 62
     7
 10
28.4997329180594
 20
41.9426535932885
  0
VERTEX
  8
LAYER_1
 62
     7
 10
28.49886941428264
 20
41.95575921238161
  0
VERTEX
  8
LAYER_1
 62
     7
 10
28.498417855523
 20
41.96890334799755
  0
VERTEX
  8
LAYER_1
 62
     7
 10
28.4983702608754
 20
41.98208241671963
  0
VERTEX
  8
LAYER_1
 62
     7
 10
28.49871953844087
 20
41.99529206453651
  0
VERTEX
  8
LAYER_1
 62
     7
 10
28.49947361620332
 20
42.00851491813274
  0
VERTEX
  8
LAYER_1
 62
     7
 10
28.50065293123566
 20
42.02172276125638
  0
VERTEX
  8
LAYER_1
 62
     7
 10
28.50227830218525
 20
42.03488704690504
  0
VERTEX
  8
LAYER_1
 62
     7
 10
28.50437054769951
 20
42.04797922807632
  0
VERTEX
  8
LAYER_1
 62
     7
 10
28.50695048642577
 20
42.06097075776783
  0
VERTEX
  8
LAYER_1
 62
     7
 10
28.51003893701142
 20
42.07383308897715
  0
VERTEX
  8
LAYER_1
 62
     7
 10
28.51365671810383
 20
42.08653767470189
  0
VERTEX
  8
LAYER_1
 62
     7
 10
28.51782464835039
 20
42.09905596793966
  0
VERTEX
  8
LAYER_1
 62
     7
 10
28.52256354639844
 20
42.11135942168802
  0
VERTEX
  8
LAYER_1
 62
     7
 10
28.5278942308954
 20
42.12341948894461
  0
VERTEX
  8
LAYER_1
 62
     7
 10
28.53383671248021
 20
42.13520775030178
  0
VERTEX
  8
LAYER_1
 62
     7
 10
28.54038818893136
 20
42.14669938879178
  0
VERTEX
  8
LAYER_1
 62
     7
 10
28.54752041477299
 20
42.15787360525928
  0
VERTEX
  8
LAYER_1
 62
     7
 10
28.55520380847735
 20
42.1687098115285
  0
VERTEX
  8
LAYER_1
 62
     7
 10
28.56340878851668
 20
42.17918741942361
  0
VERTEX
  8
LAYER_1
 62
     7
 10
28.57210577336329
 20
42.18928584076884
  0
VERTEX
  8
LAYER_1
 62
     7
 10
28.5812651814894
 20
42.19898448738837
  0
VERTEX
  8
LAYER_1
 62
     7
 10
28.59085743136729
 20
42.2082627711064
  0
VERTEX
  8
LAYER_1
 62
     7
 10
28.60085294146922
 20
42.21710010374713
  0
VERTEX
  8
LAYER_1
 62
     7
 10
28.61122213026744
 20
42.22547589713478
  0
VERTEX
  8
LAYER_1
 62
     7
 10
28.62193541623422
 20
42.23336956309353
  0
VERTEX
  8
LAYER_1
 62
     7
 10
28.63296321784182
 20
42.24076051344759
  0
VERTEX
  8
LAYER_1
 62
     7
 10
28.64427595507606
 20
42.24762816453839
  0
VERTEX
  8
LAYER_1
 62
     7
 10
28.65584676760504
 20
42.25396004967087
  0
VERTEX
  8
LAYER_1
 62
     7
 10
28.66765712763982
 20
42.25976857084391
  0
VERTEX
  8
LAYER_1
 62
     7
 10
28.67969009776465
 20
42.26507087656716
  0
VERTEX
  8
LAYER_1
 62
     7
 10
28.69192874056377
 20
42.26988411535023
  0
VERTEX
  8
LAYER_1
 62
     7
 10
28.70435611862145
 20
42.27422543570277
  0
VERTEX
  8
LAYER_1
 62
     7
 10
28.71695529452193
 20
42.27811198613441
  0
VERTEX
  8
LAYER_1
 62
     7
 10
28.72970933084946
 20
42.28156091515476
  0
VERTEX
  8
LAYER_1
 62
     7
 10
28.7426012901883
 20
42.28458937127347
  0
VERTEX
  8
LAYER_1
 62
     7
 10
28.75561423512269
 20
42.28721450300018
  0
VERTEX
  8
LAYER_1
 62
     7
 10
28.76873122823689
 20
42.28945345884451
  0
VERTEX
  8
LAYER_1
 62
     7
 10
28.78193533211515
 20
42.29132338731607
  0
VERTEX
  8
LAYER_1
 62
     7
 10
28.79520960934171
 20
42.29284143692452
  0
VERTEX
  8
LAYER_1
 62
     7
 10
28.80853712250084
 20
42.29402475617948
  0
VERTEX
  8
LAYER_1
 62
     7
 10
28.82190093417678
 20
42.29489049359058
  0
VERTEX
  8
LAYER_1
 62
     7
 10
28.83528410695379
 20
42.29545579766745
  0
VERTEX
  8
LAYER_1
 62
     7
 10
28.84866970341611
 20
42.29573781691973
  0
VERTEX
  8
LAYER_1
 62
     7
 10
28.86204086488684
 20
42.29575336668673
  0
VERTEX
  8
LAYER_1
 62
     7
 10
28.87538408232134
 20
42.2955050888954
  0
VERTEX
  8
LAYER_1
 62
     7
 10
28.88869037273943
 20
42.29497647418327
  0
VERTEX
  8
LAYER_1
 62
     7
 10
28.90195107388901
 20
42.29414965607999
  0
VERTEX
  8
LAYER_1
 62
     7
 10
28.91515752351802
 20
42.2930067681153
  0
VERTEX
  8
LAYER_1
 62
     7
 10
28.9283010593744
 20
42.29152994381888
  0
VERTEX
  8
LAYER_1
 62
     7
 10
28.94137301920607
 20
42.2897013167204
  0
VERTEX
  8
LAYER_1
 62
     7
 10
28.95436474076097
 20
42.28750302034958
  0
VERTEX
  8
LAYER_1
 62
     7
 10
28.96726756178703
 20
42.28491718823608
  0
VERTEX
  8
LAYER_1
 62
     7
 10
28.98007282003217
 20
42.28192595390961
  0
VERTEX
  8
LAYER_1
 62
     7
 10
28.99277185324433
 20
42.27851145089984
  0
VERTEX
  8
LAYER_1
 62
     7
 10
29.00535599917144
 20
42.27465581273649
  0
VERTEX
  8
LAYER_1
 62
     7
 10
29.01781659556143
 20
42.27034117294923
  0
VERTEX
  8
LAYER_1
 62
     7
 10
29.03014498016223
 20
42.26554966506775
  0
VERTEX
  8
LAYER_1
 62
     7
 10
29.04233249072178
 20
42.26026342262176
  0
VERTEX
  8
LAYER_1
 62
     7
 10
29.0543699688075
 20
42.25446499872336
  0
VERTEX
  8
LAYER_1
 62
     7
 10
29.06623150776807
 20
42.2481511091905
  0
VERTEX
  8
LAYER_1
 62
     7
 10
29.07787080981767
 20
42.24133571308614
  0
VERTEX
  8
LAYER_1
 62
     7
 10
29.08924034354882
 20
42.23403381265401
  0
VERTEX
  8
LAYER_1
 62
     7
 10
29.10029257755406
 20
42.22626041013784
  0
VERTEX
  8
LAYER_1
 62
     7
 10
29.11097998042596
 20
42.21803050778135
  0
VERTEX
  8
LAYER_1
 62
     7
 10
29.12125502075705
 20
42.2093591078283
  0
VERTEX
  8
LAYER_1
 62
     7
 10
29.13107016713988
 20
42.2002612125224
  0
VERTEX
  8
LAYER_1
 62
     7
 10
29.140377888167
 20
42.19075182410741
  0
VERTEX
  8
LAYER_1
 62
     7
 10
29.14913065243096
 20
42.18084594482706
  0
VERTEX
  8
LAYER_1
 62
     7
 10
29.1572809285243
 20
42.17055857692504
  0
VERTEX
  8
LAYER_1
 62
     7
 10
29.16478118503956
 20
42.15990472264512
  0
VERTEX
  8
LAYER_1
 62
     7
 10
29.17158389056929
 20
42.14889938423104
  0
VERTEX
  8
LAYER_1
 62
     7
 10
29.17765118072688
 20
42.13755883879461
  0
VERTEX
  8
LAYER_1
 62
     7
 10
29.1830311974875
 20
42.12591070580119
  0
VERTEX
  8
LAYER_1
 62
     7
 10
29.1878171712133
 20
42.11398855088578
  0
VERTEX
  8
LAYER_1
 62
     7
 10
29.19210272957885
 20
42.10182599208025
  0
VERTEX
  8
LAYER_1
 62
     7
 10
29.19598150025878
 20
42.08945664741643
  0
VERTEX
  8
LAYER_1
 62
     7
 10
29.19954711092767
 20
42.07691413492615
  0
VERTEX
  8
LAYER_1
 62
     7
 10
29.20289318926014
 20
42.06423207264125
  0
VERTEX
  8
LAYER_1
 62
     7
 10
29.2061133629308
 20
42.05144407859358
  0
VERTEX
  8
LAYER_1
 62
     7
 10
29.20930125961423
 20
42.03858377081498
  0
VERTEX
  8
LAYER_1
 62
     7
 10
29.21255050698505
 20
42.0256847673373
  0
VERTEX
  8
LAYER_1
 62
     7
 10
29.21595473271785
 20
42.01278068619234
  0
VERTEX
  8
LAYER_1
 62
     7
 10
29.21960756448725
 20
41.99990514541197
  0
VERTEX
  8
LAYER_1
 62
     7
 10
29.22360262996784
 20
41.98709176302802
  0
VERTEX
  8
LAYER_1
 62
     7
 10
29.22803355683423
 20
41.97437415707234
  0
VERTEX
  8
LAYER_1
 62
     7
 10
29.2333147284808
 20
41.96207248975325
  0
VERTEX
  8
LAYER_1
 62
     7
 10
29.2425927756538
 20
41.95308684513826
  0
VERTEX
  8
LAYER_1
 62
     7
 10
29.2554416938653
 20
41.94991116209195
  0
VERTEX
  8
LAYER_1
 62
     7
 10
29.26852
 20
41.951358
  0
SEQEND
  8
LAYER_1
 62
     7
  0
POLYLINE
  8
LAYER_1
 62
     7
 66
     1
  0
VERTEX
  8
LAYER_1
 62
     7
 10
29.26852
 20
41.951358
  0
VERTEX
  8
LAYER_1
 62
     7
 10
29.377727
 20
41.979359
  0
SEQEND
  8
LAYER_1
 62
     7
  0
POLYLINE
  8
LAYER_1
 62
     7
 66
     1
  0
VERTEX
  8
LAYER_1
 62
     7
 10
29.377727
 20
41.979359
  0
VERTEX
  8
LAYER_1
 62
     7
 10
29.39236002039573
 20
41.99159473214739
  0
VERTEX
  8
LAYER_1
 62
     7
 10
29.3951033101546
 20
42.01072524734924
  0
VERTEX
  8
LAYER_1
 62
     7
 10
29.39256877189738
 20
42.02993558491327
  0
VERTEX
  8
LAYER_1
 62
     7
 10
29.38940984730352
 20
42.04910809281893
  0
VERTEX
  8
LAYER_1
 62
     7
 10
29.38565979505011
 20
42.06821321044232
  0
VERTEX
  8
LAYER_1
 62
     7
 10
29.38130670221372
 20
42.0872176017713
  0
VERTEX
  8
LAYER_1
 62
     7
 10
29.37633865587084
 20
42.10608793079367
  0
VERTEX
  8
LAYER_1
 62
     7
 10
29.37074374309804
 20
42.12479086149727
  0
VERTEX
  8
LAYER_1
 62
     7
 10
29.36451005097183
 20
42.1432930578699
  0
VERTEX
  8
LAYER_1
 62
     7
 10
29.35762566656874
 20
42.16156118389938
  0
VERTEX
  8
LAYER_1
 62
     7
 10
29.3500786769653
 20
42.17956190357356
  0
VERTEX
  8
LAYER_1
 62
     7
 10
29.34185716923805
 20
42.19726188088026
  0
VERTEX
  8
LAYER_1
 62
     7
 10
29.33294923046351
 20
42.21462777980726
  0
VERTEX
  8
LAYER_1
 62
     7
 10
29.32334294771823
 20
42.23162626434242
  0
VERTEX
  8
LAYER_1
 62
     7
 10
29.31302657730346
 20
42.24822401689995
  0
VERTEX
  8
LAYER_1
 62
     7
 10
29.30200224634779
 20
42.26438923024869
  0
VERTEX
  8
LAYER_1
 62
     7
 10
29.29029604537827
 20
42.28009270646328
  0
VERTEX
  8
LAYER_1
 62
     7
 10
29.27793644380231
 20
42.29530550664779
  0
VERTEX
  8
LAYER_1
 62
     7
 10
29.26495191102732
 20
42.30999869190633
  0
VERTEX
  8
LAYER_1
 62
     7
 10
29.25137091646069
 20
42.32414332334297
  0
VERTEX
  8
LAYER_1
 62
     7
 10
29.23722192950984
 20
42.33771046206181
  0
VERTEX
  8
LAYER_1
 62
     7
 10
29.22253341958219
 20
42.35067116916695
  0
VERTEX
  8
LAYER_1
 62
     7
 10
29.20733385608511
 20
42.36299650576246
  0
VERTEX
  8
LAYER_1
 62
     7
 10
29.19165170842603
 20
42.37465753295244
  0
VERTEX
  8
LAYER_1
 62
     7
 10
29.17551544601235
 20
42.38562531184098
  0
VERTEX
  8
LAYER_1
 62
     7
 10
29.15895353825147
 20
42.39587090353216
  0
VERTEX
  8
LAYER_1
 62
     7
 10
29.14199445454267
 20
42.40536536936211
  0
VERTEX
  8
LAYER_1
 62
     7
 10
29.12466634098412
 20
42.41408898926999
  0
VERTEX
  8
LAYER_1
 62
     7
 10
29.10699616233941
 20
42.42205572775661
  0
VERTEX
  8
LAYER_1
 62
     7
 10
29.08901061362464
 20
42.42928724089816
  0
VERTEX
  8
LAYER_1
 62
     7
 10
29.07073638985594
 20
42.43580518477082
  0
VERTEX
  8
LAYER_1
 62
     7
 10
29.05220018604943
 20
42.44163121545082
  0
VERTEX
  8
LAYER_1
 62
     7
 10
29.03342869722122
 20
42.44678698901433
  0
VERTEX
  8
LAYER_1
 62
     7
 10
29.01444861838743
 20
42.45129416153756
  0
VERTEX
  8
LAYER_1
 62
     7
 10
28.9952866445642
 20
42.45517438909668
  0
VERTEX
  8
LAYER_1
 62
     7
 10
28.97596947076763
 20
42.45844932776792
  0
VERTEX
  8
LAYER_1
 62
     7
 10
28.95652379201385
 20
42.46114063362746
  0
VERTEX
  8
LAYER_1
 62
     7
 10
28.93697630331897
 20
42.46326996275148
  0
VERTEX
  8
LAYER_1
 62
     7
 10
28.91735369969911
 20
42.46485897121618
  0
VERTEX
  8
LAYER_1
 62
     7
 10
28.8976826761704
 20
42.46592931509777
  0
VERTEX
  8
LAYER_1
 62
     7
 10
28.87798992774896
 20
42.46650265047244
  0
VERTEX
  8
LAYER_1
 62
     7
 10
28.8583021494509
 20
42.46660063341638
  0
VERTEX
  8
LAYER_1
 62
     7
 10
28.83864448095667
 20
42.46623967323724
  0
VERTEX
  8
LAYER_1
 62
     7
 10
28.81903434687626
 20
42.46541015322786
  0
VERTEX
  8
LAYER_1
 62
     7
 10
28.79948678407807
 20
42.46409440187499
  0
VERTEX
  8
LAYER_1
 62
     7
 10
28.78001682871972
 20
42.46227474526754
  0
VERTEX
  8
LAYER_1
 62
     7
 10
28.7606395169588
 20
42.45993350949436
  0
VERTEX
  8
LAYER_1
 62
     7
 10
28.74136988495295
 20
42.45705302064431
  0
VERTEX
  8
LAYER_1
 62
     7
 10
28.72222296885975
 20
42.4536156048063
  0
VERTEX
  8
LAYER_1
 62
     7
 10
28.7032138048368
 20
42.44960358806918
  0
VERTEX
  8
LAYER_1
 62
     7
 10
28.68435742904173
 20
42.44499929652182
  0
VERTEX
  8
LAYER_1
 62
     7
 10
28.66566887763212
 20
42.43978505625311
  0
VERTEX
  8
LAYER_1
 62
     7
 10
28.6471631867656
 20
42.43394319335191
  0
VERTEX
  8
LAYER_1
 62
     7
 10
28.62885539259976
 20
42.4274560339071
  0
VERTEX
  8
LAYER_1
 62
     7
 10
28.61076053129221
 20
42.42030590400754
  0
VERTEX
  8
LAYER_1
 62
     7
 10
28.59289363900056
 20
42.41247512974212
  0
VERTEX
  8
LAYER_1
 62
     7
 10
28.57527401407584
 20
42.40394987733842
  0
VERTEX
  8
LAYER_1
 62
     7
 10
28.55794254953167
 20
42.39473576932072
  0
VERTEX
  8
LAYER_1
 62
     7
 10
28.54094696119429
 20
42.38484457541129
  0
VERTEX
  8
LAYER_1
 62
     7
 10
28.52433496752593
 20
42.37428806770735
  0
VERTEX
  8
LAYER_1
 62
     7
 10
28.50815428698878
 20
42.36307801830612
  0
VERTEX
  8
LAYER_1
 62
     7
 10
28.49245263804505
 20
42.35122619930484
  0
VERTEX
  8
LAYER_1
 62
     7
 10
28.47727773915696
 20
42.33874438280071
  0
VERTEX
  8
LAYER_1
 62
     7
 10
28.46267730878673
 20
42.32564434089095
  0
VERTEX
  8
LAYER_1
 62
     7
 10
28.44869906539655
 20
42.31193784567279
  0
VERTEX
  8
LAYER_1
 62
     7
 10
28.43539072744865
 20
42.29763666924345
  0
VERTEX
  8
LAYER_1
 62
     7
 10
28.42280001340522
 20
42.28275258370014
  0
VERTEX
  8
LAYER_1
 62
     7
 10
28.41097464172847
 20
42.26729736114009
  0
VERTEX
  8
LAYER_1
 62
     7
 10
28.39996232595555
 20
42.25128277616452
  0
VERTEX
  8
LAYER_1
 62
     7
 10
28.3897972166604
 20
42.23472749900026
  0
VERTEX
  8
LAYER_1
 62
     7
 10
28.38047031750006
 20
42.21767213645126
  0
VERTEX
  8
LAYER_1
 62
     7
 10
28.37196407144577
 20
42.20016164770989
  0
VERTEX
  8
LAYER_1
 62
     7
 10
28.36426092146881
 20
42.18224099196855
  0
VERTEX
  8
LAYER_1
 62
     7
 10
28.35734331054043
 20
42.16395512841962
  0
VERTEX
  8
LAYER_1
 62
     7
 10
28.3511936816319
 20
42.14534901625547
  0
VERTEX
  8
LAYER_1
 62
     7
 10
28.34579447771446
 20
42.12646761466851
  0
VERTEX
  8
LAYER_1
 62
     7
 10
28.34112814175937
 20
42.10735588285111
  0
VERTEX
  8
LAYER_1
 62
     7
 10
28.33717711673789
 20
42.08805877999565
  0
VERTEX
  8
LAYER_1
 62
     7
 10
28.3339238456213
 20
42.06862126529453
  0
VERTEX
  8
LAYER_1
 62
     7
 10
28.33135077138083
 20
42.04908829794013
  0
VERTEX
  8
LAYER_1
 62
     7
 10
28.32944033698776
 20
42.02950483712484
  0
VERTEX
  8
LAYER_1
 62
     7
 10
28.32817498541333
 20
42.00991584204102
  0
VERTEX
  8
LAYER_1
 62
     7
 10
28.32753729090554
 20
41.99036608426311
  0
VERTEX
  8
LAYER_1
 62
     7
 10
28.32752025615199
 20
41.97088543125379
  0
VERTEX
  8
LAYER_1
 62
     7
 10
28.32813471610917
 20
41.95147826496356
  0
VERTEX
  8
LAYER_1
 62
     7
 10
28.32939325272302
 20
41.93214647058144
  0
VERTEX
  8
LAYER_1
 62
     7
 10
28.33130844793947
 20
41.91289193329644
  0
VERTEX
  8
LAYER_1
 62
     7
 10
28.33389288370447
 20
41.8937165382976
  0
VERTEX
  8
LAYER_1
 62
     7
 10
28.33715914196397
 20
41.87462217077395
  0
VERTEX
  8
LAYER_1
 62
     7
 10
28.3411198046639
 20
41.85561071591449
  0
VERTEX
  8
LAYER_1
 62
     7
 10
28.34578742838154
 20
41.83668456246652
  0
VERTEX
  8
LAYER_1
 62
     7
 10
28.35117326178668
 20
41.81787206064951
  0
VERTEX
  8
LAYER_1
 62
     7
 10
28.35728664071664
 20
41.79923952968721
  0
VERTEX
  8
LAYER_1
 62
     7
 10
28.36413674914719
 20
41.7808563031986
  0
VERTEX
  8
LAYER_1
 62
     7
 10
28.37173277105408
 20
41.76279171480265
  0
VERTEX
  8
LAYER_1
 62
     7
 10
28.38008389041307
 20
41.74511509811832
  0
VERTEX
  8
LAYER_1
 62
     7
 10
28.38919929119992
 20
41.72789578676462
  0
VERTEX
  8
LAYER_1
 62
     7
 10
28.39908815739038
 20
41.71120311436049
  0
VERTEX
  8
LAYER_1
 62
     7
 10
28.40975967296021
 20
41.69510641452495
  0
VERTEX
  8
LAYER_1
 62
     7
 10
28.42122302188518
 20
41.67967502087694
  0
VERTEX
  8
LAYER_1
 62
     7
 10
28.4334753232332
 20
41.66495752418332
  0
VERTEX
  8
LAYER_1
 62
     7
 10
28.44646302371234
 20
41.6509153956673
  0
VERTEX
  8
LAYER_1
 62
     7
 10
28.46011926890569
 20
41.63748723830694
  0
VERTEX
  8
LAYER_1
 62
     7
 10
28.47437720434178
 20
41.62461165498667
  0
VERTEX
  8
LAYER_1
 62
     7
 10
28.48916997554924
 20
41.61222724859093
  0
VERTEX
  8
LAYER_1
 62
     7
 10
28.50443072805662
 20
41.60027262200415
  0
VERTEX
  8
LAYER_1
 62
     7
 10
28.52009260739251
 20
41.58868637811076
  0
VERTEX
  8
LAYER_1
 62
     7
 10
28.53608875908549
 20
41.57740711979521
  0
VERTEX
  8
LAYER_1
 62
     7
 10
28.55235232866415
 20
41.56637344994193
  0
VERTEX
  8
LAYER_1
 62
     7
 10
28.56881646165708
 20
41.55552397143535
  0
VERTEX
  8
LAYER_1
 62
     7
 10
28.58541430359283
 20
41.54479728715989
  0
VERTEX
  8
LAYER_1
 62
     7
 10
28.602079
 20
41.534132
  0
SEQEND
  8
LAYER_1
 62
     7
  0
POLYLINE
  8
LAYER_1
 62
     7
 66
     1
  0
VERTEX
  8
LAYER_1
 62
     7
 10
28.602079
 20
41.534132
  0
VERTEX
  8
LAYER_1
 62
     7
 10
29.030505
 20
41.315718
  0
SEQEND
  8
LAYER_1
 62
     7
  0
POLYLINE
  8
LAYER_1
 62
     7
 66
     1
  0
VERTEX
  8
LAYER_1
 62
     7
 10
29.030505
 20
41.315718
  0
VERTEX
  8
LAYER_1
 62
     7
 10
29.04322801116649
 20
41.30793768027969
  0
VERTEX
  8
LAYER_1
 62
     7
 10
29.05590759133921
 20
41.30010847672264
  0
VERTEX
  8
LAYER_1
 62
     7
 10
29.06850030952438
 20
41.29218150549208
  0
VERTEX
  8
LAYER_1
 62
     7
 10
29.08096273472822
 20
41.28410788275127
  0
VERTEX
  8
LAYER_1
 62
     7
 10
29.09325143595697
 20
41.27583872466348
  0
VERTEX
  8
LAYER_1
 62
     7
 10
29.10532298221683
 20
41.26732514739192
  0
VERTEX
  8
LAYER_1
 62
     7
 10
29.11713394251406
 20
41.25851826709989
  0
VERTEX
  8
LAYER_1
 62
     7
 10
29.12864088585485
 20
41.24936919995059
  0
VERTEX
  8
LAYER_1
 62
     7
 10
29.13980038124545
 20
41.23982906210731
  0
VERTEX
  8
LAYER_1
 62
     7
 10
29.15056899769208
 20
41.22984896973328
  0
VERTEX
  8
LAYER_1
 62
     7
 10
29.16090330732289
 20
41.21938005567283
  0
VERTEX
  8
LAYER_1
 62
     7
 10
29.17076343628485
 20
41.2083924425264
  0
VERTEX
  8
LAYER_1
 62
     7
 10
29.1801198941431
 20
41.196911733349
  0
VERTEX
  8
LAYER_1
 62
     7
 10
29.18894507660923
 20
41.18497360921251
  0
VERTEX
  8
LAYER_1
 62
     7
 10
29.19721137939483
 20
41.17261375118878
  0
VERTEX
  8
LAYER_1
 62
     7
 10
29.20489119821149
 20
41.15986784034969
  0
VERTEX
  8
LAYER_1
 62
     7
 10
29.2119569287708
 20
41.14677155776711
  0
VERTEX
  8
LAYER_1
 62
     7
 10
29.21838096678437
 20
41.13336058451288
  0
VERTEX
  8
LAYER_1
 62
     7
 10
29.22413570796377
 20
41.11967060165887
  0
VERTEX
  8
LAYER_1
 62
     7
 10
29.22919434044096
 20
41.10573715700401
  0
VERTEX
  8
LAYER_1
 62
     7
 10
29.23355170449501
 20
41.09159215678823
  0
VERTEX
  8
LAYER_1
 62
     7
 10
29.2372263867711
 20
41.07726351347703
  0
VERTEX
  8
LAYER_1
 62
     7
 10
29.24023818629801
 20
41.06277893563156
  0
VERTEX
  8
LAYER_1
 62
     7
 10
29.24260690210454
 20
41.04816613181298
  0
VERTEX
  8
LAYER_1
 62
     7
 10
29.24435233321948
 20
41.03345281058246
  0
VERTEX
  8
LAYER_1
 62
     7
 10
29.24549427867163
 20
41.01866668050115
  0
VERTEX
  8
LAYER_1
 62
     7
 10
29.24605253748977
 20
41.0038354501302
  0
VERTEX
  8
LAYER_1
 62
     7
 10
29.24604644058865
 20
40.98898670581721
  0
VERTEX
  8
LAYER_1
 62
     7
 10
29.24548484413958
 20
40.97414529920079
  0
VERTEX
  8
LAYER_1
 62
     7
 10
29.2443662892044
 20
40.95933338888715
  0
VERTEX
  8
LAYER_1
 62
     7
 10
29.24268888066016
 20
40.94457301960497
  0
VERTEX
  8
LAYER_1
 62
     7
 10
29.24045072338383
 20
40.92988623608288
  0
VERTEX
  8
LAYER_1
 62
     7
 10
29.23764992225246
 20
40.91529508304954
  0
VERTEX
  8
LAYER_1
 62
     7
 10
29.23428458214304
 20
40.9008216052336
  0
VERTEX
  8
LAYER_1
 62
     7
 10
29.23035280793259
 20
40.88648784736371
  0
VERTEX
  8
LAYER_1
 62
     7
 10
29.2258527044981
 20
40.87231585416852
  0
VERTEX
  8
LAYER_1
 62
     7
 10
29.22078237671662
 20
40.85832767037668
  0
VERTEX
  8
LAYER_1
 62
     7
 10
29.21513992946511
 20
40.84454534071683
  0
VERTEX
  8
LAYER_1
 62
     7
 10
29.20892346762064
 20
40.83099090991765
  0
VERTEX
  8
LAYER_1
 62
     7
 10
29.20213320341188
 20
40.81768707288959
  0
VERTEX
  8
LAYER_1
 62
     7
 10
29.19478194116214
 20
40.80466040958576
  0
VERTEX
  8
LAYER_1
 62
     7
 10
29.18688714214341
 20
40.79193893676902
  0
VERTEX
  8
LAYER_1
 62
     7
 10
29.17846627512517
 20
40.77955067351539
  0
VERTEX
  8
LAYER_1
 62
     7
 10
29.1695368088769
 20
40.76752363890093
  0
VERTEX
  8
LAYER_1
 62
     7
 10
29.16011621216809
 20
40.75588585200168
  0
VERTEX
  8
LAYER_1
 62
     7
 10
29.15022195376823
 20
40.74466533189368
  0
VERTEX
  8
LAYER_1
 62
     7
 10
29.13987150244681
 20
40.73389009765297
  0
VERTEX
  8
LAYER_1
 62
     7
 10
29.12908232697331
 20
40.72358816835561
  0
VERTEX
  8
LAYER_1
 62
     7
 10
29.11787189611723
 20
40.71378756307764
  0
VERTEX
  8
LAYER_1
 62
     7
 10
29.10625767864805
 20
40.70451630089511
  0
VERTEX
  8
LAYER_1
 62
     7
 10
29.09425714333525
 20
40.69580240088406
  0
VERTEX
  8
LAYER_1
 62
     7
 10
29.08188776158528
 20
40.68767386661431
  0
VERTEX
  8
LAYER_1
 62
     7
 10
29.06916876933945
 20
40.68014832554888
  0
VERTEX
  8
LAYER_1
 62
     7
 10
29.05612422422481
 20
40.67321505188541
  0
VERTEX
  8
LAYER_1
 62
     7
 10
29.04277899993411
 20
40.66685852105817
  0
VERTEX
  8
LAYER_1
 62
     7
 10
29.02915797016013
 20
40.66106320850135
  0
VERTEX
  8
LAYER_1
 62
     7
 10
29.01528600859564
 20
40.65581358964923
  0
VERTEX
  8
LAYER_1
 62
     7
 10
29.00118798893346
 20
40.65109413993608
  0
VERTEX
  8
LAYER_1
 62
     7
 10
28.98688878486632
 20
40.64688933479611
  0
VERTEX
  8
LAYER_1
 62
     7
 10
28.97241327008702
 20
40.64318364966358
  0
VERTEX
  8
LAYER_1
 62
     7
 10
28.95778631828833
 20
40.63996155997275
  0
VERTEX
  8
LAYER_1
 62
     7
 10
28.94303280316303
 20
40.63720754115783
  0
VERTEX
  8
LAYER_1
 62
     7
 10
28.9281775984039
 20
40.63490606865311
  0
VERTEX
  8
LAYER_1
 62
     7
 10
28.91324557770371
 20
40.63304161789279
  0
VERTEX
  8
LAYER_1
 62
     7
 10
28.89826161475523
 20
40.63159866431114
  0
VERTEX
  8
LAYER_1
 62
     7
 10
28.88325058325127
 20
40.63056168334242
  0
VERTEX
  8
LAYER_1
 62
     7
 10
28.86823735688456
 20
40.62991515042085
  0
VERTEX
  8
LAYER_1
 62
     7
 10
28.85324677049992
 20
40.62964363119938
  0
VERTEX
  8
LAYER_1
 62
     7
 10
28.83829864540331
 20
40.62974333452626
  0
VERTEX
  8
LAYER_1
 62
     7
 10
28.82340289284279
 20
40.63023348387969
  0
VERTEX
  8
LAYER_1
 62
     7
 10
28.80856826093942
 20
40.63113600392665
  0
VERTEX
  8
LAYER_1
 62
     7
 10
28.7938034978143
 20
40.63247281933416
  0
VERTEX
  8
LAYER_1
 62
     7
 10
28.77911735158846
 20
40.63426585476915
  0
VERTEX
  8
LAYER_1
 62
     7
 10
28.764518570383
 20
40.63653703489866
  0
VERTEX
  8
LAYER_1
 62
     7
 10
28.75001590231899
 20
40.63930828438964
  0
VERTEX
  8
LAYER_1
 62
     7
 10
28.73561809551746
 20
40.64260152790909
  0
VERTEX
  8
LAYER_1
 62
     7
 10
28.72133389809952
 20
40.64643869012399
  0
VERTEX
  8
LAYER_1
 62
     7
 10
28.70717205818622
 20
40.65084169570133
  0
VERTEX
  8
LAYER_1
 62
     7
 10
28.69314132389864
 20
40.65583246930809
  0
VERTEX
  8
LAYER_1
 62
     7
 10
28.67925051858235
 20
40.66143286501168
  0
VERTEX
  8
LAYER_1
 62
     7
 10
28.66552149352147
 20
40.66765250992354
  0
VERTEX
  8
LAYER_1
 62
     7
 10
28.65200384942199
 20
40.67447498782052
  0
VERTEX
  8
LAYER_1
 62
     7
 10
28.63875074559702
 20
40.68188054266242
  0
VERTEX
  8
LAYER_1
 62
     7
 10
28.6258153413596
 20
40.689849418409
  0
VERTEX
  8
LAYER_1
 62
     7
 10
28.61325079602284
 20
40.69836185902003
  0
VERTEX
  8
LAYER_1
 62
     7
 10
28.6011102688998
 20
40.7073981084553
  0
VERTEX
  8
LAYER_1
 62
     7
 10
28.58944691930355
 20
40.71693841067455
  0
VERTEX
  8
LAYER_1
 62
     7
 10
28.5783139065472
 20
40.7269630096376
  0
VERTEX
  8
LAYER_1
 62
     7
 10
28.5677643899438
 20
40.73745214930418
  0
VERTEX
  8
LAYER_1
 62
     7
 10
28.55785152880644
 20
40.74838607363407
  0
VERTEX
  8
LAYER_1
 62
     7
 10
28.54862848244819
 20
40.75974502658706
  0
VERTEX
  8
LAYER_1
 62
     7
 10
28.54014841018214
 20
40.77150925212293
  0
VERTEX
  8
LAYER_1
 62
     7
 10
28.53246078958236
 20
40.7836589461677
  0
VERTEX
  8
LAYER_1
 62
     7
 10
28.52555614046152
 20
40.79617353545618
  0
VERTEX
  8
LAYER_1
 62
     7
 10
28.51937753343129
 20
40.8090318276782
  0
VERTEX
  8
LAYER_1
 62
     7
 10
28.51386669315686
 20
40.82221261296366
  0
VERTEX
  8
LAYER_1
 62
     7
 10
28.50896534430343
 20
40.8356946814425
  0
VERTEX
  8
LAYER_1
 62
     7
 10
28.50461521153621
 20
40.84945682324466
  0
VERTEX
  8
LAYER_1
 62
     7
 10
28.50075801952039
 20
40.86347782850006
  0
VERTEX
  8
LAYER_1
 62
     7
 10
28.49733549292117
 20
40.87773648733864
  0
VERTEX
  8
LAYER_1
 62
     7
 10
28.49428935640374
 20
40.89221158989034
  0
VERTEX
  8
LAYER_1
 62
     7
 10
28.4915613346333
 20
40.90688192628505
  0
VERTEX
  8
LAYER_1
 62
     7
 10
28.48909315227505
 20
40.92172628665275
  0
VERTEX
  8
LAYER_1
 62
     7
 10
28.48682653399419
 20
40.93672346112336
  0
VERTEX
  8
LAYER_1
 62
     7
 10
28.48470320445592
 20
40.95185223982678
  0
VERTEX
  8
LAYER_1
 62
     7
 10
28.48266488832543
 20
40.96709141289298
  0
VERTEX
  8
LAYER_1
 62
     7
 10
28.48065331026793
 20
40.98241977045188
  0
VERTEX
  8
LAYER_1
 62
     7
 10
28.4786101949486
 20
40.99781610263341
  0
VERTEX
  8
LAYER_1
 62
     7
 10
28.47647726703265
 20
41.0132591995675
  0
VERTEX
  8
LAYER_1
 62
     7
 10
28.47357020632307
 20
41.02832196630697
  0
VERTEX
  8
LAYER_1
 62
     7
 10
28.46500055412537
 20
41.03974812248833
  0
VERTEX
  8
LAYER_1
 62
     7
 10
28.45087
 20
41.044102
  0
SEQEND
  8
LAYER_1
 62
     7
  0
POLYLINE
  8
LAYER_1
 62
     7
 66
     1
  0
VERTEX
  8
LAYER_1
 62
     7
 10
28.45087
 20
41.044102
  0
VERTEX
  8
LAYER_1
 62
     7
 10
28.333262
 20
41.044102
  0
SEQEND
  8
LAYER_1
 62
     7
  0
POLYLINE
  8
LAYER_1
 62
     7
 66
     1
  0
VERTEX
  8
LAYER_1
 62
     7
 10
29.162114
 20
41.427725
  0
VERTEX
  8
LAYER_1
 62
     7
 10
28.652482
 20
41.696541
  0
SEQEND
  8
LAYER_1
 62
     7
  0
POLYLINE
  8
LAYER_1
 62
     7
 66
     1
  0
VERTEX
  8
LAYER_1
 62
     7
 10
28.333262
 20
41.044102
  0
VERTEX
  8
LAYER_1
 62
     7
 10
28.3140579830153
 20
41.03729989301564
  0
VERTEX
  8
LAYER_1
 62
     7
 10
28.3057459893117
 20
41.01894197542703
  0
VERTEX
  8
LAYER_1
 62
     7
 10
28.3026951869438
 20
40.99753923446997
  0
VERTEX
  8
LAYER_1
 62
     7
 10
28.30093037742805
 20
40.97620596321524
  0
VERTEX
  8
LAYER_1
 62
     7
 10
28.3004033000635
 20
40.95497503522373
  0
VERTEX
  8
LAYER_1
 62
     7
 10
28.3010720798216
 20
40.93387431994876
  0
VERTEX
  8
LAYER_1
 62
     7
 10
28.30289484167385
 20
40.9129316868437
  0
VERTEX
  8
LAYER_1
 62
     7
 10
28.30582971059167
 20
40.89217500536186
  0
VERTEX
  8
LAYER_1
 62
     7
 10
28.30983481154657
 20
40.87163214495664
  0
VERTEX
  8
LAYER_1
 62
     7
 10
28.31486826950999
 20
40.85133097508133
  0
VERTEX
  8
LAYER_1
 62
     7
 10
28.3208882094534
 20
40.83129936518932
  0
VERTEX
  8
LAYER_1
 62
     7
 10
28.32785275634829
 20
40.81156518473394
  0
VERTEX
  8
LAYER_1
 62
     7
 10
28.33572003516609
 20
40.79215630316853
  0
VERTEX
  8
LAYER_1
 62
     7
 10
28.3444481708783
 20
40.77310058994645
  0
VERTEX
  8
LAYER_1
 62
     7
 10
28.35399528845636
 20
40.75442591452104
  0
VERTEX
  8
LAYER_1
 62
     7
 10
28.36431951287175
 20
40.73616014634565
  0
VERTEX
  8
LAYER_1
 62
     7
 10
28.37537896909593
 20
40.71833115487362
  0
VERTEX
  8
LAYER_1
 62
     7
 10
28.38713178210038
 20
40.7009668095583
  0
VERTEX
  8
LAYER_1
 62
     7
 10
28.3995360769678
 20
40.68409497978972
  0
VERTEX
  8
LAYER_1
 62
     7
 10
28.41255341977637
 20
40.6677415763574
  0
VERTEX
  8
LAYER_1
 62
     7
 10
28.42615784832561
 20
40.65192541119821
  0
VERTEX
  8
LAYER_1
 62
     7
 10
28.44032622509793
 20
40.63666368845114
  0
VERTEX
  8
LAYER_1
 62
     7
 10
28.45503541257571
 20
40.62197361225514
  0
VERTEX
  8
LAYER_1
 62
     7
 10
28.47026227324138
 20
40.60787238674919
  0
VERTEX
  8
LAYER_1
 62
     7
 10
28.48598366957731
 20
40.59437721607224
  0
VERTEX
  8
LAYER_1
 62
     7
 10
28.50217646406594
 20
40.58150530436328
  0
VERTEX
  8
LAYER_1
 62
     7
 10
28.51881751918965
 20
40.56927385576128
  0
VERTEX
  8
LAYER_1
 62
     7
 10
28.53588369743083
 20
40.55770007440521
  0
VERTEX
  8
LAYER_1
 62
     7
 10
28.5533518612719
 20
40.54680116443402
  0
VERTEX
  8
LAYER_1
 62
     7
 10
28.57119887319526
 20
40.53659432998671
  0
VERTEX
  8
LAYER_1
 62
     7
 10
28.5894015956833
 20
40.52709677520221
  0
VERTEX
  8
LAYER_1
 62
     7
 10
28.60793689121843
 20
40.51832570421953
  0
VERTEX
  8
LAYER_1
 62
     7
 10
28.62678163867509
 20
40.51029716881437
  0
VERTEX
  8
LAYER_1
 62
     7
 10
28.64591296861425
 20
40.50300952714352
  0
VERTEX
  8
LAYER_1
 62
     7
 10
28.66530820867904
 20
40.49644728244774
  0
VERTEX
  8
LAYER_1
 62
     7
 10
28.68494469177854
 20
40.49059456776868
  0
VERTEX
  8
LAYER_1
 62
     7
 10
28.70479975082185
 20
40.48543551614797
  0
VERTEX
  8
LAYER_1
 62
     7
 10
28.72485071871805
 20
40.48095426062725
  0
VERTEX
  8
LAYER_1
 62
     7
 10
28.74507492837624
 20
40.47713493424816
  0
VERTEX
  8
LAYER_1
 62
     7
 10
28.7654497127055
 20
40.47396167005232
  0
VERTEX
  8
LAYER_1
 62
     7
 10
28.78595240461494
 20
40.47141860108139
  0
VERTEX
  8
LAYER_1
 62
     7
 10
28.80656033701364
 20
40.469489860377
  0
VERTEX
  8
LAYER_1
 62
     7
 10
28.82725084281067
 20
40.46815958098079
  0
VERTEX
  8
LAYER_1
 62
     7
 10
28.84800125491515
 20
40.46741189593438
  0
VERTEX
  8
LAYER_1
 62
     7
 10
28.86878876096687
 20
40.46723188872225
  0
VERTEX
  8
LAYER_1
 62
     7
 10
28.88958811435755
 20
40.46762056920622
  0
VERTEX
  8
LAYER_1
 62
     7
 10
28.91037205167482
 20
40.46859214244533
  0
VERTEX
  8
LAYER_1
 62
     7
 10
28.93111324865313
 20
40.47016121163824
  0
VERTEX
  8
LAYER_1
 62
     7
 10
28.95178438102691
 20
40.47234237998369
  0
VERTEX
  8
LAYER_1
 62
     7
 10
28.97235812453063
 20
40.47515025068031
  0
VERTEX
  8
LAYER_1
 62
     7
 10
28.99280715489871
 20
40.47859942692682
  0
VERTEX
  8
LAYER_1
 62
     7
 10
29.01310414786562
 20
40.48270451192191
  0
VERTEX
  8
LAYER_1
 62
     7
 10
29.03322177916577
 20
40.48748010886423
  0
VERTEX
  8
LAYER_1
 62
     7
 10
29.05313272453365
 20
40.4929408209525
  0
VERTEX
  8
LAYER_1
 62
     7
 10
29.07280965970368
 20
40.49910125138539
  0
VERTEX
  8
LAYER_1
 62
     7
 10
29.09222526041031
 20
40.50597600336159
  0
VERTEX
  8
LAYER_1
 62
     7
 10
29.11135220238799
 20
40.51357968007978
  0
VERTEX
  8
LAYER_1
 62
     7
 10
29.13016316137115
 20
40.52192688473864
  0
VERTEX
  8
LAYER_1
 62
     7
 10
29.14863081309426
 20
40.53103222053688
  0
VERTEX
  8
LAYER_1
 62
     7
 10
29.16672780913524
 20
40.54091011131248
  0
VERTEX
  8
LAYER_1
 62
     7
 10
29.18442489052416
 20
40.55156079519781
  0
VERTEX
  8
LAYER_1
 62
     7
 10
29.2016895360555
 20
40.56296028841786
  0
VERTEX
  8
LAYER_1
 62
     7
 10
29.21848890552747
 20
40.57508223866878
  0
VERTEX
  8
LAYER_1
 62
     7
 10
29.23479015873822
 20
40.58790029364662
  0
VERTEX
  8
LAYER_1
 62
     7
 10
29.25056045548596
 20
40.60138810104747
  0
VERTEX
  8
LAYER_1
 62
     7
 10
29.26576695556885
 20
40.61551930856742
  0
VERTEX
  8
LAYER_1
 62
     7
 10
29.28037681878507
 20
40.63026756390257
  0
VERTEX
  8
LAYER_1
 62
     7
 10
29.2943572049328
 20
40.645606514749
  0
VERTEX
  8
LAYER_1
 62
     7
 10
29.30767527381023
 20
40.66150980880279
  0
VERTEX
  8
LAYER_1
 62
     7
 10
29.32029818521553
 20
40.67795109376005
  0
VERTEX
  8
LAYER_1
 62
     7
 10
29.33219309894688
 20
40.69490401731686
  0
VERTEX
  8
LAYER_1
 62
     7
 10
29.34332717480247
 20
40.71234222716931
  0
VERTEX
  8
LAYER_1
 62
     7
 10
29.35366765431284
 20
40.73023935182754
  0
VERTEX
  8
LAYER_1
 62
     7
 10
29.36319426908955
 20
40.74856608786716
  0
VERTEX
  8
LAYER_1
 62
     7
 10
29.37191255056967
 20
40.76728707558611
  0
VERTEX
  8
LAYER_1
 62
     7
 10
29.37983122164652
 20
40.78636620611654
  0
VERTEX
  8
LAYER_1
 62
     7
 10
29.38695900521347
 20
40.80576737059062
  0
VERTEX
  8
LAYER_1
 62
     7
 10
29.39330462416386
 20
40.82545446014049
  0
VERTEX
  8
LAYER_1
 62
     7
 10
29.39887680139105
 20
40.84539136589833
  0
VERTEX
  8
LAYER_1
 62
     7
 10
29.4036842597884
 20
40.8655419789963
  0
VERTEX
  8
LAYER_1
 62
     7
 10
29.40773572224924
 20
40.88587019056658
  0
VERTEX
  8
LAYER_1
 62
     7
 10
29.41103991166693
 20
40.9063398917413
  0
VERTEX
  8
LAYER_1
 62
     7
 10
29.41360555093483
 20
40.92691497365263
  0
VERTEX
  8
LAYER_1
 62
     7
 10
29.41544136294629
 20
40.94755932743276
  0
VERTEX
  8
LAYER_1
 62
     7
 10
29.41655607059465
 20
40.96823684421383
  0
VERTEX
  8
LAYER_1
 62
     7
 10
29.41695839677327
 20
40.98891141512799
  0
VERTEX
  8
LAYER_1
 62
     7
 10
29.4166560235337
 20
41.00954762280573
  0
VERTEX
  8
LAYER_1
 62
     7
 10
29.41564290610867
 20
41.03011916948785
  0
VERTEX
  8
LAYER_1
 62
     7
 10
29.41390330443376
 20
41.05060619862596
  0
VERTEX
  8
LAYER_1
 62
     7
 10
29.41142127459098
 20
41.07098898910473
  0
VERTEX
  8
LAYER_1
 62
     7
 10
29.40818087266236
 20
41.09124781980877
  0
VERTEX
  8
LAYER_1
 62
     7
 10
29.40416615472993
 20
41.11136296962272
  0
VERTEX
  8
LAYER_1
 62
     7
 10
29.39936117687571
 20
41.13131471743124
  0
VERTEX
  8
LAYER_1
 62
     7
 10
29.39374999518171
 20
41.15108334211894
  0
VERTEX
  8
LAYER_1
 62
     7
 10
29.38731666590726
 20
41.17064912207008
  0
VERTEX
  8
LAYER_1
 62
     7
 10
29.38004875309126
 20
41.18998243400483
  0
VERTEX
  8
LAYER_1
 62
     7
 10
29.37194632790134
 20
41.209018349864
  0
VERTEX
  8
LAYER_1
 62
     7
 10
29.3630122478761
 20
41.22768407629684
  0
VERTEX
  8
LAYER_1
 62
     7
 10
29.35324937055415
 20
41.24590681995258
  0
VERTEX
  8
LAYER_1
 62
     7
 10
29.34266055347409
 20
41.26361378748048
  0
VERTEX
  8
LAYER_1
 62
     7
 10
29.33124865417453
 20
41.2807321855298
  0
VERTEX
  8
LAYER_1
 62
     7
 10
29.31901653019406
 20
41.29718922074976
  0
VERTEX
  8
LAYER_1
 62
     7
 10
29.3059670390713
 20
41.31291209978964
  0
VERTEX
  8
LAYER_1
 62
     7
 10
29.29210777826004
 20
41.32783681511706
  0
VERTEX
  8
LAYER_1
 62
     7
 10
29.27749906976679
 20
41.34199708844719
  0
VERTEX
  8
LAYER_1
 62
     7
 10
29.26223415575784
 20
41.35548766168943
  0
VERTEX
  8
LAYER_1
 62
     7
 10
29.24640677987828
 20
41.36840420628489
  0
VERTEX
  8
LAYER_1
 62
     7
 10
29.23011068577323
 20
41.38084239367469
  0
VERTEX
  8
LAYER_1
 62
     7
 10
29.21343961708777
 20
41.39289789529997
  0
VERTEX
  8
LAYER_1
 62
     7
 10
29.19648731746701
 20
41.40466638260186
  0
VERTEX
  8
LAYER_1
 62
     7
 10
29.17934753055606
 20
41.4162435270215
  0
VERTEX
  8
LAYER_1
 62
     7
 10
29.162114
 20
41.427725
  0
SEQEND
  8
LAYER_1
 62
     7
  0
POLYLINE
  8
LAYER_1
 62
     7
 66
     1
  0
VERTEX
  8
LAYER_1
 62
     7
 10
30.229899
 20
41.592935
  0
VERTEX
  8
LAYER_1
 62
     7
 10
30.801134
 20
42.418986
  0
SEQEND
  8
LAYER_1
 62
     7
  0
POLYLINE
  8
LAYER_1
 62
     7
 66
     1
  0
VERTEX
  8
LAYER_1
 62
     7
 10
30.801134
 20
42.418986
  0
VERTEX
  8
LAYER_1
 62
     7
 10
30.80161576021484
 20
42.42013471731963
  0
VERTEX
  8
LAYER_1
 62
     7
 10
30.80209222373898
 20
42.42128156810028
  0
VERTEX
  8
LAYER_1
 62
     7
 10
30.80255809388173
 20
42.422424685803
  0
VERTEX
  8
LAYER_1
 62
     7
 10
30.80300807395241
 20
42.42356220388883
  0
VERTEX
  8
LAYER_1
 62
     7
 10
30.80343686726031
 20
42.42469225581876
  0
VERTEX
  8
LAYER_1
 62
     7
 10
30.80383917711475
 20
42.42581297505389
  0
VERTEX
  8
LAYER_1
 62
     7
 10
30.80420970682504
 20
42.42692249505518
  0
VERTEX
  8
LAYER_1
 62
     7
 10
30.80454315970047
 20
42.42801894928373
  0
VERTEX
  8
LAYER_1
 62
     7
 10
30.80483423905035
 20
42.42910047120052
  0
VERTEX
  8
LAYER_1
 62
     7
 10
30.805077648184
 20
42.4301651942666
  0
VERTEX
  8
LAYER_1
 62
     7
 10
30.80526809041072
 20
42.43121125194301
  0
VERTEX
  8
LAYER_1
 62
     7
 10
30.80540026903981
 20
42.43223677769079
  0
VERTEX
  8
LAYER_1
 62
     7
 10
30.80546888738059
 20
42.43323990497095
  0
VERTEX
  8
LAYER_1
 62
     7
 10
30.80546864874237
 20
42.43421876724454
  0
VERTEX
  8
LAYER_1
 62
     7
 10
30.80539425643443
 20
42.43517149797258
  0
VERTEX
  8
LAYER_1
 62
     7
 10
30.8052404137661
 20
42.43609623061611
  0
VERTEX
  8
LAYER_1
 62
     7
 10
30.80500182404669
 20
42.43699109863616
  0
VERTEX
  8
LAYER_1
 62
     7
 10
30.80467319058549
 20
42.43785423549375
  0
VERTEX
  8
LAYER_1
 62
     7
 10
30.80424921669182
 20
42.43868377464995
  0
VERTEX
  8
LAYER_1
 62
     7
 10
30.80372683276635
 20
42.43947799583378
  0
VERTEX
  8
LAYER_1
 62
     7
 10
30.80311211860661
 20
42.44023577967655
  0
VERTEX
  8
LAYER_1
 62
     7
 10
30.80241350323863
 20
42.44095616109916
  0
VERTEX
  8
LAYER_1
 62
     7
 10
30.80163941569003
 20
42.4416381750226
  0
VERTEX
  8
LAYER_1
 62
     7
 10
30.80079828498844
 20
42.44228085636787
  0
VERTEX
  8
LAYER_1
 62
     7
 10
30.79989854016152
 20
42.44288324005598
  0
VERTEX
  8
LAYER_1
 62
     7
 10
30.79894861023688
 20
42.44344436100789
  0
VERTEX
  8
LAYER_1
 62
     7
 10
30.79795692424219
 20
42.44396325414465
  0
VERTEX
  8
LAYER_1
 62
     7
 10
30.79693191120506
 20
42.44443895438722
  0
VERTEX
  8
LAYER_1
 62
     7
 10
30.79588200015311
 20
42.44487049665659
  0
VERTEX
  8
LAYER_1
 62
     7
 10
30.79481562011402
 20
42.44525691587378
  0
VERTEX
  8
LAYER_1
 62
     7
 10
30.79374120011539
 20
42.44559724695978
  0
VERTEX
  8
LAYER_1
 62
     7
 10
30.79266716918487
 20
42.44589052483559
  0
VERTEX
  8
LAYER_1
 62
     7
 10
30.79160120724286
 20
42.44613633201899
  0
VERTEX
  8
LAYER_1
 62
     7
 10
30.79054490882898
 20
42.44633869943633
  0
VERTEX
  8
LAYER_1
 62
     7
 10
30.7894969103044
 20
42.44650382044
  0
VERTEX
  8
LAYER_1
 62
     7
 10
30.78845582835423
 20
42.44663790276565
  0
VERTEX
  8
LAYER_1
 62
     7
 10
30.78742027966358
 20
42.44674715414886
  0
VERTEX
  8
LAYER_1
 62
     7
 10
30.78638888091758
 20
42.44683778232525
  0
VERTEX
  8
LAYER_1
 62
     7
 10
30.78536024880135
 20
42.44691599503042
  0
VERTEX
  8
LAYER_1
 62
     7
 10
30.784333
 20
42.446988
  0
SEQEND
  8
LAYER_1
 62
     7
  0
POLYLINE
  8
LAYER_1
 62
     7
 66
     1
  0
VERTEX
  8
LAYER_1
 62
     7
 10
30.784333
 20
42.446988
  0
VERTEX
  8
LAYER_1
 62
     7
 10
30.649925
 20
42.446988
  0
SEQEND
  8
LAYER_1
 62
     7
  0
POLYLINE
  8
LAYER_1
 62
     7
 66
     1
  0
VERTEX
  8
LAYER_1
 62
     7
 10
30.649925
 20
42.446988
  0
VERTEX
  8
LAYER_1
 62
     7
 10
30.64868042610208
 20
42.44684422853091
  0
VERTEX
  8
LAYER_1
 62
     7
 10
30.64743682660325
 20
42.44669310159084
  0
VERTEX
  8
LAYER_1
 62
     7
 10
30.64619517590259
 20
42.44652726370879
  0
VERTEX
  8
LAYER_1
 62
     7
 10
30.64495644839919
 20
42.44633935941377
  0
VERTEX
  8
LAYER_1
 62
     7
 10
30.64372161849215
 20
42.44612203323481
  0
VERTEX
  8
LAYER_1
 62
     7
 10
30.64249166390268
 20
42.44586797036958
  0
VERTEX
  8
LAYER_1
 62
     7
 10
30.64126780031455
 20
42.44557276908049
  0
VERTEX
  8
LAYER_1
 62
     7
 10
30.64005163637069
 20
42.44523683811622
  0
VERTEX
  8
LAYER_1
 62
     7
 10
30.63884481750183
 20
42.44486103657065
  0
VERTEX
  8
LAYER_1
 62
     7
 10
30.6376489891387
 20
42.44444622353762
  0
VERTEX
  8
LAYER_1
 62
     7
 10
30.63646579671204
 20
42.44399325811101
  0
VERTEX
  8
LAYER_1
 62
     7
 10
30.63529688565259
 20
42.44350299938468
  0
VERTEX
  8
LAYER_1
 62
     7
 10
30.63414390139108
 20
42.4429763064525
  0
VERTEX
  8
LAYER_1
 62
     7
 10
30.63300848935825
 20
42.4424140384083
  0
VERTEX
  8
LAYER_1
 62
     7
 10
30.63189229498482
 20
42.44181705434598
  0
VERTEX
  8
LAYER_1
 62
     7
 10
30.63079696370155
 20
42.44118621335938
  0
VERTEX
  8
LAYER_1
 62
     7
 10
30.62972414093916
 20
42.44052237454238
  0
VERTEX
  8
LAYER_1
 62
     7
 10
30.62867547212838
 20
42.43982639698882
  0
VERTEX
  8
LAYER_1
 62
     7
 10
30.62765260269996
 20
42.43909913979259
  0
VERTEX
  8
LAYER_1
 62
     7
 10
30.62665713005644
 20
42.43834147163751
  0
VERTEX
  8
LAYER_1
 62
     7
 10
30.62568928321763
 20
42.43755453443833
  0
VERTEX
  8
LAYER_1
 62
     7
 10
30.62474775796897
 20
42.43673977625718
  0
VERTEX
  8
LAYER_1
 62
     7
 10
30.62383116896362
 20
42.4358986613563
  0
VERTEX
  8
LAYER_1
 62
     7
 10
30.62293813085471
 20
42.43503265399788
  0
VERTEX
  8
LAYER_1
 62
     7
 10
30.62206725829541
 20
42.43414321844412
  0
VERTEX
  8
LAYER_1
 62
     7
 10
30.62121716593886
 20
42.43323181895725
  0
VERTEX
  8
LAYER_1
 62
     7
 10
30.62038646843821
 20
42.43229991979948
  0
VERTEX
  8
LAYER_1
 62
     7
 10
30.6195737804466
 20
42.43134898523299
  0
VERTEX
  8
LAYER_1
 62
     7
 10
30.6187777166172
 20
42.43038047952
  0
VERTEX
  8
LAYER_1
 62
     7
 10
30.61799689160316
 20
42.42939586692274
  0
VERTEX
  8
LAYER_1
 62
     7
 10
30.61722992005762
 20
42.4283966117034
  0
VERTEX
  8
LAYER_1
 62
     7
 10
30.61647541663372
 20
42.42738417812418
  0
VERTEX
  8
LAYER_1
 62
     7
 10
30.61573199598463
 20
42.42636003044729
  0
VERTEX
  8
LAYER_1
 62
     7
 10
30.61499827276349
 20
42.42532563293496
  0
VERTEX
  8
LAYER_1
 62
     7
 10
30.61427286162344
 20
42.42428244984936
  0
VERTEX
  8
LAYER_1
 62
     7
 10
30.61355437721766
 20
42.42323194545274
  0
VERTEX
  8
LAYER_1
 62
     7
 10
30.61284143419927
 20
42.42217558400728
  0
VERTEX
  8
LAYER_1
 62
     7
 10
30.61213264722142
 20
42.42111482977519
  0
VERTEX
  8
LAYER_1
 62
     7
 10
30.61142663093729
 20
42.4200511470187
  0
VERTEX
  8
LAYER_1
 62
     7
 10
30.610722
 20
42.418986
  0
SEQEND
  8
LAYER_1
 62
     7
  0
POLYLINE
  8
LAYER_1
 62
     7
 66
     1
  0
VERTEX
  8
LAYER_1
 62
     7
 10
30.610722
 20
42.418986
  0
VERTEX
  8
LAYER_1
 62
     7
 10
29.93868
 20
41.472527
  0
VERTEX
  8
LAYER_1
 62
     7
 10
29.93868
 20
42.418986
  0
SEQEND
  8
LAYER_1
 62
     7
  0
POLYLINE
  8
LAYER_1
 62
     7
 66
     1
  0
VERTEX
  8
LAYER_1
 62
     7
 10
29.93868
 20
42.418986
  0
VERTEX
  8
LAYER_1
 62
     7
 10
29.93847146700454
 20
42.42012905200576
  0
VERTEX
  8
LAYER_1
 62
     7
 10
29.93826019465751
 20
42.42127016825909
  0
VERTEX
  8
LAYER_1
 62
     7
 10
29.93804344360734
 20
42.42240741300758
  0
VERTEX
  8
LAYER_1
 62
     7
 10
29.93781847450244
 20
42.42353885049882
  0
VERTEX
  8
LAYER_1
 62
     7
 10
29.93758254799125
 20
42.42466254498036
  0
VERTEX
  8
LAYER_1
 62
     7
 10
29.93733292472218
 20
42.42577656069979
  0
VERTEX
  8
LAYER_1
 62
     7
 10
29.9370668653437
 20
42.42687896190471
  0
VERTEX
  8
LAYER_1
 62
     7
 10
29.93678163050417
 20
42.42796781284267
  0
VERTEX
  8
LAYER_1
 62
     7
 10
29.93647448085207
 20
42.42904117776126
  0
VERTEX
  8
LAYER_1
 62
     7
 10
29.93614267703581
 20
42.43009712090805
  0
VERTEX
  8
LAYER_1
 62
     7
 10
29.9357834797038
 20
42.43113370653063
  0
VERTEX
  8
LAYER_1
 62
     7
 10
29.9353941495045
 20
42.43214899887658
  0
VERTEX
  8
LAYER_1
 62
     7
 10
29.9349719470863
 20
42.43314106219346
  0
VERTEX
  8
LAYER_1
 62
     7
 10
29.93451413309765
 20
42.43410796072886
  0
VERTEX
  8
LAYER_1
 62
     7
 10
29.93401796818698
 20
42.43504775873037
  0
VERTEX
  8
LAYER_1
 62
     7
 10
29.93348071300269
 20
42.43595852044555
  0
VERTEX
  8
LAYER_1
 62
     7
 10
29.93289962819324
 20
42.43683831012201
  0
VERTEX
  8
LAYER_1
 62
     7
 10
29.93227197440703
 20
42.43768519200728
  0
VERTEX
  8
LAYER_1
 62
     7
 10
29.9315950122925
 20
42.43849723034898
  0
VERTEX
  8
LAYER_1
 62
     7
 10
29.93086647044117
 20
42.43927261458683
  0
VERTEX
  8
LAYER_1
 62
     7
 10
29.93008808907792
 20
42.4400106074218
  0
VERTEX
  8
LAYER_1
 62
     7
 10
29.92926364833263
 20
42.44071101730527
  0
VERTEX
  8
LAYER_1
 62
     7
 10
29.92839694444303
 20
42.44137365699809
  0
VERTEX
  8
LAYER_1
 62
     7
 10
29.92749177364679
 20
42.44199833926105
  0
VERTEX
  8
LAYER_1
 62
     7
 10
29.92655193218162
 20
42.44258487685503
  0
VERTEX
  8
LAYER_1
 62
     7
 10
29.92558121628522
 20
42.44313308254085
  0
VERTEX
  8
LAYER_1
 62
     7
 10
29.9245834221953
 20
42.44364276907935
  0
VERTEX
  8
LAYER_1
 62
     7
 10
29.92356234614955
 20
42.44411374923135
  0
VERTEX
  8
LAYER_1
 62
     7
 10
29.92252178438566
 20
42.44454583575771
  0
VERTEX
  8
LAYER_1
 62
     7
 10
29.92146553314135
 20
42.44493884141924
  0
VERTEX
  8
LAYER_1
 62
     7
 10
29.9203973886543
 20
42.44529257897682
  0
VERTEX
  8
LAYER_1
 62
     7
 10
29.91932114716222
 20
42.44560686119122
  0
VERTEX
  8
LAYER_1
 62
     7
 10
29.91824060490281
 20
42.44588150082333
  0
VERTEX
  8
LAYER_1
 62
     7
 10
29.91715931571005
 20
42.44611669317868
  0
VERTEX
  8
LAYER_1
 62
     7
 10
29.91607850723629
 20
42.44631630458092
  0
VERTEX
  8
LAYER_1
 62
     7
 10
29.9149981110473
 20
42.4464862467475
  0
VERTEX
  8
LAYER_1
 62
     7
 10
29.91391804468615
 20
42.44663245352559
  0
VERTEX
  8
LAYER_1
 62
     7
 10
29.91283822569583
 20
42.44676085876227
  0
VERTEX
  8
LAYER_1
 62
     7
 10
29.91175857161944
 20
42.4468773963047
  0
VERTEX
  8
LAYER_1
 62
     7
 10
29.910679
 20
42.446988
  0
SEQEND
  8
LAYER_1
 62
     7
  0
POLYLINE
  8
LAYER_1
 62
     7
 66
     1
  0
VERTEX
  8
LAYER_1
 62
     7
 10
29.910679
 20
42.446988
  0
VERTEX
  8
LAYER_1
 62
     7
 10
29.793072
 20
42.446988
  0
SEQEND
  8
LAYER_1
 62
     7
  0
POLYLINE
  8
LAYER_1
 62
     7
 66
     1
  0
VERTEX
  8
LAYER_1
 62
     7
 10
29.793072
 20
42.446988
  0
VERTEX
  8
LAYER_1
 62
     7
 10
29.79204356452554
 20
42.44687182918073
  0
VERTEX
  8
LAYER_1
 62
     7
 10
29.79101563885715
 20
42.4467486159168
  0
VERTEX
  8
LAYER_1
 62
     7
 10
29.78998873280092
 20
42.4466113177636
  0
VERTEX
  8
LAYER_1
 62
     7
 10
29.78896335616291
 20
42.44645289227647
  0
VERTEX
  8
LAYER_1
 62
     7
 10
29.78794001874919
 20
42.44626629701077
  0
VERTEX
  8
LAYER_1
 62
     7
 10
29.78691923036585
 20
42.44604448952185
  0
VERTEX
  8
LAYER_1
 62
     7
 10
29.78590161913236
 20
42.44578075588765
  0
VERTEX
  8
LAYER_1
 62
     7
 10
29.78488941455016
 20
42.44547282876685
  0
VERTEX
  8
LAYER_1
 62
     7
 10
29.78388599780304
 20
42.44512163871137
  0
VERTEX
  8
LAYER_1
 62
     7
 10
29.78289477537331
 20
42.44472818652
  0
VERTEX
  8
LAYER_1
 62
     7
 10
29.78191915374333
 20
42.44429347299157
  0
VERTEX
  8
LAYER_1
 62
     7
 10
29.78096253939544
 20
42.44381849892491
  0
VERTEX
  8
LAYER_1
 62
     7
 10
29.78002833881197
 20
42.4433042651188
  0
VERTEX
  8
LAYER_1
 62
     7
 10
29.77911995847527
 20
42.44275177237208
  0
VERTEX
  8
LAYER_1
 62
     7
 10
29.77824080486769
 20
42.44216202148354
  0
VERTEX
  8
LAYER_1
 62
     7
 10
29.77739428447154
 20
42.44153601325202
  0
VERTEX
  8
LAYER_1
 62
     7
 10
29.7765838037692
 20
42.44087474847632
  0
VERTEX
  8
LAYER_1
 62
     7
 10
29.77581276924299
 20
42.44017922795525
  0
VERTEX
  8
LAYER_1
 62
     7
 10
29.77508458737525
 20
42.43945045248763
  0
VERTEX
  8
LAYER_1
 62
     7
 10
29.77440266464831
 20
42.43868942287227
  0
VERTEX
  8
LAYER_1
 62
     7
 10
29.77376942002637
 20
42.43789723411474
  0
VERTEX
  8
LAYER_1
 62
     7
 10
29.77318334638744
 20
42.43707535575935
  0
VERTEX
  8
LAYER_1
 62
     7
 10
29.7726419610482
 20
42.43622535041651
  0
VERTEX
  8
LAYER_1
 62
     7
 10
29.77214278132532
 20
42.43534878069664
  0
VERTEX
  8
LAYER_1
 62
     7
 10
29.77168332453551
 20
42.43444720921017
  0
VERTEX
  8
LAYER_1
 62
     7
 10
29.77126110799542
 20
42.43352219856748
  0
VERTEX
  8
LAYER_1
 62
     7
 10
29.77087364902177
 20
42.432575311379
  0
VERTEX
  8
LAYER_1
 62
     7
 10
29.77051846493122
 20
42.43160811025514
  0
VERTEX
  8
LAYER_1
 62
     7
 10
29.77019307304046
 20
42.43062215780632
  0
VERTEX
  8
LAYER_1
 62
     7
 10
29.76989499066618
 20
42.42961901664296
  0
VERTEX
  8
LAYER_1
 62
     7
 10
29.76962173512505
 20
42.42860024937544
  0
VERTEX
  8
LAYER_1
 62
     7
 10
29.76937082373377
 20
42.42756741861422
  0
VERTEX
  8
LAYER_1
 62
     7
 10
29.76913977380903
 20
42.42652208696968
  0
VERTEX
  8
LAYER_1
 62
     7
 10
29.76892610266749
 20
42.42546581705224
  0
VERTEX
  8
LAYER_1
 62
     7
 10
29.76872732762584
 20
42.42440017147231
  0
VERTEX
  8
LAYER_1
 62
     7
 10
29.76854096600078
 20
42.42332671284034
  0
VERTEX
  8
LAYER_1
 62
     7
 10
29.76836453510898
 20
42.42224700376671
  0
VERTEX
  8
LAYER_1
 62
     7
 10
29.76819555226712
 20
42.42116260686183
  0
VERTEX
  8
LAYER_1
 62
     7
 10
29.7680315347919
 20
42.42007508473611
  0
VERTEX
  8
LAYER_1
 62
     7
 10
29.76787
 20
42.418986
  0
SEQEND
  8
LAYER_1
 62
     7
  0
POLYLINE
  8
LAYER_1
 62
     7
 66
     1
  0
VERTEX
  8
LAYER_1
 62
     7
 10
29.76787
 20
42.418986
  0
VERTEX
  8
LAYER_1
 62
     7
 10
29.76787
 20
40.514868
  0
SEQEND
  8
LAYER_1
 62
     7
  0
POLYLINE
  8
LAYER_1
 62
     7
 66
     1
  0
VERTEX
  8
LAYER_1
 62
     7
 10
29.76787
 20
40.514868
  0
VERTEX
  8
LAYER_1
 62
     7
 10
29.7680315347919
 20
40.51377891526388
  0
VERTEX
  8
LAYER_1
 62
     7
 10
29.76819555226712
 20
40.51269139313818
  0
VERTEX
  8
LAYER_1
 62
     7
 10
29.76836453510897
 20
40.5116069962333
  0
VERTEX
  8
LAYER_1
 62
     7
 10
29.76854096600078
 20
40.51052728715965
  0
VERTEX
  8
LAYER_1
 62
     7
 10
29.76872732762584
 20
40.50945382852767
  0
VERTEX
  8
LAYER_1
 62
     7
 10
29.76892610266748
 20
40.50838818294776
  0
VERTEX
  8
LAYER_1
 62
     7
 10
29.76913977380902
 20
40.50733191303033
  0
VERTEX
  8
LAYER_1
 62
     7
 10
29.76937082373378
 20
40.50628658138579
  0
VERTEX
  8
LAYER_1
 62
     7
 10
29.76962173512505
 20
40.50525375062456
  0
VERTEX
  8
LAYER_1
 62
     7
 10
29.76989499066617
 20
40.50423498335705
  0
VERTEX
  8
LAYER_1
 62
     7
 10
29.77019307304045
 20
40.50323184219368
  0
VERTEX
  8
LAYER_1
 62
     7
 10
29.77051846493121
 20
40.50224588974486
  0
VERTEX
  8
LAYER_1
 62
     7
 10
29.77087364902177
 20
40.50127868862101
  0
VERTEX
  8
LAYER_1
 62
     7
 10
29.77126110799542
 20
40.50033180143252
  0
VERTEX
  8
LAYER_1
 62
     7
 10
29.7716833245355
 20
40.49940679078983
  0
VERTEX
  8
LAYER_1
 62
     7
 10
29.77214278132532
 20
40.49850521930335
  0
VERTEX
  8
LAYER_1
 62
     7
 10
29.77264196104819
 20
40.49762864958348
  0
VERTEX
  8
LAYER_1
 62
     7
 10
29.77318334638744
 20
40.49677864424065
  0
VERTEX
  8
LAYER_1
 62
     7
 10
29.77376942002638
 20
40.49595676588525
  0
VERTEX
  8
LAYER_1
 62
     7
 10
29.77440266464831
 20
40.49516457712772
  0
VERTEX
  8
LAYER_1
 62
     7
 10
29.77508458737525
 20
40.49440354751238
  0
VERTEX
  8
LAYER_1
 62
     7
 10
29.77581276924299
 20
40.49367477204476
  0
VERTEX
  8
LAYER_1
 62
     7
 10
29.7765838037692
 20
40.49297925152369
  0
VERTEX
  8
LAYER_1
 62
     7
 10
29.77739428447155
 20
40.49231798674798
  0
VERTEX
  8
LAYER_1
 62
     7
 10
29.77824080486768
 20
40.49169197851646
  0
VERTEX
  8
LAYER_1
 62
     7
 10
29.77911995847527
 20
40.49110222762793
  0
VERTEX
  8
LAYER_1
 62
     7
 10
29.78002833881197
 20
40.4905497348812
  0
VERTEX
  8
LAYER_1
 62
     7
 10
29.78096253939543
 20
40.49003550107511
  0
VERTEX
  8
LAYER_1
 62
     7
 10
29.78191915374333
 20
40.48956052700843
  0
VERTEX
  8
LAYER_1
 62
     7
 10
29.78289477537331
 20
40.48912581348001
  0
VERTEX
  8
LAYER_1
 62
     7
 10
29.78388599780304
 20
40.48873236128864
  0
VERTEX
  8
LAYER_1
 62
     7
 10
29.78488941455017
 20
40.48838117123316
  0
VERTEX
  8
LAYER_1
 62
     7
 10
29.78590161913237
 20
40.48807324411236
  0
VERTEX
  8
LAYER_1
 62
     7
 10
29.78691923036586
 20
40.48780951047817
  0
VERTEX
  8
LAYER_1
 62
     7
 10
29.78794001874919
 20
40.48758770298923
  0
VERTEX
  8
LAYER_1
 62
     7
 10
29.78896335616291
 20
40.48740110772354
  0
VERTEX
  8
LAYER_1
 62
     7
 10
29.78998873280093
 20
40.48724268223641
  0
VERTEX
  8
LAYER_1
 62
     7
 10
29.79101563885715
 20
40.48710538408319
  0
VERTEX
  8
LAYER_1
 62
     7
 10
29.79204356452554
 20
40.48698217081927
  0
VERTEX
  8
LAYER_1
 62
     7
 10
29.793072
 20
40.486866
  0
SEQEND
  8
LAYER_1
 62
     7
  0
POLYLINE
  8
LAYER_1
 62
     7
 66
     1
  0
VERTEX
  8
LAYER_1
 62
     7
 10
29.793072
 20
40.486866
  0
VERTEX
  8
LAYER_1
 62
     7
 10
29.913479
 20
40.486866
  0
SEQEND
  8
LAYER_1
 62
     7
  0
POLYLINE
  8
LAYER_1
 62
     7
 66
     1
  0
VERTEX
  8
LAYER_1
 62
     7
 10
29.913479
 20
40.486866
  0
VERTEX
  8
LAYER_1
 62
     7
 10
29.91450742598618
 20
40.48698217053286
  0
VERTEX
  8
LAYER_1
 62
     7
 10
29.91553534243425
 20
40.48710538325754
  0
VERTEX
  8
LAYER_1
 62
     7
 10
29.9165622398061
 20
40.48724268036587
  0
VERTEX
  8
LAYER_1
 62
     7
 10
29.91758760856361
 20
40.4874011040497
  0
VERTEX
  8
LAYER_1
 62
     7
 10
29.91861093916867
 20
40.48758769650083
  0
VERTEX
  8
LAYER_1
 62
     7
 10
29.91963172208317
 20
40.48780949991109
  0
VERTEX
  8
LAYER_1
 62
     7
 10
29.92064932945593
 20
40.48807322804405
  0
VERTEX
  8
LAYER_1
 62
     7
 10
29.92166153176293
 20
40.48838114853845
  0
VERTEX
  8
LAYER_1
 62
     7
 10
29.92266494744132
 20
40.48873233105908
  0
VERTEX
  8
LAYER_1
 62
     7
 10
29.9236561696142
 20
40.4891257750005
  0
VERTEX
  8
LAYER_1
 62
     7
 10
29.92463179140458
 20
40.48956047975728
  0
VERTEX
  8
LAYER_1
 62
     7
 10
29.9255884059355
 20
40.49003544472401
  0
VERTEX
  8
LAYER_1
 62
     7
 10
29.92652260633002
 20
40.49054966929523
  0
VERTEX
  8
LAYER_1
 62
     7
 10
29.92743098571117
 20
40.49110215286554
  0
VERTEX
  8
LAYER_1
 62
     7
 10
29.928310137202
 20
40.4916918948295
  0
VERTEX
  8
LAYER_1
 62
     7
 10
29.92915665392554
 20
40.49231789458168
  0
VERTEX
  8
LAYER_1
 62
     7
 10
29.92996712900486
 20
40.49297915151665
  0
VERTEX
  8
LAYER_1
 62
     7
 10
29.93073815556297
 20
40.49367466502898
  0
VERTEX
  8
LAYER_1
 62
     7
 10
29.93146632672293
 20
40.49440343451324
  0
VERTEX
  8
LAYER_1
 62
     7
 10
29.93214823560779
 20
40.49516445936401
  0
VERTEX
  8
LAYER_1
 62
     7
 10
29.93278146251379
 20
40.49595664476688
  0
VERTEX
  8
LAYER_1
 62
     7
 10
29.93336751423727
 20
40.4967785211896
  0
VERTEX
  8
LAYER_1
 62
     7
 10
29.93390887368257
 20
40.49762852594689
  0
VERTEX
  8
LAYER_1
 62
     7
 10
29.93440802375403
 20
40.49850509635352
  0
VERTEX
  8
LAYER_1
 62
     7
 10
29.934867447356
 20
40.4994066697242
  0
VERTEX
  8
LAYER_1
 62
     7
 10
29.93528962739283
 20
40.50033168337372
  0
VERTEX
  8
LAYER_1
 62
     7
 10
29.93567704676885
 20
40.50127857461678
  0
VERTEX
  8
LAYER_1
 62
     7
 10
29.9360321883884
 20
40.50224578076816
  0
VERTEX
  8
LAYER_1
 62
     7
 10
29.93635753515584
 20
40.50323173914258
  0
VERTEX
  8
LAYER_1
 62
     7
 10
29.93665556997551
 20
40.50423488705481
  0
VERTEX
  8
LAYER_1
 62
     7
 10
29.93692877575173
 20
40.50525366181957
  0
VERTEX
  8
LAYER_1
 62
     7
 10
29.93717963538888
 20
40.50628650075164
  0
VERTEX
  8
LAYER_1
 62
     7
 10
29.93741063179128
 20
40.50733184116574
  0
VERTEX
  8
LAYER_1
 62
     7
 10
29.93762424786327
 20
40.50838812037661
  0
VERTEX
  8
LAYER_1
 62
     7
 10
29.9378229665092
 20
40.509453775699
  0
VERTEX
  8
LAYER_1
 62
     7
 10
29.93800927063342
 20
40.51052724444767
  0
VERTEX
  8
LAYER_1
 62
     7
 10
29.93818564314027
 20
40.51160696393737
  0
VERTEX
  8
LAYER_1
 62
     7
 10
29.93835456693408
 20
40.51269137148282
  0
VERTEX
  8
LAYER_1
 62
     7
 10
29.93851852491922
 20
40.51377890439879
  0
VERTEX
  8
LAYER_1
 62
     7
 10
29.93868
 20
40.514868
  0
SEQEND
  8
LAYER_1
 62
     7
  0
POLYLINE
  8
LAYER_1
 62
     7
 66
     1
  0
VERTEX
  8
LAYER_1
 62
     7
 10
29.93868
 20
40.514868
  0
VERTEX
  8
LAYER_1
 62
     7
 10
29.93868
 20
41.203711
  0
VERTEX
  8
LAYER_1
 62
     7
 10
30.109491
 20
41.447326
  0
VERTEX
  8
LAYER_1
 62
     7
 10
30.498715
 20
40.775284
  0
SEQEND
  8
LAYER_1
 62
     7
  0
POLYLINE
  8
LAYER_1
 62
     7
 66
     1
  0
VERTEX
  8
LAYER_1
 62
     7
 10
30.498715
 20
40.775284
  0
VERTEX
  8
LAYER_1
 62
     7
 10
30.50488575563086
 20
40.76504863627024
  0
VERTEX
  8
LAYER_1
 62
     7
 10
30.51106866959205
 20
40.7548192763036
  0
VERTEX
  8
LAYER_1
 62
     7
 10
30.51727590021394
 20
40.74460192386319
  0
VERTEX
  8
LAYER_1
 62
     7
 10
30.52351960582684
 20
40.73440258271217
  0
VERTEX
  8
LAYER_1
 62
     7
 10
30.52981194476112
 20
40.72422725661362
  0
VERTEX
  8
LAYER_1
 62
     7
 10
30.5361650753471
 20
40.71408194933068
  0
VERTEX
  8
LAYER_1
 62
     7
 10
30.54259115591512
 20
40.70397266462648
  0
VERTEX
  8
LAYER_1
 62
     7
 10
30.54910234479554
 20
40.69390540626413
  0
VERTEX
  8
LAYER_1
 62
     7
 10
30.55571080031868
 20
40.68388617800676
  0
VERTEX
  8
LAYER_1
 62
     7
 10
30.5624286808149
 20
40.67392098361749
  0
VERTEX
  8
LAYER_1
 62
     7
 10
30.56926814461454
 20
40.66401582685943
  0
VERTEX
  8
LAYER_1
 62
     7
 10
30.57624135004793
 20
40.65417671149572
  0
VERTEX
  8
LAYER_1
 62
     7
 10
30.5833604554454
 20
40.64440964128946
  0
VERTEX
  8
LAYER_1
 62
     7
 10
30.59063761913733
 20
40.6347206200038
  0
VERTEX
  8
LAYER_1
 62
     7
 10
30.59808499945403
 20
40.62511565140185
  0
VERTEX
  8
LAYER_1
 62
     7
 10
30.60571475472585
 20
40.61560073924672
  0
VERTEX
  8
LAYER_1
 62
     7
 10
30.61353891117691
 20
40.60618268112081
  0
VERTEX
  8
LAYER_1
 62
     7
 10
30.62156649422699
 20
40.59688630627914
  0
VERTEX
  8
LAYER_1
 62
     7
 10
30.62980354925439
 20
40.5877543508871
  0
VERTEX
  8
LAYER_1
 62
     7
 10
30.63825599368373
 20
40.57883031997648
  0
VERTEX
  8
LAYER_1
 62
     7
 10
30.64692974493967
 20
40.57015771857911
  0
VERTEX
  8
LAYER_1
 62
     7
 10
30.65583072044683
 20
40.56178005172676
  0
VERTEX
  8
LAYER_1
 62
     7
 10
30.66496483762987
 20
40.55374082445125
  0
VERTEX
  8
LAYER_1
 62
     7
 10
30.67433801391345
 20
40.54608354178438
  0
VERTEX
  8
LAYER_1
 62
     7
 10
30.6839561667222
 20
40.53885170875796
  0
VERTEX
  8
LAYER_1
 62
     7
 10
30.69382521348076
 20
40.53208883040379
  0
VERTEX
  8
LAYER_1
 62
     7
 10
30.70395107161378
 20
40.52583841175366
  0
VERTEX
  8
LAYER_1
 62
     7
 10
30.71433965854592
 20
40.52014395783939
  0
VERTEX
  8
LAYER_1
 62
     7
 10
30.72499664847599
 20
40.51504817056951
  0
VERTEX
  8
LAYER_1
 62
     7
 10
30.73591600654433
 20
40.51055508894527
  0
VERTEX
  8
LAYER_1
 62
     7
 10
30.74707503767167
 20
40.50661374049757
  0
VERTEX
  8
LAYER_1
 62
     7
 10
30.75844977455214
 20
40.50316895190876
  0
VERTEX
  8
LAYER_1
 62
     7
 10
30.77001624987984
 20
40.5001655498612
  0
VERTEX
  8
LAYER_1
 62
     7
 10
30.78175049634884
 20
40.49754836103723
  0
VERTEX
  8
LAYER_1
 62
     7
 10
30.79362854665327
 20
40.49526221211919
  0
VERTEX
  8
LAYER_1
 62
     7
 10
30.8056264334872
 20
40.49325192978942
  0
VERTEX
  8
LAYER_1
 62
     7
 10
30.81772018954474
 20
40.49146234073027
  0
VERTEX
  8
LAYER_1
 62
     7
 10
30.82988584751999
 20
40.48983827162409
  0
VERTEX
  8
LAYER_1
 62
     7
 10
30.84209944010705
 20
40.48832454915322
  0
VERTEX
  8
LAYER_1
 62
     7
 10
30.854337
 20
40.486866
  0
SEQEND
  8
LAYER_1
 62
     7
  0
POLYLINE
  8
LAYER_1
 62
     7
 66
     1
  0
VERTEX
  8
LAYER_1
 62
     7
 10
30.854337
 20
40.486866
  0
VERTEX
  8
LAYER_1
 62
     7
 10
30.915941
 20
40.486866
  0
SEQEND
  8
LAYER_1
 62
     7
  0
POLYLINE
  8
LAYER_1
 62
     7
 66
     1
  0
VERTEX
  8
LAYER_1
 62
     7
 10
30.915941
 20
40.486866
  0
VERTEX
  8
LAYER_1
 62
     7
 10
30.91713553398295
 20
40.48712590578207
  0
VERTEX
  8
LAYER_1
 62
     7
 10
30.9183277485328
 20
40.48738878886414
  0
VERTEX
  8
LAYER_1
 62
     7
 10
30.91951532421643
 20
40.4876576265462
  0
VERTEX
  8
LAYER_1
 62
     7
 10
30.92069594160077
 20
40.48793539612827
  0
VERTEX
  8
LAYER_1
 62
     7
 10
30.92186728125267
 20
40.48822507491032
  0
VERTEX
  8
LAYER_1
 62
     7
 10
30.92302702373906
 20
40.48852964019238
  0
VERTEX
  8
LAYER_1
 62
     7
 10
30.92417284962682
 20
40.48885206927442
  0
VERTEX
  8
LAYER_1
 62
     7
 10
30.92530243948285
 20
40.48919533945643
  0
VERTEX
  8
LAYER_1
 62
     7
 10
30.92641347387405
 20
40.48956242803843
  0
VERTEX
  8
LAYER_1
 62
     7
 10
30.92750363336731
 20
40.48995631232042
  0
VERTEX
  8
LAYER_1
 62
     7
 10
30.92857059852952
 20
40.49037996960239
  0
VERTEX
  8
LAYER_1
 62
     7
 10
30.92961204992759
 20
40.49083637718434
  0
VERTEX
  8
LAYER_1
 62
     7
 10
30.93062566812841
 20
40.49132851236627
  0
VERTEX
  8
LAYER_1
 62
     7
 10
30.93160913369887
 20
40.49185935244817
  0
VERTEX
  8
LAYER_1
 62
     7
 10
30.93256012720586
 20
40.49243187473004
  0
VERTEX
  8
LAYER_1
 62
     7
 10
30.9334763292163
 20
40.49304905651189
  0
VERTEX
  8
LAYER_1
 62
     7
 10
30.93435542029706
 20
40.4937138750937
  0
VERTEX
  8
LAYER_1
 62
     7
 10
30.93519508101505
 20
40.49442930777548
  0
VERTEX
  8
LAYER_1
 62
     7
 10
30.93599303284475
 20
40.49519823059517
  0
VERTEX
  8
LAYER_1
 62
     7
 10
30.93674825736699
 20
40.4960204003416
  0
VERTEX
  8
LAYER_1
 62
     7
 10
30.937461204194
 20
40.49689193985964
  0
VERTEX
  8
LAYER_1
 62
     7
 10
30.938132405735
 20
40.49780876703991
  0
VERTEX
  8
LAYER_1
 62
     7
 10
30.93876239439913
 20
40.49876679977298
  0
VERTEX
  8
LAYER_1
 62
     7
 10
30.93935170259559
 20
40.49976195594946
  0
VERTEX
  8
LAYER_1
 62
     7
 10
30.93990086273353
 20
40.50079015345994
  0
VERTEX
  8
LAYER_1
 62
     7
 10
30.94041040722214
 20
40.50184731019502
  0
VERTEX
  8
LAYER_1
 62
     7
 10
30.9408808684706
 20
40.50292934404531
  0
VERTEX
  8
LAYER_1
 62
     7
 10
30.94131277888809
 20
40.50403217290138
  0
VERTEX
  8
LAYER_1
 62
     7
 10
30.94170667088375
 20
40.50515171465384
  0
VERTEX
  8
LAYER_1
 62
     7
 10
30.94206307686679
 20
40.50628388719328
  0
VERTEX
  8
LAYER_1
 62
     7
 10
30.94238252924638
 20
40.50742460841031
  0
VERTEX
  8
LAYER_1
 62
     7
 10
30.94266556043169
 20
40.50856979619552
  0
VERTEX
  8
LAYER_1
 62
     7
 10
30.94291270285048
 20
40.50971536845847
  0
VERTEX
  8
LAYER_1
 62
     7
 10
30.94312530634602
 20
40.51085807713908
  0
VERTEX
  8
LAYER_1
 62
     7
 10
30.94330771683149
 20
40.51199773114568
  0
VERTEX
  8
LAYER_1
 62
     7
 10
30.94346496647525
 20
40.51313483959058
  0
VERTEX
  8
LAYER_1
 62
     7
 10
30.94360208744564
 20
40.5142699115861
  0
VERTEX
  8
LAYER_1
 62
     7
 10
30.943724111911
 20
40.51540345624464
  0
VERTEX
  8
LAYER_1
 62
     7
 10
30.94383607203967
 20
40.51653598267848
  0
VERTEX
  8
LAYER_1
 62
     7
 10
30.943943
 20
40.517668
  0
SEQEND
  8
LAYER_1
 62
     7
  0
POLYLINE
  8
LAYER_1
 62
     7
 66
     1
  0
VERTEX
  8
LAYER_1
 62
     7
 10
30.943943
 20
40.517668
  0
VERTEX
  8
LAYER_1
 62
     7
 10
30.943943
 20
40.612874
  0
SEQEND
  8
LAYER_1
 62
     7
  0
POLYLINE
  8
LAYER_1
 62
     7
 66
     1
  0
VERTEX
  8
LAYER_1
 62
     7
 10
30.943943
 20
40.612874
  0
VERTEX
  8
LAYER_1
 62
     7
 10
30.9438323961603
 20
40.6139535820151
  0
VERTEX
  8
LAYER_1
 62
     7
 10
30.94371585823096
 20
40.61503324623855
  0
VERTEX
  8
LAYER_1
 62
     7
 10
30.94358745212235
 20
40.61611307487868
  0
VERTEX
  8
LAYER_1
 62
     7
 10
30.94344124374485
 20
40.61719315014388
  0
VERTEX
  8
LAYER_1
 62
     7
 10
30.94327129900881
 20
40.61827355424243
  0
VERTEX
  8
LAYER_1
 62
     7
 10
30.9430716838246
 20
40.61935436938273
  0
VERTEX
  8
LAYER_1
 62
     7
 10
30.94283648624654
 20
40.62043566374466
  0
VERTEX
  8
LAYER_1
 62
     7
 10
30.94256184008531
 20
40.6215162094964
  0
VERTEX
  8
LAYER_1
 62
     7
 10
30.94224755028953
 20
40.62259245309554
  0
VERTEX
  8
LAYER_1
 62
     7
 10
30.9418938042952
 20
40.62366059868909
  0
VERTEX
  8
LAYER_1
 62
     7
 10
30.94150078953834
 20
40.62471685042414
  0
VERTEX
  8
LAYER_1
 62
     7
 10
30.94106869345499
 20
40.62575741244774
  0
VERTEX
  8
LAYER_1
 62
     7
 10
30.94059770348117
 20
40.62677848890696
  0
VERTEX
  8
LAYER_1
 62
     7
 10
30.9400880070529
 20
40.62777628394887
  0
VERTEX
  8
LAYER_1
 62
     7
 10
30.93953979160622
 20
40.62874700172049
  0
VERTEX
  8
LAYER_1
 62
     7
 10
30.93895324457713
 20
40.62968684636894
  0
VERTEX
  8
LAYER_1
 62
     7
 10
30.93832855340168
 20
40.63059202204125
  0
VERTEX
  8
LAYER_1
 62
     7
 10
30.93766590551587
 20
40.63145873288448
  0
VERTEX
  8
LAYER_1
 62
     7
 10
30.93696548835575
 20
40.6322831830457
  0
VERTEX
  8
LAYER_1
 62
     7
 10
30.93622748935733
 20
40.63306157667198
  0
VERTEX
  8
LAYER_1
 62
     7
 10
30.93545210027402
 20
40.63379013404901
  0
VERTEX
  8
LAYER_1
 62
     7
 10
30.93464005870823
 20
40.63446711587665
  0
VERTEX
  8
LAYER_1
 62
     7
 10
30.93379317523185
 20
40.63509479367491
  0
VERTEX
  8
LAYER_1
 62
     7
 10
30.93291338550658
 20
40.63567590655655
  0
VERTEX
  8
LAYER_1
 62
     7
 10
30.93200262519413
 20
40.63621319363432
  0
VERTEX
  8
LAYER_1
 62
     7
 10
30.93106282995618
 20
40.63670939402094
  0
VERTEX
  8
LAYER_1
 62
     7
 10
30.93009593545444
 20
40.63716724682917
  0
VERTEX
  8
LAYER_1
 62
     7
 10
30.9291038773506
 20
40.63758949117174
  0
VERTEX
  8
LAYER_1
 62
     7
 10
30.92808859130638
 20
40.63797886616141
  0
VERTEX
  8
LAYER_1
 62
     7
 10
30.92705201298346
 20
40.63833811091091
  0
VERTEX
  8
LAYER_1
 62
     7
 10
30.92599607804354
 20
40.63866996453297
  0
VERTEX
  8
LAYER_1
 62
     7
 10
30.92492272214833
 20
40.63897716614036
  0
VERTEX
  8
LAYER_1
 62
     7
 10
30.92383388095953
 20
40.63926245484581
  0
VERTEX
  8
LAYER_1
 62
     7
 10
30.92273149013883
 20
40.63952856976206
  0
VERTEX
  8
LAYER_1
 62
     7
 10
30.92161748534794
 20
40.63977825000186
  0
VERTEX
  8
LAYER_1
 62
     7
 10
30.92049380224855
 20
40.64001423467795
  0
VERTEX
  8
LAYER_1
 62
     7
 10
30.91936237650236
 20
40.64023926290305
  0
VERTEX
  8
LAYER_1
 62
     7
 10
30.91822514377107
 20
40.64045607378993
  0
VERTEX
  8
LAYER_1
 62
     7
 10
30.91708403971639
 20
40.64066740645134
  0
VERTEX
  8
LAYER_1
 62
     7
 10
30.915941
 20
40.640876
  0
SEQEND
  8
LAYER_1
 62
     7
  0
POLYLINE
  8
LAYER_1
 62
     7
 66
     1
  0
VERTEX
  8
LAYER_1
 62
     7
 10
30.915941
 20
40.640876
  0
VERTEX
  8
LAYER_1
 62
     7
 10
30.871138
 20
40.640876
  0
SEQEND
  8
LAYER_1
 62
     7
  0
POLYLINE
  8
LAYER_1
 62
     7
 66
     1
  0
VERTEX
  8
LAYER_1
 62
     7
 10
30.871138
 20
40.640876
  0
VERTEX
  8
LAYER_1
 62
     7
 10
30.86407791340302
 20
40.64223009327361
  0
VERTEX
  8
LAYER_1
 62
     7
 10
30.85703310150218
 20
40.64361428646195
  0
VERTEX
  8
LAYER_1
 62
     7
 10
30.85001883899361
 20
40.64505867947975
  0
VERTEX
  8
LAYER_1
 62
     7
 10
30.84305040057345
 20
40.64659337224174
  0
VERTEX
  8
LAYER_1
 62
     7
 10
30.83614306093781
 20
40.64824846466264
  0
VERTEX
  8
LAYER_1
 62
     7
 10
30.82931209478285
 20
40.65005405665719
  0
VERTEX
  8
LAYER_1
 62
     7
 10
30.82257277680472
 20
40.65204024814012
  0
VERTEX
  8
LAYER_1
 62
     7
 10
30.8159403816995
 20
40.65423713902614
  0
VERTEX
  8
LAYER_1
 62
     7
 10
30.80943018416338
 20
40.65667482923001
  0
VERTEX
  8
LAYER_1
 62
     7
 10
30.80305745889247
 20
40.65938341866644
  0
VERTEX
  8
LAYER_1
 62
     7
 10
30.7968374805829
 20
40.66239300725015
  0
VERTEX
  8
LAYER_1
 62
     7
 10
30.79078356078508
 20
40.66572877996621
  0
VERTEX
  8
LAYER_1
 62
     7
 10
30.78489543921631
 20
40.66938194337179
  0
VERTEX
  8
LAYER_1
 62
     7
 10
30.77916712090684
 20
40.67332934666737
  0
VERTEX
  8
LAYER_1
 62
     7
 10
30.77359259051402
 20
40.67754778804783
  0
VERTEX
  8
LAYER_1
 62
     7
 10
30.76816583269521
 20
40.68201406570807
  0
VERTEX
  8
LAYER_1
 62
     7
 10
30.76288083210779
 20
40.68670497784303
  0
VERTEX
  8
LAYER_1
 62
     7
 10
30.7577315734091
 20
40.69159732264757
  0
VERTEX
  8
LAYER_1
 62
     7
 10
30.75271204125651
 20
40.69666789831662
  0
VERTEX
  8
LAYER_1
 62
     7
 10
30.74781622030739
 20
40.70189350304509
  0
VERTEX
  8
LAYER_1
 62
     7
 10
30.7430380952191
 20
40.70725093502786
  0
VERTEX
  8
LAYER_1
 62
     7
 10
30.73837165064898
 20
40.71271699245985
  0
VERTEX
  8
LAYER_1
 62
     7
 10
30.73381087125442
 20
40.71826847353596
  0
VERTEX
  8
LAYER_1
 62
     7
 10
30.72934974169276
 20
40.72388217645111
  0
VERTEX
  8
LAYER_1
 62
     7
 10
30.72498226881517
 20
40.72953772322184
  0
VERTEX
  8
LAYER_1
 62
     7
 10
30.72070256801299
 20
40.7352285459451
  0
VERTEX
  8
LAYER_1
 62
     7
 10
30.71650478780692
 20
40.74095229192256
  0
VERTEX
  8
LAYER_1
 62
     7
 10
30.7123830767258
 20
40.7467066094932
  0
VERTEX
  8
LAYER_1
 62
     7
 10
30.70833158329848
 20
40.75248914699601
  0
VERTEX
  8
LAYER_1
 62
     7
 10
30.70434445605381
 20
40.75829755276997
  0
VERTEX
  8
LAYER_1
 62
     7
 10
30.70041584352065
 20
40.76412947515407
  0
VERTEX
  8
LAYER_1
 62
     7
 10
30.69653989422783
 20
40.7699825624873
  0
VERTEX
  8
LAYER_1
 62
     7
 10
30.69271075670422
 20
40.77585446310864
  0
VERTEX
  8
LAYER_1
 62
     7
 10
30.68892257947866
 20
40.78174282535708
  0
VERTEX
  8
LAYER_1
 62
     7
 10
30.68516951108001
 20
40.78764529757161
  0
VERTEX
  8
LAYER_1
 62
     7
 10
30.6814457000371
 20
40.79355952809119
  0
VERTEX
  8
LAYER_1
 62
     7
 10
30.67774529487881
 20
40.79948316525486
  0
VERTEX
  8
LAYER_1
 62
     7
 10
30.67406244413394
 20
40.80541385740153
  0
VERTEX
  8
LAYER_1
 62
     7
 10
30.67039129633141
 20
40.81134925287028
  0
VERTEX
  8
LAYER_1
 62
     7
 10
30.666726
 20
40.817287
  0
SEQEND
  8
LAYER_1
 62
     7
  0
POLYLINE
  8
LAYER_1
 62
     7
 66
     1
  0
VERTEX
  8
LAYER_1
 62
     7
 10
30.666726
 20
40.817287
  0
VERTEX
  8
LAYER_1
 62
     7
 10
30.229899
 20
41.592935
  0
SEQEND
  8
LAYER_1
 62
     7
  0
ENDSEC
  0
EOF
