<?xml version="1.0" encoding="UTF-8" standalone="no"?>
<!-- Created with Inkscape (http://www.inkscape.org/) -->

<svg
   xmlns:dc="http://purl.org/dc/elements/1.1/"
   xmlns:cc="http://creativecommons.org/ns#"
   xmlns:rdf="http://www.w3.org/1999/02/22-rdf-syntax-ns#"
   xmlns:svg="http://www.w3.org/2000/svg"
   xmlns="http://www.w3.org/2000/svg"
   xmlns:sodipodi="http://sodipodi.sourceforge.net/DTD/sodipodi-0.dtd"
   xmlns:inkscape="http://www.inkscape.org/namespaces/inkscape"
   width="210mm"
   height="297mm"
   viewBox="0 0 210 297"
   version="1.1"
   id="svg8"
   inkscape:version="0.92.1 r15371"
   sodipodi:docname="CSSK2.svg">
  <defs
     id="defs2" />
  <sodipodi:namedview
     id="base"
     pagecolor="#ffffff"
     bordercolor="#666666"
     borderopacity="1.0"
     inkscape:pageopacity="0.0"
     inkscape:pageshadow="2"
     inkscape:zoom="22.4"
     inkscape:cx="142.61865"
     inkscape:cy="1017.3033"
     inkscape:document-units="mm"
     inkscape:current-layer="svg8"
     showgrid="false" />
  <metadata
     id="metadata5">
    <rdf:RDF>
      <cc:Work
         rdf:about="">
        <dc:format>image/svg+xml</dc:format>
        <dc:type
           rdf:resource="http://purl.org/dc/dcmitype/StillImage" />
        <dc:title />
      </cc:Work>
    </rdf:RDF>
  </metadata>
  <path
     style="fill:#ffffff;stroke:#ff0000;stroke-width:0.57599998;stroke-miterlimit:4;stroke-dasharray:none;stroke-opacity:1"
     d="m 141.53711,115.55804 c 0,4.88 -2.16086,8.67048 -7.88086,8.67048 -5.28,0 -8,-3.63977 -8,-8.75977 v -11 c 0,-5.119997 2.72,-8.800781 8,-8.800781 4.96,0 7.16164,2.920467 7.68164,6.480471 0.04,0.19998 -2.3e-4,0.43952 -0.24023,0.51953 l -1.56055,0.40039 c -0.23999,0.12001 -0.52056,-0.0393 -0.56055,-0.2793 -0.32,-2.919996 -2.08031,-4.800779 -5.32031,-4.800779 -3.8,0 -5.55859,1.960472 -5.55859,6.480469 v 11 c 0,4.52 1.75859,6.43945 5.55859,6.43945 3.4,0 5.44141,-1.95945 5.44141,-6.43945 0,-0.4 0.35937,-0.40039 0.35937,-0.40039 h 0.83984 l 3.26298,-0.002 0.0124,-21.324572 c 8e-4,-1.369356 -1.14646,-2.472657 -2.57032,-2.472657 h -14.94922 c -1.42385,0 -2.57031,1.103301 -2.57031,2.472657 v 30.681642 c 0,1.36935 1.14646,2.4707 2.57031,2.4707 h 14.94922 c 1.42386,0 2.57032,-1.10135 2.57032,-2.4707 v -3.8352 l -0.0111,-4.98477 z"
     transform="scale(0.26458333)"
     id="rect4494"
     inkscape:connector-curvature="0"
     sodipodi:nodetypes="cssssccccssssscccssssssssccc" />
  <g
     inkscape:label="Layer 1"
     inkscape:groupmode="layer"
     id="layer1">
    <g
       aria-label="CSSK"
       style="font-style:normal;font-variant:normal;font-weight:bold;font-stretch:normal;font-size:10.58333302px;line-height:1.25;font-family:'Descent ][ Logo';-inkscape-font-specification:'Descent ][ Logo, Bold';font-variant-ligatures:normal;font-variant-caps:normal;font-variant-numeric:normal;font-feature-settings:normal;text-align:start;letter-spacing:0px;word-spacing:0px;writing-mode:lr-tb;text-anchor:start;fill:#000000;fill-opacity:1;stroke:none;stroke-width:0.26458332"
       id="text4491">
      <path
         d="m 39.802994,28.222644 c -0.4445,-0.232834 -0.582083,-0.635 -0.582083,-1.100667 0,-0.529167 0.328083,-1.164167 1.354666,-1.164167 0.85725,0 1.322917,0.455084 1.407583,1.227667 0.01058,0.0635 0.08467,0.09525 0.148167,0.07408 l 0.41275,-0.105833 c 0.0635,-0.02117 0.07408,-0.08467 0.0635,-0.137583 -0.137583,-0.941917 -0.719667,-1.703917 -2.032,-1.703917 -1.090083,0 -2.00025,0.635 -2.00025,1.778 0,0.518583 0.105834,1.27 1.037167,1.74625 l 1.61925,0.8255 c 0.624416,0.328083 0.814916,0.762 0.814916,1.2065 0,0.613833 -0.402166,1.386416 -1.471083,1.386416 -0.645583,0 -1.439333,-0.275166 -1.439333,-1.4605 0,-0.105833 -0.09525,-0.105833 -0.09525,-0.105833 h -0.4445 c 0,0 -0.105833,0 -0.105833,0.105833 0,1.608667 1.248833,2.074334 2.084916,2.074334 1.354667,0 2.116667,-0.867834 2.116667,-2.00025 0,-0.687917 -0.338667,-1.30175 -0.963084,-1.629833 z"
         style="font-style:normal;font-variant:normal;font-weight:normal;font-stretch:normal;font-family:Melbourne;-inkscape-font-specification:Melbourne;stroke-width:0.26458332"
         id="path4499"
         inkscape:connector-curvature="0" />
      <path
         d="m 44.949966,28.222644 c -0.444499,-0.232834 -0.582083,-0.635 -0.582083,-1.100667 0,-0.529167 0.328084,-1.164167 1.354667,-1.164167 0.85725,0 1.322916,0.455084 1.407583,1.227667 0.01058,0.0635 0.08467,0.09525 0.148167,0.07408 l 0.41275,-0.105833 c 0.0635,-0.02117 0.07408,-0.08467 0.0635,-0.137583 -0.137584,-0.941917 -0.719667,-1.703917 -2.032,-1.703917 -1.090083,0 -2.00025,0.635 -2.00025,1.778 0,0.518583 0.105833,1.27 1.037167,1.74625 l 1.619249,0.8255 c 0.624417,0.328083 0.814917,0.762 0.814917,1.2065 0,0.613833 -0.402167,1.386416 -1.471083,1.386416 -0.645584,0 -1.439333,-0.275166 -1.439333,-1.4605 0,-0.105833 -0.09525,-0.105833 -0.09525,-0.105833 h -0.4445 c 0,0 -0.105834,0 -0.105834,0.105833 0,1.608667 1.248834,2.074334 2.084917,2.074334 1.354666,0 2.116666,-0.867834 2.116666,-2.00025 0,-0.687917 -0.338666,-1.30175 -0.963083,-1.629833 z"
         style="font-style:normal;font-variant:normal;font-weight:normal;font-stretch:normal;font-family:Melbourne;-inkscape-font-specification:Melbourne;stroke-width:0.26458332"
         id="path4501"
         inkscape:connector-curvature="0" />
      <path
         d="m 50.911856,28.614227 2.159,-3.122083 c 0.0635,-0.105834 -0.0635,-0.105834 -0.0635,-0.105834 h -0.508 c 0,0 -0.09525,0 -0.148167,0.105834 l -2.54,3.577166 v -3.577166 c 0,-0.105834 -0.105833,-0.105834 -0.105833,-0.105834 h -0.4445 c 0,0 -0.09525,0 -0.09525,0.105834 v 7.196666 c 0,0.105833 0.09525,0.105833 0.09525,0.105833 h 0.455083 c 0,0 0.09525,0 0.09525,-0.105833 v -2.6035 l 0.645583,-0.92075 1.471084,2.54 c 0.4445,0.762 0.772583,1.090083 1.344083,1.090083 h 0.232833 c 0.105834,0 0.105834,-0.116416 0.105834,-0.116416 v -0.359834 c 0,0 0,-0.105833 -0.105834,-0.105833 h -0.169333 c -0.306917,0 -0.53975,-0.264583 -0.772583,-0.66675 z"
         style="font-style:normal;font-variant:normal;font-weight:normal;font-stretch:normal;font-family:Melbourne;-inkscape-font-specification:Melbourne;stroke-width:0.26458332"
         id="path4503"
         inkscape:connector-curvature="0" />
    </g>
  </g>
</svg>
