  0
SECTION
  2
HEADER
  9
$ACADVER
  1
AC1014
  9
$HANDSEED
  5
FFFF
  9
$MEASUREMENT
 70
     1
  0
ENDSEC
  0
SECTION
  2
TABLES
  0
TABLE
  2
VPORT
  5
8
330
0
100
AcDbSymbolTable
 70
     4
  0
VPORT
  5
2E
330
8
100
AcDbSymbolTableRecord
100
AcDbViewportTableRecord
  2
*ACTIVE
 70
     0
 10
0.0
 20
0.0
 11
1.0
 21
1.0
 12
210.0
 22
148.5
 13
0.0
 23
0.0
 14
10.0
 24
10.0
 15
10.0
 25
10.0
 16
0.0
 26
0.0
 36
1.0
 17
0.0
 27
0.0
 37
0.0
 40
341.0
 41
1.24
 42
50.0
 43
0.0
 44
0.0
 50
0.0
 51
0.0
 71
     0
 72
   100
 73
     1
 74
     3
 75
     0
 76
     0
 77
     0
 78
     0
  0
ENDTAB
  0
TABLE
  2
LTYPE
  5
5
330
0
100
AcDbSymbolTable
 70
     1
  0
LTYPE
  5
14
330
5
100
AcDbSymbolTableRecord
100
AcDbLinetypeTableRecord
  2
BYBLOCK
 70
     0
  3

 72
    65
 73
     0
 40
0.0
  0
LTYPE
  5
15
330
5
100
AcDbSymbolTableRecord
100
AcDbLinetypeTableRecord
  2
BYLAYER
 70
     0
  3

 72
    65
 73
     0
 40
0.0
  0
LTYPE
  5
16
330
5
100
AcDbSymbolTableRecord
100
AcDbLinetypeTableRecord
  2
CONTINUOUS
 70
     0
  3
Solid line
 72
    65
 73
     0
 40
0.0
  0
ENDTAB
  0
TABLE
  2
LAYER
  5
2
100
AcDbSymbolTable
 70
2
  0
LAYER
  5
50
100
AcDbSymbolTableRecord
100
AcDbLayerTableRecord
  2
0
 70
0
  6
CONTINUOUS
  0
LAYER
  5
51
100
AcDbSymbolTableRecord
100
AcDbLayerTableRecord
  2
Layer_1
 70
0
  6
CONTINUOUS
  0
ENDTAB
  0
TABLE
  2
STYLE
  5
3
330
0
100
AcDbSymbolTable
 70
     1
  0
STYLE
  5
11
330
3
100
AcDbSymbolTableRecord
100
AcDbTextStyleTableRecord
  2
STANDARD
 70
     0
 40
0.0
 41
1.0
 50
0.0
 71
     0
 42
2.5
  3
txt
  4

  0
ENDTAB
  0
TABLE
  2
VIEW
  5
6
330
0
100
AcDbSymbolTable
 70
     0
  0
ENDTAB
  0
TABLE
  2
UCS
  5
7
330
0
100
AcDbSymbolTable
 70
     0
  0
ENDTAB
  0
TABLE
  2
APPID
  5
9
330
0
100
AcDbSymbolTable
 70
     2
  0
APPID
  5
12
330
9
100
AcDbSymbolTableRecord
100
AcDbRegAppTableRecord
  2
ACAD
 70
     0
  0
ENDTAB
  0
TABLE
  2
DIMSTYLE
  5
A
330
0
100
AcDbSymbolTable
 70
     1
  0
DIMSTYLE
105
27
330
A
100
AcDbSymbolTableRecord
100
AcDbDimStyleTableRecord
  2
ISO-25
 70
     0
  3

  4

  5

  6

  7

 40
1.0
 41
2.5
 42
0.625
 43
3.75
 44
1.25
 45
0.0
 46
0.0
 47
0.0
 48
0.0
140
2.5
141
2.5
142
0.0
143
0.03937007874016
144
1.0
145
0.0
146
1.0
147
0.625
 71
     0
 72
     0
 73
     0
 74
     0
 75
     0
 76
     0
 77
     1
 78
     8
170
     0
171
     3
172
     1
173
     0
174
     0
175
     0
176
     0
177
     0
178
     0
270
     2
271
     2
272
     2
273
     2
274
     3
340
11
275
     0
280
     0
281
     0
282
     0
283
     0
284
     8
285
     0
286
     0
287
     3
288
     0
  0
ENDTAB
  0
TABLE
  2
BLOCK_RECORD
  5
1
330
0
100
AcDbSymbolTable
 70
     1
  0
BLOCK_RECORD
  5
1F
330
1
100
AcDbSymbolTableRecord
100
AcDbBlockTableRecord
  2
*MODEL_SPACE
  0
BLOCK_RECORD
  5
1B
330
1
100
AcDbSymbolTableRecord
100
AcDbBlockTableRecord
  2
*PAPER_SPACE
  0
ENDTAB
  0
ENDSEC
  0
SECTION
  2
BLOCKS
  0
BLOCK
  5
20
330
1F
100
AcDbEntity
  8
0
100
AcDbBlockBegin
  2
*MODEL_SPACE
 70
     0
 10
0.0
 20
0.0
 30
0.0
  3
*MODEL_SPACE
  1

  0
ENDBLK
  5
21
330
1F
100
AcDbEntity
  8
0
100
AcDbBlockEnd
  0
BLOCK
  5
1C
330
1B
100
AcDbEntity
 67
     1
  8
0
100
AcDbBlockBegin
  2
*PAPER_SPACE
  1

  0
ENDBLK
  5
1D
330
1B
100
AcDbEntity
 67
     1
  8
0
100
AcDbBlockEnd
  0
ENDSEC
  0
SECTION
  2
ENTITIES
  0
SPLINE
  5
100
100
AcDbEntity
  8
0
 62
1
100
AcDbSpline
 70
0
 71
3
 72
10
 73
6
 74
4
 40
0.000000
 40
0.000000
 40
0.000000
 40
0.000000
 40
0.086279
 40
0.171793
 40
0.262088
 40
0.262088
 40
0.262088
 40
0.262088
 10
25.567711
 20
42.774521
 30
0.0
 10
25.538765
 20
42.769684
 30
0.0
 10
25.481130
 20
42.760054
 30
0.0
 10
25.416439
 20
42.690532
 30
0.0
 10
25.407892
 20
42.631659
 30
0.0
 10
25.403502
 20
42.601422
 30
0.0
 11
25.567711
 21
42.774521
 31
0.0
 11
25.484715
 21
42.750946
 31
0.0
 11
25.425863
 21
42.688905
 31
0.0
 11
25.403502
 21
42.601422
 31
0.0
  0
LWPOLYLINE
  5
101
100
AcDbEntity
  8
0
 62
1
100
AcDbPolyline
 90
2
 70
0
 10
25.403502
 20
42.601422
 30
0.0
 10
25.403502
 20
40.366069
 30
0.0
  0
SPLINE
  5
102
100
AcDbEntity
  8
0
 62
1
100
AcDbSpline
 70
0
 71
3
 72
10
 73
6
 74
4
 40
0.000000
 40
0.000000
 40
0.000000
 40
0.000000
 40
0.090260
 40
0.175725
 40
0.261994
 40
0.261994
 40
0.261994
 40
0.261994
 10
25.403502
 20
40.366069
 30
0.0
 10
25.407890
 20
40.335842
 30
0.0
 10
25.416431
 20
40.276993
 30
0.0
 10
25.481151
 20
40.207540
 30
0.0
 10
25.538768
 20
40.197935
 30
0.0
 10
25.567711
 20
40.193111
 30
0.0
 11
25.403502
 21
40.366069
 31
0.0
 11
25.425863
 21
40.278623
 31
0.0
 11
25.484715
 21
40.216649
 31
0.0
 11
25.567711
 21
40.193111
 31
0.0
  0
LWPOLYLINE
  5
103
100
AcDbEntity
  8
0
 62
1
100
AcDbPolyline
 90
2
 70
0
 10
25.567711
 20
40.193111
 30
0.0
 10
26.670963
 20
40.193111
 30
0.0
  0
SPLINE
  5
104
100
AcDbEntity
  8
0
 62
1
100
AcDbSpline
 70
0
 71
3
 72
10
 73
6
 74
4
 40
0.000000
 40
0.000000
 40
0.000000
 40
0.000000
 40
0.086236
 40
0.171656
 40
0.261907
 40
0.261907
 40
0.261907
 40
0.261907
 10
26.670963
 20
40.193111
 30
0.0
 10
26.699898
 20
40.197934
 30
0.0
 10
26.757493
 20
40.207534
 30
0.0
 10
26.822142
 20
40.277013
 30
0.0
 10
26.830660
 20
40.335844
 30
0.0
 10
26.835037
 20
40.366069
 30
0.0
 11
26.670963
 21
40.193111
 31
0.0
 11
26.753924
 21
40.216649
 31
0.0
 11
26.812711
 21
40.278623
 31
0.0
 11
26.835037
 21
40.366069
 31
0.0
  0
LWPOLYLINE
  5
105
100
AcDbEntity
  8
0
 62
1
100
AcDbPolyline
 90
2
 70
0
 10
26.835037
 20
40.366069
 30
0.0
 10
26.835037
 20
42.601422
 30
0.0
  0
SPLINE
  5
106
100
AcDbEntity
  8
0
 62
1
100
AcDbSpline
 70
0
 71
3
 72
10
 73
6
 74
4
 40
0.000000
 40
0.000000
 40
0.000000
 40
0.000000
 40
0.090286
 40
0.175755
 40
0.262001
 40
0.262001
 40
0.262001
 40
0.262001
 10
26.835036
 20
42.601422
 30
0.0
 10
26.830658
 20
42.631656
 30
0.0
 10
26.822135
 20
42.690511
 30
0.0
 10
26.757513
 20
42.760060
 30
0.0
 10
26.699900
 20
42.769686
 30
0.0
 10
26.670963
 20
42.774521
 30
0.0
 11
26.835037
 21
42.601422
 31
0.0
 11
26.812711
 21
42.688905
 31
0.0
 11
26.753924
 21
42.750946
 31
0.0
 11
26.670963
 21
42.774521
 31
0.0
  0
LWPOLYLINE
  5
107
100
AcDbEntity
  8
0
 62
1
100
AcDbPolyline
 90
2
 70
0
 10
26.670963
 20
42.774521
 30
0.0
 10
25.567711
 20
42.774521
 30
0.0
  0
SPLINE
  5
108
100
AcDbEntity
  8
0
 62
1
100
AcDbSpline
 70
0
 71
3
 72
13
 73
9
 74
7
 40
0.000000
 40
0.000000
 40
0.000000
 40
0.000000
 40
0.292348
 40
0.530559
 40
0.772031
 40
0.786449
 40
0.800520
 40
0.815777
 40
0.815777
 40
0.815777
 40
0.815777
 10
26.115987
 20
42.466609
 30
0.0
 10
26.215832
 20
42.457452
 30
0.0
 10
26.397031
 20
42.440832
 30
0.0
 10
26.594153
 20
42.250053
 30
0.0
 10
26.645046
 20
42.088143
 30
0.0
 10
26.655441
 20
41.998743
 30
0.0
 10
26.650542
 20
41.983755
 30
0.0
 10
26.641574
 20
41.979035
 30
0.0
 10
26.636909
 20
41.976580
 30
0.0
 11
26.115987
 21
42.466609
 31
0.0
 11
26.401635
 21
42.404375
 31
0.0
 11
26.575301
 21
42.241328
 31
0.0
 11
26.653736
 21
42.012949
 31
0.0
 11
26.654356
 21
41.998544
 31
0.0
 11
26.649366
 21
41.985388
 31
0.0
 11
26.636909
 21
41.976580
 31
0.0
  0
LWPOLYLINE
  5
109
100
AcDbEntity
  8
0
 62
1
100
AcDbPolyline
 90
2
 70
0
 10
26.636909
 20
41.976580
 30
0.0
 10
26.527662
 20
41.948550
 30
0.0
  0
SPLINE
  5
10a
100
AcDbEntity
  8
0
 62
1
100
AcDbSpline
 70
0
 71
3
 72
16
 73
12
 74
10
 40
0.000000
 40
0.000000
 40
0.000000
 40
0.000000
 40
0.017186
 40
0.033565
 40
0.049887
 40
0.236505
 40
0.406529
 40
0.603383
 40
0.827544
 40
1.023462
 40
1.285066
 40
1.285066
 40
1.285066
 40
1.285066
 10
26.527662
 20
41.948550
 30
0.0
 10
26.521989
 20
41.946980
 30
0.0
 10
26.510909
 20
41.943913
 30
0.0
 10
26.494447
 20
41.952499
 30
0.0
 10
26.466914
 20
42.022150
 30
0.0
 10
26.456663
 20
42.150431
 30
0.0
 10
26.305969
 20
42.283811
 30
0.0
 10
26.108217
 20
42.314680
 30
0.0
 10
25.892577
 20
42.286075
 30
0.0
 10
25.734993
 20
42.095540
 30
0.0
 10
25.729813
 20
41.939651
 30
0.0
 10
25.726852
 20
41.850516
 30
0.0
 11
26.527662
 21
41.948550
 31
0.0
 11
26.510644
 21
41.946158
 31
0.0
 11
26.496106
 21
41.953702
 31
0.0
 11
26.488422
 21
41.968103
 31
0.0
 11
26.432305
 21
42.146083
 31
0.0
 11
26.308363
 21
42.262473
 31
0.0
 11
26.115977
 21
42.304179
 31
0.0
 11
25.896863
 21
42.256878
 31
0.0
 11
25.768621
 21
42.108764
 31
0.0
 11
25.726852
 21
41.850516
 31
0.0
  0
LWPOLYLINE
  5
10b
100
AcDbEntity
  8
0
 62
1
100
AcDbPolyline
 90
2
 70
0
 10
25.726852
 20
41.850516
 30
0.0
 10
25.726852
 20
41.080470
 30
0.0
  0
SPLINE
  5
10c
100
AcDbEntity
  8
0
 62
1
100
AcDbSpline
 70
0
 71
3
 72
16
 73
12
 74
10
 40
0.000000
 40
0.000000
 40
0.000000
 40
0.000000
 40
0.260869
 40
0.455744
 40
0.679749
 40
0.889662
 40
1.086505
 40
1.346837
 40
1.367599
 40
1.381729
 40
1.388336
 40
1.388336
 40
1.388336
 40
1.388336
 10
25.726852
 20
41.080470
 30
0.0
 10
25.729704
 20
40.991526
 30
0.0
 10
25.734686
 20
40.836139
 30
0.0
 10
25.893314
 20
40.646845
 30
0.0
 10
26.111812
 20
40.619317
 30
0.0
 10
26.327002
 20
40.651586
 30
0.0
 10
26.487208
 20
40.837214
 30
0.0
 10
26.483978
 20
40.996507
 30
0.0
 10
26.499787
 20
41.099944
 30
0.0
 10
26.513028
 20
41.107476
 30
0.0
 10
26.519878
 20
41.108251
 30
0.0
 10
26.522061
 20
41.108498
 30
0.0
 11
25.726852
 21
41.080470
 31
0.0
 11
25.768621
 21
40.822967
 31
0.0
 11
25.896863
 21
40.676235
 31
0.0
 11
26.115977
 21
40.629679
 31
0.0
 11
26.320519
 21
40.676857
 31
0.0
 11
26.451034
 21
40.824211
 31
0.0
 11
26.496899
 21
41.080470
 31
0.0
 11
26.503422
 21
41.100182
 31
0.0
 11
26.515537
 21
41.107454
 31
0.0
 11
26.522061
 21
41.108498
 31
0.0
  0
LWPOLYLINE
  5
10d
100
AcDbEntity
  8
0
 62
1
100
AcDbPolyline
 90
2
 70
0
 10
26.522061
 20
41.108498
 30
0.0
 10
26.639647
 20
41.108498
 30
0.0
  0
SPLINE
  5
10e
100
AcDbEntity
  8
0
 62
1
100
AcDbSpline
 70
0
 71
3
 72
16
 73
12
 74
10
 40
0.000000
 40
0.000000
 40
0.000000
 40
0.000000
 40
0.007342
 40
0.022672
 40
0.043680
 40
0.359160
 40
0.640788
 40
0.972360
 40
1.291838
 40
1.577574
 40
1.902043
 40
1.902043
 40
1.902043
 40
1.902043
 10
26.639647
 20
41.108498
 30
0.0
 10
26.642069
 20
41.108250
 30
0.0
 10
26.649548
 20
41.107483
 30
0.0
 10
26.663986
 20
41.100503
 30
0.0
 10
26.687834
 20
40.977444
 30
0.0
 10
26.637198
 20
40.773569
 30
0.0
 10
26.445252
 20
40.507661
 30
0.0
 10
26.118399
 20
40.445064
 30
0.0
 10
25.800208
 20
40.509762
 30
0.0
 10
25.582353
 20
40.764099
 30
0.0
 10
25.565114
 20
40.970643
 30
0.0
 10
25.555947
 20
41.080470
 30
0.0
 11
26.639647
 21
41.108498
 31
0.0
 11
26.646914
 21
41.107454
 31
0.0
 11
26.660410
 21
41.100182
 31
0.0
 11
26.667677
 21
41.080470
 31
0.0
 11
26.613628
 21
40.769655
 31
0.0
 11
26.436980
 21
40.550316
 31
0.0
 11
26.115982
 21
40.467248
 31
0.0
 11
25.806511
 21
40.546582
 31
0.0
 11
25.619003
 21
40.762188
 31
0.0
 11
25.555947
 21
41.080470
 31
0.0
  0
LWPOLYLINE
  5
10f
100
AcDbEntity
  8
0
 62
1
100
AcDbPolyline
 90
2
 70
0
 10
25.555947
 20
41.080470
 30
0.0
 10
25.555947
 20
41.850516
 30
0.0
  0
SPLINE
  5
110
100
AcDbEntity
  8
0
 62
1
100
AcDbSpline
 70
0
 71
3
 72
10
 73
6
 74
4
 40
0.000000
 40
0.000000
 40
0.000000
 40
0.000000
 40
0.325199
 40
0.611979
 40
0.931642
 40
0.931642
 40
0.931642
 40
0.931642
 10
25.555947
 20
41.850516
 30
0.0
 10
25.565208
 20
41.960052
 30
0.0
 10
25.582635
 20
42.166181
 30
0.0
 10
25.799335
 20
42.428342
 30
0.0
 10
26.006685
 20
42.453401
 30
0.0
 10
26.115982
 20
42.466609
 30
0.0
 11
25.555947
 21
41.850516
 31
0.0
 11
25.619003
 21
42.169543
 31
0.0
 11
25.806511
 21
42.386531
 31
0.0
 11
26.115982
 21
42.466609
 31
0.0
  0
LWPOLYLINE
  5
111
100
AcDbEntity
  8
0
 62
1
100
AcDbPolyline
 90
1
 70
1
 10
26.115982
 20
42.466609
 30
0.0
  0
SPLINE
  5
112
100
AcDbEntity
  8
Layer_1
 62
7
100
AcDbSpline
 70
0
 71
3
 72
19
 73
15
 74
13
 40
0.000000
 40
0.000000
 40
0.000000
 40
0.000000
 40
0.119168
 40
0.229330
 40
0.346714
 40
0.492481
 40
0.654734
 40
0.873867
 40
1.070120
 40
1.236475
 40
1.420309
 40
1.436094
 40
1.452190
 40
1.469237
 40
1.469237
 40
1.469237
 40
1.469237
 10
27.290679
 20
41.696541
 30
0.0
 10
27.256971
 20
41.719026
 30
0.0
 10
27.192101
 20
41.762298
 30
0.0
 10
27.144008
 20
41.872762
 30
0.0
 10
27.130396
 20
41.996792
 30
0.0
 10
27.157444
 20
42.141359
 30
0.0
 10
27.289073
 20
42.275308
 30
0.0
 10
27.488358
 20
42.306433
 30
0.0
 10
27.683223
 20
42.277959
 30
0.0
 10
27.836611
 20
42.150871
 30
0.0
 10
27.845345
 20
42.024469
 30
0.0
 10
27.873631
 20
41.955737
 30
0.0
 10
27.890057
 20
41.948461
 30
0.0
 10
27.901059
 20
41.950374
 30
0.0
 10
27.906717
 20
41.951358
 30
0.0
 11
27.290679
 21
41.696541
 31
0.0
 11
27.198481
 21
41.772042
 31
0.0
 11
27.150463
 21
41.871189
 31
0.0
 11
27.136669
 21
41.987759
 31
0.0
 11
27.169234
 21
42.129842
 31
0.0
 11
27.281449
 21
42.247035
 31
0.0
 11
27.495091
 21
42.295778
 31
0.0
 11
27.687474
 21
42.256991
 31
0.0
 11
27.811407
 21
42.146021
 31
0.0
 11
27.867514
 21
41.970958
 31
0.0
 11
27.875189
 21
41.957165
 31
0.0
 11
27.889709
 21
41.950216
 31
0.0
 11
27.906717
 21
41.951358
 31
0.0
  0
LWPOLYLINE
  5
113
100
AcDbEntity
  8
Layer_1
 62
7
100
AcDbPolyline
 90
2
 70
0
 10
27.906717
 20
41.951358
 30
0.0
 10
28.015924
 20
41.979359
 30
0.0
  0
SPLINE
  5
114
100
AcDbEntity
  8
Layer_1
 62
7
100
AcDbSpline
 70
0
 71
3
 72
19
 73
15
 74
13
 40
0.000000
 40
0.000000
 40
0.000000
 40
0.000000
 40
0.015251
 40
0.029332
 40
0.043760
 40
0.284528
 40
0.521767
 40
0.813931
 40
1.084915
 40
1.333414
 40
1.600007
 40
1.753649
 40
1.934951
 40
2.166793
 40
2.166793
 40
2.166793
 40
2.166793
 10
28.015924
 20
41.979359
 30
0.0
 10
28.020586
 20
41.981818
 30
0.0
 10
28.029551
 20
41.986547
 30
0.0
 10
28.034428
 20
42.001547
 30
0.0
 10
28.024080
 20
42.090695
 30
0.0
 10
27.973236
 20
42.253194
 30
0.0
 10
27.775898
 20
42.437782
 30
0.0
 10
27.501087
 20
42.482590
 30
0.0
 10
27.229244
 20
42.436001
 30
0.0
 10
27.010367
 20
42.263647
 30
0.0
 10
26.955634
 20
42.032888
 30
0.0
 10
26.975649
 20
41.833314
 30
0.0
 10
27.054958
 20
41.652541
 30
0.0
 10
27.173663
 20
41.576694
 30
0.0
 10
27.240276
 20
41.534132
 30
0.0
 11
28.015924
 21
41.979359
 31
0.0
 11
28.028369
 21
41.988175
 31
0.0
 11
28.033347
 21
42.001347
 31
0.0
 11
28.032725
 21
42.015762
 31
0.0
 11
27.954320
 21
42.243405
 31
0.0
 11
27.780709
 21
42.405090
 31
0.0
 11
27.495091
 21
42.466590
 31
0.0
 11
27.229697
 21
42.411831
 31
0.0
 11
27.038974
 21
42.252532
 31
0.0
 11
26.965859
 21
41.996161
 31
0.0
 11
26.982245
 21
41.843396
 31
0.0
 11
27.059613
 21
41.679430
 31
0.0
 11
27.240276
 21
41.534132
 31
0.0
  0
LWPOLYLINE
  5
115
100
AcDbEntity
  8
Layer_1
 62
7
100
AcDbPolyline
 90
2
 70
0
 10
27.240276
 20
41.534132
 30
0.0
 10
27.668702
 20
41.315718
 30
0.0
  0
SPLINE
  5
116
100
AcDbEntity
  8
Layer_1
 62
7
100
AcDbSpline
 70
0
 71
3
 72
19
 73
15
 74
13
 40
0.000000
 40
0.000000
 40
0.000000
 40
0.000000
 40
0.160591
 40
0.287971
 40
0.405291
 40
0.576850
 40
0.764632
 40
0.998797
 40
1.176086
 40
1.362317
 40
1.609476
 40
1.630236
 40
1.644376
 40
1.650991
 40
1.650991
 40
1.650991
 40
1.650991
 10
27.668702
 20
41.315718
 30
0.0
 10
27.714931
 20
41.287494
 30
0.0
 10
27.797827
 20
41.236883
 30
0.0
 10
27.872142
 20
41.117981
 30
0.0
 10
27.892865
 20
40.978342
 30
0.0
 10
27.858077
 20
40.818051
 30
0.0
 10
27.720512
 20
40.659830
 30
0.0
 10
27.513038
 20
40.618340
 30
0.0
 10
27.313928
 20
40.645460
 30
0.0
 10
27.135470
 20
40.779907
 30
0.0
 10
27.126286
 20
40.936850
 30
0.0
 10
27.111379
 20
41.035574
 30
0.0
 10
27.098108
 20
41.043090
 30
0.0
 10
27.091252
 20
41.043857
 30
0.0
 10
27.089066
 20
41.044102
 30
0.0
 11
27.668702
 21
41.315718
 31
0.0
 11
27.798029
 21
41.220512
 31
0.0
 11
27.865129
 21
41.112239
 31
0.0
 11
27.884316
 21
40.996499
 31
0.0
 11
27.846254
 21
40.829214
 31
0.0
 11
27.721698
 21
40.688687
 31
0.0
 11
27.495091
 21
40.629676
 31
0.0
 11
27.320444
 21
40.660167
 31
0.0
 11
27.175042
 21
40.776529
 31
0.0
 11
27.114268
 21
41.016100
 31
0.0
 11
27.107734
 21
41.035805
 31
0.0
 11
27.095600
 21
41.043064
 31
0.0
 11
27.089066
 21
41.044102
 31
0.0
  0
LWPOLYLINE
  5
117
100
AcDbEntity
  8
Layer_1
 62
7
100
AcDbPolyline
 90
2
 70
0
 10
27.089066
 20
41.044102
 30
0.0
 10
26.971459
 20
41.044102
 30
0.0
  0
SPLINE
  5
118
100
AcDbEntity
  8
Layer_1
 62
7
100
AcDbSpline
 70
0
 71
3
 72
19
 73
15
 74
13
 40
0.000000
 40
0.000000
 40
0.000000
 40
0.000000
 40
0.007333
 40
0.022646
 40
0.043646
 40
0.388136
 40
0.663155
 40
0.909158
 40
1.221735
 40
1.489187
 40
1.767391
 40
1.943261
 40
2.114326
 40
2.291929
 40
2.291929
 40
2.291929
 40
2.291929
 10
26.971459
 20
41.044102
 30
0.0
 10
26.969040
 20
41.043856
 30
0.0
 10
26.961568
 20
41.043097
 30
0.0
 10
26.947146
 20
41.036120
 30
0.0
 10
26.921105
 20
40.903040
 30
0.0
 10
26.999910
 20
40.683876
 30
0.0
 10
27.236785
 20
40.498587
 30
0.0
 10
27.516790
 20
40.449890
 30
0.0
 10
27.799310
 20
40.504464
 30
0.0
 10
28.015608
 20
40.716294
 30
0.0
 10
28.069115
 20
40.963105
 30
0.0
 10
28.036338
 20
41.171035
 30
0.0
 10
27.948177
 20
41.329437
 30
0.0
 10
27.850212
 20
41.394555
 30
0.0
 10
27.800310
 20
41.427725
 30
0.0
 11
26.971459
 21
41.044102
 31
0.0
 11
26.964199
 21
41.043064
 31
0.0
 11
26.950717
 21
41.035805
 31
0.0
 11
26.943457
 21
41.016100
 31
0.0
 11
27.037315
 21
40.684642
 31
0.0
 11
27.253758
 21
40.514972
 31
0.0
 11
27.495091
 21
40.467266
 31
0.0
 11
27.799584
 21
40.537892
 31
0.0
 11
27.989581
 21
40.726126
 31
0.0
 11
28.055126
 21
40.996499
 31
0.0
 11
28.025776
 21
41.169902
 31
0.0
 11
27.939801
 21
41.317793
 31
0.0
 11
27.800310
 21
41.427725
 31
0.0
  0
LWPOLYLINE
  5
119
100
AcDbEntity
  8
Layer_1
 62
7
100
AcDbPolyline
 90
2
 70
0
 10
27.800310
 20
41.427725
 30
0.0
 10
27.290679
 20
41.696541
 30
0.0
  0
SPLINE
  5
11a
100
AcDbEntity
  8
Layer_1
 62
7
100
AcDbSpline
 70
0
 71
3
 72
19
 73
15
 74
13
 40
0.000000
 40
0.000000
 40
0.000000
 40
0.000000
 40
0.119168
 40
0.229330
 40
0.346714
 40
0.492481
 40
0.654734
 40
0.873867
 40
1.070120
 40
1.236475
 40
1.420309
 40
1.436094
 40
1.452190
 40
1.469237
 40
1.469237
 40
1.469237
 40
1.469237
 10
28.652482
 20
41.696541
 30
0.0
 10
28.618774
 20
41.719026
 30
0.0
 10
28.553905
 20
41.762298
 30
0.0
 10
28.505811
 20
41.872762
 30
0.0
 10
28.492199
 20
41.996792
 30
0.0
 10
28.519247
 20
42.141359
 30
0.0
 10
28.650876
 20
42.275308
 30
0.0
 10
28.850161
 20
42.306433
 30
0.0
 10
29.045026
 20
42.277959
 30
0.0
 10
29.198414
 20
42.150871
 30
0.0
 10
29.207148
 20
42.024469
 30
0.0
 10
29.235434
 20
41.955737
 30
0.0
 10
29.251860
 20
41.948461
 30
0.0
 10
29.262862
 20
41.950374
 30
0.0
 10
29.268520
 20
41.951358
 30
0.0
 11
28.652482
 21
41.696541
 31
0.0
 11
28.560284
 21
41.772042
 31
0.0
 11
28.512266
 21
41.871189
 31
0.0
 11
28.498472
 21
41.987759
 31
0.0
 11
28.531037
 21
42.129842
 31
0.0
 11
28.643252
 21
42.247035
 31
0.0
 11
28.856895
 21
42.295778
 31
0.0
 11
29.049277
 21
42.256991
 31
0.0
 11
29.173211
 21
42.146021
 31
0.0
 11
29.229318
 21
41.970958
 31
0.0
 11
29.236992
 21
41.957165
 31
0.0
 11
29.251512
 21
41.950216
 31
0.0
 11
29.268520
 21
41.951358
 31
0.0
  0
LWPOLYLINE
  5
11b
100
AcDbEntity
  8
Layer_1
 62
7
100
AcDbPolyline
 90
2
 70
0
 10
29.268520
 20
41.951358
 30
0.0
 10
29.377727
 20
41.979359
 30
0.0
  0
SPLINE
  5
11c
100
AcDbEntity
  8
Layer_1
 62
7
100
AcDbSpline
 70
0
 71
3
 72
19
 73
15
 74
13
 40
0.000000
 40
0.000000
 40
0.000000
 40
0.000000
 40
0.015251
 40
0.029332
 40
0.043760
 40
0.284528
 40
0.521767
 40
0.813931
 40
1.084915
 40
1.333413
 40
1.600007
 40
1.753649
 40
1.934951
 40
2.166793
 40
2.166793
 40
2.166793
 40
2.166793
 10
29.377727
 20
41.979359
 30
0.0
 10
29.382389
 20
41.981818
 30
0.0
 10
29.391354
 20
41.986547
 30
0.0
 10
29.396231
 20
42.001547
 30
0.0
 10
29.385883
 20
42.090695
 30
0.0
 10
29.335039
 20
42.253194
 30
0.0
 10
29.137701
 20
42.437782
 30
0.0
 10
28.862890
 20
42.482590
 30
0.0
 10
28.591047
 20
42.436001
 30
0.0
 10
28.372170
 20
42.263647
 30
0.0
 10
28.317437
 20
42.032888
 30
0.0
 10
28.337452
 20
41.833314
 30
0.0
 10
28.416761
 20
41.652541
 30
0.0
 10
28.535466
 20
41.576694
 30
0.0
 10
28.602079
 20
41.534132
 30
0.0
 11
29.377727
 21
41.979359
 31
0.0
 11
29.390172
 21
41.988175
 31
0.0
 11
29.395150
 21
42.001347
 31
0.0
 11
29.394528
 21
42.015762
 31
0.0
 11
29.316123
 21
42.243405
 31
0.0
 11
29.142512
 21
42.405090
 31
0.0
 11
28.856895
 21
42.466590
 31
0.0
 11
28.591501
 21
42.411831
 31
0.0
 11
28.400778
 21
42.252532
 31
0.0
 11
28.327662
 21
41.996161
 31
0.0
 11
28.344048
 21
41.843396
 31
0.0
 11
28.421416
 21
41.679430
 31
0.0
 11
28.602079
 21
41.534132
 31
0.0
  0
LWPOLYLINE
  5
11d
100
AcDbEntity
  8
Layer_1
 62
7
100
AcDbPolyline
 90
2
 70
0
 10
28.602079
 20
41.534132
 30
0.0
 10
29.030505
 20
41.315718
 30
0.0
  0
SPLINE
  5
11e
100
AcDbEntity
  8
Layer_1
 62
7
100
AcDbSpline
 70
0
 71
3
 72
19
 73
15
 74
13
 40
0.000000
 40
0.000000
 40
0.000000
 40
0.000000
 40
0.160591
 40
0.287971
 40
0.405291
 40
0.576851
 40
0.764633
 40
0.998797
 40
1.176086
 40
1.362317
 40
1.609476
 40
1.630236
 40
1.644376
 40
1.650991
 40
1.650991
 40
1.650991
 40
1.650991
 10
29.030505
 20
41.315718
 30
0.0
 10
29.076734
 20
41.287494
 30
0.0
 10
29.159630
 20
41.236883
 30
0.0
 10
29.233945
 20
41.117981
 30
0.0
 10
29.254669
 20
40.978342
 30
0.0
 10
29.219880
 20
40.818051
 30
0.0
 10
29.082315
 20
40.659830
 30
0.0
 10
28.874841
 20
40.618340
 30
0.0
 10
28.675731
 20
40.645460
 30
0.0
 10
28.497273
 20
40.779907
 30
0.0
 10
28.488089
 20
40.936850
 30
0.0
 10
28.473182
 20
41.035574
 30
0.0
 10
28.459912
 20
41.043090
 30
0.0
 10
28.453055
 20
41.043857
 30
0.0
 10
28.450870
 20
41.044102
 30
0.0
 11
29.030505
 21
41.315718
 31
0.0
 11
29.159832
 21
41.220512
 31
0.0
 11
29.226932
 21
41.112239
 31
0.0
 11
29.246119
 21
40.996499
 31
0.0
 11
29.208057
 21
40.829214
 31
0.0
 11
29.083501
 21
40.688687
 31
0.0
 11
28.856895
 21
40.629676
 31
0.0
 11
28.682247
 21
40.660167
 31
0.0
 11
28.536845
 21
40.776529
 31
0.0
 11
28.476071
 21
41.016100
 31
0.0
 11
28.469537
 21
41.035805
 31
0.0
 11
28.457403
 21
41.043064
 31
0.0
 11
28.450870
 21
41.044102
 31
0.0
  0
LWPOLYLINE
  5
11f
100
AcDbEntity
  8
Layer_1
 62
7
100
AcDbPolyline
 90
2
 70
0
 10
28.450870
 20
41.044102
 30
0.0
 10
28.333262
 20
41.044102
 30
0.0
  0
LWPOLYLINE
  5
120
100
AcDbEntity
  8
Layer_1
 62
7
100
AcDbPolyline
 90
2
 70
0
 10
29.162114
 20
41.427725
 30
0.0
 10
28.652482
 20
41.696541
 30
0.0
  0
SPLINE
  5
121
100
AcDbEntity
  8
Layer_1
 62
7
100
AcDbSpline
 70
0
 71
3
 72
19
 73
15
 74
13
 40
0.000000
 40
0.000000
 40
0.000000
 40
0.000000
 40
0.007333
 40
0.022646
 40
0.043646
 40
0.388136
 40
0.663155
 40
0.909159
 40
1.221735
 40
1.489187
 40
1.767391
 40
1.943261
 40
2.114326
 40
2.291929
 40
2.291929
 40
2.291929
 40
2.291929
 10
28.333262
 20
41.044102
 30
0.0
 10
28.330843
 20
41.043856
 30
0.0
 10
28.323371
 20
41.043097
 30
0.0
 10
28.308949
 20
41.036120
 30
0.0
 10
28.282907
 20
40.903040
 30
0.0
 10
28.361713
 20
40.683876
 30
0.0
 10
28.598589
 20
40.498587
 30
0.0
 10
28.878593
 20
40.449889
 30
0.0
 10
29.161113
 20
40.504464
 30
0.0
 10
29.377411
 20
40.716294
 30
0.0
 10
29.430918
 20
40.963105
 30
0.0
 10
29.398141
 20
41.171035
 30
0.0
 10
29.309981
 20
41.329437
 30
0.0
 10
29.212015
 20
41.394555
 30
0.0
 10
29.162114
 20
41.427725
 30
0.0
 11
28.333262
 21
41.044102
 31
0.0
 11
28.326003
 21
41.043064
 31
0.0
 11
28.312520
 21
41.035805
 31
0.0
 11
28.305260
 21
41.016100
 31
0.0
 11
28.399118
 21
40.684642
 31
0.0
 11
28.615561
 21
40.514972
 31
0.0
 11
28.856895
 21
40.467266
 31
0.0
 11
29.161388
 21
40.537892
 31
0.0
 11
29.351385
 21
40.726126
 31
0.0
 11
29.416929
 21
40.996499
 31
0.0
 11
29.387579
 21
41.169902
 31
0.0
 11
29.301604
 21
41.317793
 31
0.0
 11
29.162114
 21
41.427725
 31
0.0
  0
LWPOLYLINE
  5
122
100
AcDbEntity
  8
Layer_1
 62
7
100
AcDbPolyline
 90
2
 70
0
 10
30.229899
 20
41.592935
 30
0.0
 10
30.801134
 20
42.418986
 30
0.0
  0
SPLINE
  5
123
100
AcDbEntity
  8
Layer_1
 62
7
100
AcDbSpline
 70
0
 71
3
 72
10
 73
6
 74
4
 40
0.000000
 40
0.000000
 40
0.000000
 40
0.000000
 40
0.019949
 40
0.033823
 40
0.041979
 40
0.041979
 40
0.041979
 40
0.041979
 10
30.801134
 20
42.418986
 30
0.0
 10
30.804192
 20
42.426266
 30
0.0
 10
30.809378
 20
42.438611
 30
0.0
 10
30.794180
 20
42.446307
 30
0.0
 10
30.786993
 20
42.446804
 30
0.0
 10
30.784333
 20
42.446988
 30
0.0
 11
30.801134
 21
42.418986
 31
0.0
 11
30.804245
 21
42.438691
 31
0.0
 11
30.792422
 21
42.445951
 31
0.0
 11
30.784333
 21
42.446988
 31
0.0
  0
LWPOLYLINE
  5
124
100
AcDbEntity
  8
Layer_1
 62
7
100
AcDbPolyline
 90
2
 70
0
 10
30.784333
 20
42.446988
 30
0.0
 10
30.649925
 20
42.446988
 30
0.0
  0
SPLINE
  5
125
100
AcDbEntity
  8
Layer_1
 62
7
100
AcDbSpline
 70
0
 71
3
 72
10
 73
6
 74
4
 40
0.000000
 40
0.000000
 40
0.000000
 40
0.000000
 40
0.007128
 40
0.024483
 40
0.050112
 40
0.050112
 40
0.050112
 40
0.050112
 10
30.649925
 20
42.446988
 30
0.0
 10
30.647564
 20
42.446717
 30
0.0
 10
30.639455
 20
42.445788
 30
0.0
 10
30.623581
 20
42.438435
 30
0.0
 10
30.615525
 20
42.426251
 30
0.0
 10
30.610722
 20
42.418986
 30
0.0
 11
30.649925
 21
42.446988
 31
0.0
 11
30.642872
 21
42.445951
 31
0.0
 11
30.627108
 21
42.438691
 31
0.0
 11
30.610722
 21
42.418986
 31
0.0
  0
LWPOLYLINE
  5
126
100
AcDbEntity
  8
Layer_1
 62
7
100
AcDbPolyline
 90
3
 70
0
 10
30.610722
 20
42.418986
 30
0.0
 10
29.938680
 20
41.472527
 30
0.0
 10
29.938680
 20
42.418986
 30
0.0
  0
SPLINE
  5
127
100
AcDbEntity
  8
Layer_1
 62
7
100
AcDbSpline
 70
0
 71
3
 72
10
 73
6
 74
4
 40
0.000000
 40
0.000000
 40
0.000000
 40
0.000000
 40
0.021000
 40
0.036312
 40
0.043646
 40
0.043646
 40
0.043646
 40
0.043646
 10
29.938680
 20
42.418986
 30
0.0
 10
29.937345
 20
42.426321
 30
0.0
 10
29.935037
 20
42.439004
 30
0.0
 10
29.920566
 20
42.445984
 30
0.0
 10
29.913097
 20
42.446742
 30
0.0
 10
29.910679
 20
42.446988
 30
0.0
 11
29.938680
 21
42.418986
 31
0.0
 11
29.931421
 21
42.438691
 31
0.0
 11
29.917939
 21
42.445951
 31
0.0
 11
29.910679
 21
42.446988
 31
0.0
  0
LWPOLYLINE
  5
128
100
AcDbEntity
  8
Layer_1
 62
7
100
AcDbPolyline
 90
2
 70
0
 10
29.910679
 20
42.446988
 30
0.0
 10
29.793072
 20
42.446988
 30
0.0
  0
SPLINE
  5
129
100
AcDbEntity
  8
Layer_1
 62
7
100
AcDbSpline
 70
0
 71
3
 72
10
 73
6
 74
4
 40
0.000000
 40
0.000000
 40
0.000000
 40
0.000000
 40
0.006616
 40
0.020756
 40
0.041516
 40
0.041516
 40
0.041516
 40
0.041516
 10
29.793072
 20
42.446988
 30
0.0
 10
29.790886
 20
42.446743
 30
0.0
 10
29.784030
 20
42.445977
 30
0.0
 10
29.770750
 20
42.438459
 30
0.0
 10
29.768944
 20
42.426249
 30
0.0
 10
29.767870
 20
42.418986
 30
0.0
 11
29.793072
 21
42.446988
 31
0.0
 11
29.786538
 21
42.445951
 31
0.0
 11
29.774404
 21
42.438691
 31
0.0
 11
29.767870
 21
42.418986
 31
0.0
  0
LWPOLYLINE
  5
12a
100
AcDbEntity
  8
Layer_1
 62
7
100
AcDbPolyline
 90
2
 70
0
 10
29.767870
 20
42.418986
 30
0.0
 10
29.767870
 20
40.514868
 30
0.0
  0
SPLINE
  5
12b
100
AcDbEntity
  8
Layer_1
 62
7
100
AcDbSpline
 70
0
 71
3
 72
10
 73
6
 74
4
 40
0.000000
 40
0.000000
 40
0.000000
 40
0.000000
 40
0.020760
 40
0.034900
 40
0.041515
 40
0.041515
 40
0.041515
 40
0.041515
 10
29.767870
 20
40.514868
 30
0.0
 10
29.768944
 20
40.507605
 30
0.0
 10
29.770750
 20
40.495395
 30
0.0
 10
29.784030
 20
40.487877
 30
0.0
 10
29.790886
 20
40.487111
 30
0.0
 10
29.793072
 20
40.486866
 30
0.0
 11
29.767870
 21
40.514868
 31
0.0
 11
29.774404
 21
40.495163
 31
0.0
 11
29.786538
 21
40.487903
 31
0.0
 11
29.793072
 21
40.486866
 31
0.0
  0
LWPOLYLINE
  5
12c
100
AcDbEntity
  8
Layer_1
 62
7
100
AcDbPolyline
 90
2
 70
0
 10
29.793072
 20
40.486866
 30
0.0
 10
29.913479
 20
40.486866
 30
0.0
  0
SPLINE
  5
12d
100
AcDbEntity
  8
Layer_1
 62
7
100
AcDbSpline
 70
0
 71
3
 72
10
 73
6
 74
4
 40
0.000000
 40
0.000000
 40
0.000000
 40
0.000000
 40
0.006616
 40
0.020756
 40
0.041515
 40
0.041515
 40
0.041515
 40
0.041515
 10
29.913479
 20
40.486866
 30
0.0
 10
29.915664
 20
40.487111
 30
0.0
 10
29.922520
 20
40.487877
 30
0.0
 10
29.935801
 20
40.495395
 30
0.0
 10
29.937606
 20
40.507605
 30
0.0
 10
29.938680
 20
40.514868
 30
0.0
 11
29.913479
 21
40.486866
 31
0.0
 11
29.920013
 21
40.487903
 31
0.0
 11
29.932147
 21
40.495163
 31
0.0
 11
29.938680
 21
40.514868
 31
0.0
  0
LWPOLYLINE
  5
12e
100
AcDbEntity
  8
Layer_1
 62
7
100
AcDbPolyline
 90
4
 70
0
 10
29.938680
 20
40.514868
 30
0.0
 10
29.938680
 20
41.203711
 30
0.0
 10
30.109491
 20
41.447326
 30
0.0
 10
30.498715
 20
40.775284
 30
0.0
  0
SPLINE
  5
12f
100
AcDbEntity
  8
Layer_1
 62
7
100
AcDbSpline
 70
0
 71
3
 72
10
 73
6
 74
4
 40
0.000000
 40
0.000000
 40
0.000000
 40
0.000000
 40
0.198273
 40
0.344143
 40
0.480739
 40
0.480739
 40
0.480739
 40
0.480739
 10
30.498715
 20
40.775284
 30
0.0
 10
30.532638
 20
40.718993
 30
0.0
 10
30.591517
 20
40.621289
 30
0.0
 10
30.712057
 20
40.503711
 30
0.0
 10
30.807960
 20
40.492357
 30
0.0
 10
30.854337
 20
40.486866
 30
0.0
 11
30.498715
 21
40.775284
 31
0.0
 11
30.609581
 21
40.610904
 31
0.0
 11
30.721070
 21
40.516839
 31
0.0
 11
30.854337
 21
40.486866
 31
0.0
  0
LWPOLYLINE
  5
130
100
AcDbEntity
  8
Layer_1
 62
7
100
AcDbPolyline
 90
2
 70
0
 10
30.854337
 20
40.486866
 30
0.0
 10
30.915941
 20
40.486866
 30
0.0
  0
SPLINE
  5
131
100
AcDbEntity
  8
Layer_1
 62
7
100
AcDbSpline
 70
0
 71
3
 72
10
 73
6
 74
4
 40
0.000000
 40
0.000000
 40
0.000000
 40
0.000000
 40
0.021262
 40
0.037774
 40
0.045826
 40
0.045826
 40
0.045826
 40
0.045826
 10
30.915941
 20
40.486866
 30
0.0
 10
30.923333
 20
40.488471
 30
0.0
 10
30.936466
 20
40.491322
 30
0.0
 10
30.942936
 20
40.506926
 30
0.0
 10
30.943694
 20
40.515016
 30
0.0
 10
30.943943
 20
40.517668
 30
0.0
 11
30.915941
 21
40.486866
 31
0.0
 11
30.935646
 21
40.494852
 31
0.0
 11
30.942906
 21
40.509682
 31
0.0
 11
30.943943
 21
40.517668
 31
0.0
  0
LWPOLYLINE
  5
132
100
AcDbEntity
  8
Layer_1
 62
7
100
AcDbPolyline
 90
2
 70
0
 10
30.943943
 20
40.517668
 30
0.0
 10
30.943943
 20
40.612874
 30
0.0
  0
SPLINE
  5
133
100
AcDbEntity
  8
Layer_1
 62
7
100
AcDbSpline
 70
0
 71
3
 72
10
 73
6
 74
4
 40
0.000000
 40
0.000000
 40
0.000000
 40
0.000000
 40
0.007333
 40
0.022646
 40
0.043646
 40
0.043646
 40
0.043646
 40
0.043646
 10
30.943943
 20
40.612874
 30
0.0
 10
30.943697
 20
40.615293
 30
0.0
 10
30.942939
 20
40.622761
 30
0.0
 10
30.935960
 20
40.637232
 30
0.0
 10
30.923276
 20
40.639541
 30
0.0
 10
30.915941
 20
40.640876
 30
0.0
 11
30.943943
 21
40.612874
 31
0.0
 11
30.942906
 21
40.620134
 31
0.0
 11
30.935646
 21
40.633616
 31
0.0
 11
30.915941
 21
40.640876
 31
0.0
  0
LWPOLYLINE
  5
134
100
AcDbEntity
  8
Layer_1
 62
7
100
AcDbPolyline
 90
2
 70
0
 10
30.915941
 20
40.640876
 30
0.0
 10
30.871138
 20
40.640876
 30
0.0
  0
SPLINE
  5
135
100
AcDbEntity
  8
Layer_1
 62
7
100
AcDbSpline
 70
0
 71
3
 72
10
 73
6
 74
4
 40
0.000000
 40
0.000000
 40
0.000000
 40
0.000000
 40
0.078567
 40
0.169141
 40
0.281120
 40
0.281120
 40
0.281120
 40
0.281120
 10
30.871138
 20
40.640876
 30
0.0
 10
30.844820
 20
40.645903
 30
0.0
 10
30.788162
 20
40.656726
 30
0.0
 10
30.721391
 20
40.728702
 30
0.0
 10
30.686187
 20
40.785749
 30
0.0
 10
30.666726
 20
40.817287
 30
0.0
 11
30.871138
 21
40.640876
 31
0.0
 11
30.795741
 21
40.662966
 31
0.0
 11
30.729055
 21
40.724259
 31
0.0
 11
30.666726
 21
40.817287
 31
0.0
  0
LWPOLYLINE
  5
136
100
AcDbEntity
  8
Layer_1
 62
7
100
AcDbPolyline
 90
2
 70
0
 10
30.666726
 20
40.817287
 30
0.0
 10
30.229899
 20
41.592935
 30
0.0
  0
ENDSEC
  0
SECTION
  2
OBJECTS
  0
DICTIONARY
  5
C
330
0
100
AcDbDictionary
  3
ACAD_GROUP
350
D
  3
ACAD_MLINESTYLE
350
17
  0
DICTIONARY
  5
D
330
C
100
AcDbDictionary
  0
DICTIONARY
  5
1A
330
C
100
AcDbDictionary
  0
DICTIONARY
  5
17
330
C
100
AcDbDictionary
  3
STANDARD
350
18
  0
DICTIONARY
  5
19
330
C
100
AcDbDictionary
  0
ENDSEC
  0
EOF
