  0
SECTION
  2
HEADER
  9
$ACADVER
  1
AC1014
  9
$HANDSEED
  5
FFFF
  9
$MEASUREMENT
 70
     1
  0
ENDSEC
  0
SECTION
  2
TABLES
  0
TABLE
  2
VPORT
  5
8
330
0
100
AcDbSymbolTable
 70
     4
  0
VPORT
  5
2E
330
8
100
AcDbSymbolTableRecord
100
AcDbViewportTableRecord
  2
*ACTIVE
 70
     0
 10
0.0
 20
0.0
 11
1.0
 21
1.0
 12
210.0
 22
148.5
 13
0.0
 23
0.0
 14
10.0
 24
10.0
 15
10.0
 25
10.0
 16
0.0
 26
0.0
 36
1.0
 17
0.0
 27
0.0
 37
0.0
 40
341.0
 41
1.24
 42
50.0
 43
0.0
 44
0.0
 50
0.0
 51
0.0
 71
     0
 72
   100
 73
     1
 74
     3
 75
     0
 76
     0
 77
     0
 78
     0
  0
ENDTAB
  0
TABLE
  2
LTYPE
  5
5
330
0
100
AcDbSymbolTable
 70
     1
  0
LTYPE
  5
14
330
5
100
AcDbSymbolTableRecord
100
AcDbLinetypeTableRecord
  2
BYBLOCK
 70
     0
  3

 72
    65
 73
     0
 40
0.0
  0
LTYPE
  5
15
330
5
100
AcDbSymbolTableRecord
100
AcDbLinetypeTableRecord
  2
BYLAYER
 70
     0
  3

 72
    65
 73
     0
 40
0.0
  0
LTYPE
  5
16
330
5
100
AcDbSymbolTableRecord
100
AcDbLinetypeTableRecord
  2
CONTINUOUS
 70
     0
  3
Solid line
 72
    65
 73
     0
 40
0.0
  0
ENDTAB
  0
TABLE
  2
LAYER
  5
2
100
AcDbSymbolTable
 70
2
  0
LAYER
  5
50
100
AcDbSymbolTableRecord
100
AcDbLayerTableRecord
  2
0
 70
0
  6
CONTINUOUS
  0
LAYER
  5
51
100
AcDbSymbolTableRecord
100
AcDbLayerTableRecord
  2
Layer_1
 70
0
  6
CONTINUOUS
  0
ENDTAB
  0
TABLE
  2
STYLE
  5
3
330
0
100
AcDbSymbolTable
 70
     1
  0
STYLE
  5
11
330
3
100
AcDbSymbolTableRecord
100
AcDbTextStyleTableRecord
  2
STANDARD
 70
     0
 40
0.0
 41
1.0
 50
0.0
 71
     0
 42
2.5
  3
txt
  4

  0
ENDTAB
  0
TABLE
  2
VIEW
  5
6
330
0
100
AcDbSymbolTable
 70
     0
  0
ENDTAB
  0
TABLE
  2
UCS
  5
7
330
0
100
AcDbSymbolTable
 70
     0
  0
ENDTAB
  0
TABLE
  2
APPID
  5
9
330
0
100
AcDbSymbolTable
 70
     2
  0
APPID
  5
12
330
9
100
AcDbSymbolTableRecord
100
AcDbRegAppTableRecord
  2
ACAD
 70
     0
  0
ENDTAB
  0
TABLE
  2
DIMSTYLE
  5
A
330
0
100
AcDbSymbolTable
 70
     1
  0
DIMSTYLE
105
27
330
A
100
AcDbSymbolTableRecord
100
AcDbDimStyleTableRecord
  2
ISO-25
 70
     0
  3

  4

  5

  6

  7

 40
1.0
 41
2.5
 42
0.625
 43
3.75
 44
1.25
 45
0.0
 46
0.0
 47
0.0
 48
0.0
140
2.5
141
2.5
142
0.0
143
0.03937007874016
144
1.0
145
0.0
146
1.0
147
0.625
 71
     0
 72
     0
 73
     0
 74
     0
 75
     0
 76
     0
 77
     1
 78
     8
170
     0
171
     3
172
     1
173
     0
174
     0
175
     0
176
     0
177
     0
178
     0
270
     2
271
     2
272
     2
273
     2
274
     3
340
11
275
     0
280
     0
281
     0
282
     0
283
     0
284
     8
285
     0
286
     0
287
     3
288
     0
  0
ENDTAB
  0
TABLE
  2
BLOCK_RECORD
  5
1
330
0
100
AcDbSymbolTable
 70
     1
  0
BLOCK_RECORD
  5
1F
330
1
100
AcDbSymbolTableRecord
100
AcDbBlockTableRecord
  2
*MODEL_SPACE
  0
BLOCK_RECORD
  5
1B
330
1
100
AcDbSymbolTableRecord
100
AcDbBlockTableRecord
  2
*PAPER_SPACE
  0
ENDTAB
  0
ENDSEC
  0
SECTION
  2
BLOCKS
  0
BLOCK
  5
20
330
1F
100
AcDbEntity
  8
0
100
AcDbBlockBegin
  2
*MODEL_SPACE
 70
     0
 10
0.0
 20
0.0
 30
0.0
  3
*MODEL_SPACE
  1

  0
ENDBLK
  5
21
330
1F
100
AcDbEntity
  8
0
100
AcDbBlockEnd
  0
BLOCK
  5
1C
330
1B
100
AcDbEntity
 67
     1
  8
0
100
AcDbBlockBegin
  2
*PAPER_SPACE
  1

  0
ENDBLK
  5
1D
330
1B
100
AcDbEntity
 67
     1
  8
0
100
AcDbBlockEnd
  0
ENDSEC
  0
SECTION
  2
ENTITIES
  0
SPLINE
  5
100
100
AcDbEntity
  8
0
 62
1
100
AcDbSpline
 70
0
 71
3
 72
13
 73
9
 74
7
 40
0.000000
 40
0.000000
 40
0.000000
 40
0.000000
 40
0.821471
 40
1.552407
 40
2.419121
 40
3.255235
 40
4.003042
 40
4.852216
 40
4.852216
 40
4.852216
 40
4.852216
 10
11.984714
 20
71.807672
 30
0.0
 10
11.966862
 20
71.529884
 30
0.0
 10
11.933127
 20
71.004924
 30
0.0
 10
11.391389
 20
70.321344
 30
0.0
 10
10.549133
 20
70.161984
 30
0.0
 10
9.713911
 20
70.330228
 30
0.0
 10
9.144433
 20
70.996101
 30
0.0
 10
9.099220
 20
71.536618
 30
0.0
 10
9.075179
 20
71.824031
 30
0.0
 11
11.984714
 21
71.807672
 31
0.0
 11
11.843262
 21
70.998471
 31
0.0
 11
11.380954
 21
70.432310
 31
0.0
 11
10.540860
 21
70.219152
 31
0.0
 11
9.730936
 21
70.426779
 31
0.0
 11
9.240204
 21
70.991046
 31
0.0
 11
9.075179
 21
71.824031
 31
0.0
  0
SPLINE
  5
101
100
AcDbEntity
  8
0
 62
1
100
AcDbSpline
 70
0
 71
3
 72
13
 73
9
 74
7
 40
0.000000
 40
0.000000
 40
0.000000
 40
0.000000
 40
0.851085
 40
1.601625
 40
2.438225
 40
3.203338
 40
3.826766
 40
4.458729
 40
4.458729
 40
4.458729
 40
4.458729
 10
9.075179
 20
73.839343
 30
0.0
 10
9.099447
 20
74.127263
 30
0.0
 10
9.145117
 20
74.669090
 30
0.0
 10
9.711823
 20
75.338512
 30
0.0
 10
10.517785
 20
75.502348
 30
0.0
 10
11.272969
 20
75.374243
 30
0.0
 10
11.802373
 20
74.887806
 30
0.0
 10
11.899381
 20
74.473173
 30
0.0
 10
11.948214
 20
74.264447
 30
0.0
 11
9.075179
 21
73.839343
 31
0.0
 11
9.240204
 21
74.674275
 31
0.0
 11
9.730936
 21
75.242159
 31
0.0
 11
10.540860
 21
75.451735
 31
0.0
 11
11.288436
 21
75.288859
 31
0.0
 11
11.742941
 21
74.862142
 31
0.0
 11
11.948214
 21
74.264447
 31
0.0
  0
LWPOLYLINE
  5
102
100
AcDbEntity
  8
0
 62
1
100
AcDbPolyline
 90
2
 70
0
 10
9.075179
 20
71.824031
 30
0.0
 10
9.075179
 20
73.839343
 30
0.0
  0
SPLINE
  5
103
100
AcDbEntity
  8
0
 62
1
100
AcDbSpline
 70
0
 71
3
 72
10
 73
6
 74
4
 40
0.000000
 40
0.000000
 40
0.000000
 40
0.000000
 40
0.037737
 40
0.074557
 40
0.114467
 40
0.114467
 40
0.114467
 40
0.114467
 10
11.948214
 20
74.264447
 30
0.0
 10
11.949723
 20
74.251953
 30
0.0
 10
11.952703
 20
74.227269
 30
0.0
 10
11.939854
 20
74.188046
 30
0.0
 10
11.916401
 20
74.175690
 30
0.0
 10
11.904203
 20
74.169264
 30
0.0
 11
11.948214
 21
74.264447
 31
0.0
 11
11.949832
 21
74.226744
 31
0.0
 11
11.936784
 21
74.192314
 31
0.0
 11
11.904203
 21
74.169264
 31
0.0
  0
SPLINE
  5
104
100
AcDbEntity
  8
0
 62
1
100
AcDbSpline
 70
0
 71
3
 72
10
 73
6
 74
4
 40
0.000000
 40
0.000000
 40
0.000000
 40
0.000000
 40
0.044980
 40
0.087849
 40
0.130573
 40
0.130573
 40
0.130573
 40
0.130573
 10
11.618295
 20
74.095908
 30
0.0
 10
11.603455
 20
74.091794
 30
0.0
 10
11.574472
 20
74.083758
 30
0.0
 10
11.531275
 20
74.106214
 30
0.0
 10
11.520817
 20
74.133473
 30
0.0
 10
11.515596
 20
74.147079
 30
0.0
 11
11.618295
 21
74.095908
 31
0.0
 11
11.573755
 21
74.089632
 31
0.0
 11
11.535707
 21
74.109384
 31
0.0
 11
11.515596
 21
74.147079
 31
0.0
  0
LWPOLYLINE
  5
105
100
AcDbEntity
  8
0
 62
1
100
AcDbPolyline
 90
2
 70
0
 10
11.904203
 20
74.169264
 30
0.0
 10
11.618295
 20
74.095908
 30
0.0
  0
SPLINE
  5
106
100
AcDbEntity
  8
0
 62
1
100
AcDbSpline
 70
0
 71
3
 72
13
 73
9
 74
7
 40
0.000000
 40
0.000000
 40
0.000000
 40
0.000000
 40
0.488399
 40
0.933376
 40
1.448574
 40
2.035232
 40
2.547973
 40
3.232621
 40
3.232621
 40
3.232621
 40
3.232621
 10
11.515596
 20
74.147079
 30
0.0
 10
11.483415
 20
74.310019
 30
0.0
 10
11.421914
 20
74.621414
 30
0.0
 10
11.041291
 20
74.974184
 30
0.0
 10
10.519502
 20
75.053830
 30
0.0
 10
9.956447
 20
74.979319
 30
0.0
 10
9.543693
 20
74.480577
 30
0.0
 10
9.530191
 20
74.072611
 30
0.0
 10
9.522471
 20
73.839343
 30
0.0
 11
11.515596
 21
74.147079
 31
0.0
 11
11.368742
 21
74.612876
 31
0.0
 11
11.044365
 21
74.917481
 31
0.0
 11
10.540862
 21
75.026630
 31
0.0
 11
9.967413
 21
74.902839
 31
0.0
 11
9.631787
 21
74.515207
 31
0.0
 11
9.522471
 21
73.839343
 31
0.0
  0
LWPOLYLINE
  5
107
100
AcDbEntity
  8
0
 62
1
100
AcDbPolyline
 90
2
 70
0
 10
9.522471
 20
73.839343
 30
0.0
 10
9.522471
 20
71.824031
 30
0.0
  0
SPLINE
  5
108
100
AcDbEntity
  8
0
 62
1
100
AcDbSpline
 70
0
 71
3
 72
16
 73
12
 74
10
 40
0.000000
 40
0.000000
 40
0.000000
 40
0.000000
 40
0.682725
 40
1.192736
 40
1.778986
 40
2.328353
 40
2.843516
 40
3.524832
 40
3.579171
 40
3.616147
 40
3.633434
 40
3.633434
 40
3.633434
 40
3.633434
 10
9.522471
 20
71.824031
 30
0.0
 10
9.529935
 20
71.591253
 30
0.0
 10
9.542974
 20
71.184586
 30
0.0
 10
9.958126
 20
70.689183
 30
0.0
 10
10.529960
 20
70.617140
 30
0.0
 10
11.093140
 20
70.701593
 30
0.0
 10
11.512414
 20
71.187401
 30
0.0
 10
11.503982
 20
71.604290
 30
0.0
 10
11.545337
 20
71.874995
 30
0.0
 10
11.579987
 20
71.894711
 30
0.0
 10
11.597912
 20
71.896740
 30
0.0
 10
11.603623
 20
71.897386
 30
0.0
 11
9.522471
 21
71.824031
 31
0.0
 11
9.631787
 21
71.150115
 31
0.0
 11
9.967413
 21
70.766101
 31
0.0
 11
10.540862
 21
70.644258
 31
0.0
 11
11.076173
 21
70.767729
 31
0.0
 11
11.417747
 21
71.153372
 31
0.0
 11
11.537783
 21
71.824031
 31
0.0
 11
11.554852
 21
71.875619
 31
0.0
 11
11.586553
 21
71.894654
 31
0.0
 11
11.603623
 21
71.897386
 31
0.0
  0
LWPOLYLINE
  5
109
100
AcDbEntity
  8
0
 62
1
100
AcDbPolyline
 90
4
 70
0
 10
11.603623
 20
71.897386
 30
0.0
 10
11.757490
 20
71.897386
 30
0.0
 10
12.355301
 20
71.897757
 30
0.0
 10
12.357577
 20
75.804635
 30
0.0
  0
SPLINE
  5
10a
100
AcDbEntity
  8
0
 62
1
100
AcDbSpline
 70
0
 71
3
 72
10
 73
6
 74
4
 40
0.000000
 40
0.000000
 40
0.000000
 40
0.000000
 40
0.237740
 40
0.471953
 40
0.717878
 40
0.717878
 40
0.717878
 40
0.717878
 10
12.357577
 20
75.804635
 30
0.0
 10
12.344531
 20
75.884390
 30
0.0
 10
12.318632
 20
76.042717
 30
0.0
 10
12.129873
 20
76.221697
 30
0.0
 10
11.969041
 20
76.245470
 30
0.0
 10
11.886663
 20
76.257647
 30
0.0
 11
12.357577
 21
75.804635
 31
0.0
 11
12.293521
 21
76.033583
 31
0.0
 11
12.124723
 21
76.195949
 31
0.0
 11
11.886663
 21
76.257647
 31
0.0
  0
LWPOLYLINE
  5
10b
100
AcDbEntity
  8
0
 62
1
100
AcDbPolyline
 90
2
 70
0
 10
11.886663
 20
76.257647
 30
0.0
 10
9.147814
 20
76.257647
 30
0.0
  0
SPLINE
  5
10c
100
AcDbEntity
  8
0
 62
1
100
AcDbSpline
 70
0
 71
3
 72
10
 73
6
 74
4
 40
0.000000
 40
0.000000
 40
0.000000
 40
0.000000
 40
0.245893
 40
0.480081
 40
0.717840
 40
0.717840
 40
0.717840
 40
0.717840
 10
9.147814
 20
76.257647
 30
0.0
 10
9.065444
 20
76.245471
 30
0.0
 10
8.904626
 20
76.221698
 30
0.0
 10
8.715927
 20
76.042693
 30
0.0
 10
8.689979
 20
75.884384
 30
0.0
 10
8.676907
 20
75.804631
 30
0.0
 11
9.147814
 21
76.257647
 31
0.0
 11
8.909787
 21
76.195949
 31
0.0
 11
8.741024
 21
76.033581
 31
0.0
 11
8.676907
 21
75.804631
 31
0.0
  0
LWPOLYLINE
  5
10d
100
AcDbEntity
  8
0
 62
1
100
AcDbPolyline
 90
2
 70
0
 10
8.676907
 20
75.804631
 30
0.0
 10
8.676907
 20
70.183442
 30
0.0
  0
SPLINE
  5
10e
100
AcDbEntity
  8
0
 62
1
100
AcDbSpline
 70
0
 71
3
 72
10
 73
6
 74
4
 40
0.000000
 40
0.000000
 40
0.000000
 40
0.000000
 40
0.237669
 40
0.471738
 40
0.717608
 40
0.717608
 40
0.717608
 40
0.717608
 10
8.676907
 20
70.183442
 30
0.0
 10
8.689974
 20
70.103713
 30
0.0
 10
8.715911
 20
69.945462
 30
0.0
 10
8.904680
 20
69.766643
 30
0.0
 10
9.065452
 20
69.742932
 30
0.0
 10
9.147814
 20
69.730785
 30
0.0
 11
8.676907
 21
70.183442
 31
0.0
 11
8.741024
 21
69.954585
 31
0.0
 11
8.909787
 21
69.792390
 31
0.0
 11
9.147814
 21
69.730785
 31
0.0
  0
LWPOLYLINE
  5
10f
100
AcDbEntity
  8
0
 62
1
100
AcDbPolyline
 90
2
 70
0
 10
9.147814
 20
69.730785
 30
0.0
 10
11.886663
 20
69.730785
 30
0.0
  0
SPLINE
  5
110
100
AcDbEntity
  8
0
 62
1
100
AcDbSpline
 70
0
 71
3
 72
10
 73
6
 74
4
 40
0.000000
 40
0.000000
 40
0.000000
 40
0.000000
 40
0.245871
 40
0.479940
 40
0.717609
 40
0.717609
 40
0.717609
 40
0.717609
 10
11.886663
 20
69.730785
 30
0.0
 10
11.969025
 20
69.742932
 30
0.0
 10
12.129797
 20
69.766643
 30
0.0
 10
12.318567
 20
69.945462
 30
0.0
 10
12.344504
 20
70.103713
 30
0.0
 10
12.357571
 20
70.183442
 30
0.0
 11
11.886663
 21
69.730785
 31
0.0
 11
12.124690
 21
69.792390
 31
0.0
 11
12.293454
 21
69.954585
 31
0.0
 11
12.357571
 21
70.183442
 31
0.0
  0
SPLINE
  5
111
100
AcDbEntity
  8
Layer_1
 62
7
100
AcDbSpline
 70
0
 71
3
 72
16
 73
12
 74
10
 40
0.000000
 40
0.000000
 40
0.000000
 40
0.000000
 40
0.311877
 40
0.600186
 40
0.907393
 40
1.288884
 40
1.713521
 40
2.287020
 40
2.800640
 40
3.236010
 40
3.717127
 40
3.717127
 40
3.717127
 40
3.717127
 10
13.615175
 20
73.436370
 30
0.0
 10
13.526956
 20
73.495217
 30
0.0
 10
13.357186
 20
73.608464
 30
0.0
 10
13.231316
 20
73.897562
 30
0.0
 10
13.195704
 20
74.222165
 30
0.0
 10
13.266434
 20
74.600502
 30
0.0
 10
13.611202
 20
74.951133
 30
0.0
 10
14.131386
 20
75.032249
 30
0.0
 10
14.645996
 20
74.958882
 30
0.0
 10
15.032623
 20
74.622582
 30
0.0
 10
15.093086
 20
74.315669
 30
0.0
 10
15.124826
 20
74.154554
 30
0.0
 11
13.615175
 21
73.436370
 31
0.0
 11
13.373880
 21
73.633965
 31
0.0
 11
13.248212
 21
73.893445
 31
0.0
 11
13.212113
 21
74.198524
 31
0.0
 11
13.297339
 21
74.570373
 31
0.0
 11
13.591018
 21
74.877080
 31
0.0
 11
14.150148
 21
75.004649
 31
0.0
 11
14.653637
 21
74.903137
 31
0.0
 11
14.977987
 21
74.612715
 31
0.0
 11
15.124826
 21
74.154554
 31
0.0
  0
LWPOLYLINE
  5
112
100
AcDbEntity
  8
0
 62
1
100
AcDbPolyline
 90
4
 70
0
 10
12.357571
 20
70.183442
 30
0.0
 10
12.357571
 20
70.886090
 30
0.0
 10
12.355534
 20
71.799351
 30
0.0
 10
11.984714
 20
71.807672
 30
0.0
  0
SPLINE
  5
113
100
AcDbEntity
  8
Layer_1
 62
7
100
AcDbSpline
 70
0
 71
3
 72
10
 73
6
 74
4
 40
0.000000
 40
0.000000
 40
0.000000
 40
0.000000
 40
0.041310
 40
0.083438
 40
0.128051
 40
0.128051
 40
0.128051
 40
0.128051
 10
15.124826
 20
74.154554
 30
0.0
 10
15.130095
 20
74.141355
 30
0.0
 10
15.140738
 20
74.114695
 30
0.0
 10
15.183849
 20
74.095683
 30
0.0
 10
15.212624
 20
74.100685
 30
0.0
 10
15.227424
 20
74.103257
 30
0.0
 11
15.124826
 21
74.154554
 31
0.0
 11
15.144911
 21
74.118455
 31
0.0
 11
15.182911
 21
74.100270
 31
0.0
 11
15.227424
 21
74.103257
 31
0.0
  0
SPLINE
  5
114
100
AcDbEntity
  8
Layer_1
 62
7
100
AcDbSpline
 70
0
 71
3
 72
10
 73
6
 74
4
 40
0.000000
 40
0.000000
 40
0.000000
 40
0.000000
 40
0.039914
 40
0.076765
 40
0.114526
 40
0.114526
 40
0.114526
 40
0.114526
 10
15.513232
 20
74.176541
 30
0.0
 10
15.525429
 20
74.182976
 30
0.0
 10
15.548887
 20
74.195351
 30
0.0
 10
15.561695
 20
74.234610
 30
0.0
 10
15.558712
 20
74.259310
 30
0.0
 10
15.557202
 20
74.271810
 30
0.0
 11
15.513232
 21
74.176541
 31
0.0
 11
15.545802
 21
74.199613
 31
0.0
 11
15.558830
 21
74.234084
 31
0.0
 11
15.557202
 21
74.271810
 31
0.0
  0
LWPOLYLINE
  5
115
100
AcDbEntity
  8
Layer_1
 62
7
100
AcDbPolyline
 90
2
 70
0
 10
15.227424
 20
74.103257
 30
0.0
 10
15.513232
 20
74.176541
 30
0.0
  0
SPLINE
  5
116
100
AcDbEntity
  8
Layer_1
 62
7
100
AcDbSpline
 70
0
 71
3
 72
16
 73
12
 74
10
 40
0.000000
 40
0.000000
 40
0.000000
 40
0.000000
 40
0.630119
 40
1.251004
 40
2.015633
 40
2.724834
 40
3.375185
 40
4.072894
 40
4.474993
 40
4.949484
 40
5.556243
 40
5.556243
 40
5.556243
 40
5.556243
 10
15.557202
 20
74.271810
 30
0.0
 10
15.508430
 20
74.480013
 30
0.0
 10
15.411601
 20
74.893369
 30
0.0
 10
14.881660
 20
75.376233
 30
0.0
 10
14.166752
 20
75.493574
 30
0.0
 10
13.454177
 20
75.371627
 30
0.0
 10
12.881624
 20
74.920558
 30
0.0
 10
12.738311
 20
74.316633
 30
0.0
 10
12.790703
 20
73.794322
 30
0.0
 10
12.998262
 20
73.321216
 30
0.0
 10
13.308929
 20
73.122716
 30
0.0
 10
13.483264
 20
73.011324
 30
0.0
 11
15.557202
 21
74.271810
 31
0.0
 11
15.352007
 21
74.867582
 31
0.0
 11
14.897646
 21
75.290730
 31
0.0
 11
14.150148
 21
75.451684
 31
0.0
 11
13.455578
 21
75.308373
 31
0.0
 11
12.956432
 21
74.891468
 31
0.0
 11
12.765080
 21
74.220511
 31
0.0
 11
12.807964
 21
73.820706
 31
0.0
 11
13.010446
 21
73.391587
 31
0.0
 11
13.483264
 21
73.011324
 31
0.0
  0
LWPOLYLINE
  5
117
100
AcDbEntity
  8
Layer_1
 62
7
100
AcDbPolyline
 90
2
 70
0
 10
13.483264
 20
73.011324
 30
0.0
 10
14.604510
 20
72.439709
 30
0.0
  0
SPLINE
  5
118
100
AcDbEntity
  8
Layer_1
 62
7
100
AcDbSpline
 70
0
 71
3
 72
19
 73
15
 74
13
 40
0.000000
 40
0.000000
 40
0.000000
 40
0.000000
 40
0.420287
 40
0.753656
 40
1.060697
 40
1.509690
 40
2.001139
 40
2.613976
 40
3.077965
 40
3.565354
 40
4.212200
 40
4.266531
 40
4.303537
 40
4.320851
 40
4.320851
 40
4.320851
 40
4.320851
 10
14.604510
 20
72.439709
 30
0.0
 10
14.725495
 20
72.365843
 30
0.0
 10
14.942446
 20
72.233388
 30
0.0
 10
15.136936
 20
71.922205
 30
0.0
 10
15.191172
 20
71.556753
 30
0.0
 10
15.100127
 20
71.137250
 30
0.0
 10
14.740101
 20
70.723165
 30
0.0
 10
14.197117
 20
70.614582
 30
0.0
 10
13.676021
 20
70.685558
 30
0.0
 10
13.208973
 20
71.037423
 30
0.0
 10
13.184938
 20
71.448164
 30
0.0
 10
13.145924
 20
71.706537
 30
0.0
 10
13.111194
 20
71.726207
 30
0.0
 10
13.093249
 20
71.728214
 30
0.0
 10
13.087530
 20
71.728854
 30
0.0
 11
14.604510
 21
72.439709
 31
0.0
 11
14.942973
 21
72.190543
 31
0.0
 11
15.118583
 21
71.907178
 31
0.0
 11
15.168796
 21
71.604270
 31
0.0
 11
15.069185
 21
71.166466
 31
0.0
 11
14.743206
 21
70.798689
 31
0.0
 11
14.150148
 21
70.644250
 31
0.0
 11
13.693073
 21
70.724048
 31
0.0
 11
13.312539
 21
71.028584
 31
0.0
 11
13.153485
 21
71.655570
 31
0.0
 11
13.136386
 21
71.707140
 31
0.0
 11
13.104629
 21
71.726139
 31
0.0
 11
13.087530
 21
71.728854
 31
0.0
  0
LWPOLYLINE
  5
119
100
AcDbEntity
  8
Layer_1
 62
7
100
AcDbPolyline
 90
2
 70
0
 10
13.087530
 20
71.728854
 30
0.0
 10
12.779737
 20
71.728854
 30
0.0
  0
SPLINE
  5
11a
100
AcDbEntity
  8
Layer_1
 62
7
100
AcDbSpline
 70
0
 71
3
 72
19
 73
15
 74
13
 40
0.000000
 40
0.000000
 40
0.000000
 40
0.000000
 40
0.019192
 40
0.059267
 40
0.114226
 40
1.015800
 40
1.735559
 40
2.379381
 40
3.197433
 40
3.897390
 40
4.625484
 40
5.085757
 40
5.533458
 40
5.998266
 40
5.998266
 40
5.998266
 40
5.998266
 10
12.779737
 20
71.728854
 30
0.0
 10
12.773404
 20
71.728211
 30
0.0
 10
12.753851
 20
71.726225
 30
0.0
 10
12.716105
 20
71.707965
 30
0.0
 10
12.647953
 20
71.359678
 30
0.0
 10
12.854195
 20
70.786098
 30
0.0
 10
13.474129
 20
70.301174
 30
0.0
 10
14.206936
 20
70.173726
 30
0.0
 10
14.946327
 20
70.316554
 30
0.0
 10
15.512406
 20
70.870940
 30
0.0
 10
15.652439
 20
71.516875
 30
0.0
 10
15.566658
 20
72.061054
 30
0.0
 10
15.335931
 20
72.475612
 30
0.0
 10
15.079542
 20
72.646035
 30
0.0
 10
14.948944
 20
72.732845
 30
0.0
 11
12.779737
 21
71.728854
 31
0.0
 11
12.760737
 21
71.726139
 31
0.0
 11
12.725452
 21
71.707140
 31
0.0
 11
12.706453
 21
71.655570
 31
0.0
 11
12.952090
 21
70.788103
 31
0.0
 11
13.518548
 21
70.344056
 31
0.0
 11
14.150148
 21
70.219202
 31
0.0
 11
14.947045
 21
70.404040
 31
0.0
 11
15.444291
 21
70.896672
 31
0.0
 11
15.615830
 21
71.604270
 31
0.0
 11
15.539017
 21
72.058089
 31
0.0
 11
15.314008
 21
72.445137
 31
0.0
 11
14.948944
 21
72.732845
 31
0.0
  0
SPLINE
  5
11b
100
AcDbEntity
  8
Layer_1
 62
7
100
AcDbSpline
 70
0
 71
3
 72
16
 73
12
 74
10
 40
0.000000
 40
0.000000
 40
0.000000
 40
0.000000
 40
0.311877
 40
0.600186
 40
0.907393
 40
1.288884
 40
1.713521
 40
2.287020
 40
2.800640
 40
3.236011
 40
3.717127
 40
3.717127
 40
3.717127
 40
3.717127
 10
17.179184
 20
73.436370
 30
0.0
 10
17.090966
 20
73.495217
 30
0.0
 10
16.921196
 20
73.608464
 30
0.0
 10
16.795326
 20
73.897562
 30
0.0
 10
16.759714
 20
74.222165
 30
0.0
 10
16.830443
 20
74.600503
 30
0.0
 10
17.175212
 20
74.951133
 30
0.0
 10
17.695396
 20
75.032249
 30
0.0
 10
18.210006
 20
74.958882
 30
0.0
 10
18.596633
 20
74.622581
 30
0.0
 10
18.657096
 20
74.315669
 30
0.0
 10
18.688836
 20
74.154554
 30
0.0
 11
17.179184
 21
73.436370
 31
0.0
 11
16.937890
 21
73.633965
 31
0.0
 11
16.812222
 21
73.893445
 31
0.0
 11
16.776122
 21
74.198524
 31
0.0
 11
16.861349
 21
74.570373
 31
0.0
 11
17.155028
 21
74.877080
 31
0.0
 11
17.714158
 21
75.004649
 31
0.0
 11
18.217647
 21
74.903137
 31
0.0
 11
18.541997
 21
74.612715
 31
0.0
 11
18.688836
 21
74.154554
 31
0.0
  0
LWPOLYLINE
  5
11c
100
AcDbEntity
  8
Layer_1
 62
7
100
AcDbPolyline
 90
2
 70
0
 10
14.948944
 20
72.732845
 30
0.0
 10
13.615175
 20
73.436370
 30
0.0
  0
SPLINE
  5
11d
100
AcDbEntity
  8
Layer_1
 62
7
100
AcDbSpline
 70
0
 71
3
 72
10
 73
6
 74
4
 40
0.000000
 40
0.000000
 40
0.000000
 40
0.000000
 40
0.041310
 40
0.083438
 40
0.128051
 40
0.128051
 40
0.128051
 40
0.128051
 10
18.688836
 20
74.154554
 30
0.0
 10
18.694105
 20
74.141355
 30
0.0
 10
18.704748
 20
74.114695
 30
0.0
 10
18.747859
 20
74.095683
 30
0.0
 10
18.776634
 20
74.100685
 30
0.0
 10
18.791434
 20
74.103257
 30
0.0
 11
18.688836
 21
74.154554
 31
0.0
 11
18.708921
 21
74.118455
 31
0.0
 11
18.746921
 21
74.100270
 31
0.0
 11
18.791434
 21
74.103257
 31
0.0
  0
SPLINE
  5
11e
100
AcDbEntity
  8
Layer_1
 62
7
100
AcDbSpline
 70
0
 71
3
 72
10
 73
6
 74
4
 40
0.000000
 40
0.000000
 40
0.000000
 40
0.000000
 40
0.039914
 40
0.076765
 40
0.114526
 40
0.114526
 40
0.114526
 40
0.114526
 10
19.077242
 20
74.176541
 30
0.0
 10
19.089439
 20
74.182976
 30
0.0
 10
19.112897
 20
74.195351
 30
0.0
 10
19.125705
 20
74.234610
 30
0.0
 10
19.122722
 20
74.259310
 30
0.0
 10
19.121212
 20
74.271810
 30
0.0
 11
19.077242
 21
74.176541
 31
0.0
 11
19.109812
 21
74.199613
 31
0.0
 11
19.122840
 21
74.234084
 31
0.0
 11
19.121212
 21
74.271810
 31
0.0
  0
LWPOLYLINE
  5
11f
100
AcDbEntity
  8
Layer_1
 62
7
100
AcDbPolyline
 90
2
 70
0
 10
18.791434
 20
74.103257
 30
0.0
 10
19.077242
 20
74.176541
 30
0.0
  0
SPLINE
  5
120
100
AcDbEntity
  8
Layer_1
 62
7
100
AcDbSpline
 70
0
 71
3
 72
16
 73
12
 74
10
 40
0.000000
 40
0.000000
 40
0.000000
 40
0.000000
 40
0.630119
 40
1.251004
 40
2.015633
 40
2.724834
 40
3.375185
 40
4.072894
 40
4.474993
 40
4.949484
 40
5.556243
 40
5.556243
 40
5.556243
 40
5.556243
 10
19.121212
 20
74.271810
 30
0.0
 10
19.072440
 20
74.480013
 30
0.0
 10
18.975611
 20
74.893369
 30
0.0
 10
18.445670
 20
75.376233
 30
0.0
 10
17.730762
 20
75.493574
 30
0.0
 10
17.018188
 20
75.371627
 30
0.0
 10
16.445634
 20
74.920558
 30
0.0
 10
16.302322
 20
74.316633
 30
0.0
 10
16.354713
 20
73.794322
 30
0.0
 10
16.562272
 20
73.321216
 30
0.0
 10
16.872939
 20
73.122716
 30
0.0
 10
17.047274
 20
73.011324
 30
0.0
 11
19.121212
 21
74.271810
 31
0.0
 11
18.916017
 21
74.867582
 31
0.0
 11
18.461656
 21
75.290730
 31
0.0
 11
17.714158
 21
75.451684
 31
0.0
 11
17.019589
 21
75.308373
 31
0.0
 11
16.520443
 21
74.891468
 31
0.0
 11
16.329090
 21
74.220511
 31
0.0
 11
16.371974
 21
73.820706
 31
0.0
 11
16.574456
 21
73.391587
 31
0.0
 11
17.047274
 21
73.011324
 31
0.0
  0
LWPOLYLINE
  5
121
100
AcDbEntity
  8
Layer_1
 62
7
100
AcDbPolyline
 90
2
 70
0
 10
17.047274
 20
73.011324
 30
0.0
 10
18.168519
 20
72.439709
 30
0.0
  0
SPLINE
  5
122
100
AcDbEntity
  8
Layer_1
 62
7
100
AcDbSpline
 70
0
 71
3
 72
19
 73
15
 74
13
 40
0.000000
 40
0.000000
 40
0.000000
 40
0.000000
 40
0.420287
 40
0.753656
 40
1.060697
 40
1.509691
 40
2.001140
 40
2.613976
 40
3.077965
 40
3.565355
 40
4.212201
 40
4.266532
 40
4.303538
 40
4.320851
 40
4.320851
 40
4.320851
 40
4.320851
 10
18.168519
 20
72.439709
 30
0.0
 10
18.289505
 20
72.365843
 30
0.0
 10
18.506456
 20
72.233388
 30
0.0
 10
18.700946
 20
71.922205
 30
0.0
 10
18.755182
 20
71.556753
 30
0.0
 10
18.664137
 20
71.137250
 30
0.0
 10
18.304111
 20
70.723166
 30
0.0
 10
17.761127
 20
70.614582
 30
0.0
 10
17.240031
 20
70.685558
 30
0.0
 10
16.772983
 20
71.037423
 30
0.0
 10
16.748949
 20
71.448164
 30
0.0
 10
16.709934
 20
71.706537
 30
0.0
 10
16.675204
 20
71.726207
 30
0.0
 10
16.657259
 20
71.728214
 30
0.0
 10
16.651540
 20
71.728854
 30
0.0
 11
18.168519
 21
72.439709
 31
0.0
 11
18.506983
 21
72.190543
 31
0.0
 11
18.682594
 21
71.907178
 31
0.0
 11
18.732807
 21
71.604270
 31
0.0
 11
18.633195
 21
71.166466
 31
0.0
 11
18.307216
 21
70.798689
 31
0.0
 11
17.714158
 21
70.644250
 31
0.0
 11
17.257083
 21
70.724048
 31
0.0
 11
16.876549
 21
71.028584
 31
0.0
 11
16.717495
 21
71.655570
 31
0.0
 11
16.700396
 21
71.707140
 31
0.0
 11
16.668639
 21
71.726139
 31
0.0
 11
16.651540
 21
71.728854
 31
0.0
  0
LWPOLYLINE
  5
123
100
AcDbEntity
  8
Layer_1
 62
7
100
AcDbPolyline
 90
2
 70
0
 10
16.651540
 20
71.728854
 30
0.0
 10
16.343747
 20
71.728854
 30
0.0
  0
LWPOLYLINE
  5
124
100
AcDbEntity
  8
Layer_1
 62
7
100
AcDbPolyline
 90
2
 70
0
 10
18.512954
 20
72.732845
 30
0.0
 10
17.179184
 20
73.436370
 30
0.0
  0
SPLINE
  5
125
100
AcDbEntity
  8
Layer_1
 62
7
100
AcDbSpline
 70
0
 71
3
 72
19
 73
15
 74
13
 40
0.000000
 40
0.000000
 40
0.000000
 40
0.000000
 40
0.019193
 40
0.059268
 40
0.114227
 40
1.015801
 40
1.735560
 40
2.379382
 40
3.197434
 40
3.897391
 40
4.625485
 40
5.085758
 40
5.533458
 40
5.998266
 40
5.998266
 40
5.998266
 40
5.998266
 10
16.343747
 20
71.728854
 30
0.0
 10
16.337415
 20
71.728211
 30
0.0
 10
16.317861
 20
71.726225
 30
0.0
 10
16.280115
 20
71.707965
 30
0.0
 10
16.211961
 20
71.359679
 30
0.0
 10
16.418205
 20
70.786098
 30
0.0
 10
17.038139
 20
70.301174
 30
0.0
 10
17.770946
 20
70.173726
 30
0.0
 10
18.510337
 20
70.316554
 30
0.0
 10
19.076416
 20
70.870940
 30
0.0
 10
19.216448
 20
71.516875
 30
0.0
 10
19.130668
 20
72.061053
 30
0.0
 10
18.899941
 20
72.475612
 30
0.0
 10
18.643552
 20
72.646036
 30
0.0
 10
18.512954
 20
72.732845
 30
0.0
 11
16.343747
 21
71.728854
 31
0.0
 11
16.324747
 21
71.726139
 31
0.0
 11
16.289462
 21
71.707140
 31
0.0
 11
16.270462
 21
71.655570
 31
0.0
 11
16.516100
 21
70.788103
 31
0.0
 11
17.082558
 21
70.344056
 31
0.0
 11
17.714158
 21
70.219202
 31
0.0
 11
18.511054
 21
70.404040
 31
0.0
 11
19.008300
 21
70.896672
 31
0.0
 11
19.179839
 21
71.604270
 31
0.0
 11
19.103027
 21
72.058089
 31
0.0
 11
18.878018
 21
72.445137
 31
0.0
 11
18.512954
 21
72.732845
 31
0.0
  0
LWPOLYLINE
  5
126
100
AcDbEntity
  8
Layer_1
 62
7
100
AcDbPolyline
 90
2
 70
0
 10
21.307482
 20
73.165219
 30
0.0
 10
22.802477
 20
75.327098
 30
0.0
  0
SPLINE
  5
127
100
AcDbEntity
  8
Layer_1
 62
7
100
AcDbSpline
 70
0
 71
3
 72
10
 73
6
 74
4
 40
0.000000
 40
0.000000
 40
0.000000
 40
0.000000
 40
0.052209
 40
0.088519
 40
0.109864
 40
0.109864
 40
0.109864
 40
0.109864
 10
22.802477
 20
75.327098
 30
0.0
 10
22.810481
 20
75.346153
 30
0.0
 10
22.824052
 20
75.378459
 30
0.0
 10
22.784276
 20
75.398602
 30
0.0
 10
22.765469
 20
75.399902
 30
0.0
 10
22.758506
 20
75.400383
 30
0.0
 11
22.802477
 21
75.327098
 31
0.0
 11
22.810620
 21
75.378669
 31
0.0
 11
22.779677
 21
75.397669
 31
0.0
 11
22.758506
 21
75.400383
 31
0.0
  0
LWPOLYLINE
  5
128
100
AcDbEntity
  8
Layer_1
 62
7
100
AcDbPolyline
 90
2
 70
0
 10
22.758506
 20
75.400383
 30
0.0
 10
22.406743
 20
75.400383
 30
0.0
  0
SPLINE
  5
129
100
AcDbEntity
  8
Layer_1
 62
7
100
AcDbSpline
 70
0
 71
3
 72
10
 73
6
 74
4
 40
0.000000
 40
0.000000
 40
0.000000
 40
0.000000
 40
0.018655
 40
0.064076
 40
0.131148
 40
0.131148
 40
0.131148
 40
0.131148
 10
22.406743
 20
75.400383
 30
0.0
 10
22.400565
 20
75.399675
 30
0.0
 10
22.379344
 20
75.397244
 30
0.0
 10
22.337799
 20
75.378000
 30
0.0
 10
22.316716
 20
75.346111
 30
0.0
 10
22.304145
 20
75.327098
 30
0.0
 11
22.406743
 21
75.400383
 31
0.0
 11
22.388286
 21
75.397669
 31
0.0
 11
22.347030
 21
75.378669
 31
0.0
 11
22.304145
 21
75.327098
 31
0.0
  0
LWPOLYLINE
  5
12a
100
AcDbEntity
  8
Layer_1
 62
7
100
AcDbPolyline
 90
3
 70
0
 10
22.304145
 20
75.327098
 30
0.0
 10
20.545328
 20
72.850098
 30
0.0
 10
20.545328
 20
75.327098
 30
0.0
  0
SPLINE
  5
12b
100
AcDbEntity
  8
Layer_1
 62
7
100
AcDbSpline
 70
0
 71
3
 72
10
 73
6
 74
4
 40
0.000000
 40
0.000000
 40
0.000000
 40
0.000000
 40
0.054959
 40
0.095034
 40
0.114227
 40
0.114227
 40
0.114227
 40
0.114227
 10
20.545328
 20
75.327098
 30
0.0
 10
20.541834
 20
75.346295
 30
0.0
 10
20.535792
 20
75.379489
 30
0.0
 10
20.497919
 20
75.397755
 30
0.0
 10
20.478373
 20
75.399740
 30
0.0
 10
20.472044
 20
75.400383
 30
0.0
 11
20.545328
 21
75.327098
 31
0.0
 11
20.526328
 21
75.378669
 31
0.0
 11
20.491043
 21
75.397669
 31
0.0
 11
20.472044
 21
75.400383
 31
0.0
  0
LWPOLYLINE
  5
12c
100
AcDbEntity
  8
Layer_1
 62
7
100
AcDbPolyline
 90
2
 70
0
 10
20.472044
 20
75.400383
 30
0.0
 10
20.164251
 20
75.400383
 30
0.0
  0
SPLINE
  5
12d
100
AcDbEntity
  8
Layer_1
 62
7
100
AcDbSpline
 70
0
 71
3
 72
10
 73
6
 74
4
 40
0.000000
 40
0.000000
 40
0.000000
 40
0.000000
 40
0.017314
 40
0.054320
 40
0.108651
 40
0.108651
 40
0.108651
 40
0.108651
 10
20.164251
 20
75.400383
 30
0.0
 10
20.158532
 20
75.399743
 30
0.0
 10
20.140589
 20
75.397737
 30
0.0
 10
20.105832
 20
75.378062
 30
0.0
 10
20.101106
 20
75.346107
 30
0.0
 10
20.098295
 20
75.327098
 30
0.0
 11
20.164251
 21
75.400383
 31
0.0
 11
20.147151
 21
75.397669
 31
0.0
 11
20.115395
 21
75.378669
 31
0.0
 11
20.098295
 21
75.327098
 31
0.0
  0
LWPOLYLINE
  5
12e
100
AcDbEntity
  8
Layer_1
 62
7
100
AcDbPolyline
 90
2
 70
0
 10
20.098295
 20
75.327098
 30
0.0
 10
20.098295
 20
70.343783
 30
0.0
  0
SPLINE
  5
12f
100
AcDbEntity
  8
Layer_1
 62
7
100
AcDbSpline
 70
0
 71
3
 72
10
 73
6
 74
4
 40
0.000000
 40
0.000000
 40
0.000000
 40
0.000000
 40
0.054331
 40
0.091337
 40
0.108651
 40
0.108651
 40
0.108651
 40
0.108651
 10
20.098295
 20
70.343783
 30
0.0
 10
20.101106
 20
70.324774
 30
0.0
 10
20.105832
 20
70.292819
 30
0.0
 10
20.140589
 20
70.273145
 30
0.0
 10
20.158532
 20
70.271139
 30
0.0
 10
20.164251
 20
70.270499
 30
0.0
 11
20.098295
 21
70.343783
 31
0.0
 11
20.115395
 21
70.292213
 31
0.0
 11
20.147151
 21
70.273213
 31
0.0
 11
20.164251
 21
70.270499
 31
0.0
  0
LWPOLYLINE
  5
130
100
AcDbEntity
  8
Layer_1
 62
7
100
AcDbPolyline
 90
2
 70
0
 10
20.164251
 20
70.270499
 30
0.0
 10
20.479372
 20
70.270499
 30
0.0
  0
SPLINE
  5
131
100
AcDbEntity
  8
Layer_1
 62
7
100
AcDbSpline
 70
0
 71
3
 72
10
 73
6
 74
4
 40
0.000000
 40
0.000000
 40
0.000000
 40
0.000000
 40
0.017314
 40
0.054320
 40
0.108651
 40
0.108651
 40
0.108651
 40
0.108651
 10
20.479372
 20
70.270499
 30
0.0
 10
20.485091
 20
70.271139
 30
0.0
 10
20.503034
 20
70.273145
 30
0.0
 10
20.537791
 20
70.292819
 30
0.0
 10
20.542517
 20
70.324774
 30
0.0
 10
20.545328
 20
70.343783
 30
0.0
 11
20.479372
 21
70.270499
 31
0.0
 11
20.496472
 21
70.273213
 31
0.0
 11
20.528228
 21
70.292213
 31
0.0
 11
20.545328
 21
70.343783
 31
0.0
  0
LWPOLYLINE
  5
132
100
AcDbEntity
  8
Layer_1
 62
7
100
AcDbPolyline
 90
4
 70
0
 10
20.545328
 20
70.343783
 30
0.0
 10
20.545328
 20
72.146571
 30
0.0
 10
20.992360
 20
72.784142
 30
0.0
 10
22.011009
 20
71.025325
 30
0.0
  0
SPLINE
  5
133
100
AcDbEntity
  8
Layer_1
 62
7
100
AcDbSpline
 70
0
 71
3
 72
10
 73
6
 74
4
 40
0.000000
 40
0.000000
 40
0.000000
 40
0.000000
 40
0.518906
 40
0.900664
 40
1.258154
 40
1.258154
 40
1.258154
 40
1.258154
 10
22.011009
 20
71.025325
 30
0.0
 10
22.099789
 20
70.878004
 30
0.0
 10
22.253884
 20
70.622299
 30
0.0
 10
22.569350
 20
70.314582
 30
0.0
 10
22.820341
 20
70.284868
 30
0.0
 10
22.941716
 20
70.270499
 30
0.0
 11
22.011009
 21
71.025325
 31
0.0
 11
22.301160
 21
70.595120
 31
0.0
 11
22.592939
 21
70.348940
 31
0.0
 11
22.941716
 21
70.270499
 31
0.0
  0
LWPOLYLINE
  5
134
100
AcDbEntity
  8
Layer_1
 62
7
100
AcDbPolyline
 90
2
 70
0
 10
22.941716
 20
70.270499
 30
0.0
 10
23.102941
 20
70.270499
 30
0.0
  0
SPLINE
  5
135
100
AcDbEntity
  8
Layer_1
 62
7
100
AcDbSpline
 70
0
 71
3
 72
10
 73
6
 74
4
 40
0.000000
 40
0.000000
 40
0.000000
 40
0.000000
 40
0.055645
 40
0.098859
 40
0.119933
 40
0.119933
 40
0.119933
 40
0.119933
 10
23.102941
 20
70.270499
 30
0.0
 10
23.122287
 20
70.274698
 30
0.0
 10
23.156657
 20
70.282159
 30
0.0
 10
23.173590
 20
70.322998
 30
0.0
 10
23.175575
 20
70.344170
 30
0.0
 10
23.176226
 20
70.351111
 30
0.0
 11
23.102941
 21
70.270499
 31
0.0
 11
23.154512
 21
70.291398
 31
0.0
 11
23.173511
 21
70.330212
 31
0.0
 11
23.176226
 21
70.351111
 31
0.0
  0
LWPOLYLINE
  5
136
100
AcDbEntity
  8
Layer_1
 62
7
100
AcDbPolyline
 90
2
 70
0
 10
23.176226
 20
70.351111
 30
0.0
 10
23.176226
 20
70.600277
 30
0.0
  0
SPLINE
  5
137
100
AcDbEntity
  8
Layer_1
 62
7
100
AcDbSpline
 70
0
 71
3
 72
10
 73
6
 74
4
 40
0.000000
 40
0.000000
 40
0.000000
 40
0.000000
 40
0.019192
 40
0.059267
 40
0.114227
 40
0.114227
 40
0.114227
 40
0.114227
 10
23.176226
 20
70.600277
 30
0.0
 10
23.175583
 20
70.606607
 30
0.0
 10
23.173598
 20
70.626153
 30
0.0
 10
23.155332
 20
70.664025
 30
0.0
 10
23.122138
 20
70.670067
 30
0.0
 10
23.102941
 20
70.673561
 30
0.0
 11
23.176226
 21
70.600277
 31
0.0
 11
23.173511
 21
70.619277
 31
0.0
 11
23.154512
 21
70.654562
 31
0.0
 11
23.102941
 21
70.673561
 31
0.0
  0
LWPOLYLINE
  5
138
100
AcDbEntity
  8
Layer_1
 62
7
100
AcDbPolyline
 90
2
 70
0
 10
23.102941
 20
70.673561
 30
0.0
 10
22.985687
 20
70.673561
 30
0.0
  0
SPLINE
  5
139
100
AcDbEntity
  8
Layer_1
 62
7
100
AcDbSpline
 70
0
 71
3
 72
10
 73
6
 74
4
 40
0.000000
 40
0.000000
 40
0.000000
 40
0.000000
 40
0.205619
 40
0.442664
 40
0.735726
 40
0.735726
 40
0.735726
 40
0.735726
 10
22.985687
 20
70.673561
 30
0.0
 10
22.916809
 20
70.686718
 30
0.0
 10
22.768527
 20
70.715042
 30
0.0
 10
22.593779
 20
70.903412
 30
0.0
 10
22.501647
 20
71.052712
 30
0.0
 10
22.450713
 20
71.135251
 30
0.0
 11
22.985687
 21
70.673561
 31
0.0
 11
22.788363
 21
70.731374
 31
0.0
 11
22.613838
 21
70.891785
 31
0.0
 11
22.450713
 21
71.135251
 31
0.0
  0
LWPOLYLINE
  5
13a
100
AcDbEntity
  8
Layer_1
 62
7
100
AcDbPolyline
 90
2
 70
0
 10
22.450713
 20
71.135251
 30
0.0
 10
21.307482
 20
73.165219
 30
0.0
  0
ENDSEC
  0
SECTION
  2
OBJECTS
  0
DICTIONARY
  5
C
330
0
100
AcDbDictionary
  3
ACAD_GROUP
350
D
  3
ACAD_MLINESTYLE
350
17
  0
DICTIONARY
  5
D
330
C
100
AcDbDictionary
  0
DICTIONARY
  5
1A
330
C
100
AcDbDictionary
  0
DICTIONARY
  5
17
330
C
100
AcDbDictionary
  3
STANDARD
350
18
  0
DICTIONARY
  5
19
330
C
100
AcDbDictionary
  0
ENDSEC
  0
EOF
