G04 DipTrace 3.2.0.1*
G04 BottomPaste.gbr*
%MOIN*%
G04 #@! TF.FileFunction,Paste,Bot*
G04 #@! TF.Part,Single*
%AMOUTLINE5*
4,1,10,
-0.011063,-0.008063,
-0.011063,0.008063,
-0.012937,0.008063,
-0.012937,-0.006,
-0.012637,-0.007507,
-0.011784,-0.008784,
-0.010507,-0.009637,
-0.009,-0.009937,
0.011063,-0.009937,
0.011063,-0.008063,
-0.011063,-0.008063,
0*%
%AMOUTLINE8*
4,1,26,
-0.011063,-0.005063,
-0.011063,-0.006937,
0.009,-0.006937,
0.010507,-0.006637,
0.011784,-0.005784,
0.012637,-0.004507,
0.012937,-0.003,
0.012937,0.003,
0.012637,0.004507,
0.011784,0.005784,
0.010507,0.006637,
0.009,0.006937,
-0.003,0.006937,
-0.004507,0.006637,
-0.005784,0.005784,
-0.006637,0.004507,
-0.006937,0.003,
-0.006937,0.000937,
-0.005063,0.000937,
-0.005063,0.003,
-0.005363,0.004507,
-0.005734,0.005063,
0.011063,0.005063,
0.011063,-0.001369,
0.007369,-0.005063,
0.003,-0.005063,
-0.011063,-0.005063,
0*%
%AMOUTLINE11*
4,1,36,
-0.011063,-0.008063,
-0.011063,0.008063,
-0.000937,0.008063,
-0.000937,0.006,
-0.000637,0.004493,
0.000216,0.003216,
0.001493,0.002363,
0.003,0.002063,
0.011063,0.002063,
0.011063,-0.008063,
0.012937,-0.008063,
0.012937,0.0,
0.012637,0.001507,
0.011784,0.002784,
0.010507,0.003637,
0.009,0.003937,
0.003,0.003937,
0.001493,0.003637,
0.000937,0.003266,
0.000937,0.006,
0.000637,0.007507,
-0.000216,0.008784,
-0.001493,0.009637,
-0.003,0.009937,
-0.009,0.009937,
-0.010507,0.009637,
-0.011784,0.008784,
-0.012637,0.007507,
-0.012937,0.006,
-0.012937,-0.006,
-0.012637,-0.007507,
-0.011784,-0.008784,
-0.010507,-0.009637,
-0.009,-0.009937,
-0.006937,-0.009937,
-0.006937,-0.008063,
-0.011063,-0.008063,
0*%
%AMOUTLINE14*
4,1,14,
-0.006505,0.005063,
-0.000937,0.005063,
-0.000937,-0.003,
-0.000273,-0.005187,
0.001493,-0.006637,
0.003768,-0.006861,
0.005784,-0.005784,
0.006505,-0.005063,
0.000937,-0.005063,
0.000937,0.003,
0.000273,0.005187,
-0.001493,0.006637,
-0.003768,0.006861,
-0.005784,0.005784,
-0.006505,0.005063,
0*%
%ADD82R,-0.001874X-0.001874*%
%ADD84R,0.010126X-0.001874*%
%ADD86R,0.028126X-0.001874*%
%ADD88R,0.034126X-0.001874*%
%ADD90R,0.040126X-0.001874*%
%ADD92R,0.058126X-0.001874*%
%ADD94R,0.016126X-0.001874*%
%ADD96R,0.094126X-0.001874*%
%ADD163OUTLINE5*%
%ADD166OUTLINE8*%
%ADD169OUTLINE11*%
%ADD172OUTLINE14*%
%FSLAX26Y26*%
G04*
G70*
G90*
G75*
G01*
G04 BotPaste*
%LPD*%
D96*
X1129701Y501701D3*
D94*
X1168701Y513701D3*
Y549701D3*
Y561701D3*
Y525701D3*
Y537701D3*
Y573701D3*
Y585701D3*
X1102701D3*
X1090701Y573701D3*
X1168701Y597701D3*
D92*
X1147701Y609701D3*
D94*
X1078701Y561701D3*
X1066701Y549701D3*
X1054701Y537701D3*
X1066701Y525701D3*
X1078701Y513701D3*
X1054701Y501701D3*
Y573701D3*
Y585701D3*
D90*
X1042701Y597701D3*
D88*
X1045701Y609701D3*
D94*
X1024701Y585701D3*
X1018701Y573701D3*
D86*
X1003701Y561701D3*
D94*
X952701Y573701D3*
Y585701D3*
D88*
X961701Y609701D3*
D90*
X964701Y597701D3*
D94*
X1003701Y549701D3*
X988701Y573701D3*
X982701Y585701D3*
D84*
X1003701Y537701D3*
D94*
X928701Y525701D3*
X916701Y537701D3*
X904701Y549701D3*
X892701Y561701D3*
D96*
X913701Y501701D3*
D94*
X940701Y513701D3*
X838701Y501701D3*
Y513701D3*
Y549701D3*
Y561701D3*
Y525701D3*
Y537701D3*
Y573701D3*
Y585701D3*
X952701Y561701D3*
X838701Y609701D3*
X868701Y585701D3*
X880701Y573701D3*
D88*
X847701Y597701D3*
D94*
X952701Y549701D3*
Y537701D3*
D84*
X955701Y525701D3*
D82*
X961701Y513701D3*
D94*
X1114701Y597701D3*
D82*
X1045701Y525701D3*
D84*
X1051701Y513701D3*
Y561701D3*
D82*
X1045701Y549701D3*
D163*
X787701Y510701D3*
D166*
Y537701D3*
D169*
Y564701D3*
D172*
Y591701D3*
M02*
