G04 DipTrace 3.2.0.1*
G04 BottomMask.gbr*
%MOIN*%
G04 #@! TF.FileFunction,Soldermask,Bot*
G04 #@! TF.Part,Single*
%AMOUTLINE4*
4,1,6,
-0.018937,-0.015937,
-0.018937,0.015937,
-0.005063,0.015937,
-0.005063,-0.002063,
0.018937,-0.002063,
0.018937,-0.015937,
-0.018937,-0.015937,
0*%
%AMOUTLINE7*
4,1,7,
-0.018937,-0.012937,
-0.018937,0.000937,
-0.018937,0.012937,
0.018937,0.012937,
0.018937,-0.004631,
0.010631,-0.012937,
0.003,-0.012937,
-0.018937,-0.012937,
0*%
%AMOUTLINE10*
4,1,8,
-0.018937,-0.015937,
-0.018937,0.015937,
0.006937,0.015937,
0.006937,0.009937,
0.018937,0.009937,
0.018937,-0.015937,
0.005063,-0.015937,
-0.006937,-0.015937,
-0.018937,-0.015937,
0*%
%AMOUTLINE13*
4,1,8,
-0.018937,-0.012937,
-0.018937,0.004631,
-0.010631,0.012937,
0.006937,0.012937,
0.018937,0.012937,
0.018937,-0.004631,
0.010631,-0.012937,
-0.006937,-0.012937,
-0.018937,-0.012937,
0*%
%ADD79C,0.207874*%
%ADD81R,0.013874X0.013874*%
%ADD83R,0.025874X0.013874*%
%ADD85R,0.043874X0.013874*%
%ADD87R,0.049874X0.013874*%
%ADD89R,0.055874X0.013874*%
%ADD91R,0.073874X0.013874*%
%ADD93R,0.031874X0.013874*%
%ADD95R,0.109874X0.013874*%
%ADD105C,0.057874*%
%ADD107O,0.05315X0.049213*%
%ADD109R,0.05315X0.049213*%
%ADD117R,0.057874X0.057874*%
%ADD119C,0.057874*%
%ADD131O,0.047244X0.059055*%
%ADD133R,0.047244X0.059055*%
%ADD145R,0.082677X0.086614*%
%ADD147O,0.057087X0.049213*%
%ADD162OUTLINE4*%
%ADD165OUTLINE7*%
%ADD168OUTLINE10*%
%ADD171OUTLINE13*%
%FSLAX26Y26*%
G04*
G70*
G90*
G75*
G01*
G04 BotMask*
%LPD*%
D147*
X2187701Y553701D3*
X2187692Y744646D3*
D145*
X2305811Y510394D3*
Y787953D3*
D133*
X742701Y625701D3*
D131*
X692701D3*
X642701D3*
X592701D3*
X542701D3*
D133*
X1889701Y793701D3*
D131*
X1939701D3*
X1989701D3*
X2039701D3*
X2089701D3*
D119*
X1601701Y1279701D3*
D117*
X1701701D3*
D109*
X1426701Y1261701D3*
D107*
Y1212488D3*
D133*
X434701Y436701D3*
D131*
X484701D3*
X534701D3*
X584701D3*
X634701D3*
X684701D3*
X734701D3*
X784701D3*
X834701D3*
X884701D3*
X934701D3*
X984701D3*
X1034701D3*
X1084701D3*
X1134701D3*
X1184701D3*
X1234701D3*
X1284701D3*
X1334701D3*
X1384701D3*
X1434701D3*
X1484701D3*
X1534701D3*
X1584701D3*
X1634701D3*
X1684701D3*
X1734701D3*
X1784701D3*
X1834701D3*
X1884701D3*
X1934701D3*
X1984701D3*
X2034701D3*
X2084701D3*
X2134701D3*
D117*
X466701Y675701D3*
Y618701D3*
D105*
X1092701Y883701D3*
X1052701Y815701D3*
X935701Y692701D3*
X993701Y727701D3*
X2298701Y952701D3*
X2299701Y891701D3*
X2297701Y1017701D3*
X2296701Y1081701D3*
X1801701Y792701D3*
D95*
X1129701Y501701D3*
D93*
X1168701Y513701D3*
Y549701D3*
Y561701D3*
Y525701D3*
Y537701D3*
Y573701D3*
Y585701D3*
X1102701D3*
X1090701Y573701D3*
X1168701Y597701D3*
D91*
X1147701Y609701D3*
D93*
X1078701Y561701D3*
X1066701Y549701D3*
X1054701Y537701D3*
X1066701Y525701D3*
X1078701Y513701D3*
X1054701Y501701D3*
Y573701D3*
Y585701D3*
D89*
X1042701Y597701D3*
D87*
X1045701Y609701D3*
D93*
X1024701Y585701D3*
X1018701Y573701D3*
D85*
X1003701Y561701D3*
D93*
X952701Y573701D3*
Y585701D3*
D87*
X961701Y609701D3*
D89*
X964701Y597701D3*
D93*
X1003701Y549701D3*
X988701Y573701D3*
X982701Y585701D3*
D83*
X1003701Y537701D3*
D93*
X928701Y525701D3*
X916701Y537701D3*
X904701Y549701D3*
X892701Y561701D3*
D95*
X913701Y501701D3*
D93*
X940701Y513701D3*
X838701Y501701D3*
Y513701D3*
Y549701D3*
Y561701D3*
Y525701D3*
Y537701D3*
Y573701D3*
Y585701D3*
X952701Y561701D3*
X838701Y609701D3*
X868701Y585701D3*
X880701Y573701D3*
D87*
X847701Y597701D3*
D93*
X952701Y549701D3*
Y537701D3*
D83*
X955701Y525701D3*
D81*
X961701Y513701D3*
D93*
X1114701Y597701D3*
D81*
X1045701Y525701D3*
D83*
X1051701Y513701D3*
Y561701D3*
D81*
X1045701Y549701D3*
D162*
X787701Y510701D3*
D165*
Y537701D3*
D168*
Y564701D3*
D171*
Y591701D3*
D79*
X2243701Y1218701D3*
X1218701D3*
M02*
