M48
INCH
T01C0.01
T02C0.0197
T03C0.0256
T04C0.0276
T05C0.028
T06C0.03
T07C0.0335
T08C0.035
T09C0.15
%
T01
X+016937Y+010397
X+016747Y+010597
X+016937Y+010787
X+016537Y+010803
X+016547Y+010397
X+016107Y+010137
X+016597Y+009487
X+017426Y+010167
X+017647Y+010277
X+017897Y+010777
X+018297Y+011227
X+017467Y+011257
X+017187Y+011477
X+016841Y+011707
X+015107Y+010827
X+015207Y+010147
X+015137Y+009847
X+015357Y+009147
X+014887Y+008977
X+014577Y+009197
X+014352Y+009072
X+013927Y+009317
X+012897Y+008867
X+012637Y+008867
X+012607Y+008137
X+012977Y+008137
X+013377Y+008177
X+013577Y+007897
X+013857Y+007802
X+013457Y+007597
X+013237Y+007797
X+013017Y+007637
X+013237Y+007062
X+013017Y+006607
X+013237Y+006457
X+013457Y+006267
X+014207Y+006457
X+014207Y+007177
X+014737Y+007777
X+014577Y+008197
X+015597Y+008197
X+015857Y+008157
X+016097Y+008027
X+016327Y+007867
X+016547Y+007737
X+016787Y+007597
X+016947Y+007407
X+017907Y+007357
X+018437Y+007867
X+018717Y+006697
X+018727Y+005807
X+018417Y+005797
X+017487Y+005667
X+016177Y+005367
X+015837Y+006317
X+015827Y+007217
X+013657Y+005097
X+012947Y+005027
X+012687Y+005027
X+011447Y+006817
X+010337Y+007737
X+009387Y+007818
X+009397Y+008078
X+009397Y+008858
X+009387Y+009117
X+008707Y+008598
X+008287Y+008147
X+006982Y+008337
X+005423Y+007777
X+011317Y+008307
X+011567Y+008437
X+011227Y+009937
X+011357Y+010607
X+012033Y+009957
X+020337Y+010587
X+020737Y+011237
X+021267Y+010387
X+022197Y+010637
X+022117Y+008817
X+021067Y+007017
X+021030Y+006641
X+021457Y+006237
X+020124Y+005980
X+019927Y+006617
X+020487Y+012807
T02
X+014267Y+012617
X+014267Y+012125
T03
X+021916Y+005537G85X+021838Y+005537
X+021916Y+007446G85X+021838Y+007446
T04
X+007427Y+006257
X+006927Y+006257
X+006427Y+006257
X+005927Y+006257
X+005427Y+006257
X+005347Y+004367
X+005847Y+004367
X+006347Y+004367
X+006847Y+004367
X+007347Y+004367
X+007847Y+004367
X+008347Y+004367
X+008847Y+004367
X+009347Y+004367
X+009847Y+004367
X+010347Y+004367
X+010847Y+004367
X+011347Y+004367
X+011847Y+004367
X+012347Y+004367
X+012847Y+004367
X+013347Y+004367
X+013847Y+004367
X+014347Y+004367
X+014847Y+004367
X+015347Y+004367
X+015847Y+004367
X+016347Y+004367
X+016847Y+004367
X+017347Y+004367
X+017847Y+004367
X+018347Y+004367
X+018847Y+004367
X+019347Y+004367
X+019847Y+004367
X+020347Y+004367
X+020847Y+004367
X+021347Y+004367
X+020897Y+007937
X+020397Y+007937
X+019897Y+007937
X+019397Y+007937
X+018897Y+007937
X+004847Y+004367
X+004347Y+004367
T05
X+016017Y+012797
X+017017Y+012797
T06
X+004667Y+006757
X+004667Y+006187
T07
X+023186Y+005104G85X+022930Y+005104
X+023186Y+007880G85X+022930Y+007880
T08
X+010927Y+008837
X+010527Y+008157
X+009937Y+007277
X+009357Y+006927
X+018017Y+007927
X+022997Y+008917
X+022987Y+009527
X+022977Y+010177
X+022967Y+010817
T09
X+022437Y+012187
X+012187Y+012187
T00
M30
