G04 DipTrace 3.2.0.1*
G04 TopMask.gbr*
%MOIN*%
G04 #@! TF.FileFunction,Soldermask,Top*
G04 #@! TF.Part,Single*
%AMOUTLINE1*
4,1,7,
0.004,-0.006937,
-0.004929,-0.006937,
-0.018803,0.0,
-0.004929,0.006937,
0.004,0.006937,
0.013937,0.006937,
0.013937,-0.006937,
0.004,-0.006937,
0*%
%ADD79C,0.207874*%
%ADD97R,0.013874X0.037874*%
%ADD99R,0.013874X0.027874*%
%ADD101R,0.013874X0.067874*%
%ADD103R,0.027874X0.013874*%
%ADD105C,0.057874*%
%ADD107O,0.05315X0.049213*%
%ADD109R,0.05315X0.049213*%
%ADD111R,0.045276X0.047244*%
%ADD113R,0.041339X0.015748*%
%ADD115R,0.015748X0.041339*%
%ADD117R,0.057874X0.057874*%
%ADD119C,0.057874*%
%ADD121R,0.051181X0.047244*%
%ADD123R,0.066929X0.066929*%
%ADD125O,0.041339X0.019685*%
%ADD127O,0.019685X0.041339*%
%ADD129R,0.031496X0.051181*%
%ADD131O,0.047244X0.059055*%
%ADD133R,0.047244X0.059055*%
%ADD135R,0.047244X0.051181*%
%ADD137R,0.055118X0.070866*%
%ADD139R,0.051181X0.031496*%
%ADD141R,0.082677X0.07874*%
%ADD143R,0.061024X0.023622*%
%ADD145R,0.082677X0.086614*%
%ADD147O,0.057087X0.049213*%
%ADD149R,0.024016X0.055118*%
%ADD151R,0.05315X0.024016*%
%ADD153R,0.055118X0.024016*%
%ADD159OUTLINE1*%
%FSLAX26Y26*%
G04*
G70*
G90*
G75*
G01*
G04 TopMask*
%LPD*%
D153*
X905701Y989701D3*
Y963717D3*
Y937732D3*
Y911748D3*
Y885764D3*
Y859780D3*
Y833795D3*
Y807811D3*
D151*
X906488Y781827D3*
D149*
X854126Y743244D3*
X828142D3*
X802158D3*
X776173D3*
X750189D3*
X724205D3*
X698221D3*
X672236D3*
X646252D3*
X620268D3*
X594284D3*
X568299D3*
X542315D3*
X516331D3*
D151*
X463969Y781827D3*
D153*
X464756Y807811D3*
Y833795D3*
Y859780D3*
Y885764D3*
Y911748D3*
Y937732D3*
Y963717D3*
Y989701D3*
D147*
X2187701Y553701D3*
X2187692Y744646D3*
D145*
X2305811Y510394D3*
Y787953D3*
D143*
X2200299Y597992D3*
Y623583D3*
Y649173D3*
Y674764D3*
Y700355D3*
D141*
X2305614Y603780D3*
Y694370D3*
D139*
X2061701Y626701D3*
Y664103D3*
Y701504D3*
X1955402D3*
Y664103D3*
Y626701D3*
D137*
X1829701Y1046701D3*
X1947811D3*
D135*
X1892701Y659701D3*
Y592772D3*
D133*
X742701Y625701D3*
D131*
X692701D3*
X642701D3*
X592701D3*
X542701D3*
D129*
X2211701Y1013701D3*
X2174299D3*
X2136898D3*
Y907402D3*
X2211701D3*
D133*
X1889701Y793701D3*
D131*
X1939701D3*
X1989701D3*
X2039701D3*
X2089701D3*
D127*
X1644701Y1002701D3*
X1664386D3*
X1684071D3*
X1703756D3*
D125*
X1731315Y1030260D3*
Y1049945D3*
Y1069630D3*
Y1089315D3*
D127*
X1703756Y1116874D3*
X1684071D3*
X1664386D3*
X1644701D3*
D125*
X1617142Y1089315D3*
Y1069630D3*
Y1049945D3*
Y1030260D3*
D123*
X1674229Y1059788D3*
D135*
X1828701Y913701D3*
Y980630D3*
D121*
X1889701Y979701D3*
X1956630D3*
X2024701Y912701D3*
X1957772D3*
D135*
X2023701Y977701D3*
Y1044630D3*
D137*
X1828701Y1269701D3*
X1946811D3*
D135*
X1829701Y1133701D3*
Y1200630D3*
D121*
X1894701Y1200701D3*
X1961630D3*
X2028701Y1134701D3*
X1961772D3*
D135*
X2027701Y1198701D3*
Y1265630D3*
D121*
X1610701Y933701D3*
X1677630D3*
D135*
X1552701Y1156701D3*
Y1089772D3*
D119*
X1601701Y1279701D3*
D117*
X1701701D3*
D135*
X1472701Y1133701D3*
Y1066772D3*
D115*
X1227717Y541189D3*
X1243465D3*
X1259213D3*
X1274961D3*
X1290709D3*
X1306457D3*
X1322205D3*
X1337953D3*
X1353701D3*
X1369449D3*
X1385197D3*
X1400945D3*
X1416693D3*
X1432441D3*
X1448189D3*
X1463937D3*
X1479685D3*
D113*
X1509213Y570717D3*
Y586465D3*
Y602213D3*
Y617961D3*
Y633709D3*
Y649457D3*
Y665205D3*
Y680953D3*
Y696701D3*
Y712449D3*
Y728197D3*
Y743945D3*
Y759693D3*
Y775441D3*
Y791189D3*
Y806937D3*
Y822685D3*
D115*
X1479685Y852213D3*
X1463937D3*
X1448189D3*
X1432441D3*
X1416693D3*
X1400945D3*
X1385197D3*
X1369449D3*
X1353701D3*
X1337953D3*
X1322205D3*
X1306457D3*
X1290709D3*
X1274961D3*
X1259213D3*
X1243465D3*
X1227717D3*
D113*
X1198189Y822685D3*
Y806937D3*
Y791189D3*
Y775441D3*
Y759693D3*
Y743945D3*
Y728197D3*
Y712449D3*
Y696701D3*
Y680953D3*
Y665205D3*
Y649457D3*
Y633709D3*
Y617961D3*
Y602213D3*
Y586465D3*
Y570717D3*
D111*
X849701Y678701D3*
X786709D3*
D121*
X1653701Y706701D3*
X1586772D3*
X1309701Y922701D3*
X1376630D3*
X1653701Y646701D3*
X1586772D3*
X1750701Y614701D3*
X1817630D3*
X1750701Y661701D3*
X1817630D3*
D109*
X1426701Y1261701D3*
D107*
Y1212488D3*
D133*
X434701Y436701D3*
D131*
X484701D3*
X534701D3*
X584701D3*
X634701D3*
X684701D3*
X734701D3*
X784701D3*
X834701D3*
X884701D3*
X934701D3*
X984701D3*
X1034701D3*
X1084701D3*
X1134701D3*
X1184701D3*
X1234701D3*
X1284701D3*
X1334701D3*
X1384701D3*
X1434701D3*
X1484701D3*
X1534701D3*
X1584701D3*
X1634701D3*
X1684701D3*
X1734701D3*
X1784701D3*
X1834701D3*
X1884701D3*
X1934701D3*
X1984701D3*
X2034701D3*
X2084701D3*
X2134701D3*
D121*
X1195701Y922701D3*
X1262630D3*
D135*
X990236Y901236D3*
Y968166D3*
D121*
X1222701Y1063701D3*
X1155772D3*
D135*
X1735701Y871701D3*
Y938630D3*
D117*
X466701Y675701D3*
Y618701D3*
D105*
X1092701Y883701D3*
X1052701Y815701D3*
X935701Y692701D3*
X993701Y727701D3*
X2298701Y952701D3*
X2299701Y891701D3*
X2297701Y1017701D3*
X2296701Y1081701D3*
X1801701Y792701D3*
D103*
X2127701Y813701D3*
D101*
X2140512Y840575D3*
D99*
X2151449Y813638D3*
D103*
X2164449D3*
D99*
X2151449Y839638D3*
Y865638D3*
D159*
X2164449Y839638D3*
D103*
Y865638D3*
D101*
X2177512Y812575D3*
D103*
X2177449Y779638D3*
D97*
X2177512Y877575D3*
D79*
X2243701Y1218701D3*
X1218701D3*
M02*
