G04 DipTrace 3.2.0.1*
G04 TopPaste.gbr*
%MOIN*%
G04 #@! TF.FileFunction,Paste,Top*
G04 #@! TF.Part,Single*
%AMOUTLINE2*
4,1,7,
0.004,0.000937,
-0.003071,0.000937,
-0.001197,0.0,
-0.003071,-0.000937,
0.004,-0.000937,
0.006063,-0.000937,
0.006063,0.000937,
0.004,0.000937,
0*%
%ADD98R,-0.001874X0.022126*%
%ADD100R,-0.001874X0.012126*%
%ADD102R,-0.001874X0.052126*%
%ADD104R,0.012126X-0.001874*%
%ADD112R,0.029528X0.031496*%
%ADD114R,0.025591X0.0*%
%ADD116R,0.0X0.025591*%
%ADD122R,0.035433X0.031496*%
%ADD124R,0.051181X0.051181*%
%ADD126O,0.025591X0.003937*%
%ADD128O,0.003937X0.025591*%
%ADD130R,0.015748X0.035433*%
%ADD136R,0.031496X0.035433*%
%ADD138R,0.03937X0.055118*%
%ADD140R,0.035433X0.015748*%
%ADD142R,0.066929X0.062992*%
%ADD144R,0.045276X0.007874*%
%ADD150R,0.008268X0.03937*%
%ADD152R,0.037402X0.008268*%
%ADD154R,0.03937X0.008268*%
%ADD160OUTLINE2*%
%FSLAX26Y26*%
G04*
G70*
G90*
G75*
G01*
G04 TopPaste*
%LPD*%
D154*
X905701Y989701D3*
Y963717D3*
Y937732D3*
Y911748D3*
Y885764D3*
Y859780D3*
Y833795D3*
Y807811D3*
D152*
X906488Y781827D3*
D150*
X854126Y743244D3*
X828142D3*
X802158D3*
X776173D3*
X750189D3*
X724205D3*
X698221D3*
X672236D3*
X646252D3*
X620268D3*
X594284D3*
X568299D3*
X542315D3*
X516331D3*
D152*
X463969Y781827D3*
D154*
X464756Y807811D3*
Y833795D3*
Y859780D3*
Y885764D3*
Y911748D3*
Y937732D3*
Y963717D3*
Y989701D3*
D144*
X2200299Y597992D3*
Y623583D3*
Y649173D3*
Y674764D3*
Y700355D3*
D142*
X2305614Y603780D3*
Y694370D3*
D140*
X2061701Y626701D3*
Y664103D3*
Y701504D3*
X1955402D3*
Y664103D3*
Y626701D3*
D138*
X1829701Y1046701D3*
X1947811D3*
D136*
X1892701Y659701D3*
Y592772D3*
D130*
X2211701Y1013701D3*
X2174299D3*
X2136898D3*
Y907402D3*
X2211701D3*
D128*
X1644701Y1002701D3*
X1664386D3*
X1684071D3*
X1703756D3*
D126*
X1731315Y1030260D3*
Y1049945D3*
Y1069630D3*
Y1089315D3*
D128*
X1703756Y1116874D3*
X1684071D3*
X1664386D3*
X1644701D3*
D126*
X1617142Y1089315D3*
Y1069630D3*
Y1049945D3*
Y1030260D3*
D124*
X1674229Y1059788D3*
D136*
X1828701Y913701D3*
Y980630D3*
D122*
X1889701Y979701D3*
X1956630D3*
X2024701Y912701D3*
X1957772D3*
D136*
X2023701Y977701D3*
Y1044630D3*
D138*
X1828701Y1269701D3*
X1946811D3*
D136*
X1829701Y1133701D3*
Y1200630D3*
D122*
X1894701Y1200701D3*
X1961630D3*
X2028701Y1134701D3*
X1961772D3*
D136*
X2027701Y1198701D3*
Y1265630D3*
D122*
X1610701Y933701D3*
X1677630D3*
D136*
X1552701Y1156701D3*
Y1089772D3*
X1472701Y1133701D3*
Y1066772D3*
D116*
X1227717Y541189D3*
X1243465D3*
X1259213D3*
X1274961D3*
X1290709D3*
X1306457D3*
X1322205D3*
X1337953D3*
X1353701D3*
X1369449D3*
X1385197D3*
X1400945D3*
X1416693D3*
X1432441D3*
X1448189D3*
X1463937D3*
X1479685D3*
D114*
X1509213Y570717D3*
Y586465D3*
Y602213D3*
Y617961D3*
Y633709D3*
Y649457D3*
Y665205D3*
Y680953D3*
Y696701D3*
Y712449D3*
Y728197D3*
Y743945D3*
Y759693D3*
Y775441D3*
Y791189D3*
Y806937D3*
Y822685D3*
D116*
X1479685Y852213D3*
X1463937D3*
X1448189D3*
X1432441D3*
X1416693D3*
X1400945D3*
X1385197D3*
X1369449D3*
X1353701D3*
X1337953D3*
X1322205D3*
X1306457D3*
X1290709D3*
X1274961D3*
X1259213D3*
X1243465D3*
X1227717D3*
D114*
X1198189Y822685D3*
Y806937D3*
Y791189D3*
Y775441D3*
Y759693D3*
Y743945D3*
Y728197D3*
Y712449D3*
Y696701D3*
Y680953D3*
Y665205D3*
Y649457D3*
Y633709D3*
Y617961D3*
Y602213D3*
Y586465D3*
Y570717D3*
D112*
X849701Y678701D3*
X786709D3*
D122*
X1653701Y706701D3*
X1586772D3*
X1309701Y922701D3*
X1376630D3*
X1653701Y646701D3*
X1586772D3*
X1750701Y614701D3*
X1817630D3*
X1750701Y661701D3*
X1817630D3*
X1195701Y922701D3*
X1262630D3*
D136*
X990236Y901236D3*
Y968166D3*
D122*
X1222701Y1063701D3*
X1155772D3*
D136*
X1735701Y871701D3*
Y938630D3*
D104*
X2127701Y813701D3*
D102*
X2140512Y840575D3*
D100*
X2151449Y813638D3*
D104*
X2164449D3*
D100*
X2151449Y839638D3*
Y865638D3*
D160*
X2164449Y839638D3*
D104*
Y865638D3*
D102*
X2177512Y812575D3*
D104*
X2177449Y779638D3*
D98*
X2177512Y877575D3*
M02*
